<?xml version="1.0" encoding="UTF-8" standalone="no"?>
<!-- Created with Inkscape (http://www.inkscape.org/) -->

<svg
   width="179.83711mm"
   height="133.7202mm"
   viewBox="0 0 179.83711 133.72017"
   version="1.1"
   id="svg1"
   xmlns="http://www.w3.org/2000/svg"
   xmlns:svg="http://www.w3.org/2000/svg">
  <defs
     id="defs1">
    <filter
       x="-0.16533962"
       width="1.3536087"
       y="-0.075816642"
       height="1.1306941"
       style="color-interpolation-filters:sRGB"
       id="filter68">
      <feGaussianBlur
         in="SourceGraphic"
         stdDeviation="6.009 2.184"
         result="result8"
         id="feGaussianBlur63" />
      <feComposite
         in2="result8"
         operator="xor"
         result="result19"
         id="feComposite63" />
      <feComposite
         k2="1"
         operator="arithmetic"
         result="result17"
         in2="result8"
         id="feComposite64"
         k1="0"
         k3="0"
         k4="0" />
      <feOffset
         result="result18"
         in="result8"
         id="feOffset64"
         dx="2"
         dy="-2" />
      <feDisplacementMap
         in2="result17"
         in="result18"
         xChannelSelector="A"
         yChannelSelector="A"
         scale="31"
         result="result4"
         id="feDisplacementMap64" />
      <feComposite
         in2="result4"
         result="result2"
         operator="arithmetic"
         in="SourceGraphic"
         k1="0"
         k3="1"
         id="feComposite65"
         k2="0"
         k4="0" />
      <feComposite
         in2="SourceGraphic"
         result="fbSourceGraphic"
         in="result2"
         operator="in"
         id="feComposite66" />
      <feComposite
         in2="SourceGraphic"
         operator="in"
         result="result15"
         id="feComposite67" />
      <feComposite
         result="result16"
         in2="SourceGraphic"
         operator="in"
         in="result15"
         id="feComposite68" />
    </filter>
  </defs>
  <g
     id="layer1"
     transform="translate(68.808883,-6.5206048)">
    <path
       id="path207"
       d="M 20.147494,7.1219051 C 2.5522939,18.818715 -18.361155,24.609085 -39.24578,26.526925 c -1.190163,7.20085 -1.087214,14.09053 5.729984,17.88892 4.465865,8.95735 -8.854132,4.05611 -13.562381,5.27274 -6.820111,0.0158 -13.642923,-0.029 -20.459415,0.23404 -0.729356,14.50717 -1.062609,29.0479 -0.456705,43.5661 10.773762,1.33789 21.775641,-1.30104 32.462153,0.88917 7.410526,3.74718 -10.862087,9.131695 -1.326084,13.123605 16.664659,12.2286 34.7167329,22.69538 53.733423,30.793 10.592292,4.41554 21.032685,-2.13824 29.556201,-7.90421 7.820168,-4.90723 15.810978,-9.51279 22.780628,-15.63086 4.00754,-5.25867 15.973268,-7.23705 14.054088,-14.65578 -3.30737,-2.642905 -8.933268,-7.875315 -0.72691,-6.535765 9.31216,-0.34087 18.634138,-0.0692 27.946938,-0.38538 -0.84994,-10.14998 -0.47107,-20.40154 -1.09636,-30.58665 -0.0848,-6.69003 1.12227,-15.57711 -8.21864,-13.90103 -9.462208,-0.85929 -18.964178,-0.1666 -28.443696,-0.16663 -1.64481,-7.57542 11.266288,-9.32472 7.708428,-17.52207 -3.181638,-10.20096 -17.213818,-6.08563 -25.193738,-9.65404 -12.357065,-2.78889 -24.522261,-7.13311 -35.09464,-14.2301799 z"
       style="opacity:0.84;fill:#000000;fill-opacity:1;stroke:#947600;stroke-opacity:1" />
    <g
       id="g1"
       transform="translate(-5.7434334,9.7183081)">
      <g
         id="g6"
         transform="matrix(0.85184826,0.10114425,-0.10114425,0.85184826,24.128586,-69.943268)"
         style="display:inline;stroke-width:1.34991;stroke-dasharray:none">
        <path
           d="m -41.494602,144.59696 c -2.79974,-1.39987 -14.34626,-4.10487 -15.046195,-8.30448 -0.979909,-6.29941 3.760367,-10.66125 7.400029,-8.70144 6.99935,3.49968 13.018791,11.19896 17.358388,17.77835 3.919636,5.87946 16.79844,4.75956 14.698635,-4.19961 -1.819831,-7.41931 -0.699935,-15.53855 1.119896,-22.81788 2.239792,-9.09915 -12.458843,-13.71872 -14.698635,-5.03953 -0.419961,1.53986 -0.699935,3.07971 -0.979909,4.61957 -0.160131,2.39226 -0.217868,1.59632 -0.839922,3.77965 -5.459493,-5.87945 -12.878804,-9.51912 -20.438102,-10.49902 -13.858713,-1.67985 -28.990174,21.13834 -19.191084,35.557 3.966335,8.19336 26.742725,14.29791 32.25581,20.10601 10.19217,7.06316 10.722621,15.61314 -7.872271,14.70695 -9.70211,-0.99769 -7.616738,0.26131 -19.729868,-2.15537 -10.492861,-5.48917 -46.23777,-51.60615 -27.295431,-13.22971 3.866991,7.83437 4.746896,9.74729 2.547864,23.35155 -1.912558,11.832 4.010752,7.73314 25.819291,8.8386 20.069237,1.01729 25.646394,3.62263 39.626732,-1.46849 8.123334,-5.93281 10.634458,-7.97264 11.231957,-16.11909 -2.864016,-18.77464 -9.615852,-23.81401 -25.967185,-36.20306 z"
           id="text5"
           style="font-size:139.987px;line-height:1;font-family:'Sivar Pro';-inkscape-font-specification:'Sivar Pro';letter-spacing:3.49616px;word-spacing:0px;text-orientation:upright;display:inline;fill:#b3b3b3;stroke:#cccccc;stroke-width:2.39907;stroke-dasharray:none"
           transform="rotate(-9.2845699,-5.4443177,-320.13514)"
           aria-label="S" />
        <path
           d="m 22.006899,153.06562 c -2.930481,-1.10021 -14.6961628,-2.58611 -15.8303165,-6.6898 -1.6316184,-6.16285 2.6278438,-10.99532 6.4520695,-9.42584 7.326202,2.75053 14.115877,9.77997 19.11806,15.87083 4.511508,5.43856 17.203254,2.98145 14.180424,-5.70983 -2.583769,-7.18903 -2.316851,-15.38079 -1.266211,-22.81023 1.278497,-9.28314 -13.821804,-12.34438 -15.144104,-3.47891 -0.257056,1.57526 -0.374891,3.13591 -0.492724,4.69658 0.09026,2.39591 -0.05018,1.61034 -0.441107,3.84664 -6.042965,-5.27793 -13.801439,-8.12389 -21.4217125,-8.30998 -13.9583352,-0.22516 -26.6272305,24.04684 -15.3776644,37.36477 4.7993015,7.73496 28.0881859,11.43054 34.1770079,16.63192 10.873293,5.96155 12.292649,14.40957 -6.295336,15.44784 -9.7532522,0.0197 -7.547936,1.05435 -19.84706405,-0.0857 C -11.189949,186.04913 -51.550076,143.91203 -28.708239,180.10338 c 4.663055,7.3883 5.737686,9.19901 4.969629,22.95843 -0.668,11.96695 4.795474,7.27262 26.6003608,6.09733 20.0658762,-1.08156 25.8843592,0.92785 39.2574162,-5.59371 7.460209,-6.74775 9.744873,-9.03837 9.489405,-17.20271 -4.806666,-18.3735 -12.047301,-22.68114 -29.601673,-33.2971 z"
           id="path6"
           style="display:inline;fill:#4d4d4d;stroke:#b3b3b3;stroke-width:0;stroke-dasharray:none;stroke-opacity:1;filter:url(#filter68)"
           transform="rotate(-3.2974956,-123.85136,-58.880968)" />
      </g>
    </g>
    <rect
       style="fill:none;stroke-width:2.1373"
       id="rect1"
       width="90.107841"
       height="94.096077"
       x="-24.88703"
       y="22.046926" />
  </g>
</svg>
