<?xml version="1.0" encoding="UTF-8" standalone="no"?>
<!-- Created with Inkscape (http://www.inkscape.org/) -->

<svg
   width="185.60098mm"
   height="201.04356mm"
   viewBox="0 0 185.60098 201.04352"
   version="1.1"
   id="svg1"
   xmlns="http://www.w3.org/2000/svg"
   xmlns:svg="http://www.w3.org/2000/svg">
  <defs
     id="defs1">
    <filter
       style="color-interpolation-filters:sRGB"
       id="filter103"
       x="-0.71341396"
       y="-0.59356212"
       width="2.4268279"
       height="2.1871242">
      <feBlend
         in2="SourceGraphic"
         result="result5"
         mode="multiply"
         in="result10"
         id="feBlend101" />
      <feComposite
         in2="SourceGraphic"
         in="result5"
         result="fbSourceGraphic"
         operator="over"
         id="feComposite101" />
      <feGaussianBlur
         stdDeviation="3"
         result="result10"
         id="feGaussianBlur101" />
      <feGaussianBlur
         result="result9"
         stdDeviation="9"
         id="feGaussianBlur102" />
      <feSpecularLighting
         in="result9"
         result="result1"
         lighting-color="#ffffff"
         surfaceScale="1"
         specularConstant="2"
         specularExponent="60"
         id="feSpecularLighting102">
        <fePointLight
           x="-5000"
           y="-10000"
           z="20000"
           id="fePointLight102" />
      </feSpecularLighting>
      <feComposite
         in2="fbSourceGraphic"
         in="result1"
         result="result2"
         operator="in"
         id="feComposite102" />
      <feGaussianBlur
         result="result9"
         stdDeviation="1"
         id="feGaussianBlur103" />
      <feComposite
         in="result9"
         result="result4"
         operator="arithmetic"
         k2="2"
         k3="0.8"
         in2="fbSourceGraphic"
         id="feComposite103"
         k1="0"
         k4="0" />
      <feBlend
         in="result4"
         mode="multiply"
         id="feBlend103" />
    </filter>
  </defs>
  <g
     id="layer1"
     transform="translate(344.67538,10.360971)">
    <g
       id="g29"
       transform="matrix(1.2628396,0,0,1.2628396,62.643427,-40.449839)">
      <path
         d="m -272.8094,69.321118 h 2.14682 l 0.57249,0.62019 q 3.10094,-0.47707 4.86611,-0.47707 h 0.47707 q 2.52846,0 3.91197,3.05325 0.52477,0.62019 1.3835,0.90643 0,1.04955 3.91197,1.04955 2.28992,1.81286 2.28992,3.95969 1.57433,-0.90644 3.62574,-0.90644 1.71744,0 3.67343,1.3358 h 0.57248 q 5.00924,0 5.00924,-1.3358 0.28623,-1.24039 0.28623,-2.00369 -0.62018,0 -0.90643,-2.09911 0,-0.47707 2.00369,-0.76331 h 0.42936 q 0.33396,0 0.33396,0.62019 h 0.14311 q 2.62389,-3.67344 3.48261,-3.67344 0.23854,-0.14312 0.90643,-0.14312 2.48076,0 5.77255,0.47707 0.19083,-0.62019 0.42936,-0.62019 h 1.95599 q 4.57986,0.52478 4.57986,1.38351 v 1.33579 q 0,1.3835 -1.24037,1.3835 h -0.71562 q -5.34318,-1.00184 -5.34318,-2.28993 -2.43304,-0.28625 -4.81839,-0.42936 -1.66975,0 -3.05325,2.71929 2.48076,0 4.24592,1.3358 5.39089,1.66974 5.77255,2.00368 0,0.66791 3.4826,1.19269 v 0.7633 q 0,0.33395 -0.76332,0.47707 -0.81101,-0.62019 -2.43305,-0.62019 0,1.04955 -1.95599,1.04955 0,-0.23853 -4.86611,-1.52662 0,-0.57248 -4.10279,-1.04955 -0.42936,1.71744 -3.62572,3.48261 -1.09727,0.28624 -1.52662,0.28624 l 0.19082,0.76331 q 0,1.14496 -0.19082,7.58541 0.90642,-0.76332 1.52662,-0.76332 h 0.47707 q 2.0991,0.33395 2.0991,1.81287 v 0.95414 q -0.33395,1.81287 -1.81287,1.81287 h -0.90643 q -0.52478,0 -1.04955,-0.47707 0,0.47707 -0.47707,2.57617 v 4.38904 q 0.90643,0.0476 0.90643,0.906432 -0.14311,0.62019 -0.57248,0.62019 v 0.14312 q 0.57248,0 0.90643,0.6202 v 0.14311 q 0,0.33396 -0.19083,0.62019 0.14313,0.90643 1.24039,1.52662 0.14311,0.42936 0.28624,0.42936 l -0.14313,1.04956 v 1.52662 l -0.47707,0.6202 v 0.42936 q 0.14313,1.81285 1.24039,2.91011 v 0.42937 q -0.47707,6.53586 -0.47707,7.44229 1.09726,0.7633 1.09726,1.19267 h 1.19266 q 0.28625,0.0476 0.28625,0.33395 v 4.24591 q 0,0.19084 -0.7633,0.76332 h -1.19268 l 0.14311,0.76332 v 0.71559 q 0,1.43121 -2.0991,1.66974 h -0.76332 q -2.28992,-0.23853 -2.28992,-2.0991 v -0.47707 l 0.14312,-0.7633 h -1.19267 q 0.28623,1.09725 0.28623,1.24037 v 0.14312 q 0,0.52479 -0.42936,1.04956 v 4.10279 q 0,1.04955 0.14313,3.33949 -0.14313,0 -1.81287,1.81287 -0.85873,0.62019 -2.7193,0.7633 l -0.7633,-0.14311 -0.76332,0.14311 q -2.91013,0 -4.24591,-2.71928 v -0.62021 q 0,-1.66973 -0.14313,-2.0991 0.14313,-1.43121 0.14313,-2.767 v -4.05509 q 0,-0.33395 -0.28625,-0.33395 h -0.95414 l -0.28625,0.14313 0.14313,1.09725 q 0,2.0991 -2.09911,2.0991 h -1.24037 q -1.76517,0 -1.95599,-2.57617 0,-0.23854 0.28623,-0.76331 h -1.47891 q -0.23853,0 -0.7633,-0.76331 v -2.86242 q 0,-1.66975 0.42936,-1.66975 h 1.52662 q 0,-0.38164 0.90644,-1.04955 0,-2.24222 -0.28625,-7.15603 0,-0.66791 0.76331,-1.81287 0.14312,-1.28809 1.04956,-2.24223 -0.28625,-0.52478 -0.28625,-0.90644 v -1.81285 q 0,-0.95414 1.19268,-1.52662 l -0.28625,-0.47707 q 0.23854,0 0.42937,-0.28625 l -0.14312,-0.33395 v -0.28624 q 0.47707,-0.57248 0.47707,-1.3358 v -7.299162 q -0.52478,-0.7633 -0.6202,-0.7633 -0.95414,0.28623 -1.52662,0.28623 -1.71744,0 -2.0991,-2.24222 0.28624,-2.43305 2.38535,-2.43305 1.00184,0.0478 2.00369,1.04955 v -3.33949 q 0,-0.76332 0.14311,-2.24223 -0.28623,0 -0.28623,-0.33394 v -1.95599 l 0.7156,-0.90643 q -2.0991,0 -2.57617,-3.95968 -0.90644,0.47707 -5.15236,0.90642 0,0.42937 -3.91197,1.38351 l -1.38351,0.47707 q -1.66973,-0.23853 -1.66973,-1.24037 -1.3358,0.19082 -1.81287,0.62018 h -0.42937 q -0.23852,0 -0.47707,-0.47707 v -0.42936 q 0,-0.23853 0.62021,-0.62019 l 0.57248,0.14312 q 1.43121,0 2.28993,-1.3358 0.7156,0 6.2019,-1.66974 0,-0.52477 2.76701,-0.90643 -1.24039,-2.43306 -2.28994,-2.43306 l -0.7633,-0.14311 q -5.00925,0.19082 -5.00925,0.90643 -2.28992,1.81286 -5.00922,1.81286 h -1.04955 q -0.90644,-0.52477 -0.90644,-1.3835 v -1.33579 q 0,-0.85873 4.38904,-1.38351 z m 14.69374,5.62942 q 0.47707,3.62573 2.14682,3.62573 0.57249,0.14312 1.33579,0.14312 h 0.6202 v -0.14312 q -0.42936,-3.62573 -4.10281,-3.62573 z m 20.03692,1.95599 -0.14311,0.76331 v 0.14311 q 0.19082,0 0.71561,-0.90642 z"
         id="text29"
         style="font-size:70.5556px;line-height:1;font-family:'Harley Davidson';-inkscape-font-specification:'Harley Davidson';letter-spacing:1.76212px;word-spacing:0px;text-orientation:upright;display:inline;opacity:0.748159;fill:#c48800;stroke:#ffffff;stroke-width:1.99026;stroke-linejoin:bevel;stroke-dasharray:none;stroke-dashoffset:0;paint-order:markers stroke fill"
         aria-label="B" />
      <path
         id="path97"
         style="font-style:normal;font-variant:normal;font-weight:normal;font-stretch:normal;font-size:70.5556px;line-height:1;font-family:'Harley Davidson';-inkscape-font-specification:'Harley Davidson';letter-spacing:1.76212px;word-spacing:0px;writing-mode:lr-tb;direction:ltr;text-orientation:upright;opacity:0.58;fill:#dcb430;fill-opacity:1;stroke:none;stroke-width:1.437;stroke-linecap:butt;stroke-linejoin:bevel;stroke-dasharray:2.874, 1.437, 0.7185, 1.437;stroke-dashoffset:0;stroke-opacity:1;paint-order:markers stroke fill;filter:url(#filter103)"
         d="m -233.81572,87.469496 c -3.52567,-1.047804 -7.90653,3.199122 -3.96404,5.718818 2.34398,-0.276872 -1.29873,3.464228 1.84856,3.901508 2.66473,0.58569 5.4028,0.17819 8.04223,-0.98029 2.6042,-1.05343 3.28398,3.76447 2.2185,4.985478 -3.49278,0.22272 -3.5474,6.01236 -0.0434,6.29374 1.40674,2.24772 -0.61279,5.56179 -0.84474,8.16612 -1.3067,2.57595 -0.70633,6.10604 -1.3108,8.42359 -2.77675,1.02086 -1.94757,5.71302 -0.0255,7.13697 0.45119,3.52554 6.04447,0.10703 4.55382,4.11103 -0.30891,4.52605 5.86273,5.8637 8.83364,3.48214 3.26397,-1.13759 -0.40809,-6.68685 3.44901,-5.50952 2.96788,-0.93644 4.55286,-4.35608 3.93401,-7.42664 -0.28854,-1.80704 -2.87269,-1.40644 -1.66802,-3.74845 0.36425,-2.98933 -0.86238,-5.44836 -0.54409,-8.40252 -0.98848,-2.13662 -3.22172,-6.29016 0.42402,-6.7357 2.5451,-2.13335 0.22716,-5.33855 -1.87056,-6.12069 -0.63395,-2.389768 2.0385,-4.055828 3.77117,-4.490048 2.98491,1.49585 6.05405,1.6703 9.07085,1.05359 3.33696,-1.84683 -1.71042,-4.488236 -1.84351,-4.14738 2.96969,1.58937 5.634,-2.562645 3.2816,-4.670147 -2.86135,-1.823807 -6.17093,-0.380062 -9.24073,-0.928306 -2.8636,-0.189091 -4.0606,2.769966 -6.74101,3.087137 -1.7683,1.292708 1.42872,4.390106 -1.82885,3.694966 -2.60574,-1.3033 -5.43603,-0.13415 -7.0534,-2.855098 -3.78943,0.373854 -4.6956,-5.113448 -8.79641,-3.888012 -1.28983,0.387761 -2.38811,-0.0916 -3.65231,-0.152286 z m 29.57617,4.091797 c 1.45252,0.05594 1.96809,0.976066 0,0 z m -27.04492,0.07422 -0.37726,0.08277 z m 30.88672,2.263669 c 0.40338,0.18392 -0.0236,0.40524 0,0 z"
         transform="matrix(1.3847779,0,0,1.3847779,52.089276,-53.868549)" />
      <path
         id="path129-8"
         style="font-size:70.5556px;line-height:1;font-family:'Harley Davidson';-inkscape-font-specification:'Harley Davidson';letter-spacing:1.76212px;word-spacing:0px;text-orientation:upright;opacity:0.84;fill:none;stroke:#0f0d02;stroke-width:0.655;stroke-linejoin:bevel;stroke-dasharray:none;stroke-opacity:1"
         d="m -282.05375,47.201732 c -3.71269,0.443909 -5.56874,1.028757 -5.56874,1.755152 v 1.695235 c 0,0.726414 0.38275,1.31126 1.14952,1.755169 h 1.33203 c 2.30026,0 4.41892,-0.766439 6.35601,-2.299954 0,-0.605332 2.11866,-0.989009 6.35599,-1.15045 l 0.96882,0.181612 c 0.88782,0 1.85636,1.029072 2.90561,3.087198 -2.34063,0.322847 -3.51124,0.706523 -3.51124,1.150434 -4.64088,1.41245 -7.26429,2.118358 -7.86964,2.118358 -0.72639,1.129946 -1.69491,1.695235 -2.90559,1.695235 l -0.72638,-0.181611 c -0.52464,0.322846 -0.78634,0.585479 -0.78634,0.787244 v 0.544801 c 0.20178,0.40355 0.40295,0.604719 0.60472,0.604719 h 0.5448 c 0.40356,-0.36319 1.17092,-0.624907 2.30088,-0.78633 0,0.847476 0.70592,1.37179 2.11837,1.573574 l 1.75515,-0.605633 c 3.30916,-0.807115 4.96403,-1.391963 4.96403,-1.755168 3.59164,-0.363207 5.77085,-0.746885 6.53758,-1.150434 0.40357,3.349513 1.49316,5.024858 3.26881,5.024858 l -0.90801,1.149537 v 2.482463 c 0,0.282487 0.12107,0.423122 0.3632,0.423122 -0.12106,1.251028 -0.18161,2.199994 -0.18161,2.845669 v 4.236718 c -0.84747,-0.847406 -1.69492,-1.290701 -2.54239,-1.331114 -1.77564,0 -2.78421,1.029053 -3.02634,3.087198 0.32283,1.896702 1.21034,2.844755 2.66315,2.844755 0.48427,0 1.12965,-0.121063 1.93676,-0.363208 0.0806,0 0.34333,0.323163 0.78723,0.968841 v 9.261594 c 0,0.64569 -0.20209,1.21005 -0.60563,1.694324 v 0.363181 l 0.18159,0.424045 c -0.16147,0.242138 -0.34301,0.363201 -0.54479,0.363201 l 0.3632,0.605637 c -1.00887,0.484263 -1.51273,1.129644 -1.51273,1.936757 v 2.29996 c 0,0.322848 0.12107,0.706523 0.36321,1.150427 -0.76675,0.807122 -1.21097,1.755177 -1.33205,2.844779 -0.64567,0.968538 -0.96881,1.735893 -0.96881,2.300873 0.24212,4.15661 0.36319,7.18325 0.36319,9.07999 -0.76677,0.56496 -1.14953,1.00828 -1.14953,1.33113 h -1.93768 c -0.36319,0 -0.5448,0.70682 -0.5448,2.11928 v 3.63197 c 0.44391,0.64569 0.76707,0.96793 0.96885,0.96793 h 1.87682 c -0.24212,0.4439 -0.36319,0.76706 -0.36319,0.96883 0.16148,2.17921 0.98841,3.2688 2.48155,3.2688 h 1.57357 c 1.77564,0 2.66407,-0.88751 2.66407,-2.66317 l -0.1816,-1.39285 0.36321,-0.18161 h 1.21034 c 0.24213,0 0.36322,0.14162 0.36322,0.42404 v 5.14562 c 0,1.12996 -0.0605,2.29967 -0.1816,3.51033 0.12106,0.3632 0.1816,1.25161 0.1816,2.66406 v 0.78633 c 1.12996,2.30027 2.92546,3.45041 5.38713,3.45041 l 0.96885,-0.18161 0.96885,0.18161 c 1.57385,-0.12107 2.72399,-0.44332 3.45038,-0.96794 1.41243,-1.53353 2.1789,-2.30088 2.29996,-2.30088 -0.12106,-1.93704 -0.18161,-3.34887 -0.18161,-4.23672 v -5.20646 c 0.36321,-0.4439 0.54482,-0.88721 0.54482,-1.33112 v -0.18159 c 0,-0.12106 -0.12108,-0.64632 -0.36321,-1.57447 h 1.51364 l -0.1816,0.96881 v 0.60566 c 0,1.57386 0.96852,2.46137 2.90559,2.66317 h 0.96793 c 1.77565,-0.2018 2.66407,-0.90772 2.66407,-2.11838 v -0.908 l -0.18161,-0.96883 h 1.51274 c 0.64569,-0.48426 0.96884,-0.80743 0.96884,-0.96885 v -5.38715 c 0,-0.24207 -0.12107,-0.38363 -0.36322,-0.42404 h -1.51363 c 0,-0.36318 -0.46376,-0.86703 -1.39198,-1.51273 0,-0.76675 0.2021,-3.91449 0.60566,-9.44318 v -0.54479 c -0.92817,-0.928185 -1.45341,-2.159317 -1.57447,-3.692832 v -0.544801 l 0.60564,-0.787246 v -1.936767 l 0.18159,-1.332029 c -0.12106,0 -0.24213,-0.181609 -0.36319,-0.544801 -0.92819,-0.524624 -1.45251,-1.170004 -1.57358,-1.936758 0.16149,-0.242127 0.24152,-0.504748 0.24152,-0.787226 v -0.1816 c -0.28246,-0.524626 -0.66525,-0.786332 -1.1495,-0.786332 v -0.181591 c 0.36319,0 0.60531,-0.262631 0.72639,-0.787246 0,-0.726468 -0.38368,-1.110143 -1.15044,-1.150436 v -5.56876 c 0.40356,-1.77564 0.60564,-2.865227 0.60564,-3.268794 0.44391,0.403567 0.88722,0.605651 1.33113,0.605651 h 1.15044 c 1.251,0 2.01746,-0.767372 2.29995,-2.300886 v -1.21035 c 0,-1.251027 -0.8875,-2.017467 -2.66316,-2.29997 h -0.60563 c -0.52461,0 -1.17001,0.322232 -1.93677,0.967924 0.16148,-5.447982 0.24245,-8.656242 0.24245,-9.624782 l -0.24245,-0.967926 c 0.36321,0 1.00858,-0.121063 1.93677,-0.363189 2.70381,-1.493153 4.23762,-2.966434 4.60084,-4.419243 3.47056,0.403567 5.20555,0.847776 5.20555,1.332045 4.11624,1.089604 6.17438,1.734981 6.17438,1.936764 1.65458,0 2.48247,-0.444225 2.48247,-1.332045 1.37209,0 2.40115,0.262613 3.0872,0.787244 0.6457,-0.121063 0.96793,-0.323164 0.96793,-0.605633 v -0.967941 c -2.94597,-0.443912 -4.41833,-0.948651 -4.41833,-1.513624 -0.32283,-0.282505 -2.76465,-1.129963 -7.32483,-2.542397 -1.49315,-1.129963 -3.28867,-1.695235 -5.38715,-1.695235 1.17031,-2.300269 2.46107,-3.450404 3.87353,-3.450404 2.01777,0.121063 4.05632,0.302674 6.11446,0.544801 0,1.089605 2.2593,2.058144 6.77911,2.905603 h 0.90799 c 1.04925,0 1.57448,-0.584845 1.57448,-1.755169 v -1.695235 c 0,-0.726395 -1.93706,-1.311243 -5.8112,-1.755152 h -2.48244 c -0.20179,0 -0.38339,0.262597 -0.54482,0.787227 -2.78454,-0.40355 -5.22543,-0.605632 -7.32391,-0.605632 -0.56497,0 -0.94866,0.06062 -1.15043,0.181612 -0.7264,0 -2.19967,1.553386 -4.41923,4.660755 h -0.18161 c 0,-0.52463 -0.14057,-0.78633 -0.42312,-0.78633 h -0.54481 c -1.69492,0.242143 -2.5424,0.564375 -2.5424,0.967924 0.24215,1.77564 0.62491,2.664075 1.14954,2.664075 0,0.645693 -0.12105,1.493154 -0.3632,2.542395 0,1.129947 -2.11867,1.694323 -6.356,1.694323 h -0.72638 c -1.65459,-1.129964 -3.20797,-1.694323 -4.66076,-1.694323 -1.7353,0 -3.26913,0.382765 -4.60084,1.149521 0,-1.816 -0.96852,-3.490448 -2.90559,-5.023963 -3.30915,0 -4.96313,-0.444208 -4.96313,-1.332028 -0.7264,-0.242144 -1.31217,-0.624906 -1.75606,-1.14952 -1.17031,-2.582756 -2.82429,-3.874441 -4.96313,-3.874441 h -0.60562 c -1.49316,0 -3.55129,0.202082 -6.1744,0.605632 l -0.72639,-0.787227 z m 18.64396,7.143216 c 3.10736,0 4.84326,1.532916 5.20644,4.599926 v 0.181611 h -0.78722 c -0.64569,0 -1.21096,-0.06045 -1.69523,-0.181611 -1.41244,0 -2.32044,-1.532899 -2.72399,-4.599926 z m 25.42396,2.481567 h 0.7264 c -0.44391,0.766756 -0.74659,1.150433 -0.90801,1.150433 v -0.181594 z"
         transform="matrix(0.79186621,0,0,0.79186621,-49.605213,32.030861)" />
    </g>
  </g>
</svg>
