<?xml version="1.0" encoding="UTF-8" standalone="no"?>
<!-- Created with Inkscape (http://www.inkscape.org/) -->

<svg
   width="134.02942mm"
   height="145.18111mm"
   viewBox="0 0 134.02942 145.18108"
   version="1.1"
   id="svg1"
   xmlns="http://www.w3.org/2000/svg"
   xmlns:svg="http://www.w3.org/2000/svg">
  <defs
     id="defs1">
    <filter
       style="color-interpolation-filters:sRGB"
       id="filter103"
       x="-0.71341396"
       y="-0.5935621"
       width="2.4268279"
       height="2.1871242">
      <feBlend
         in2="SourceGraphic"
         result="result5"
         mode="multiply"
         in="result10"
         id="feBlend101" />
      <feComposite
         in2="SourceGraphic"
         in="result5"
         result="fbSourceGraphic"
         operator="over"
         id="feComposite101" />
      <feGaussianBlur
         stdDeviation="3"
         result="result10"
         id="feGaussianBlur101" />
      <feGaussianBlur
         result="result9"
         stdDeviation="9"
         id="feGaussianBlur102" />
      <feSpecularLighting
         in="result9"
         result="result1"
         lighting-color="#ffffff"
         surfaceScale="1"
         specularConstant="2"
         specularExponent="60"
         id="feSpecularLighting102">
        <fePointLight
           x="-5000"
           y="-10000"
           z="20000"
           id="fePointLight102" />
      </feSpecularLighting>
      <feComposite
         in2="fbSourceGraphic"
         in="result1"
         result="result2"
         operator="in"
         id="feComposite102" />
      <feGaussianBlur
         result="result9"
         stdDeviation="1"
         id="feGaussianBlur103" />
      <feComposite
         in="result9"
         result="result4"
         operator="arithmetic"
         k2="2"
         k3="0.8"
         in2="fbSourceGraphic"
         id="feComposite103"
         k1="0"
         k4="0" />
      <feBlend
         in="result4"
         mode="multiply"
         id="feBlend103" />
    </filter>
  </defs>
  <g
     id="layer1"
     transform="translate(268.31035,-38.71712)">
    <g
       id="g29"
       transform="matrix(1.2628396,0,0,1.2628396,62.643427,-40.449839)">
      <path
         id="text28"
         style="font-style:normal;font-variant:normal;font-weight:normal;font-stretch:normal;font-size:70.5556px;line-height:1;font-family:'Harley Davidson';-inkscape-font-specification:'Harley Davidson';letter-spacing:1.76212px;word-spacing:0px;writing-mode:lr-tb;direction:ltr;text-orientation:upright;opacity:0.58;fill:#dcb430;fill-opacity:1;stroke:#e8cc4c;stroke-width:1.437;stroke-linecap:butt;stroke-linejoin:bevel;stroke-dasharray:2.874, 1.437, 0.7185, 1.437;stroke-dashoffset:0;stroke-opacity:1;paint-order:markers stroke fill"
         d="m -225.35156,94.052734 c -3.52567,-1.047804 -7.90653,3.199122 -3.96404,5.718818 2.34398,-0.276872 -1.29873,3.464228 1.84856,3.901508 2.66473,0.58569 5.4028,0.17819 8.04223,-0.98029 2.6042,-1.05343 3.28398,3.76447 2.2185,4.98548 -3.49278,0.22272 -3.5474,6.01236 -0.0434,6.29374 1.40674,2.24772 -0.61279,5.56179 -0.84474,8.16612 -1.3067,2.57595 -0.70633,6.10604 -1.3108,8.42359 -2.77675,1.02086 -1.94757,5.71302 -0.0255,7.13697 0.45119,3.52554 6.04447,0.10703 4.55382,4.11103 -0.30891,4.52605 5.86273,5.8637 8.83364,3.48214 3.26397,-1.13759 -0.40809,-6.68685 3.44901,-5.50952 2.96788,-0.93644 4.55286,-4.35608 3.93401,-7.42664 -0.28854,-1.80704 -2.87269,-1.40644 -1.66802,-3.74845 0.36425,-2.98933 -0.86238,-5.44836 -0.54409,-8.40252 -0.98848,-2.13662 -3.22172,-6.29016 0.42402,-6.7357 2.5451,-2.13335 0.22716,-5.33855 -1.87056,-6.12069 -0.63395,-2.38977 2.0385,-4.05583 3.77117,-4.49005 2.98491,1.49585 6.05405,1.6703 9.07085,1.05359 3.33696,-1.84683 -1.71042,-4.488236 -1.84351,-4.14738 2.96969,1.58937 5.634,-2.562645 3.2816,-4.670147 -2.86135,-1.823807 -6.17093,-0.380062 -9.24073,-0.928306 -2.8636,-0.189091 -4.0606,2.769966 -6.74101,3.087137 -1.7683,1.292708 1.42872,4.390106 -1.82885,3.694966 -2.60574,-1.3033 -5.43603,-0.13415 -7.0534,-2.855098 -3.78943,0.373854 -4.6956,-5.113448 -8.79641,-3.888012 -1.28983,0.387761 -2.38811,-0.0916 -3.65231,-0.152286 z m 29.57617,4.091797 c 1.45252,0.05594 1.96809,0.976066 0,0 z m -27.04492,0.07422 -0.37726,0.08277 z m 30.88672,2.263669 c 0.40338,0.18392 -0.0236,0.40524 0,0 z" />
      <path
         d="m -226.15734,95.54311 h 1.5503 l 0.41341,0.447863 q 2.23931,-0.34451 3.514,-0.34451 h 0.34451 q 1.8259,0 2.82498,2.204863 0.37896,0.447862 0.99908,0.654568 0,0.757922 2.82498,0.757922 1.65364,1.309134 1.65364,2.859434 1.13688,-0.65457 2.61828,-0.65457 1.24023,0 2.65272,0.96463 h 0.41341 q 3.61736,0 3.61736,-0.96463 0.2067,-0.89573 0.2067,-1.44694 -0.44786,0 -0.65457,-1.515846 0,-0.34451 1.44694,-0.551215 h 0.31006 q 0.24116,0 0.24116,0.447862 h 0.10335 q 1.89481,-2.652725 2.51492,-2.652725 0.17226,-0.103353 0.65457,-0.103353 1.79145,0 4.16857,0.34451 0.13781,-0.447863 0.31006,-0.447863 h 1.41249 q 3.30729,0.378961 3.30729,0.999079 v 0.964627 q 0,0.999078 -0.89572,0.999078 h -0.51677 q -3.85851,-0.72347 -3.85851,-1.653647 -1.75699,-0.206706 -3.47954,-0.310058 -1.20579,0 -2.20487,1.963705 1.79145,0 3.06614,0.964628 3.89296,1.205788 4.16857,1.446938 0,0.48232 2.51492,0.86128 v 0.55121 q 0,0.24116 -0.55122,0.34451 -0.58566,-0.44786 -1.757,-0.44786 0,0.75792 -1.41249,0.75792 0,-0.17225 -3.514,-1.10243 0,-0.41341 -2.96278,-0.75792 -0.31006,1.24023 -2.61827,2.51492 -0.79238,0.20671 -1.10243,0.20671 l 0.1378,0.55121 q 0,0.82682 -0.1378,5.47771 0.65456,-0.55122 1.10243,-0.55122 h 0.34451 q 1.51584,0.24116 1.51584,1.30914 v 0.68902 q -0.24116,1.30914 -1.30914,1.30914 h -0.65457 q -0.37896,0 -0.75792,-0.34451 0,0.34451 -0.34451,1.86035 v 3.16949 q 0.65457,0.0344 0.65457,0.65457 -0.10335,0.44786 -0.41341,0.44786 v 0.10335 q 0.41341,0 0.65457,0.44787 v 0.10335 q 0,0.24116 -0.13781,0.44786 0.10336,0.65457 0.89573,1.10243 0.10335,0.31006 0.20671,0.31006 l -0.10336,0.75792 v 1.10243 l -0.34451,0.44787 v 0.31006 q 0.10336,1.30913 0.89573,2.1015 v 0.31006 q -0.34451,4.71979 -0.34451,5.37436 0.79237,0.55121 0.79237,0.86127 h 0.86127 q 0.20671,0.0344 0.20671,0.24116 v 3.06613 q 0,0.13781 -0.55121,0.55122 h -0.86128 l 0.10335,0.55122 v 0.51676 q 0,1.03353 -1.51584,1.20578 h -0.55122 q -1.65364,-0.17225 -1.65364,-1.51584 v -0.34451 l 0.10335,-0.55121 h -0.86127 q 0.2067,0.79237 0.2067,0.89572 v 0.10335 q 0,0.37897 -0.31006,0.75793 v 2.96278 q 0,0.75792 0.10336,2.41157 -0.10336,0 -1.30914,1.30914 -0.62012,0.44786 -1.96371,0.55121 l -0.55121,-0.10335 -0.55122,0.10335 q -2.10151,0 -3.06613,-1.9637 v -0.44787 q 0,-1.20578 -0.10336,-1.51584 0.10336,-1.03353 0.10336,-1.99816 v -2.92833 q 0,-0.24116 -0.20671,-0.24116 h -0.68902 l -0.20671,0.10336 0.10336,0.79237 q 0,1.51584 -1.51585,1.51584 h -0.89572 q -1.27469,0 -1.41249,-1.86035 0,-0.17226 0.2067,-0.55122 h -1.06798 q -0.17225,0 -0.55121,-0.55121 v -2.06706 q 0,-1.20579 0.31006,-1.20579 h 1.10243 q 0,-0.2756 0.65457,-0.75792 0,-1.61919 -0.20671,-5.16764 0,-0.48232 0.55122,-1.30914 0.10335,-0.93018 0.75792,-1.6192 -0.20671,-0.37896 -0.20671,-0.65457 v -1.30913 q 0,-0.68902 0.86128,-1.10243 l -0.20671,-0.34451 q 0.17226,0 0.31006,-0.20671 l -0.10335,-0.24116 v -0.2067 q 0.34451,-0.41341 0.34451,-0.96463 v -5.271 q -0.37896,-0.55121 -0.44787,-0.55121 -0.68902,0.2067 -1.10243,0.2067 -1.24023,0 -1.51584,-1.61919 0.20671,-1.757 1.72255,-1.757 0.72347,0.0345 1.44694,0.75792 v -2.41157 q 0,-0.55122 0.10335,-1.6192 -0.2067,0 -0.2067,-0.24115 v -1.41249 l 0.51676,-0.65457 q -1.51584,0 -1.86035,-2.85943 -0.65457,0.34451 -3.72071,0.65456 0,0.31006 -2.82498,0.99908 l -0.99908,0.34451 q -1.20578,-0.17225 -1.20578,-0.89572 -0.96463,0.1378 -1.30914,0.44786 h -0.31006 q -0.17225,0 -0.34451,-0.34451 v -0.31006 q 0,-0.17225 0.44787,-0.44786 l 0.41341,0.10335 q 1.03353,0 1.65365,-0.96463 0.51676,0 4.47862,-1.20578 0,-0.378961 1.99816,-0.654569 -0.89573,-1.757 -1.65365,-1.757 l -0.55121,-0.103352 q -3.61736,0.137803 -3.61736,0.654568 -1.65364,1.309137 -3.61735,1.309137 h -0.75792 q -0.65457,-0.37896 -0.65457,-0.999078 v -0.964627 q 0,-0.620118 3.16949,-0.999079 z m 10.6109,4.065216 q 0.34451,2.618274 1.5503,2.618274 0.41341,0.10335 0.96462,0.10335 h 0.44787 v -0.10335 q -0.31006,-2.618274 -2.96279,-2.618274 z m 14.46941,1.412494 -0.10335,0.55121 v 0.10335 q 0.1378,0 0.51677,-0.65456 z"
         id="text29"
         style="font-size:70.5556px;line-height:1;font-family:'Harley Davidson';-inkscape-font-specification:'Harley Davidson';letter-spacing:1.76212px;word-spacing:0px;text-orientation:upright;opacity:0.748159;fill:#c48800;stroke:#ffffff;stroke-width:1.43724;stroke-linejoin:bevel;stroke-dasharray:none;stroke-dashoffset:0;paint-order:markers stroke fill"
         aria-label="B" />
      <path
         id="path97"
         style="font-style:normal;font-variant:normal;font-weight:normal;font-stretch:normal;font-size:70.5556px;line-height:1;font-family:'Harley Davidson';-inkscape-font-specification:'Harley Davidson';letter-spacing:1.76212px;word-spacing:0px;writing-mode:lr-tb;direction:ltr;text-orientation:upright;opacity:0.58;fill:#dcb430;fill-opacity:1;stroke:none;stroke-width:1.437;stroke-linecap:butt;stroke-linejoin:bevel;stroke-dasharray:2.874, 1.437, 0.7185, 1.437;stroke-dashoffset:0;stroke-opacity:1;paint-order:markers stroke fill;filter:url(#filter103)"
         d="m -225.35156,94.052734 c -3.52567,-1.047804 -7.90653,3.199122 -3.96404,5.718818 2.34398,-0.276872 -1.29873,3.464228 1.84856,3.901508 2.66473,0.58569 5.4028,0.17819 8.04223,-0.98029 2.6042,-1.05343 3.28398,3.76447 2.2185,4.98548 -3.49278,0.22272 -3.5474,6.01236 -0.0434,6.29374 1.40674,2.24772 -0.61279,5.56179 -0.84474,8.16612 -1.3067,2.57595 -0.70633,6.10604 -1.3108,8.42359 -2.77675,1.02086 -1.94757,5.71302 -0.0255,7.13697 0.45119,3.52554 6.04447,0.10703 4.55382,4.11103 -0.30891,4.52605 5.86273,5.8637 8.83364,3.48214 3.26397,-1.13759 -0.40809,-6.68685 3.44901,-5.50952 2.96788,-0.93644 4.55286,-4.35608 3.93401,-7.42664 -0.28854,-1.80704 -2.87269,-1.40644 -1.66802,-3.74845 0.36425,-2.98933 -0.86238,-5.44836 -0.54409,-8.40252 -0.98848,-2.13662 -3.22172,-6.29016 0.42402,-6.7357 2.5451,-2.13335 0.22716,-5.33855 -1.87056,-6.12069 -0.63395,-2.38977 2.0385,-4.05583 3.77117,-4.49005 2.98491,1.49585 6.05405,1.6703 9.07085,1.05359 3.33696,-1.84683 -1.71042,-4.488236 -1.84351,-4.14738 2.96969,1.58937 5.634,-2.562645 3.2816,-4.670147 -2.86135,-1.823807 -6.17093,-0.380062 -9.24073,-0.928306 -2.8636,-0.189091 -4.0606,2.769966 -6.74101,3.087137 -1.7683,1.292708 1.42872,4.390106 -1.82885,3.694966 -2.60574,-1.3033 -5.43603,-0.13415 -7.0534,-2.855098 -3.78943,0.373854 -4.6956,-5.113448 -8.79641,-3.888012 -1.28983,0.387761 -2.38811,-0.0916 -3.65231,-0.152286 z m 29.57617,4.091797 c 1.45252,0.05594 1.96809,0.976066 0,0 z m -27.04492,0.07422 -0.37726,0.08277 z m 30.88672,2.263669 c 0.40338,0.18392 -0.0236,0.40524 0,0 z" />
    </g>
  </g>
</svg>
