<?xml version="1.0" encoding="UTF-8" standalone="no"?>
<!-- Created with Inkscape (http://www.inkscape.org/) -->

<svg
   width="74.043442mm"
   height="85.040146mm"
   viewBox="0 0 74.04344 85.040128"
   version="1.1"
   id="svg1"
   xmlns="http://www.w3.org/2000/svg"
   xmlns:svg="http://www.w3.org/2000/svg">
  <defs
     id="defs1">
    <filter
       style="color-interpolation-filters:sRGB"
       id="filter29"
       x="-0.18493765"
       y="-0.15356886"
       width="1.3699555"
       height="1.3072865">
      <feGaussianBlur
         result="result6"
         stdDeviation="3"
         in="SourceGraphic"
         id="feGaussianBlur29" />
      <feColorMatrix
         values="1 0 0 0 0 0 1 0 0 0 0 0 1 0 0 0 0 0 1 0 "
         result="result7"
         in="SourceGraphic"
         id="feColorMatrix29" />
      <feComposite
         operator="in"
         in="result6"
         in2="result7"
         id="feComposite29" />
    </filter>
  </defs>
  <g
     id="layer1"
     transform="translate(238.33325,-68.855356)">
    <g
       id="g29"
       transform="matrix(1.2628396,0,0,1.2628396,62.643427,-40.449839)">
      <path
         id="text28"
         style="font-style:normal;font-variant:normal;font-weight:normal;font-stretch:normal;font-size:70.5556px;line-height:1;font-family:'Harley Davidson';-inkscape-font-specification:'Harley Davidson';letter-spacing:1.76212px;word-spacing:0px;writing-mode:lr-tb;direction:ltr;text-orientation:upright;opacity:0.58;fill:#dcb430;fill-opacity:1;stroke:#e8cc4c;stroke-width:1.437;stroke-linecap:butt;stroke-linejoin:bevel;stroke-dasharray:2.874, 1.437, 0.7185, 1.437;stroke-dashoffset:0;stroke-opacity:1;paint-order:markers stroke fill;filter:url(#filter29)"
         d="m -225.34766,94.472656 c -1.38425,0.07123 -2.94854,0.135675 -4.22656,0.837891 -1.09798,0.599068 -0.91991,2.111687 -0.59961,3.119141 0.4864,1.106048 1.81423,1.288862 2.875,1.107421 1.43366,-0.112443 2.7571,-0.803725 3.87157,-1.648172 1.02889,-0.220023 2.09621,-0.348116 3.14406,-0.193625 -0.76616,0.426016 -1.57458,0.72192 -2.42774,0.927735 -0.95708,0.324008 -2.02838,0.404588 -2.90689,0.898526 -0.35215,0.339952 -0.7665,0.836867 -1.30405,0.560457 -1.44711,-0.0605 -2.20417,2.05993 -1.01171,2.9043 0.53747,0.51325 1.33726,0.24803 1.91015,0.0527 0.8291,0.84716 2.14607,0.76488 3.1384,0.28788 1.03449,-0.27726 2.08496,-0.55297 3.05073,-1.00684 0.75357,-0.0947 1.51231,-0.16221 2.25619,-0.3201 0.19429,0.76878 0.53464,1.54448 1.16406,2.05469 -0.21085,0.90019 0.0716,1.80772 0.0957,2.69531 -0.17766,0.38124 0.12509,1.19347 -0.15548,1.33245 -1.79638,-0.32418 -3.38853,1.55498 -2.9871,3.28474 0.22746,1.35148 1.63578,2.52192 3.02539,2.11914 -0.11216,1.58547 0.0664,3.19705 -0.0898,4.77344 -0.41633,0.40212 -0.006,1.13327 -0.52344,1.41992 -0.87664,0.89228 -0.59746,2.25702 -0.59375,3.35742 -0.48899,0.7193 -0.59027,1.59996 -1.01172,2.35742 -0.30459,1.05952 0.045,2.17391 0.006,3.25943 1.6e-4,0.72131 0.13063,1.50367 0.0228,2.18979 -0.5182,0.20708 -1.21651,-0.002 -1.58398,0.57227 -0.70078,0.97299 -0.31897,2.25373 -0.43946,3.36718 -0.0454,0.93917 0.53349,1.93255 1.51953,2.0625 -0.0558,1.50304 1.44719,2.70265 2.90089,2.45413 0.6256,0.0288 1.27609,-0.0721 1.82568,-0.38577 -0.0314,1.47692 -0.17156,2.98343 0.12109,4.43555 0.67774,1.89262 2.85098,2.91312 4.77343,2.5577 1.4612,0.18864 2.97542,-0.43206 3.84434,-1.62786 0.66776,-0.53835 0.99759,-1.39758 0.77312,-2.23345 -0.0433,-1.00864 -0.0883,-2.0899 -0.0413,-3.05381 1.32872,0.70893 3.28564,0.54016 4.23242,-0.70899 0.3368,-0.35455 0.18296,-1.0249 0.47266,-1.29687 0.97305,-0.37141 1.37541,-1.50188 1.15625,-2.46485 -0.0526,-1.01711 0.29724,-2.25889 -0.4336,-3.0957 -0.39306,-0.41576 -1.35684,-0.0267 -1.39453,-0.75976 0.0666,-1.736 0.3671,-3.4774 0.26273,-5.21115 -0.19151,-0.64563 -0.96944,-1.24849 -0.75225,-1.95931 0.44074,-0.7725 0.22359,-1.71551 0.31154,-2.54821 -0.12864,-0.58588 -0.42127,-1.15394 -0.97827,-1.46688 0.26357,-0.4388 -0.067,-0.90134 -0.19922,-1.2832 0.16969,-0.65496 -0.27479,-1.25416 -0.62274,-1.69766 0.0203,-0.93337 -0.0738,-1.87676 0.10321,-2.80039 1.23536,0.1612 2.64442,-0.53435 2.85418,-1.85226 0.42233,-1.30071 -0.1119,-3.02067 -1.55535,-3.38212 -0.36526,-0.22224 -1.03185,-0.0946 -1.25106,-0.30113 0.0312,-1.15791 0.0736,-2.31578 0.0733,-3.47426 1.20854,-0.42521 2.34649,-1.24165 3.04296,-2.31445 0.26947,-0.2762 0.77903,0.078 1.12455,0.0606 0.85083,0.17542 1.55227,0.77539 2.43962,0.84688 0.65348,0.18218 1.31055,0.358 1.93779,0.61987 0.4696,-0.81094 -0.31828,0.29647 0.59239,0.1125 0.71283,0.14669 1.4249,-0.19808 1.933,-0.67695 0.7437,0.34776 1.74344,0.60775 2.35547,-0.13086 0.89544,-0.89688 0.15366,-2.67604 -1.14141,-2.57814 -0.65795,-0.0938 -1.31232,-0.25913 -1.78242,-0.751937 -1.59562,-0.756473 -3.42912,-0.966678 -4.9612,-1.917949 -0.75545,-0.148431 -0.60267,-0.467694 0.12331,-0.326192 0.79895,0.133028 1.70805,0.0072 2.43945,0.324219 1.17616,1.109341 2.88324,1.278952 4.39358,1.604042 1.11431,0.196585 2.48069,-0.496422 2.4644,-1.750007 0.17962,-0.962763 0.0856,-2.260529 -1.00861,-2.618144 -1.50337,-0.638347 -3.19725,-0.731907 -4.7771,-0.700734 -0.5192,0.04959 -0.85656,0.543034 -1.40266,0.294297 -1.41858,-0.108058 -2.9335,-0.432514 -4.30572,0.06573 -0.93247,0.427201 -1.48583,1.353825 -2.14123,2.075522 -0.97792,-0.05976 -2.23779,0.137634 -2.76186,1.057934 -0.34572,0.860671 0.076,1.807066 0.46694,2.561209 0.0798,0.59555 -0.45581,0.70785 -0.92774,0.74414 -0.67801,0.0212 -1.44055,0.2013 -2.0664,-0.0312 -1.36991,-0.86013 -3.11489,-1.06656 -4.65821,-0.59961 -0.47922,-1.089053 -1.34247,-2.274005 -2.58663,-2.460978 -0.75454,-0.04705 -1.67923,0.103456 -2.18485,-0.589804 -0.43258,-0.227267 -0.79661,-0.514406 -0.92188,-1.005859 -0.83549,-1.483064 -2.60623,-2.277118 -4.27272,-1.993739 -0.871,-0.01242 -1.79073,0.231174 -2.61986,0.202723 -0.418,-0.335621 -0.97582,-0.365441 -1.48828,-0.339844 z m 1.77149,3.117188 c -0.81281,-0.392449 -0.78228,-0.644615 -0.034,-0.02506 z m 32.0332,2.851566 c 0.0903,0.5358 -1.21751,0.6381 -0.18048,0.003 0.0721,-0.11803 0.1061,-0.10099 0.18048,-0.003 z m -24.03711,18.71289 c -0.0712,0.80292 -1.02246,0.63583 -0.83998,-0.15817 0.12549,-0.0882 0.60407,0.13251 0.83998,0.15817 z" />
      <path
         d="m -226.15734,95.54311 h 1.5503 l 0.41341,0.447863 q 2.23931,-0.34451 3.514,-0.34451 h 0.34451 q 1.8259,0 2.82498,2.204863 0.37896,0.447862 0.99908,0.654568 0,0.757922 2.82498,0.757922 1.65364,1.309134 1.65364,2.859434 1.13688,-0.65457 2.61828,-0.65457 1.24023,0 2.65272,0.96463 h 0.41341 q 3.61736,0 3.61736,-0.96463 0.2067,-0.89573 0.2067,-1.44694 -0.44786,0 -0.65457,-1.515846 0,-0.34451 1.44694,-0.551215 h 0.31006 q 0.24116,0 0.24116,0.447862 h 0.10335 q 1.89481,-2.652725 2.51492,-2.652725 0.17226,-0.103353 0.65457,-0.103353 1.79145,0 4.16857,0.34451 0.13781,-0.447863 0.31006,-0.447863 h 1.41249 q 3.30729,0.378961 3.30729,0.999079 v 0.964627 q 0,0.999078 -0.89572,0.999078 h -0.51677 q -3.85851,-0.72347 -3.85851,-1.653647 -1.75699,-0.206706 -3.47954,-0.310058 -1.20579,0 -2.20487,1.963705 1.79145,0 3.06614,0.964628 3.89296,1.205788 4.16857,1.446938 0,0.48232 2.51492,0.86128 v 0.55121 q 0,0.24116 -0.55122,0.34451 -0.58566,-0.44786 -1.757,-0.44786 0,0.75792 -1.41249,0.75792 0,-0.17225 -3.514,-1.10243 0,-0.41341 -2.96278,-0.75792 -0.31006,1.24023 -2.61827,2.51492 -0.79238,0.20671 -1.10243,0.20671 l 0.1378,0.55121 q 0,0.82682 -0.1378,5.47771 0.65456,-0.55122 1.10243,-0.55122 h 0.34451 q 1.51584,0.24116 1.51584,1.30914 v 0.68902 q -0.24116,1.30914 -1.30914,1.30914 h -0.65457 q -0.37896,0 -0.75792,-0.34451 0,0.34451 -0.34451,1.86035 v 3.16949 q 0.65457,0.0344 0.65457,0.65457 -0.10335,0.44786 -0.41341,0.44786 v 0.10335 q 0.41341,0 0.65457,0.44787 v 0.10335 q 0,0.24116 -0.13781,0.44786 0.10336,0.65457 0.89573,1.10243 0.10335,0.31006 0.20671,0.31006 l -0.10336,0.75792 v 1.10243 l -0.34451,0.44787 v 0.31006 q 0.10336,1.30913 0.89573,2.1015 v 0.31006 q -0.34451,4.71979 -0.34451,5.37436 0.79237,0.55121 0.79237,0.86127 h 0.86127 q 0.20671,0.0344 0.20671,0.24116 v 3.06613 q 0,0.13781 -0.55121,0.55122 h -0.86128 l 0.10335,0.55122 v 0.51676 q 0,1.03353 -1.51584,1.20578 h -0.55122 q -1.65364,-0.17225 -1.65364,-1.51584 v -0.34451 l 0.10335,-0.55121 h -0.86127 q 0.2067,0.79237 0.2067,0.89572 v 0.10335 q 0,0.37897 -0.31006,0.75793 v 2.96278 q 0,0.75792 0.10336,2.41157 -0.10336,0 -1.30914,1.30914 -0.62012,0.44786 -1.96371,0.55121 l -0.55121,-0.10335 -0.55122,0.10335 q -2.10151,0 -3.06613,-1.9637 v -0.44787 q 0,-1.20578 -0.10336,-1.51584 0.10336,-1.03353 0.10336,-1.99816 v -2.92833 q 0,-0.24116 -0.20671,-0.24116 h -0.68902 l -0.20671,0.10336 0.10336,0.79237 q 0,1.51584 -1.51585,1.51584 h -0.89572 q -1.27469,0 -1.41249,-1.86035 0,-0.17226 0.2067,-0.55122 h -1.06798 q -0.17225,0 -0.55121,-0.55121 v -2.06706 q 0,-1.20579 0.31006,-1.20579 h 1.10243 q 0,-0.2756 0.65457,-0.75792 0,-1.61919 -0.20671,-5.16764 0,-0.48232 0.55122,-1.30914 0.10335,-0.93018 0.75792,-1.6192 -0.20671,-0.37896 -0.20671,-0.65457 v -1.30913 q 0,-0.68902 0.86128,-1.10243 l -0.20671,-0.34451 q 0.17226,0 0.31006,-0.20671 l -0.10335,-0.24116 v -0.2067 q 0.34451,-0.41341 0.34451,-0.96463 v -5.271 q -0.37896,-0.55121 -0.44787,-0.55121 -0.68902,0.2067 -1.10243,0.2067 -1.24023,0 -1.51584,-1.61919 0.20671,-1.757 1.72255,-1.757 0.72347,0.0345 1.44694,0.75792 v -2.41157 q 0,-0.55122 0.10335,-1.6192 -0.2067,0 -0.2067,-0.24115 v -1.41249 l 0.51676,-0.65457 q -1.51584,0 -1.86035,-2.85943 -0.65457,0.34451 -3.72071,0.65456 0,0.31006 -2.82498,0.99908 l -0.99908,0.34451 q -1.20578,-0.17225 -1.20578,-0.89572 -0.96463,0.1378 -1.30914,0.44786 h -0.31006 q -0.17225,0 -0.34451,-0.34451 v -0.31006 q 0,-0.17225 0.44787,-0.44786 l 0.41341,0.10335 q 1.03353,0 1.65365,-0.96463 0.51676,0 4.47862,-1.20578 0,-0.378961 1.99816,-0.654569 -0.89573,-1.757 -1.65365,-1.757 l -0.55121,-0.103352 q -3.61736,0.137803 -3.61736,0.654568 -1.65364,1.309137 -3.61735,1.309137 h -0.75792 q -0.65457,-0.37896 -0.65457,-0.999078 v -0.964627 q 0,-0.620118 3.16949,-0.999079 z m 10.6109,4.065216 q 0.34451,2.618274 1.5503,2.618274 0.41341,0.10335 0.96462,0.10335 h 0.44787 v -0.10335 q -0.31006,-2.618274 -2.96279,-2.618274 z m 14.46941,1.412494 -0.10335,0.55121 v 0.10335 q 0.1378,0 0.51677,-0.65456 z"
         id="text29"
         style="font-size:70.5556px;line-height:1;font-family:'Harley Davidson';-inkscape-font-specification:'Harley Davidson';letter-spacing:1.76212px;word-spacing:0px;text-orientation:upright;opacity:0.748159;fill:#c48800;stroke:#ffffff;stroke-width:1.43724;stroke-linejoin:bevel;stroke-dasharray:none;stroke-dashoffset:0;paint-order:markers stroke fill"
         aria-label="B" />
    </g>
  </g>
</svg>
