<?xml version="1.0" encoding="UTF-8" standalone="no"?>
<!-- Created with Inkscape (http://www.inkscape.org/) -->

<svg
   width="62.970913mm"
   height="44.715248mm"
   viewBox="0 0 62.970913 44.715248"
   version="1.1"
   id="svg1"
   xml:space="preserve"
   xmlns="http://www.w3.org/2000/svg"
   xmlns:svg="http://www.w3.org/2000/svg"><defs
     id="defs1" /><g
     id="layer1"
     transform="translate(-108.72458,-134.47095)"><path
       style="fill:#000000"
       d="m 117.30614,178.8095 0.31197,-0.3759 -0.0811,-3.46102 -0.0811,-3.46101 2.96649,4.6e-4 2.96649,4.6e-4 2.06059,3.05232 2.0606,3.05232 0.21139,-1.53096 0.21139,-1.53097 -0.096,-1.52135 -0.096,-1.52136 0.94292,-4.1e-4 0.94292,-4.1e-4 -0.0797,3.83687 -0.0797,3.83687 -2.69839,-0.006 -2.69839,-0.006 -2.11557,-2.92896 c -1.16357,-1.61093 -2.21594,-2.991 -2.33862,-3.06681 l -0.22303,-0.13785 0.0896,3.0732 0.0897,3.0732 -1.28917,-3.4e-4 -1.28917,-3.5e-4 z m 14.17261,-3.4603 v -3.83638 l 4.57061,-1.7e-4 4.57061,-1.6e-4 0.25803,0.67869 c 0.14192,0.37327 0.25804,0.71792 0.25804,0.76588 0,0.048 -0.44648,-0.0165 -0.99219,-0.1432 -0.5457,-0.12673 -1.73633,-0.23325 -2.64583,-0.23672 l -1.65365,-0.006 v 0.92604 0.92604 h 2.38125 2.38125 v 0.79375 0.79375 h -2.38125 -2.38125 v 0.95605 0.95605 l 2.77813,-0.10284 c 1.52797,-0.0566 2.77812,-0.0778 2.77812,-0.0472 0,0.0306 -0.11611,0.36101 -0.25803,0.73429 l -0.25804,0.67868 -4.7029,9e-5 -4.7029,9e-5 z m 11.14081,3.4177 c -0.0883,-0.23019 -0.1606,-0.52418 -0.1606,-0.65332 v -0.2348 l 3.24114,-0.0743 3.24115,-0.0743 v -0.39687 -0.39688 l -2.80516,-0.13229 -2.80515,-0.13229 -0.43599,-0.36313 -0.43599,-0.36312 v -1.80469 -1.80468 l 0.58803,-0.41188 0.58804,-0.41188 h 4.5405 4.54049 l 0.12644,0.66146 0.12645,0.66146 h -3.2706 -3.2706 v 0.39687 0.39688 l 2.3151,4.1e-4 2.3151,4.1e-4 0.92605,0.46261 0.92604,0.46261 0.0789,1.81711 0.079,1.8171 -0.45068,0.498 -0.45068,0.498 h -4.69319 -4.69319 z m 11.90625,0 c -0.0883,-0.23019 -0.1606,-0.50748 -0.1606,-0.61621 V 177.953 l 3.24114,0.0182 3.24115,0.0182 v -0.52649 -0.5265 l -2.91042,-0.13229 -2.91042,-0.13229 -0.33072,-0.21405 -0.33073,-0.21406 v -1.83647 -1.83646 l 0.52916,-0.52917 0.52917,-0.52917 h 4.63021 4.63021 v 0.37524 c 0,0.20638 0.061,0.5338 0.1356,0.7276 l 0.1356,0.35237 h -3.24445 -3.24446 v 0.35638 0.35638 l 2.64583,0.12949 2.64583,0.12948 0.59532,0.55244 0.59531,0.55245 v 1.65867 1.65866 l -0.58804,0.41188 -0.58804,0.41188 h -4.54303 -4.54303 z m -44.03208,-9.83409 c 0.88394,-0.94927 4.26364,-6.18661 4.26845,-6.61459 l 0.004,-0.33073 h 2.30855 2.30855 l 1.78893,3.24115 c 0.98392,1.78263 1.96298,3.50904 2.1757,3.83646 l 0.38677,0.59531 h -2.41168 -2.41168 v -0.40618 c 0,-0.22341 -0.19229,-0.69966 -0.42731,-1.05834 l -0.4273,-0.65215 h -2.19933 -2.19932 l -0.54837,0.69714 c -0.3016,0.38343 -0.54837,0.85968 -0.54837,1.05834 v 0.36119 h -1.37242 -1.37242 z m 6.3098,-3.75237 c -0.29192,-0.57221 -0.62739,-1.1001 -0.7455,-1.17309 l -0.21473,-0.13271 -0.70857,1.17309 -0.70858,1.1731 h 1.45407 1.45407 z m 7.79605,0.64351 v -3.83646 h 5.31681 5.3168 l 0.43788,0.48386 0.43789,0.48385 v 1.52351 1.5235 l -0.77025,0.29073 -0.77024,0.29074 1.05185,1.54891 1.05185,1.54892 -2.31994,-0.0767 -2.31993,-0.0767 -0.90177,-1.52136 -0.90176,-1.52135 h -0.63178 -0.63178 v 1.5875 1.5875 h -2.18282 -2.18281 z m 7.27604,-1.71979 v -0.79375 h -1.45521 -1.4552 v 0.79375 0.79375 h 1.4552 1.45521 z m 5.95313,1.71979 v -3.83646 h 2.2213 2.22131 l -0.14357,3.32428 -0.14356,3.32428 2.61919,-0.0831 2.61919,-0.0831 -5.8e-4,0.59532 -5.7e-4,0.59531 h -4.69636 -4.69635 z m 10.05416,0 v -3.83646 h 4.66805 4.66805 l 0.1606,0.41852 c 0.0883,0.23018 0.1606,0.56181 0.1606,0.73695 v 0.31845 l -2.64584,-0.10628 -2.64583,-0.10627 v 0.82453 0.82452 h 2.51354 2.51354 v 0.90484 0.90483 l -2.51354,-0.14996 -2.51354,-0.14996 v 0.98194 0.98194 l 2.77868,-0.0832 c 1.52828,-0.0457 2.77681,-0.0236 2.77452,0.0491 -0.002,0.0728 -0.076,0.40019 -0.16371,0.72761 l -0.15954,0.59531 h -4.79779 -4.79779 z m 10.31875,0 v -3.83646 h 2.82108 2.82107 l 2.07372,2.84427 2.07372,2.84427 0.0856,-1.05027 c 0.0471,-0.57765 0.0471,-1.85784 0,-2.84486 l -0.0856,-1.7946 1.39837,6e-4 1.39837,5.9e-4 -0.27389,0.51178 -0.27389,0.51177 v 3.32468 3.32469 l -2.84427,-0.003 -2.84428,-0.003 -2.11666,-2.96501 -2.11667,-2.96501 -0.0852,1.03605 c -0.0469,0.56982 -0.0469,1.90583 0,2.9689 l 0.0852,1.93285 -1.05833,-6.1e-4 -1.05834,-6.2e-4 z m -20.5052,-9.26461 -1.19063,-1.22311 -1.89263,-0.87866 -1.89264,-0.87866 -1.16864,-1.07722 -1.16864,-1.07721 -0.75436,-1.39922 c -0.4149,-0.76958 -0.8828,-1.49105 -1.03977,-1.60327 l -0.2854,-0.20405 -0.87995,0.15366 -0.87996,0.15365 -0.39743,-0.32984 -0.39743,-0.32984 -1.30307,0.0692 -1.30306,0.0692 -0.15984,-0.41653 -0.15984,-0.41653 h -1.29236 -1.29237 l -0.33047,-0.52917 -0.33047,-0.52917 h -0.87442 -0.87443 l -0.6379,-0.6379 -0.6379,-0.6379 -0.80206,-0.17617 -0.80205,-0.17616 -0.50433,-0.64114 c -0.27737,-0.35263 -0.62352,-0.64114 -0.76922,-0.64114 -0.14569,0 -0.8321,-0.53579 -1.52536,-1.19063 -0.69326,-0.65484 -1.35257,-1.19062 -1.46513,-1.19062 -0.11257,0 -0.28614,-0.26789 -0.38571,-0.59532 l -0.18105,-0.59531 -0.69668,-0.57752 -0.69668,-0.57752 0.29733,-0.48081 0.29732,-0.48082 0.8933,0.0328 c 0.49132,0.018 6.13205,0.0514 12.53497,0.0741 l 11.64166,0.0414 1.32292,-0.50904 1.32292,-0.50904 0.0814,-1.08645 0.0814,-1.08644 h 2.99745 2.99745 l 0.16962,1.13111 0.16962,1.13111 1.32965,0.47224 1.32964,0.47225 11.56151,-0.0494 c 6.35883,-0.0272 11.96349,-0.0641 12.45481,-0.082 l 0.8933,-0.0326 0.29732,0.48082 0.29732,0.48081 -0.69667,0.57752 -0.69668,0.57752 -0.18105,0.59531 c -0.0996,0.32743 -0.2796,0.59532 -0.40005,0.59532 -0.12044,0 -0.7862,0.53578 -1.47946,1.19062 -0.69326,0.65484 -1.37322,1.19063 -1.51103,1.19063 -0.13781,0 -0.47751,0.28851 -0.75489,0.64114 l -0.50432,0.64114 -0.8401,0.18452 -0.8401,0.18452 -0.41345,0.5053 -0.41345,0.5053 -1.05833,0.16713 -1.05833,0.16713 -0.34573,0.48628 -0.34574,0.48629 h -1.2796 -1.27961 l -0.15984,0.41653 -0.15983,0.41653 -1.30307,-0.0692 -1.30306,-0.0692 -0.41406,0.34363 -0.41405,0.34363 -0.68739,-0.17252 -0.6874,-0.17253 -0.48898,0.1552 -0.48897,0.15519 -0.60169,1.24456 -0.60169,1.24455 -1.27053,1.27182 -1.27053,1.27182 -1.78349,0.8164 -1.78349,0.8164 -1.38906,1.34233 -1.38907,1.34232 v -1.11544 -1.11544 h -1.17541 -1.17541 l -0.0814,1.07248 -0.0814,1.07248 z m 0.93084,-3.17081 -0.1913,-3.57187 h 0.23281 c 0.12805,0 0.49968,0.18692 0.82585,0.41537 l 0.59302,0.41537 0.92106,-0.56924 0.92105,-0.56924 v 3.75436 3.75436 l 1.25677,-1.38987 c 1.73057,-1.91384 2.92419,-3.58965 3.65158,-5.1267 l 0.61519,-1.29997 -0.90757,-1.06029 -0.90757,-1.06029 -0.55464,-1.4762 c -0.8269,-2.20088 -1.49423,-5.11607 -1.86721,-8.15693 l -0.33265,-2.71198 h -2.68688 -2.68687 l -0.17596,2.28917 -0.17596,2.28918 -0.53447,2.14259 -0.53446,2.1426 -1.47221,2.98903 -1.47221,2.98903 0.33359,0.80535 c 0.8047,1.94274 4.37621,6.57805 5.06838,6.57805 h 0.27197 z m -2.09013,0.52779 c -0.71037,-0.87237 -1.59216,-2.19854 -1.95955,-2.94704 l -0.66797,-1.36093 1.19858,-2.34324 c 1.77685,-3.47377 2.69999,-6.7028 2.93911,-10.28074 l 0.0884,-1.32292 2.1616,-0.0769 2.1616,-0.0768 3.6e-4,0.87059 c 10e-4,3.62228 1.89262,10.0173 3.64159,12.31448 l 0.65518,0.86055 -0.87592,1.44526 c -0.48175,0.79489 -1.41884,2.13005 -2.08242,2.96702 l -1.2065,1.52175 -0.074,-3.51739 -0.074,-3.51739 -1.13717,0.66643 -1.13718,0.66643 -1.03781,-0.62714 -1.03782,-0.62713 -0.13229,3.48561 -0.13229,3.48561 z m 6.89193,-1.10105 -0.17639,-0.17639 v 0.35278 0.35278 l 0.17639,-0.17639 0.17638,-0.17639 z m -6.859,-1.75275 -0.59344,-1.7565 -0.39687,0.25127 -0.39688,0.25127 0.31652,0.004 0.31652,0.004 0.58114,1.59384 c 0.78105,2.14209 0.91992,1.86278 0.17301,-0.34798 z m 8.15733,-1.19243 0.27417,-0.18572 -0.50369,-0.48914 -0.50369,-0.48914 0.16224,0.51117 0.16224,0.51117 -0.40071,1.13571 c -0.22038,0.62465 -0.39147,1.26958 -0.38019,1.43318 0.0113,0.16361 0.22187,-0.27381 0.46798,-0.97203 0.24612,-0.69822 0.57086,-1.35306 0.72165,-1.4552 z m -8.35389,-0.97947 c 0,-0.0728 -0.0595,-0.13229 -0.13229,-0.13229 -0.0728,0 -0.13229,0.0595 -0.13229,0.13229 0,0.0728 0.0595,0.13229 0.13229,0.13229 0.0728,0 0.13229,-0.0595 0.13229,-0.13229 z m 5.46093,-2.08136 0.72794,-0.62614 -0.55351,-2.21813 c -0.30442,-1.21997 -0.81951,-2.92145 -1.14463,-3.78107 l -0.59113,-1.56296 -0.35748,0.63691 c -0.5206,0.92755 -1.60938,4.4099 -1.82094,5.82412 l -0.18227,1.21846 0.72143,0.56748 0.72144,0.56748 h 0.87561 0.8756 z m -2.74785,-0.47077 -0.30317,-0.30317 0.13525,-0.82131 c 0.29975,-1.82031 0.96533,-4.40578 1.16614,-4.52988 l 0.21356,-0.13199 0.40604,1.25882 c 0.22333,0.69235 0.52029,1.91367 0.65992,2.71403 l 0.25386,1.45521 -0.27348,0.33073 -0.27349,0.33073 h -0.84073 -0.84073 z m 0.19734,-7.76662 c 0,-0.0728 -0.0595,-0.13229 -0.1323,-0.13229 -0.0728,0 -0.13229,0.0595 -0.13229,0.13229 0,0.0728 0.0595,0.13229 0.13229,0.13229 0.0728,0 0.1323,-0.0595 0.1323,-0.13229 z m 2.02847,-0.30868 -0.17639,-0.17639 v 0.35278 0.35277 l 0.17639,-0.17638 0.17639,-0.17639 z m -1.85208,-0.52917 -0.17639,-0.17639 v 0.35278 0.35278 l 0.17639,-0.17639 0.17638,-0.17639 z m 1.74428,-0.50513 0.13028,-0.68152 -0.28464,0.28464 c -0.15656,0.15656 -0.53468,0.28465 -0.84027,0.28465 h -0.55563 l -0.33317,-0.33073 -0.33318,-0.33073 0.17628,0.46302 0.17627,0.46302 h 0.76544 0.76545 v 0.26459 c 0,0.51244 0.20441,0.25664 0.33317,-0.41694 z m -0.26339,17.95777 c -0.32542,-0.0628 -0.92073,-0.0644 -1.32292,-0.004 l -0.73124,0.11057 1.32292,0.004 1.32291,0.004 z m 0.45938,-1.66583 v -1.32292 H 140.21 139.01937 v 1.32292 1.32291 h 1.19063 1.19062 z m -5.82083,0.9305 c 0,-0.0703 -0.60573,-0.43479 -1.34607,-0.80994 l -1.34607,-0.68211 -1.14716,-1.14716 c -0.63093,-0.63093 -1.38916,-1.60591 -1.68494,-2.16662 l -0.53779,-1.01947 -0.0117,0.42333 -0.0117,0.42332 0.7609,1.03189 c 1.50252,2.03761 5.32452,4.87064 5.32452,3.94676 z m 11.72783,-1.16973 c 1.69332,-1.17482 3.61948,-3.51474 3.61453,-4.39098 -8.2e-4,-0.14552 -0.35353,0.34922 -0.7838,1.09942 l -0.78231,1.36401 -1.13344,0.9192 c -0.62339,0.50555 -1.63945,1.17409 -2.25791,1.48563 -0.61847,0.31155 -1.12448,0.62062 -1.12448,0.68682 0,0.23968 1.38778,-0.41506 2.46741,-1.1641 z m -13.60401,-1.75939 c -0.56883,-1.09923 -1.03424,-2.16233 -1.03424,-2.36244 v -0.36383 l -0.85989,0.0311 c -0.47295,0.0171 -1.06826,-0.0636 -1.32292,-0.17941 l -0.46302,-0.21054 v 0.26299 c 0,0.14464 0.38695,0.83873 0.8599,1.54243 l 0.85989,1.27944 1.32292,0.99808 c 1.79146,1.35159 1.82554,1.29824 0.63736,-0.99786 z m 14.08608,0.63663 0.96511,-0.75626 0.85487,-1.33219 0.85486,-1.33218 -0.15993,-0.15994 -0.15994,-0.15993 -0.40392,0.33522 -0.40393,0.33523 -0.80625,-0.16125 -0.80624,-0.16125 0.12993,0.21024 0.12993,0.21023 -0.72734,1.43943 c -0.40004,0.79168 -0.95416,1.78459 -1.23137,2.20645 l -0.50403,0.76702 0.65157,-0.34228 c 0.35837,-0.18826 1.08587,-0.6826 1.61668,-1.09854 z m -6.38907,-0.446 v -0.22049 H 140.21 139.01937 v 0.22049 0.22049 h 1.19063 1.19062 z m -9.53553,-3.60328 0.31884,-0.38417 -0.18186,-0.57296 -0.18185,-0.57296 -0.53823,0.53823 -0.53823,0.53823 0.16075,0.4189 c 0.20033,0.52204 0.54578,0.53453 0.96058,0.0347 z m 1.07606,-0.91203 -0.29217,-1.08504 0.28591,-1.0618 0.28592,-1.06181 0.82189,-0.93609 c 0.45204,-0.51484 1.17247,-1.11737 1.60095,-1.33895 0.42849,-0.22158 0.71953,-0.4624 0.64677,-0.53516 -0.45078,-0.45079 -2.70297,1.50439 -3.45855,3.00244 l -0.42708,0.84676 v 0.8997 c 0,0.93465 0.50115,2.68237 0.70944,2.47408 0.0655,-0.0655 -0.0124,-0.60735 -0.17308,-1.20413 z m 16.53646,1.01999 0.17071,-0.27621 -0.46314,-0.70684 -0.46313,-0.70683 -0.25875,0.57988 -0.25876,0.57988 0.33461,0.40317 c 0.39117,0.47134 0.69981,0.51309 0.93846,0.12695 z m -18.80618,-1.10761 c 0.86358,-1.23294 0.10179,-1.40042 -1.02417,-0.22517 l -0.73986,0.77225 0.17725,0.2868 0.17725,0.2868 0.49954,-0.26735 c 0.27475,-0.14704 0.68424,-0.53104 0.90999,-0.85333 z m 17.22424,-1.63872 -0.16855,-1.05405 -0.55463,-0.89742 -0.55463,-0.89741 -1.06337,-0.7703 -1.06337,-0.7703 -0.15618,0.17037 -0.15619,0.17036 0.36819,0.1306 c 0.20251,0.0718 0.82063,0.53936 1.37361,1.03894 l 1.0054,0.90832 0.4439,1.16233 0.4439,1.16233 -0.17642,0.73908 c -0.097,0.40649 -0.22907,0.9772 -0.29342,1.26824 l -0.117,0.52917 0.41866,-0.9181 0.41865,-0.9181 z m 2.75361,1.44433 c -0.50285,-0.42984 -1.0673,-0.78636 -1.25432,-0.79227 l -0.34004,-0.0108 0.27222,0.50865 c 0.14972,0.27976 0.59103,0.75942 0.98068,1.06592 l 0.70846,0.55728 0.27364,-0.27365 0.27365,-0.27364 z m -22.66776,0.68628 c 0.46827,-0.19953 1.12824,-0.66322 1.46661,-1.03042 l 0.61521,-0.66765 -0.30153,-0.18635 -0.30152,-0.18635 -1.43817,0.95489 c -1.93193,1.28274 -1.95555,1.93183 -0.0406,1.11588 z m 25.85452,0.10632 c 0,-0.28035 -2.76054,-2.12479 -3.18014,-2.12479 -1.1973,0 1.57418,2.29981 2.84941,2.36448 l 0.33073,0.0168 z m -26.49795,-1.35661 1.36485,-0.89351 -0.10038,-0.26807 c -0.12894,-0.34436 -0.17118,-0.33221 -2.67731,0.77003 l -2.11391,0.92974 -0.10373,0.31119 -0.10372,0.31119 1.18467,-0.13353 1.18467,-0.13353 z m 29.24194,0.87455 0.12938,-0.20935 -2.36124,-1.09071 -2.36123,-1.09072 -0.15397,0.24913 -0.15396,0.24912 0.61549,0.51464 c 0.33852,0.28305 1.09175,0.75588 1.67383,1.05073 l 1.05833,0.53609 0.71199,2.1e-4 c 0.3916,1.2e-4 0.77022,-0.094 0.84138,-0.20914 z m -31.45128,-1.293 c 0.87312,-0.34901 1.81922,-0.80905 2.10244,-1.02231 l 0.51495,-0.38774 -0.28606,-0.28606 -0.28606,-0.28606 -2.47784,0.92745 c -1.36282,0.51009 -2.80527,1.00936 -3.20545,1.10948 -0.8244,0.20626 -0.955,0.56257 -0.26459,0.72188 0.7784,0.17961 2.23605,-0.11047 3.90261,-0.77664 z m 34.3826,0.49063 c -0.13824,-0.11988 -1.60256,-0.72725 -3.25403,-1.34972 l -3.00267,-1.13175 -0.29139,0.29138 -0.29139,0.29139 0.26867,0.26867 c 0.14777,0.14777 1.09432,0.6208 2.10344,1.05118 l 1.83477,0.7825 1.44198,0.007 1.44198,0.007 z m -35.9701,-1.65103 c 1.30969,-0.43186 2.54533,-0.88906 2.74587,-1.01602 l 0.36463,-0.23082 -0.19295,-0.3122 -0.19295,-0.3122 -0.43626,0.17231 c -0.23994,0.0948 -2.02578,0.57124 -3.96852,1.05881 -3.92077,0.984 -4.0936,1.06193 -3.18688,1.43694 l 0.63372,0.2621 0.92605,-0.13686 c 0.50932,-0.0753 1.9976,-0.4902 3.30729,-0.92206 z m 38.59667,0.53747 0.2321,-0.21745 -1.02585,-0.26532 c -8.50584,-2.19996 -7.50813,-1.99904 -7.50813,-1.512 v 0.37786 l 1.38906,0.51223 c 4.29267,1.58297 6.09492,1.87097 6.91282,1.10468 z m -30.30147,-0.78711 0.0931,-0.65803 -0.55614,0.5033 c -0.30588,0.27681 -0.55614,0.61264 -0.55614,0.74628 v 0.24297 l 0.46302,-0.0883 0.46302,-0.0882 z m 17.61211,0.5665 0.14167,-0.22922 -0.52293,-0.47325 -0.52293,-0.47324 v 0.52608 c 0,0.78115 0.56987,1.19058 0.90419,0.64963 z m -18.53235,-0.68302 0.42436,-0.64766 -0.23408,-0.14467 -0.23408,-0.14467 -0.59882,0.48489 -0.59883,0.4849 0.19001,0.30744 c 0.28916,0.46788 0.58458,0.37229 1.05144,-0.34023 z m 19.61254,0.12872 v -0.34256 l -0.5701,-0.37853 -0.5701,-0.37853 -0.14647,0.23699 -0.14647,0.237 0.41052,0.58611 0.41053,0.5861 0.30604,-0.10201 c 0.16833,-0.0561 0.30605,-0.25617 0.30605,-0.44457 z m -20.36116,-0.823 0.17352,-0.28077 -0.15053,-0.15053 -0.15053,-0.15052 -0.67814,0.44433 -0.67815,0.44434 0.15678,0.25368 0.15678,0.25367 0.49837,-0.26672 c 0.27411,-0.14669 0.57646,-0.39306 0.6719,-0.54748 z m -7.29012,-0.3034 2.51122,-0.61714 0.0947,-0.49151 0.0947,-0.49152 -0.6215,0.15489 c -1.3928,0.34713 -7.97674,1.50312 -8.561,1.50312 h -0.62823 l -0.14956,0.24198 -0.14955,0.24199 0.33238,0.15138 c 0.1828,0.0833 1.28487,0.10021 2.44904,0.0377 l 2.11667,-0.11372 z m 28.34957,0.31362 c -0.9205,-0.76685 -1.57846,-0.58032 -0.77767,0.22047 l 0.3175,0.3175 0.5424,-0.009 0.54239,-0.009 z m 13.4495,0.28357 0.38946,-0.2463 -0.38946,-0.11351 c -0.2142,-0.0624 -2.1754,-0.43092 -4.35821,-0.81887 -2.18281,-0.38795 -4.29617,-0.77388 -4.69635,-0.85761 l -0.72761,-0.15225 v 0.43602 0.43603 l 0.33073,0.12565 c 0.1819,0.0691 1.58089,0.41425 3.10886,0.76697 l 2.77812,0.64131 1.5875,0.0144 1.5875,0.0144 z m -35.6745,-0.51658 0.62462,-0.50639 -0.16424,-0.16497 -0.16425,-0.16497 -0.69565,0.31696 -0.69565,0.31696 v 0.3544 c 0,0.49276 0.36183,0.44255 1.09517,-0.15199 z m 23.51108,0.15199 v -0.3544 l -0.69565,-0.31696 -0.69565,-0.31696 -0.16424,0.16497 -0.16425,0.16497 0.62463,0.50639 c 0.73334,0.59454 1.09516,0.64475 1.09516,0.15199 z m -24.19421,-0.81459 0.51317,-0.37524 -0.20318,-0.20318 -0.20319,-0.20319 -0.70082,0.2477 c -0.38545,0.13623 -0.75023,0.39653 -0.81063,0.57843 l -0.10982,0.33073 h 0.50065 c 0.27535,0 0.73157,-0.16886 1.01382,-0.37525 z m 4.44524,-0.42936 0.16092,-0.80461 0.85716,-0.78289 0.85716,-0.78289 h -0.35595 -0.35594 l 0.33624,-0.40515 0.33624,-0.40514 -0.50228,-0.38019 -0.50229,-0.38019 0.29834,-0.008 c 0.16408,-0.005 0.44529,0.16866 0.62491,0.38509 l 0.32658,0.39351 -0.17757,0.46639 -0.17756,0.46639 0.30507,-0.30263 0.30507,-0.30262 -0.0942,-0.49113 -0.0942,-0.49112 -0.92282,-0.3158 -0.92282,-0.31579 -5.82084,0.004 -5.82083,0.004 1.98438,0.47827 1.98437,0.47827 3.17452,0.17663 3.17451,0.17662 0.5958,0.39038 0.5958,0.39039 -9.9e-4,0.45692 c -5.5e-4,0.2513 -0.23867,0.84675 -0.52917,1.32321 -0.2905,0.47646 -0.52818,0.98247 -0.52818,1.12448 v 0.25819 h 0.3638 0.36381 z m 15.78022,0.54642 c 0,-0.14201 -0.23768,-0.64802 -0.52817,-1.12448 -0.2905,-0.47646 -0.52863,-1.07191 -0.52917,-1.32321 l -9.9e-4,-0.45692 0.59531,-0.37989 0.59531,-0.37989 3.175,-0.18426 3.175,-0.18426 1.98438,-0.48113 1.98437,-0.48113 -5.89547,-0.0192 -5.89548,-0.0192 -0.91754,0.38337 -0.91755,0.38338 v 0.49926 0.49927 l 1.06168,0.95308 1.06168,0.95309 0.16202,0.81011 0.16202,0.81011 h 0.3638 0.3638 z m -2.73402,-3.0932 c -0.097,-0.097 -0.17639,-0.38193 -0.17639,-0.63315 v -0.45677 l 0.41851,-0.16059 c 0.69096,-0.26515 0.8029,-0.16708 0.26983,0.23642 l -0.50228,0.38019 0.33624,0.40514 0.33624,0.40515 h -0.25288 c -0.13909,0 -0.33226,-0.0794 -0.42927,-0.17639 z m 7.76111,3.09611 c 0,-0.36181 -0.91232,-0.80466 -1.63626,-0.79425 l -0.6127,0.009 0.62462,0.52036 0.62463,0.52037 h 0.49985 0.49986 z m -32.02233,-0.82497 c 1.66924,-0.28503 3.13813,-0.62139 3.2642,-0.74746 l 0.22923,-0.22923 -0.27409,-0.1694 -0.27408,-0.1694 -1.6672,0.25984 c -0.91695,0.14291 -3.42336,0.40618 -5.5698,0.58504 l -3.9026,0.32521 v 0.17551 c 0,0.0965 0.26789,0.31214 0.59531,0.47912 l 0.59531,0.3036 1.98438,-0.1473 c 1.09141,-0.081 3.35011,-0.3805 5.01934,-0.66553 z m 10.29908,-0.11959 c 0.45164,-0.51438 0.82116,-1.10294 0.82116,-1.30791 v -0.37266 l -0.58804,-0.41188 -0.58803,-0.41188 -2.12394,0.004 -2.12395,0.004 0.39688,0.25088 c 0.21828,0.13799 0.37738,0.34452 0.35356,0.45897 -0.0238,0.11445 0.27383,0.57815 0.66146,1.03044 l 0.70477,0.82234 0.59531,0.18767 c 0.32743,0.10322 0.59532,0.29871 0.59532,0.43443 0,0.4894 0.48989,0.22905 1.2955,-0.6885 z m 18.01908,0.6885 c 0,-0.13572 0.26789,-0.33121 0.59531,-0.43443 l 0.59531,-0.18767 0.78176,-0.91247 c 0.42996,-0.50186 0.80638,-1.08027 0.83648,-1.28536 l 0.0547,-0.3729 h -1.90209 -1.90209 l -0.58804,0.41188 -0.58804,0.41188 v 0.37266 c 0,0.20497 0.36952,0.79353 0.82116,1.30791 0.80562,0.91755 1.29551,1.1779 1.29551,0.6885 z m 16.52401,-0.0603 c 0.37065,-0.16888 0.67391,-0.39069 0.67391,-0.49292 v -0.18586 l -2.57969,-0.18655 c -1.41883,-0.1026 -3.94532,-0.35467 -5.61442,-0.56016 l -3.03473,-0.37362 -0.2495,0.2495 -0.2495,0.2495 0.6384,0.23901 c 0.35112,0.13146 2.00761,0.43289 3.6811,0.66986 1.67349,0.23697 3.34037,0.47482 3.70417,0.52854 0.3638,0.0537 1.04281,0.1139 1.5089,0.13372 l 0.84745,0.036 z m -32.53505,-0.5329 c 0.36395,-0.31646 1.10561,-0.82436 1.64812,-1.12867 l 0.98638,-0.5533 0.22626,-1.1441 c 0.26985,-1.36453 0.18323,-1.49259 -0.78995,-1.16793 l -0.74415,0.24825 0.0798,0.77779 0.0798,0.77778 -0.80304,0.59372 -0.80305,0.59371 -0.40803,0.78906 c -0.48529,0.93844 -0.36276,0.98805 0.52784,0.21369 z m -6.33068,-0.10271 0.51359,-0.4135 -0.33237,-0.13827 -0.33238,-0.13826 0.14955,-0.24199 0.14956,-0.24198 h -0.72764 -0.72765 l 0.51359,-0.38846 0.51359,-0.38846 -0.66145,-0.0293 -0.66146,-0.0293 0.33073,-0.13345 c 0.1819,-0.0734 0.33073,-0.2426 0.33073,-0.37599 v -0.24253 h -0.77814 -0.77813 l -0.15223,0.2463 -0.15222,0.2463 0.27322,0.16885 0.27321,0.16886 -0.16323,0.26411 -0.16323,0.26411 0.57816,0.15119 0.57815,0.15119 -0.35309,0.22788 -0.3531,0.22789 0.57701,0.15835 0.577,0.15836 -0.14229,0.3708 -0.14229,0.37081 h 0.37461 c 0.20604,0 0.60573,-0.18608 0.8882,-0.4135 z m 19.45328,-0.33919 c -0.15702,-0.29339 -0.64291,-0.78794 -1.07977,-1.09901 l -0.79429,-0.56559 v -0.87716 -0.87717 l -0.58376,-0.15266 c -0.78912,-0.20636 -0.83088,-0.12002 -0.62051,1.28283 l 0.1824,1.21632 0.57708,0.23105 c 0.3174,0.12707 0.9938,0.52521 1.50312,0.88475 1.04511,0.73776 1.22855,0.72801 0.81573,-0.0434 z m 7.0361,0.38188 -0.14229,-0.3708 0.577,-0.15836 0.577,-0.15835 -0.35309,-0.22789 -0.3531,-0.22788 0.57816,-0.15119 0.57815,-0.15119 -0.16323,-0.26411 -0.16323,-0.26411 0.27322,-0.16886 0.27321,-0.16885 -0.15222,-0.2463 -0.15222,-0.2463 h -0.77814 -0.77813 v 0.24253 c 0,0.13339 0.14883,0.30259 0.33073,0.37599 l 0.33073,0.13345 -0.66146,0.0293 -0.66146,0.0293 0.51359,0.38846 0.51359,0.38846 h -0.72764 -0.72764 l 0.14955,0.24198 0.14956,0.24199 -0.33238,0.13826 -0.33238,0.13827 0.51359,0.4135 c 0.28248,0.22742 0.68217,0.4135 0.88821,0.4135 h 0.37461 z m -32.46336,-1.24143 2.50827,-0.25575 0.22677,-0.22677 0.22677,-0.22677 -0.22149,-0.11675 c -0.12182,-0.0642 -3.11196,-0.0639 -6.64475,6.1e-4 l -6.42325,0.11736 0.30496,0.36746 c 0.16773,0.2021 0.67695,0.47836 1.13159,0.6139 l 0.82662,0.24644 2.77813,-0.13199 c 1.52796,-0.0726 3.90684,-0.24708 5.28638,-0.38774 z m 46.98398,-0.0859 c 0.80718,-0.59022 0.61631,-0.61306 -6.16672,-0.73802 l -6.41614,-0.11819 v 0.22715 c 0,0.5704 2.98242,0.92227 8.21766,0.96953 l 3.85203,0.0348 z m -44.33286,-1.44816 c 0,-0.50282 -3.83521,-0.97939 -9.95249,-1.23671 l -4.26394,-0.17936 -0.16492,0.26684 -0.16491,0.26684 0.39559,0.32831 c 0.21758,0.18057 0.78181,0.42 1.25386,0.53206 l 0.85826,0.20375 6.01928,0.0271 6.01927,0.0271 z m 45.85966,-0.37104 0.72387,-0.47464 -0.17722,-0.28673 -0.17721,-0.28674 -4.39528,0.17763 c -4.02883,0.16282 -7.72898,0.49423 -9.22393,0.82616 l -0.59531,0.13217 v 0.28324 0.28323 l 6.5606,-0.0898 6.56061,-0.0898 z m -34.08571,-1.26417 1.05834,-0.50896 -0.66146,0.16703 c -1.00924,0.25485 -1.85208,0.59675 -1.85208,0.75128 0,0.22431 0.3314,0.13108 1.4552,-0.40935 z m 9.6573,0.4024 c 0,-0.16671 -1.72872,-0.92263 -2.04203,-0.89292 -0.11381,0.0108 0.26932,0.24009 0.8514,0.50955 1.27187,0.58877 1.19063,0.56261 1.19063,0.38337 z"
       id="path83" /></g></svg>
