<?xml version="1.0" encoding="UTF-8" standalone="no"?>
<!-- Created with Inkscape (http://www.inkscape.org/) -->

<svg
   width="93.345551mm"
   height="39.558605mm"
   viewBox="0 0 93.345551 39.558605"
   version="1.1"
   id="svg1"
   xml:space="preserve"
   xmlns="http://www.w3.org/2000/svg"
   xmlns:svg="http://www.w3.org/2000/svg"><defs
     id="defs1" /><g
     id="layer1"
     transform="translate(150.52619,46.832919)"><path
       style="fill:#000000;stroke-width:0.464145"
       d="m -113.98864,-7.4556416 -0.37884,-0.17174 -0.26548,-0.3375 c -0.14602,-0.18563 -0.32104,-0.54385 -0.38896,-0.79606 l -0.12347,-0.45857 0.0778,-0.41574 c 0.0428,-0.22866 0.18383,-0.5925604 0.31346,-0.8086704 l 0.23569,-0.39293 0.39293,-0.23595 c 0.2161,-0.12977 0.77976,-0.35132 1.25256,-0.49231 l 0.85963,-0.25635 0.61403,-0.38789 c 0.33771,-0.21335 1.20405,-0.85116 1.92521,-1.41737 0.72115,-0.5662 1.36795,-1.02946 1.43734,-1.02946 h 0.12617 l 0.043,0.82893 0.043,0.82894 0.024,-0.95174 0.024,-0.95175 h -0.37145 -0.37146 l -0.12052,0.317 -0.12052,0.31699 -0.15275,-0.0505 -0.15275,-0.0505 -0.10756,-0.50255 -0.10754,-0.50254 0.0801,-0.42685 0.0801,-0.42685 0.2477,-0.3149 0.24771,-0.3149 0.4245,-0.0796 0.42449,-0.0796 0.002,-0.13985 c 6.9e-4,-0.0769 0.035,-0.26417 0.0757,-0.41614 l 0.074,-0.27632 h -0.18249 -0.18248 l -0.63007,-0.50167 c -0.71072,-0.56588 -0.74045,-0.65446 -0.35665,-1.063 l 0.27343,-0.29104 -0.21202,0.0814 -0.21202,0.0814 -0.0119,-0.28945 -0.0119,-0.28945 -0.18893,0.46052 -0.18895,0.46052 h -0.13764 c -0.0757,0 -0.33071,-0.0574 -0.56666,-0.12751 -0.23596,-0.0701 -0.85403,-0.17785 -1.37348,-0.2394 l -0.94446,-0.1119 -0.46779,-0.2392 -0.46779,-0.2392 -0.76588,-0.79849 -0.76587,-0.7985 -0.12446,-0.32736 c -0.0684,-0.18005 -0.12447,-0.46086 -0.12447,-0.62404 v -0.29668 l 0.30376,-0.0762 0.30375,-0.0762 1.18424,0.46872 1.18423,0.46871 0.23128,-0.28561 0.23128,-0.28562 v -0.28762 -0.28763 l -1.10614,-0.5713 -1.10614,-0.57129 -0.074,-0.29502 -0.074,-0.29501 0.19681,-0.30037 0.19682,-0.30039 0.44292,-0.0831 0.44293,-0.0831 0.69395,0.0651 0.69395,0.0651 0.72219,0.27267 0.7222,0.27269 0.47446,0.42864 0.47444,0.42864 0.1732,0.58321 c 0.0953,0.32077 0.31662,0.88639 0.49192,1.25694 0.1753,0.37055 0.31872,0.76677 0.31872,0.88047 v 0.20674 l 0.36055,-0.26656 0.36053,-0.26655 0.60329,-0.058 0.60329,-0.058 0.92763,0.32018 0.92763,0.32017 0.62742,-0.20262 0.62741,-0.20264 0.0783,0.0783 0.0783,0.0783 -0.32236,0.46275 c -0.35967,0.51631 -0.91263,0.98753 -1.55703,1.32687 l -0.42899,0.2259 -0.67543,-0.005 c -0.37148,-0.003 -0.60635,0.0193 -0.52192,0.0486 l 0.15351,0.0532 v 0.17094 0.17093 l 0.315,-0.11976 c 0.17326,-0.0659 0.42839,-0.11976 0.56695,-0.11976 h 0.25194 l -0.0926,0.27631 -0.0926,0.27631 -0.0808,2.3333 -0.0808,2.33329 -0.22372,0.42981 c -0.12304,0.23641 -0.33412,0.55067 -0.46907,0.69836 l -0.24534,0.26854 0.59742,-0.18584 0.59743,-0.18582 1.16665,0.062 c 0.64165,0.0341 1.29099,0.10007 1.44296,0.14652 l 0.27631,0.0845 v -2.77743 -2.77744 h 0.30701 0.30702 v 0.49405 0.49405 l 0.30115,-0.19732 0.30115,-0.19732 0.31287,-0.62786 0.31288,-0.62785 v -0.289 c 0,-0.38764 -0.31584,-0.97685 -0.60723,-1.13279 l -0.23627,-0.12645 h -0.43505 -0.43506 l -0.21774,0.33163 -0.21774,0.33163 -0.0695,2.52359 -0.0695,2.52359 -0.20255,0.46537 -0.20253,0.46537 -0.68796,0.31496 -0.68796,0.31495 -0.48292,0.0648 -0.48294,0.0648 v -0.16 c 0,-0.088 0.0967,-0.26676 0.21491,-0.39723 l 0.21491,-0.23723 0.0614,-2.41275 0.0614,-2.41276 0.20863,-0.38088 c 0.267,-0.48742 0.90128,-1.04193 2.04846,-1.79082 l 0.9123,-0.59555 0.65854,-0.19145 0.65854,-0.19144 0.36931,0.0811 0.369321,0.0811 0.39617,0.32299 0.396177,0.32298 -0.23923,-0.27783 -0.239238,-0.27784 0.225335,-0.57748 c 0.12393,-0.31761 0.332251,-0.89237 0.462935,-1.27726 l 0.237606,-0.69978 0.466356,-0.42133 0.466357,-0.42132 0.722196,-0.27269 0.722196,-0.27268 0.693951,-0.0651 0.693951,-0.0651 0.442924,0.0831 0.442925,0.0831 0.196815,0.30038 0.196814,0.30037 -0.07134,0.28425 -0.07134,0.28425 -1.108843,0.58465 -1.108844,0.58465 v 0.28503 0.28505 l 0.231278,0.28561 0.231278,0.28562 1.184235,-0.46872 1.184243,-0.46871 0.30375,0.0762 0.303757,0.0762 v 0.29668 c 0,0.16317 -0.05598,0.44399 -0.124467,0.62404 l -0.124459,0.32736 -0.765879,0.79849 -0.765872,0.7985 -0.467789,0.23919 -0.467796,0.23921 -0.944468,0.1119 c -1.135167,0.13449 -1.617774,0.26967 -2.160659,0.60519 -0.514701,0.31811 -0.563618,0.31609 -0.56821,-0.0234 l -0.0034,-0.27631 -0.133563,0.24561 c -0.07346,0.13508 -0.264295,0.43902 -0.424092,0.67542 l -0.29053,0.42982 -0.438231,0.29655 -0.43823,0.29654 0.651147,0.31748 0.651149,0.31748 0.180172,0.36842 0.180172,0.36841 0.07509,1.59647 c 0.04131,0.87806 0.08456,1.3616 0.09614,1.07454 l 0.02107,-0.52192 h 0.129356 c 0.07114,0 0.499429,0.29715 0.951739,0.66034 0.452309,0.36318 1.126326,0.82823 1.497811,1.03345 l 0.675428,0.37312 0.891909,0.26167 0.891915,0.26166 0.423273,0.42328 0.423273,0.42327 0.132998,0.4939104 0.132991,0.49392 -0.08084,0.43094 -0.08084,0.43093 -0.264543,0.39618 -0.264536,0.39618 -0.427377,0.22171 -0.427369,0.22171 -0.614022,-0.0455 -0.614028,-0.0455 -0.533733,-0.35385 -0.533741,-0.35385 -0.477387,-0.70299 -0.477388,-0.70298 -1.230067,-1.0183904 -1.230067,-1.01838 v -0.17182 -0.17184 l 0.839068,0.0474 0.83906,0.0474 -0.247225,-0.43267 c -0.336443,-0.58881 -0.33873,-0.59016 -0.250179,-0.1474 l 0.07803,0.39016 h -0.826556 -0.826553 l -0.75456,0.19467 -0.75456,0.19466 -0.82183,0.43085 -0.82184,0.43083 -0.68713,-0.25709 -0.68713,-0.25709 h -0.9582 -0.95819 l -0.96057,0.24562 c -1.15767,0.29609 -1.08513,0.29397 -1.01602,0.0297 l 0.0565,-0.21594 -1.0048,0.98347 c -0.55264,0.5409104 -1.17509,1.2357104 -1.38322,1.5440004 l -0.37841,0.56053 -0.53171,0.35251 -0.5317,0.3525 -0.61403,0.0407 -0.61402,0.0407 z m 1.41065,-1.70501 0.10288,-0.27632 -0.0902,-0.24561 -0.0902,-0.24561 h -0.15676 c -0.0862,0 -0.21505,0.0924 -0.2863,0.20537 l -0.12955,0.20538 0.14424,0.31654 0.14423,0.31656 h 0.12939 0.12939 z m 17.968241,-0.0402 0.144228,-0.31654 -0.129548,-0.20537 c -0.07125,-0.11296 -0.200078,-0.20538 -0.286295,-0.20538 h -0.15676 l -0.0902,0.24562 -0.0902,0.2456 0.102879,0.27632 0.102873,0.27631 h 0.129397 0.129396 z m -15.008911,-2.2009404 c 0,-0.0338 -0.0276,-0.0614 -0.0614,-0.0614 -0.0338,0 -0.0614,0.0276 -0.0614,0.0614 0,0.0338 0.0276,0.0614 0.0614,0.0614 0.0338,0 0.0614,-0.0276 0.0614,-0.0614 z m 2.14909,-0.83632 0.12281,-0.10018 -0.3457,0.13054 c -0.61416,0.23188 -0.77629,0.0649 -0.37141,-0.38248 0.44011,-0.48632 0.0673,-0.25072 -0.56195,0.35508 l -0.66504,0.6403 0.47072,-0.0764 0.47071,-0.0764 -0.0895,0.23431 -0.0895,0.23432 0.46805,-0.42947 c 0.25743,-0.23622 0.52331,-0.47456 0.59086,-0.52965 z m -1.90347,0.71351 c 0,-0.0338 -0.0276,-0.0614 -0.0614,-0.0614 -0.0338,0 -0.0614,0.0276 -0.0614,0.0614 0,0.0338 0.0276,0.0614 0.0614,0.0614 0.0338,0 0.0614,-0.0276 0.0614,-0.0614 z m 2.21049,-0.85964 c 0,-0.0338 -0.0276,-0.0614 -0.0614,-0.0614 -0.0338,0 -0.0614,0.0276 -0.0614,0.0614 0,0.0338 0.0276,0.0614 0.0614,0.0614 0.0338,0 0.0614,-0.0276 0.0614,-0.0614 z m 6.50866,-0.61402 v -0.40117 l -0.27261,-0.0713 -0.2726,-0.0713 -0.28002,0.0703 -0.28001,0.0703 v 0.34486 0.34488 l 0.33771,0.11305 0.33772,0.11305 0.2149,-0.0558 0.21491,-0.0558 z m -5.89463,0.24561 c 0,-0.0338 -0.0276,-0.0614 -0.0614,-0.0614 -0.0338,0 -0.0614,0.0276 -0.0614,0.0614 0,0.0338 0.0276,0.0614 0.0614,0.0614 0.0338,0 0.0614,-0.0276 0.0614,-0.0614 z m 4.50607,-0.51958 -0.0566,-0.21725 -0.005,0.36842 -0.005,0.36841 0.0611,-0.15117 c 0.0337,-0.0831 0.0357,-0.24893 0.005,-0.36841 z m 0.40612,-0.46286 c 0,-0.0338 -0.0276,-0.0614 -0.0614,-0.0614 -0.0338,0 -0.0614,0.0276 -0.0614,0.0614 0,0.0338 0.0276,0.0614 0.0614,0.0614 0.0338,0 0.0614,-0.0276 0.0614,-0.0614 z m -0.40325,-1.13595 -0.0512,-0.33771 v 0.67542 0.67543 l 0.0512,-0.33771 c 0.0281,-0.18574 0.0281,-0.48969 0,-0.67543 z m 1.3853,0.33771 -3.9e-4,-0.42981 -0.55223,-0.003 -0.55223,-0.003 v 0.43307 0.43308 h 0.55262 0.55262 z m -0.98205,-0.79823 c 0,-0.0338 -0.0276,-0.0614 -0.0614,-0.0614 -0.0338,0 -0.0614,0.0276 -0.0614,0.0614 0,0.0338 0.0276,0.0614 0.0614,0.0614 0.0338,0 0.0614,-0.0276 0.0614,-0.0614 z m 0.70613,-0.2616 0.27631,-0.074 v -0.40046 -0.40046 l -0.15351,-0.12056 c -0.0844,-0.0663 -0.3331,-0.15458 -0.55262,-0.19617 l -0.39911,-0.0756 v 0.60195 0.60195 l 0.21491,0.0562 c 0.1182,0.0309 0.24254,0.0618 0.27631,0.0687 0.0338,0.007 0.18574,-0.0207 0.33771,-0.0615 z m -1.11068,-0.93574 -0.0532,-0.27632 v 0.55263 0.55262 l 0.0532,-0.27631 c 0.0293,-0.15197 0.0293,-0.40065 0,-0.55262 z m -0.002,-1.41226 -0.0562,-0.21491 v 0.42982 0.42982 l 0.0562,-0.21491 c 0.0309,-0.1182 0.0309,-0.31162 0,-0.42982 z m -5.48807,-0.0921 c 0,-0.0338 -0.0276,-0.0614 -0.0614,-0.0614 -0.0338,0 -0.0614,0.0276 -0.0614,0.0614 0,0.0338 0.0276,0.0614 0.0614,0.0614 0.0338,0 0.0614,-0.0276 0.0614,-0.0614 z m 1.04384,-1.08923 0.1228,-0.10748 -0.2456,0.12727 c -0.13509,0.07 -0.41129,0.31163 -0.61377,0.53695 l -0.36816,0.40969 0.49097,-0.42947 c 0.27002,-0.23622 0.54622,-0.47785 0.61376,-0.53696 z m 7.764319,-1.21116 -0.04971,-0.40131 -0.0014,0.73682 -0.0014,0.73683 0.05095,-0.33551 c 0.02802,-0.18454 0.02858,-0.51611 0.0014,-0.73683 z m -9.729349,0.51972 c 0.0417,-0.0676 0.0483,-0.12281 0.0145,-0.12281 -0.0338,0 -0.0956,0.0553 -0.1373,0.12281 -0.0417,0.0675 -0.0483,0.1228 -0.0145,0.1228 0.0338,0 0.0956,-0.0552 0.1373,-0.1228 z m 1.73973,0.0409 -0.0819,-0.0819 -0.0819,0.0819 -0.0819,0.0819 h 0.16375 0.16374 z m -0.36841,-0.1228 -0.0819,-0.0819 -0.0819,0.0819 -0.0819,0.0819 h 0.16374 0.16374 z m -0.47956,-0.12531 c -0.11741,-0.0307 -0.33846,-0.0319 -0.49122,-0.002 l -0.27774,0.0534 0.49122,0.002 0.49122,0.002 z m -1.44439,-0.22264 c 0,-0.0338 -0.0276,-0.0614 -0.0614,-0.0614 -0.0338,0 -0.0614,0.0276 -0.0614,0.0614 0,0.0338 0.0276,0.0614 0.0614,0.0614 0.0338,0 0.0614,-0.0276 0.0614,-0.0614 z m 0.3688,-0.58332 0.29217,-0.39912 -0.21438,0.17411 c -0.20138,0.16353 -0.50586,0.62412 -0.4126,0.62412 0.0234,0 0.1741,-0.1796 0.33481,-0.39911 z m 9.716446,-0.24766 -0.152587,-0.15146 0.08385,0.2202 0.08385,0.22021 0.06872,-0.0687 0.06872,-0.0687 z m -46.681136,4.50771 v -2.2793 l 0.46052,0.0381 0.46052,0.0381 0.13476,0.73684 0.13477,0.73683 0.0929,-0.36842 c 0.0511,-0.20262 0.13212,-0.5342 0.18006,-0.73683 l 0.0872,-0.36842 h 0.42202 0.42201 v 2.2105 2.21049 l -0.39912,0.0385 -0.39911,0.0385 v -0.4069 -0.4069 h -0.36842 -0.36841 v 0.39913 0.39911 h -0.42982 -0.42982 z m 0.85964,0.98986 c 0,-0.0338 -0.0276,-0.0614 -0.0614,-0.0614 -0.0338,0 -0.0614,0.0276 -0.0614,0.0614 0,0.0338 0.0276,0.0614 0.0614,0.0614 0.0338,0 0.0614,-0.0276 0.0614,-0.0614 z m 0.85963,-0.36841 c 0,-0.0338 -0.0276,-0.0614 -0.0614,-0.0614 -0.0338,0 -0.0614,0.0276 -0.0614,0.0614 0,0.0338 0.0276,0.0614 0.0614,0.0614 0.0338,0 0.0614,-0.0276 0.0614,-0.0614 z m -0.98223,-0.85964 c 0,-0.0338 -0.0276,-0.0614 -0.0614,-0.0614 -0.0338,0 -0.0614,0.0276 -0.0614,0.0614 0,0.0338 0.0276,0.0614 0.0614,0.0614 0.0338,0 0.0614,-0.0276 0.0614,-0.0614 z m 3.01568,2.24457 -0.19116,-0.27294 v -1.72602 -1.72602 l 0.19116,-0.27293 0.19117,-0.27294 h 0.6615 0.66151 l 0.19116,0.27294 0.19118,0.27293 v 1.72602 1.72602 l -0.19118,0.27294 -0.19116,0.27293 h -0.66151 -0.6615 z m 1.03689,-1.99896 v -1.41226 h -0.18422 -0.1842 v 1.41226 1.41226 h 0.1842 0.18422 z m 2.33329,0.45192 v -1.83553 l -0.24561,-0.0642 -0.24561,-0.0643 v -0.38529 -0.38529 l 0.89034,0.0361 0.89033,0.0361 0.0397,0.34684 0.0397,0.34685 -0.25144,0.0658 -0.25144,0.0658 -0.0339,1.79789 -0.0339,1.79788 -0.39911,0.0385 -0.39912,0.0385 z m 2.63308,1.64566 -0.23838,-0.17431 v -1.92327 -1.92328 l 0.23838,-0.17431 0.23838,-0.1743 h 0.58178 0.58177 l 0.19299,0.19298 0.19297,0.19298 v 1.88593 1.88593 l -0.19297,0.19298 -0.19299,0.19298 h -0.58177 -0.58178 z m 0.92826,-2.09758 v -1.41226 h -0.1228 -0.12281 v 1.41226 1.41226 h 0.12281 0.1228 z m 2.08769,0.008 v -2.27967 h 0.78319 0.78319 l 0.16855,0.20309 0.16854,0.20308 v 1.01882 1.01883 l -0.13685,0.13685 -0.13685,0.13686 0.16798,0.80136 0.16797,0.80137 -0.0691,0.11176 -0.0691,0.11177 h -0.35364 -0.35364 l -0.0968,-0.58333 -0.0968,-0.58332 -0.0643,0.55262 -0.0642,0.55262 -0.39912,0.0385 -0.39912,0.0385 z m 0.94775,-1.14203 -0.0513,-0.33941 -0.002,0.61403 -0.002,0.61402 0.053,-0.27462 c 0.0291,-0.15104 0.0299,-0.42736 0.002,-0.61402 z m 2.35232,3.2035 -0.16855,-0.20264 -0.0337,-1.73154 -0.0336,-1.73153 0.15943,-0.30701 0.15943,-0.30701 0.62195,-0.0364 0.62195,-0.0364 0.15769,0.19 0.15769,0.19001 0.0623,0.55255 0.0623,0.55256 h -0.44579 -0.44578 v -0.30702 -0.307 h -0.12281 -0.12281 v 1.41225 1.41226 h 0.12281 0.12281 v -0.25339 -0.25339 l 0.39911,0.0385 0.39912,0.0385 -0.0138,0.45828 -0.0138,0.45828 -0.15474,0.18645 -0.15473,0.18644 h -0.58396 -0.58395 z m 3.41326,0.12078 c -0.045,-0.045 -0.0819,-0.43232 -0.0819,-0.86065 v -0.77903 l -0.30715,-1.29993 -0.30716,-1.29994 0.0688,-0.11131 0.0688,-0.11131 h 0.35972 0.35972 l 0.0831,0.51969 0.0831,0.51968 0.13647,-0.48899 0.13648,-0.48897 0.3959,-0.0385 0.3959,-0.0385 v 0.1379 c 0,0.0758 -0.13816,0.74992 -0.30701,1.49795 l -0.30702,1.36004 v 0.78173 0.78173 h -0.34794 c -0.19137,0 -0.38479,-0.0368 -0.42982,-0.0819 z m 2.81282,-0.11111 -0.19297,-0.19298 v -1.88593 -1.88593 l 0.19297,-0.19299 0.19299,-0.19298 h 0.52481 0.52482 l 0.20324,0.22458 0.20324,0.22458 v 0.51225 0.51225 h -0.42166 -0.42166 l -0.0512,-0.33771 c -0.0281,-0.18575 -0.0559,0.32543 -0.0618,1.13595 l -0.0106,1.47365 0.11411,-0.28456 0.11412,-0.28455 0.33862,0.039 0.33862,0.0389 0.0393,0.4106 0.0394,0.41061 -0.21188,0.23412 -0.21188,0.23412 h -0.52482 -0.52481 z m 2.99995,-2.07891 v -2.2719 h 0.35528 0.35528 l 0.0745,0.19425 c 0.041,0.10684 0.0745,0.93577 0.0745,1.84208 v 1.64782 h 0.30702 0.307 v 0.42982 0.42982 h -0.73683 -0.73683 z m 2.57891,0 v -2.2719 h 0.80601 0.80601 l -0.0385,0.39912 -0.0385,0.39911 -0.33771,0.0388 -0.33772,0.0388 v 0.41311 0.41312 l 0.27631,0.0392 0.27632,0.0392 v 0.42982 0.42982 l -0.27632,0.0393 -0.27631,0.0392 v 0.47453 0.47452 l 0.33772,0.0388 0.33771,0.0388 0.0385,0.39913 0.0385,0.39911 h -0.80601 -0.80601 z m 26.157467,0.20324 v -2.06866 l 0.224585,-0.20323 0.224572,-0.20325 h 0.570827 0.570827 l 0.190239,0.29035 0.190239,0.29034 -0.03388,1.95085 -0.03388,1.95084 -0.399111,0.0385 -0.399124,0.0385 v -0.7446 -0.74461 h -0.1228 -0.122807 v 0.73682 0.73683 h -0.429821 -0.429814 z m 1.10525,-1.00148 v -0.61403 h -0.122807 -0.1228 v 0.61403 0.61402 h 0.1228 0.122807 z m 2.019054,2.89582 -0.238384,-0.17431 v -1.8945 -1.8945 l 0.168549,-0.20308 0.168535,-0.20309 h 0.592028 0.592028 l 0.191169,0.27294 0.191168,0.27293 v 0.4639 0.46389 h -0.421654 -0.421662 l -0.05116,-0.33771 c -0.02809,-0.18575 -0.05591,0.32543 -0.06177,1.13595 l -0.01061,1.47365 0.114111,-0.28456 0.11411,-0.28455 0.338627,0.039 0.338619,0.0389 0.03966,0.34565 0.03966,0.34566 -0.195961,0.29906 -0.195961,0.29908 h -0.526318 -0.526324 z m 2.720125,-0.0926 -0.195389,-0.27896 v -1.72602 -1.72603 l 0.191161,-0.27293 0.191176,-0.27294 h 0.592028 0.592021 l 0.158441,0.19091 0.15844,0.19091 0.01012,0.51522 0.01012,0.51522 -0.399124,0.0385 -0.399111,0.0385 v -0.3148 -0.31479 h -0.122807 -0.122807 v 1.41226 1.41225 h 0.122807 0.122807 v -0.2456 -0.24562 h 0.366073 0.366073 l 0.07479,0.29796 0.07478,0.29796 -0.165567,0.34677 -0.165568,0.34677 -0.632523,0.0367 -0.632509,0.0367 z m 2.683582,0.1089 c -0.03339,-0.0869 -0.04545,-1.09546 -0.02685,-2.2412 l 0.03381,-2.08317 0.767532,-0.0366 0.767538,-0.0366 v 0.43567 0.43568 h -0.368421 -0.368414 v 0.42128 0.42128 l 0.263772,0.0392 0.263771,0.0392 0.134713,0.21491 0.134719,0.21491 -0.134719,0.21491 -0.134713,0.21491 -0.263771,0.0393 -0.263772,0.0392 v 0.48267 0.48268 h 0.368414 0.368421 v 0.42982 0.42981 h -0.740691 -0.740684 z m 2.727686,-0.0666 -0.203246,-0.22458 v -0.45085 -0.45085 h 0.37238 0.372367 l 0.111066,0.27631 0.111067,0.27631 0.0078,-0.44419 0.0078,-0.4442 -0.491214,-0.32508 -0.491221,-0.32507 v -0.91052 -0.91053 l 0.192979,-0.19298 0.19298,-0.19298 h 0.535076 0.535076 l 0.192987,0.19298 0.192972,0.19298 v 0.55163 0.55163 l -0.39429,-0.0385 -0.394284,-0.0385 -0.08469,-0.30701 -0.08469,-0.30701 -0.0076,0.42981 -0.0076,0.42982 0.486553,0.33655 0.486559,0.33654 v 0.91344 0.91343 l -0.192972,0.19299 -0.192987,0.19297 h -0.52481 -0.524823 z m 2.843682,0.0711 -0.192952,-0.15351 -0.07602,-0.32796 -0.07603,-0.32795 0.07443,-0.19396 0.07443,-0.19397 h 0.336513 0.336505 l 0.13326,0.27631 0.133266,0.27631 0.0083,-0.43153 0.0083,-0.43152 -0.491084,-0.30351 -0.491076,-0.3035 -0.07696,-0.41023 -0.07696,-0.41023 0.07698,-0.56162 c 0.04235,-0.30889 0.138933,-0.63627 0.214662,-0.72751 l 0.13768,-0.1659 h 0.596153 0.59616 l 0.195465,0.29832 0.195472,0.29832 -0.03911,0.40781 -0.03911,0.40781 -0.390269,0.0378 -0.390276,0.0378 -0.05185,-0.34483 -0.05185,-0.34484 -0.01838,0.45051 -0.01839,0.45049 0.417633,0.25812 c 0.508002,0.31396 0.564809,0.44886 0.564809,1.3411 v 0.69946 l -0.191169,0.27294 -0.191175,0.27293 h -0.522186 -0.522187 z m 2.933053,-0.0656 -0.208142,-0.23 v -1.85433 -1.85433 l 0.198681,-0.19868 0.198674,-0.19868 0.688621,0.0364 0.688621,0.0364 0.154736,0.30701 0.154729,0.30702 v 1.59646 1.59646 l -0.154729,0.30702 -0.154736,0.30701 -0.67916,0.0361 -0.679154,0.0361 z m 1.019907,-2.05273 v -1.41226 h -0.184207 -0.184207 v 1.41226 1.41226 h 0.184207 0.184207 z m 1.793815,2.07764 c -0.04097,-0.10684 -0.07455,-1.04178 -0.07455,-2.07764 0,-1.03587 0.03353,-1.9708 0.07455,-2.07764 l 0.07454,-0.19426 h 0.714918 0.714918 l 0.201263,0.20126 0.201256,0.20126 -0.06459,1.11889 c -0.03553,0.6154 -0.07489,1.22943 -0.08746,1.36451 -0.0126,0.13509 0.02038,0.56337 0.07324,0.95174 l 0.09609,0.70613 h -0.378095 -0.378102 l -0.116879,-0.52192 -0.116878,-0.52193 -0.01315,0.32768 c -0.0072,0.18022 -0.04669,0.41508 -0.08769,0.52192 l -0.07455,0.19425 h -0.342138 -0.342138 z m 0.866962,-1.48408 -0.08187,-0.0819 v 0.16374 0.16374 l 0.08187,-0.0819 0.08187,-0.0819 z m 0.129059,-1.72782 -0.0513,-0.3394 -0.0021,0.61403 -0.0021,0.61402 0.05302,-0.27463 c 0.02913,-0.15103 0.02988,-0.42735 0.0021,-0.61402 z m 2.074106,3.2119 c -0.04097,-0.10684 -0.07455,-1.04178 -0.07455,-2.07764 0,-1.03587 0.03353,-1.9708 0.07455,-2.07764 l 0.07454,-0.19426 h 0.342138 0.342138 l 0.07454,0.19426 c 0.04097,0.10684 0.07455,1.04177 0.07455,2.07764 0,1.03586 -0.03353,1.9708 -0.07455,2.07764 l -0.07454,0.19425 h -0.342138 -0.342138 z m 2.067599,0.0362 c -0.03333,-0.0869 -0.04545,-1.09545 -0.02685,-2.2412 l 0.03381,-2.08317 0.767539,-0.0366 0.767525,-0.0366 v 0.43568 0.43568 h -0.368414 -0.368415 v 0.42127 0.42128 l 0.263765,0.0392 0.263772,0.0392 0.134726,0.21491 0.134713,0.2149 -0.134713,0.21491 -0.134726,0.21491 -0.263772,0.0392 -0.263765,0.0392 v 0.48268 0.48268 h 0.368415 0.368414 v 0.42981 0.42982 h -0.740678 -0.740684 z m 2.840233,-0.035 -0.19298,-0.19298 v -0.48245 -0.48245 h 0.349651 0.34965 l 0.13326,0.27631 0.133252,0.27631 0.0034,-0.42981 0.0034,-0.42982 -0.486566,-0.33655 -0.48656,-0.33655 v -0.91342 -0.91344 l 0.192987,-0.19298 0.192972,-0.19297 h 0.536888 0.536894 l 0.191168,0.27293 0.191169,0.27293 v 0.4639 0.46389 h -0.421662 -0.421654 l -0.05116,-0.33772 -0.05116,-0.33771 -0.01839,0.43995 -0.01838,0.43994 0.460524,0.29745 0.460518,0.29745 0.03656,0.84093 0.03656,0.84092 -0.192932,0.29446 -0.192938,0.29446 h -0.541019 -0.541018 z m -1.175422,-10.12132 c -1.046913,-0.27268 -2.193601,-0.57948 -2.548202,-0.68177 l -0.644725,-0.18599 v -0.13543 c 0,-0.17338 4.294072,-16.330392 4.374918,-16.461202 0.226871,-0.367088 4.885611,1.018353 5.68187,1.689701 l 0.416587,0.351242 0.225438,0.496301 0.225439,0.496301 0.0028,0.723059 0.0028,0.723059 -1.602578,6.031217 -1.602585,6.031222 -0.300369,0.45708 -0.30037,0.4571 -0.382757,0.19794 -0.382757,0.19793 -0.630912,0.054 -0.630905,0.054 z m 2.061553,-2.24245 c 0.06971,-0.0844 0.770431,-2.57395 1.557153,-5.532275 l 1.430407,-5.378768 -0.03773,-0.454467 -0.03773,-0.454472 -0.89312,-0.293999 c -0.491221,-0.161699 -0.912697,-0.272221 -0.936625,-0.245607 -0.03815,0.04242 -3.139824,11.667868 -3.186984,11.945178 l -0.01832,0.10752 0.736835,0.21568 c 0.40526,0.11863 0.854402,0.22221 0.998107,0.2302 l 0.261272,0.0145 z m -83.591401,2.14909 c -0.0658,-0.25329 -1.01043,-3.96333 -2.0992,-8.244522 l -1.97959,-7.784003 0.0532,-0.13851 0.0532,-0.138515 2.072,-0.514504 c 1.13961,-0.28298 2.25354,-0.543765 2.47541,-0.579523 l 0.40339,-0.06502 0.62405,0.133837 0.62406,0.133836 0.46223,0.4176 0.46223,0.417596 0.25215,0.586136 c 0.13868,0.322372 0.47822,1.485306 0.75451,2.584299 l 0.50238,1.998172 -0.12568,0.466721 -0.12568,0.466716 -0.29914,0.32279 -0.29915,0.322785 0.0841,0.04927 c 0.0463,0.02711 0.26696,0.0885 0.49047,0.136459 l 0.40638,0.0872 0.39674,0.396742 0.39674,0.396746 0.63985,2.470102 0.63984,2.47011 v 0.65436 0.65436 l -0.22762,0.4279 -0.22761,0.4279 -0.47852,0.33384 -0.47851,0.33383 -2.40189,0.61791 c -1.32104,0.33984 -2.52087,0.61789 -2.66628,0.61789 h -0.26438 z m 3.22919,-2.71154 0.72437,-0.20508 0.1277,-0.20392 0.12772,-0.20393 -0.52231,-2.00656 -0.52231,-2.006571 -0.17909,-0.27631 -0.17909,-0.276315 h -0.43401 c -0.23871,0 -0.67953,0.06183 -0.97961,0.137387 l -0.5456,0.137383 v 0.123807 c 0,0.0681 0.28495,1.222049 0.63323,2.564329 l 0.63323,2.44052 0.19571,-0.01 c 0.10763,-0.006 0.52166,-0.10212 0.92006,-0.21491 z m -1.92199,-7.583347 0.39884,-0.16148 0.13954,-0.306257 0.13954,-0.306257 -0.44273,-1.68875 -0.44274,-1.688754 -0.24282,-0.242822 -0.24282,-0.242822 -0.71246,0.157735 c -0.39186,0.08676 -0.74934,0.179522 -0.79442,0.206145 l -0.082,0.04841 0.54816,2.11741 c 0.30149,1.164577 0.57202,2.187845 0.60119,2.273935 l 0.053,0.156518 0.34042,-0.08076 c 0.18721,-0.04442 0.51988,-0.153433 0.73924,-0.242247 z m 74.109511,8.917707 c -1.282536,-0.27277 -1.20145,-0.072 -0.825152,-2.04329 l 0.323574,-1.69509 -0.318602,-2.953097 c -0.175228,-1.624201 -0.358974,-3.112983 -0.408324,-3.308397 l -0.08974,-0.355299 -0.907098,4.653476 c -0.498906,2.559417 -0.932728,4.722557 -0.964044,4.806987 l -0.05694,0.1535 h -0.285847 c -0.395813,0 -2.060314,-0.35769 -2.163476,-0.46492 l -0.08438,-0.0877 1.641386,-8.337587 c 0.902761,-4.585669 1.685992,-8.381164 1.740506,-8.434434 l 0.09913,-0.09685 1.157891,0.238677 c 0.63684,0.131274 1.173294,0.254082 1.192119,0.272908 0.01887,0.01885 0.186583,1.650425 0.372794,3.62577 l 0.338564,3.591545 0.07888,-0.219411 c 0.04338,-0.120677 0.342627,-1.60097 0.664976,-3.289539 0.322348,-1.688569 0.633432,-3.121853 0.691306,-3.185074 l 0.105221,-0.11495 1.168364,0.22006 1.168357,0.220056 v 0.30221 c 0,0.166219 -0.718409,3.961351 -1.596464,8.433634 -0.878054,4.472285 -1.596463,8.171165 -1.596463,8.219735 0,0.12442 -0.283375,0.0945 -1.446547,-0.15292 z m 0.79159,-10.033455 -0.08187,-0.08187 v 0.163741 0.163741 l 0.08187,-0.08187 0.08187,-0.08187 z m -66.466671,9.182605 -0.4999,-0.22705 -0.38947,-0.47249 -0.38946,-0.47249 -0.18059,-0.55652 c -0.19943,-0.61459 -2.64585,-13.930256 -2.64585,-14.401154 v -0.294825 l 1.18729,-0.210374 1.1873,-0.210374 0.082,0.09602 c 0.0451,0.05281 0.64602,3.190152 1.33541,6.97188 l 1.25342,6.875857 0.19223,0.29339 0.19224,0.29339 0.72799,-0.066 0.728,-0.066 0.30262,-0.19828 0.30262,-0.19829 v -0.22493 c 0,-0.12372 -0.55262,-3.241806 -1.22805,-6.929095 -0.67542,-3.687288 -1.22804,-6.841547 -1.22804,-7.009461 v -0.305296 l 0.21491,-0.06216 c 0.1182,-0.03421 0.64342,-0.131622 1.16717,-0.216519 l 0.95226,-0.154356 0.10549,0.116138 0.1055,0.116139 1.26324,6.877082 1.26323,6.877078 -0.002,0.79824 -0.002,0.79823 -0.19435,0.4606 -0.19435,0.46062 -0.34266,0.31756 c -0.57094,0.52913 -2.94761,1.16182 -4.33204,1.15322 l -0.43417,-0.003 z m 56.705874,-0.75288 c -0.359022,-0.0523 -0.688422,-0.13071 -0.732002,-0.17429 l -0.07925,-0.0792 0.398319,-2.96245 0.398319,-2.962448 -0.09613,-0.08816 c -0.08732,-0.08007 -2.019446,-0.361063 -2.091767,-0.304201 -0.01687,0.01328 -0.205546,1.345844 -0.419169,2.961209 -0.213637,1.61538 -0.431178,2.98606 -0.483433,3.04597 l -0.09502,0.10893 -1.177123,-0.1558 c -0.647424,-0.0857 -1.198151,-0.18997 -1.223849,-0.23173 -0.0462,-0.0751 1.81658,-13.977609 1.968224,-14.689742 0.109951,-0.516343 0.390393,-1.046554 0.765604,-1.447459 l 0.320283,-0.342219 0.653448,-0.189961 0.653442,-0.18996 1.499058,0.199865 1.499051,0.199865 0.675428,0.332315 0.675428,0.332309 0.268158,0.485022 0.268158,0.485018 0.07418,0.558826 0.07419,0.558821 -0.98707,7.23874 c -0.542891,3.98131 -0.987069,7.28323 -0.987069,7.3376 v 0.0989 l -0.583324,-0.0153 c -0.320827,-0.008 -0.877063,-0.0581 -1.236078,-0.11038 z m 0.38821,-9.115388 c 0.03835,-0.219513 0.214208,-1.471331 0.390703,-2.781821 l 0.320896,-2.382706 -0.06928,-0.276032 -0.06928,-0.276031 -0.387474,-0.135076 c -0.21312,-0.07429 -0.596339,-0.135076 -0.851607,-0.135076 h -0.464125 l -0.19298,0.192978 c -0.106143,0.10614 -0.192979,0.211822 -0.192979,0.234848 0,0.02302 -0.165774,1.24867 -0.368387,2.723645 -0.202619,1.474969 -0.3684,2.744382 -0.368421,2.82091 l -2.1e-5,0.139146 0.828932,0.120492 c 0.455918,0.06627 0.947125,0.127997 1.091581,0.137164 l 0.262643,0.01666 z m -49.097074,8.489708 c -0.0399,-0.2284 -0.51166,-4.061686 -1.04829,-8.518416 l -0.9757,-8.103135 0.0906,-0.09061 c 0.0498,-0.04984 1.22229,-0.228494 2.60546,-0.397016 l 2.51486,-0.306414 0.45597,0.104757 c 0.25079,0.05761 0.63762,0.208318 0.85964,0.334895 l 0.40366,0.230141 0.34244,0.68305 0.34244,0.68305 0.30124,2.447204 0.30124,2.4472 -0.002,0.859638 -0.002,0.859634 -0.22557,0.491218 c -0.12406,0.270174 -0.3357,0.589079 -0.47031,0.708684 l -0.24474,0.217462 1.14761,3.221078 c 0.63119,1.7716 1.14799,3.3118 1.14844,3.42267 l 9e-4,0.20161 -0.27631,0.068 c -0.15197,0.0374 -0.69078,0.10425 -1.19735,0.14851 l -0.92104,0.0805 -1.0926,-3.174631 c -0.60092,-1.746037 -1.13222,-3.219604 -1.18066,-3.274596 l -0.0881,-0.09998 -0.48192,0.03857 -0.48191,0.03857 0.39693,3.192927 c 0.21832,1.75612 0.40004,3.28274 0.40383,3.39249 l 0.007,0.19957 -0.34967,0.0699 c -0.19231,0.0385 -0.7687,0.1079 -1.28086,0.15431 l -0.93119,0.0844 z m 2.81945,-9.14017 0.43074,-0.06714 0.18462,-0.281759 0.18462,-0.281759 -0.26717,-2.239142 -0.26716,-2.239142 -0.24671,-0.313642 -0.24671,-0.313646 -0.7944,0.07418 c -0.43692,0.0408 -0.82245,0.102237 -0.85674,0.136528 -0.0567,0.05669 0.12696,1.815099 0.48497,4.643413 l 0.13632,1.077034 0.41344,-0.06389 c 0.22739,-0.03514 0.60727,-0.09411 0.84418,-0.131033 z m 37.901685,8.7766 c -0.564616,-0.0545 -1.042534,-0.11602 -1.062042,-0.13677 -0.03932,-0.0419 -0.92131,-6.578581 -0.920567,-6.822716 l 4.62e-4,-0.153507 h -0.552628 -0.552615 l 0.0021,0.0921 c 6.89e-4,0.05066 -0.115894,1.528926 -0.260012,3.285037 l -0.262043,3.192936 -0.09621,0.10447 -0.09621,0.10448 -1.178837,-0.0884 -1.178837,-0.0884 0.0041,-0.69153 c 0.0062,-1.01697 1.294944,-16.461231 1.380733,-16.547014 l 0.07308,-0.07309 2.443677,0.201184 2.443677,0.201189 0.477972,0.131974 0.47798,0.131976 0.449804,0.449802 0.449796,0.449803 0.135608,0.488452 c 0.179669,0.647158 0.172336,1.199374 -0.0524,3.945947 l -0.189343,2.314339 -0.190529,0.672346 -0.190535,0.672342 -0.559252,0.555706 -0.559259,0.555708 0.464312,3.399341 0.464305,3.399345 -0.07395,0.19271 c -0.04063,0.10598 -0.117126,0.18517 -0.169905,0.17597 -0.05281,-0.009 -0.557917,-0.0613 -1.122533,-0.11577 z m -0.994658,-9.548492 0.277874,-0.225008 0.158957,-1.647771 c 0.08742,-0.906271 0.161911,-2.019513 0.165547,-2.473869 l 0.0069,-0.826104 -0.27631,-0.176783 -0.276318,-0.176779 -0.736277,-0.04098 -0.736284,-0.04094 -0.205663,2.394695 c -0.113112,1.317086 -0.210077,2.598432 -0.215462,2.847436 l -0.0098,0.452741 0.399117,0.04953 c 0.219517,0.02725 0.572597,0.05837 0.784629,0.06918 l 0.385511,0.01963 z m -31.004637,9.036262 c -0.10991,-0.52915 -1.19274,-16.012156 -1.15347,-16.493247 l 0.0395,-0.484545 1.15688,-0.09573 1.15688,-0.09573 0.0943,0.09573 0.0942,0.09573 0.53299,7.3069 0.53297,7.306902 1.54386,-0.04366 1.54386,-0.04366 0.0799,0.58275 c 0.0776,0.5663 0.11099,1.77386 0.0492,1.77916 -2.09295,0.17952 -4.59571,0.35969 -5.03266,0.3623 l -0.58099,0.003 z m 7.12362,-0.3613 c -0.033,-0.15588 -0.11132,-1.63735 -0.17399,-3.292143 l -0.11396,-3.008727 -1.5494,-5.090746 c -0.85217,-2.799959 -1.5494,-5.219616 -1.5494,-5.377064 v -0.286266 l 1.2559,0.035 1.25589,0.035 0.88302,3.23392 c 0.48566,1.77866 0.90341,3.254335 0.92837,3.279278 0.0249,0.02497 0.28556,-1.430314 0.57914,-3.233916 l 0.5338,-3.279282 0.19133,-0.153507 0.19133,-0.153502 h 1.07453 1.07452 l 0.0582,0.09419 c 0.032,0.0518 -0.46576,2.524791 -1.10617,5.495527 l -1.16439,5.401329 0.1251,3.131281 0.12508,3.131268 -0.0862,0.0776 c -0.0474,0.0427 -0.62316,0.11507 -1.27944,0.16087 l -1.19322,0.0833 z m 10.59324,0.056 -0.69523,-0.044 -0.0532,-0.1477 c -0.0434,-0.12057 0.45505,-16.979846 0.50693,-17.144636 0.009,-0.02743 1.05984,-0.01235 2.33602,0.03346 l 2.320319,0.0833 0.627944,0.18648 0.627944,0.186479 0.423831,0.423834 0.423837,0.423834 0.189247,0.637262 0.189241,0.637257 -0.0087,1.359267 c -0.0048,0.747598 -0.0513,1.845529 -0.103334,2.439848 l -0.09461,1.080585 -0.243108,0.331673 c -0.133714,0.182423 -0.408186,0.416185 -0.609951,0.519476 l -0.366845,0.187793 0.506033,0.315057 0.506039,0.315052 0.22539,0.474974 0.225391,0.474973 -0.08461,2.67186 -0.08462,2.67186 -0.136516,0.402882 c -0.07508,0.22158 -0.246936,0.56129 -0.381896,0.7549 l -0.245373,0.35203 -0.503368,0.2286 -0.503374,0.22861 -2.149085,-0.0205 c -1.181996,-0.0113 -2.461936,-0.0404 -2.844306,-0.0645 z m 4.056058,-2.58085 0.11515,-0.215165 0.04262,-2.190198 0.04262,-2.190198 -0.289924,-0.234941 -0.28991,-0.234941 h -0.775794 -0.77579 l -0.0675,0.644725 c -0.0372,0.354602 -0.0847,1.542739 -0.10556,2.640307 l -0.038,1.995584 h 1.013445 1.013456 z m -0.212225,-7.756027 0.289917,-0.234486 0.03773,-1.883899 0.03773,-1.883904 -0.167874,-0.227176 -0.167875,-0.227171 -0.821612,-0.06595 -0.821619,-0.06596 v 1.656668 c 0,0.911167 -0.0355,1.996347 -0.0789,2.411511 l -0.0789,0.754844 h 0.740718 0.740719 z"
       id="path70" /></g></svg>
