<?xml version="1.0" encoding="UTF-8" standalone="no"?>
<!-- Created with Inkscape (http://www.inkscape.org/) -->

<svg
   width="77.348076mm"
   height="65.915291mm"
   viewBox="0 0 77.348076 65.915291"
   version="1.1"
   id="svg1"
   xml:space="preserve"
   xmlns="http://www.w3.org/2000/svg"
   xmlns:svg="http://www.w3.org/2000/svg"><defs
     id="defs1" /><g
     id="layer1"
     transform="translate(81.122105,-261.37381)"><path
       style="fill:#000000"
       d="m -44.408943,326.36895 -1.60879,-0.91201 -2.00188,-0.80159 -2.00187,-0.80159 -1.87653,-0.39474 -1.87654,-0.39474 -3.77321,-0.28149 -3.77322,-0.28149 -2.31289,-0.38382 -2.31288,-0.38381 -1.65587,-0.56594 -1.65586,-0.56594 -1.058336,-0.53004 -1.058334,-0.53004 -1.455208,-0.98836 -1.455209,-0.98836 -1.334657,-1.42179 -1.334657,-1.4218 -0.957178,-1.5875 -0.957178,-1.5875 -0.612227,-1.71979 -0.612226,-1.71979 0.0015,-3.70417 0.0015,-3.70416 0.84414,-2.21171 0.84414,-2.2117 1.574971,-2.81538 1.574971,-2.81538 0.447307,-1.55984 0.447306,-1.55985 -0.122806,-1.27807 -0.122807,-1.27807 -0.82004,-1.66 -0.820041,-1.66 -1.736259,-2.11667 -1.736258,-2.11667 -0.703018,-0.87754 -0.703018,-0.87755 0.243305,-0.64324 0.243305,-0.64325 5.688542,-5.05986 5.68854,-5.05985 1.60993,-1.41693 1.60993,-1.41692 2.17962,0.91925 2.17963,0.91925 2.16357,0.56645 2.16357,0.56646 2.91042,0.0171 2.91042,0.0171 1.98437,-0.48362 1.98438,-0.48363 2.57307,-1.04228 2.57307,-1.04229 2.5863,1.03398 2.58631,1.03398 1.98437,0.49193 1.98438,0.49193 2.91041,-0.0171 2.91042,-0.0171 2.16357,-0.56646 2.16357,-0.56645 2.17393,-0.91685 2.17393,-0.91685 0.81077,0.68222 0.81077,0.68222 6.69184,5.96174 6.69183,5.96175 v 0.58246 0.58246 l -2.33333,2.80285 -2.33334,2.80286 -0.90781,1.78907 -0.90781,1.78907 0.0108,1.92564 0.0108,1.92563 2.43569,4.83452 2.43568,4.83452 0.4307,1.85208 0.43069,1.85209 0.005,2.24896 0.005,2.24895 -0.43624,1.7198 -0.43624,1.71979 -0.98516,1.98437 -0.98516,1.98438 -2.25498,2.25647 -2.25498,2.25646 -1.85208,0.95202 -1.85209,0.95202 -1.65586,0.56223 -1.65587,0.56223 -2.31288,0.38381 -2.31289,0.38382 -3.77322,0.28149 -3.77321,0.28149 -1.87433,0.39428 -1.87433,0.39427 -1.76079,0.69729 -1.76079,0.69728 -1.87465,1.02086 -1.87466,1.02085 -0.3743,-0.004 -0.3743,-0.004 z m 3.65021,-2.10995 1.66275,-0.91346 1.85209,-0.70531 1.85208,-0.70531 1.45521,-0.36128 1.45521,-0.36127 5.56897,-0.53067 5.56898,-0.53066 2.10394,-0.53181 2.10394,-0.5318 1.93999,-0.95145 1.94,-0.95145 1.81254,-1.70986 1.81254,-1.70986 0.83678,-1.30401 0.83678,-1.304 0.68111,-1.92187 0.68111,-1.92186 v -2.77812 l 10e-6,-2.77813 -0.70428,-2.11667 -0.70427,-2.11666 -1.48312,-2.64584 -1.48311,-2.64583 -0.65893,-1.71979 -0.65892,-1.71979 0.0894,-2.25563 0.0894,-2.25564 0.89139,-1.80957 0.8914,-1.80957 2.12173,-2.63776 2.12173,-2.63775 -0.49958,-0.46529 -0.49959,-0.46529 -5.9933,-5.33504 -5.99331,-5.33505 -1.22385,0.52461 -1.22386,0.52461 -2.30784,0.73389 -2.30784,0.73389 -4.36563,-0.0163 -4.36562,-0.0163 -2.28562,-0.70159 -2.28563,-0.70158 -1.48469,-0.6566 -1.48469,-0.6566 -1.48469,0.6566 -1.48469,0.6566 -2.28562,0.68054 -2.28562,0.68055 -3.32672,0.13693 -3.32671,0.13694 -2.22954,-0.4509 -2.22954,-0.4509 -2.35037,-0.8819 -2.35037,-0.88189 -6.24859,5.56844 -6.248587,5.56844 -0.229488,0.20698 -0.229488,0.20697 2.031441,2.46926 2.031441,2.46926 1.091057,2.19388 1.091057,2.19389 -0.01391,2.03945 -0.01391,2.03945 -0.457011,1.32291 -0.457012,1.32292 -1.675984,3.04271 -1.675984,3.04271 -0.713956,2.11666 -0.713956,2.11667 -0.01784,2.51354 -0.01784,2.51354 0.471306,1.57367 0.471305,1.57367 0.804508,1.60133 0.804508,1.60133 2.017164,1.98917 2.017164,1.98917 1.999725,0.98523 1.99973,0.98523 2.08858,0.53417 2.0886,0.53417 5.56897,0.51821 5.56898,0.5182 2.11666,0.54227 2.11667,0.54226 2.77812,1.40543 2.77813,1.40542 0.057,0.0448 0.057,0.0448 z m -4.37637,-1.26881 -2.59955,-1.29788 -2.42754,-0.61501 -2.42754,-0.61501 -5.12769,-0.44039 -5.12769,-0.4404 -2.48006,-0.62912 -2.48008,-0.62912 -1.53951,-0.82055 -1.539508,-0.82055 -1.250663,-1.03349 -1.250664,-1.03349 -1.013593,-1.22658 -1.013593,-1.22659 -0.695697,-1.4208 -0.695697,-1.4208 -0.424021,-1.65512 -0.424022,-1.65512 0.121681,-2.25896 0.121681,-2.25897 0.584912,-1.71979 0.584911,-1.7198 1.562803,-2.81102 1.562803,-2.81103 0.588031,-1.42231 0.588032,-1.4223 0.01652,-2.67661 0.01652,-2.67661 -1.125333,-2.21818 -1.125333,-2.21819 -1.756321,-2.09397 -1.756321,-2.09397 0.23582,-0.32781 0.23582,-0.3278 5.780635,-5.11885 5.780637,-5.11885 0.30478,0.0598 0.30478,0.0598 2.64584,0.91704 2.64583,0.91703 2.37801,0.31313 2.378,0.31313 2.29933,-0.17357 2.29934,-0.17358 2.06953,-0.54188 2.06954,-0.54189 1.94397,-0.75465 1.94396,-0.75465 1.8925,0.75606 1.89249,0.75607 2.11667,0.554 2.11666,0.55399 2.64584,0.15774 2.64583,0.15773 2.40985,-0.42127 2.40986,-0.42128 2.08806,-0.76082 2.08806,-0.76082 0.39688,-0.17275 0.39687,-0.17275 5.95313,5.30603 5.95313,5.30603 0.0883,0.25161 0.0883,0.25161 -1.10455,1.25484 -1.10455,1.25483 -1.29726,1.93955 -1.29725,1.93956 -0.56643,1.86485 -0.56643,1.86486 0.14703,1.75374 0.14702,1.75375 0.54947,1.46858 0.54947,1.46858 1.58653,2.89672 1.58654,2.89671 0.59689,1.7198 0.59689,1.71979 -0.005,3.04271 -0.005,3.0427 -0.59164,1.5875 -0.59163,1.5875 -1.20392,1.76593 -1.20393,1.76592 -1.11199,0.91119 -1.11199,0.91119 -1.30801,0.82952 -1.30802,0.82952 -1.44687,0.54135 -1.44687,0.54134 -1.79185,0.37692 -1.79184,0.37693 -4.844,0.419 -4.844,0.41899 -1.85208,0.41443 -1.85208,0.41443 -1.98438,0.7821 -1.98437,0.7821 -1.35513,0.77259 -1.35512,0.7726 -0.10009,-0.0453 -0.10008,-0.0453 z m -10.38008,-10.05472 -0.18299,-0.59532 0.64523,0.59532 0.64523,0.59531 h 0.44597 0.44597 v -0.26458 -0.26459 h -0.39688 -0.39687 v -0.16927 -0.16927 l 0.43986,-0.32163 0.43987,-0.32164 -0.16698,-0.43513 -0.16698,-0.43514 h -1.26507 -1.26508 v 1.19062 1.19063 h 0.48086 0.48085 z m -0.11726,-0.99219 v -0.26458 h 0.79375 0.79375 v 0.26458 0.26458 h -0.79375 -0.79375 z m 4.7625,1.32292 v -0.26459 h -0.39687 -0.39688 v -0.66146 -0.66145 h 0.39688 0.39687 v -0.26459 -0.26458 h -1.05833 -1.05833 v 0.26458 0.26459 h 0.39687 0.39688 v 0.66145 0.66146 h -0.39688 -0.39687 v 0.26459 0.26458 h 1.05833 1.05833 z m 2.8575,-0.0529 0.3175,-0.3175 v -0.55563 -0.55562 l -0.3175,-0.3175 -0.3175,-0.3175 h -0.96464 -0.96464 l 0.0254,1.19056 0.0254,1.19056 0.93927,6e-5 0.93927,7e-5 z m -1.79916,-0.87313 v -0.66145 h 0.62906 0.62906 l 0.29068,0.35025 0.29069,0.35025 -0.3112,0.31121 -0.31121,0.3112 h -0.60854 -0.60854 z m 5.55625,0.81893 v -0.3717 l -1.05834,0.14196 -1.05833,0.14195 v -0.33027 -0.33026 l 0.66146,0.12644 0.66146,0.12645 v -0.22789 -0.2279 h -0.66146 -0.66146 v -0.29942 -0.29942 l 1.05833,0.14195 1.05834,0.14196 v -0.3717 -0.3717 h -1.38907 -1.38906 v 1.19062 1.19063 h 1.38906 1.38907 z m 5.82083,0 v -0.3717 l -1.09524,0.14691 -1.09525,0.1469 0.1812,-0.96583 0.18119,-0.96583 h -0.36809 -0.36809 l 0.0254,1.19056 0.0254,1.19056 1.25677,6e-5 1.25677,7e-5 z m 3.30729,-0.81893 v -1.05833 h -1.32291 -1.32292 l -0.0859,0.74996 -0.0859,0.74995 0.14932,0.38913 0.14932,0.38913 1.25947,-0.0807 1.25947,-0.0807 z m -2.24896,0 v -0.66145 h 0.92605 0.92604 v 0.66145 0.66146 h -0.92604 -0.92605 z m 5.01559,0.80761 0.31788,-0.38302 0.12728,-0.80761 0.12728,-0.8076 h -0.44362 -0.44362 l 0.14505,0.55469 0.14506,0.55468 -0.14251,0.37136 -0.1425,0.37135 h -0.47255 -0.47255 l -0.14251,-0.37135 -0.1425,-0.37136 0.14506,-0.55468 0.14505,-0.55469 h -0.42112 -0.42112 l 0.16291,0.8599 0.16291,0.85989 0.25975,0.33073 0.25975,0.33073 h 0.46437 0.46437 z m 3.66275,0.0655 0.3175,-0.3175 v -0.45735 -0.45735 l -0.41577,-0.41578 -0.41578,-0.41577 h -0.97329 -0.97329 v 1.19062 1.19063 h 1.07157 1.07156 z m -1.79917,-0.87313 v -0.6966 l 0.72761,0.0837 0.7276,0.0837 v 0.52916 0.52917 l -0.7276,0.0837 -0.72761,0.0837 z m -15.34583,-4.10104 0.52916,-0.52916 v -1.5875 -1.5875 h 0.26459 0.26458 v -0.26459 -0.26458 h -0.92604 -0.92604 v 0.26458 0.26459 h 0.26458 0.26458 v 1.5551 1.5551 l -0.41905,0.34779 -0.41905,0.34778 -0.44084,-0.27675 -0.44085,-0.27675 -0.0788,-1.62614 -0.0788,-1.62613 h 0.27721 0.27721 v -0.26459 -0.26458 h -1.05834 -1.05833 v 0.26458 0.26459 h 0.26458 0.26459 v 1.5875 1.5875 l 0.52916,0.52916 0.52917,0.52917 h 0.79375 0.79375 z m 4.70363,0.11729 0.58803,-0.41188 v -0.6427 -0.6427 l -1.05833,-0.70037 -1.05833,-0.70037 v -0.33341 -0.33341 l 0.38922,-0.14936 0.38921,-0.14935 0.38564,0.38563 0.38563,0.38563 h 0.15119 0.15119 v -0.52916 -0.52917 h -1.18131 -1.18132 l -0.28855,0.53916 -0.28855,0.53916 0.14809,0.45303 0.1481,0.45302 0.92489,0.59775 0.9249,0.59774 v 0.40275 0.40275 l -0.43513,0.16697 -0.43514,0.16698 -0.32164,-0.43986 -0.32163,-0.43987 h -0.30156 -0.30157 v 0.50712 0.50712 l 0.33073,0.13345 0.33073,0.13345 0.66874,0.0209 0.66873,0.0209 z m 2.63544,-0.44802 -0.063,-0.59531 h 0.92604 0.92604 l -0.063,0.59531 -0.063,0.59532 h 0.88694 0.88693 l -0.63236,-1.24909 -0.63237,-1.24908 -0.29957,-0.99987 -0.29957,-0.99988 h -0.4639 -0.46391 l -0.73193,1.86557 -0.73194,1.86558 -0.21749,0.13441 -0.21749,0.13442 v 0.24897 0.24897 h 0.65834 0.65834 z m 0.3379,-1.51151 0.004,-0.40672 0.24614,-0.38921 0.24615,-0.38921 0.12517,0.12517 0.12517,0.12517 0.17883,0.71251 0.17883,0.7125 -0.5542,-0.0418 -0.5542,-0.0417 z m -15.34989,0.81036 1.71979,-0.17629 -1.6661,-0.21709 -1.66611,-0.21709 0.40933,-0.62472 0.40934,-0.62473 v -0.0814 -0.0814 l -2.84427,0.36226 -2.84427,0.36227 -0.39688,0.17151 -0.39687,0.17151 2.08096,0.0791 2.08096,0.0791 -0.46832,0.51749 -0.46832,0.51749 1.16548,-0.0309 1.16549,-0.0309 z m 25.98209,-0.0794 -0.3175,-0.3175 v -0.20053 -0.20054 l 2.05052,-0.0786 2.05052,-0.0786 -0.39688,-0.17151 -0.39687,-0.17151 -2.84427,-0.36227 -2.84427,-0.36226 v 0.14547 0.14547 l 0.39392,0.5624 0.39392,0.5624 -1.65069,0.21945 -1.6507,0.21944 1.5875,0.15859 1.5875,0.15859 1.1774,0.0445 1.1774,0.0445 z m 8.15056,-8.08302 0.001,-5.4901 0.48618,-0.79375 0.48617,-0.79375 -0.42142,-0.64868 -0.42143,-0.64868 -0.13229,-4.66343 -0.13229,-4.66342 -0.69589,-1.05045 -0.6959,-1.05046 -1.19777,-0.63541 -1.19778,-0.63542 -0.99139,0.2511 -0.99139,0.2511 -0.50102,0.67534 -0.50102,0.67535 -0.0535,4.23164 -0.0535,4.23165 -0.43308,0.66041 -0.43309,0.66041 0.43309,0.7826 0.43308,0.7826 0.0633,5.68164 0.0633,5.68163 0.4659,0.166 0.4659,0.16599 0.7276,0.17668 0.72761,0.17668 v -5.69358 -5.69358 h 0.24736 0.24735 l 0.6735,0.25606 0.6735,0.25606 0.0713,5.73978 0.0713,5.73977 0.92604,0.33403 0.92604,0.33404 0.33073,0.0201 0.33073,0.0201 z m -1.5889,-1.64301 v -5.81021 l -1.74766,-0.53979 -1.74766,-0.5398 h -0.10442 -0.10442 v 5.68854 5.68854 h -0.39688 -0.39687 V 291.4249 280.96072 l 0.40168,-0.77678 0.40169,-0.77677 0.70692,-0.17743 0.70692,-0.17743 0.92048,0.50433 0.92047,0.50432 0.49814,0.67673 0.49813,0.67672 0.0525,10.8988 0.0525,10.89879 h -0.33073 -0.33073 z m -0.32471,-16.10101 -0.33735,-0.71067 -0.91646,-0.45753 -0.91646,-0.45753 -0.53845,0.35721 -0.53844,0.35722 -0.0721,4.79667 -0.0721,4.79667 0.46899,0.0212 0.46899,0.0212 1.32291,0.44181 1.32292,0.4418 0.0725,-4.4487 0.0725,-4.44871 z m -1.99039,7.88005 -0.59531,-0.23929 v -3.55876 -3.55876 l 0.1606,-0.41852 0.16059,-0.41851 h 0.44795 0.44794 l 0.3175,0.3175 0.3175,0.3175 v 3.91583 3.91584 l -0.33073,-0.0168 -0.33073,-0.0168 z m -38.02291,14.063 1.06928,-0.48571 0.70649,-0.83961 0.70649,-0.83962 0.27327,-0.98397 0.27328,-0.98397 10e-4,-2.97656 10e-4,-2.97657 -0.33073,0.001 -0.33073,10e-4 -0.99219,0.27555 -0.99218,0.27554 v 3.16257 3.16256 l -0.52317,0.52317 -0.52317,0.52316 -0.40287,-0.1546 -0.40288,-0.1546 v -4.21816 -4.21817 l 0.40716,-0.78735 0.40715,-0.78735 -0.40715,-0.5813 -0.40716,-0.58129 v -4.02717 -4.02717 l 0.57728,-0.40434 0.57728,-0.40434 0.34877,0.28944 0.34876,0.28945 v 2.83711 2.83712 l 1.25677,-0.3186 1.25677,-0.31861 0.075,-2.80287 0.075,-2.80288 -0.3836,-0.91808 -0.3836,-0.91808 -0.68868,-0.45124 -0.68869,-0.45124 -0.958,0.15546 -0.95801,0.15546 -0.98919,0.65462 -0.98919,0.65462 -0.56122,1.15932 -0.56122,1.15933 v 4.17596 4.17596 l -0.42091,0.88699 -0.4209,0.88699 0.4209,0.60093 0.42091,0.60093 v 4.38017 4.38017 l 0.42518,0.60704 0.42519,0.60704 0.567,0.22881 0.567,0.22881 0.52917,0.011 0.52917,0.011 z m -2.35652,-1.10938 -0.69714,-0.54837 9.9e-4,-9.96881 9.9e-4,-9.96882 0.51648,-0.84705 0.51647,-0.84705 0.79232,-0.40972 0.79231,-0.40972 h 0.55433 0.55433 l 0.65904,0.65904 0.65905,0.65904 -0.0758,2.5821 -0.0758,2.58211 -0.26458,-0.13229 -0.26458,-0.1323 -0.0374,-2.14838 -0.0374,-2.14839 -0.16981,-0.53502 -0.16981,-0.53503 -0.48289,-0.12628 -0.48289,-0.12627 -0.81414,0.34232 -0.81415,0.34232 -0.41399,0.80058 -0.414,0.80058 v 9.61752 9.61751 l 0.3175,0.3175 0.3175,0.3175 h 0.8496 0.84961 l 0.68498,-0.81405 0.68498,-0.81405 v -2.89011 -2.89012 h 0.39687 0.39688 v 2.71611 2.7161 l -0.48347,0.90147 -0.48346,0.90148 -0.90147,0.48346 -0.90147,0.48346 h -0.43147 -0.43147 z m 35.49496,-1.47229 -0.82176,-1.75607 -0.21849,-4.66007 -0.21848,-4.66007 0.0157,-0.52917 0.0157,-0.52917 0.12445,-4.56478 0.12446,-4.56479 -0.4503,-0.94893 -0.45029,-0.94893 -0.95084,-0.61828 -0.95084,-0.61828 -1.5875,-0.16577 -1.5875,-0.16577 -0.59531,-0.12342 -0.59531,-0.12342 v 5.63471 5.63471 l -0.40716,0.5813 -0.40715,0.5813 0.40715,0.78735 0.40716,0.78735 v 5.70168 5.70168 l 0.7276,0.004 0.72761,0.004 0.59531,0.15954 0.59531,0.15953 v -5.70378 -5.70379 l 0.21321,-0.13177 0.21321,-0.13177 0.64669,0.32163 0.64668,0.32162 0.16395,4.09401 0.16395,4.09401 0.30253,1.09943 0.30252,1.09944 0.45957,0.5378 0.45957,0.5378 1.19062,0.25266 1.19063,0.25266 0.18453,0.0283 0.18454,0.0283 z m -1.92902,-0.55902 -0.49536,-0.99219 -0.0923,-4.10104 -0.0923,-4.10105 -0.127,-0.59196 -0.12701,-0.59197 -0.59111,-0.37154 -0.59111,-0.37154 -1.25677,-0.17718 -1.25677,-0.17719 v 5.85266 5.85266 l -0.26458,-0.16352 -0.26459,-0.16352 v -11.53051 -11.53051 l 1.55386,0.1409 1.55387,0.1409 0.6723,0.44051 0.6723,0.44051 0.43895,0.92502 0.43895,0.92502 -0.0854,3.81539 -0.0854,3.81538 -0.58138,0.58064 -0.58139,0.58063 0.58139,0.81503 0.58138,0.81503 0.13229,4.49791 0.13229,4.49792 0.44274,0.8599 0.44274,0.85989 h -0.32759 -0.32759 z m -0.9932,-12.29065 0.33221,-0.27571 v -4.21296 -4.21297 l -0.64943,-0.64943 -0.64943,-0.64943 h -0.50813 -0.50812 l -0.82682,-0.16537 -0.82682,-0.16536 v 5.30877 5.30877 l 0.99219,0.10829 0.99218,0.10829 0.65998,-0.11359 0.65998,-0.11359 z m -2.38967,-0.63974 -0.18854,-0.18854 v -4.04133 -4.04133 l 0.21321,-0.13177 0.21321,-0.13177 0.64669,0.32241 0.64668,0.32241 v 3.96093 3.96094 l -0.67136,0.0783 -0.67136,0.0783 z m -17.92103,13.85643 1.16505,-0.59532 0.54466,-0.74607 0.54466,-0.74607 0.13229,-4.8493 0.13229,-4.84929 0.4418,-0.49005 0.4418,-0.49005 -0.50795,-0.62462 -0.50794,-0.62463 v -4.21716 -4.21716 l -0.40136,-0.77613 -0.40135,-0.77613 -0.77613,-0.40136 -0.77613,-0.40135 h -0.90006 -0.90005 l -0.8747,0.59531 -0.87469,0.59531 -0.5535,0.74565 -0.55349,0.74565 -0.13229,4.71749 -0.1323,4.71748 -0.50402,0.55614 -0.50403,0.55614 0.50403,0.55613 0.50402,0.55614 0.1323,4.70884 0.13229,4.70883 0.52916,0.58709 0.52917,0.58709 0.52917,0.21658 0.52916,0.21659 0.67155,0.0168 0.67154,0.0168 z m -3.08869,-1.10128 -0.74236,-0.63826 -0.0835,-9.34976 -0.0835,-9.34977 0.28673,-0.97268 0.28672,-0.97269 0.80927,-0.68096 0.80927,-0.68096 h 0.91777 0.91777 l 0.64943,0.64943 0.64943,0.64944 v 9.81475 9.81474 l -0.40135,0.77614 -0.40135,0.77613 -0.77614,0.40135 -0.77613,0.40136 h -0.65984 -0.65985 z m 2.44003,-0.207 0.69375,-0.3161 0.37703,-0.7291 0.37704,-0.7291 v -9.45494 -9.45494 l -0.57529,-0.61237 -0.57529,-0.61236 h -0.63569 -0.63569 l -0.7734,0.7734 -0.77339,0.77339 v 9.80994 9.80994 l 0.52916,0.52916 0.52917,0.52917 h 0.38443 0.38442 z m -1.13187,-0.91747 -0.33073,-0.13345 v -9.60285 -9.60285 l 0.41905,-0.34778 0.41906,-0.34778 0.44084,0.27798 0.44084,0.27799 0.0696,9.33934 0.0696,9.33934 -0.44132,0.48764 -0.44131,0.48765 -0.15743,-0.0209 -0.15743,-0.0209 z m 12.54894,1.34704 0.74637,-0.54797 0.46261,-0.90723 0.46261,-0.90724 4.1e-4,-4.04339 4.1e-4,-4.0434 -0.38239,-0.9152 -0.3824,-0.91521 0.38077,-0.72994 0.38076,-0.72994 10e-4,-3.96875 10e-4,-3.96875 -0.46261,-0.90724 -0.46261,-0.90723 -0.74678,-0.54797 -0.74678,-0.54798 h -2.42822 -2.42822 l -0.13229,5.84709 -0.13229,5.84709 -0.35369,0.4254 -0.3537,0.4254 0.41984,0.5994 0.41984,0.59941 v 5.7875 5.7875 l 2.49477,-0.0917 2.49478,-0.0917 z m -4.67759,-12.01973 v -11.64167 h 1.74625 1.74625 l 0.89959,0.89959 0.89958,0.89958 v 4.11275 4.11274 l -0.63388,0.73694 -0.63389,0.73693 0.63389,0.75333 0.63388,0.75333 v 4.06829 4.06829 l -0.31609,0.69375 -0.3161,0.69375 -0.7291,0.37703 -0.7291,0.37704 h -1.60064 -1.60064 z m 3.83397,10.51719 0.68846,-0.59532 0.0126,-4.30854 0.0126,-4.30854 -0.34473,-0.41538 -0.34473,-0.41537 -0.66046,-0.25111 -0.66046,-0.2511 -0.93791,0.15818 -0.93792,0.15819 0.0766,5.41215 0.0766,5.41215 h 1.16545 1.16546 z m -2.12967,-0.80486 -0.13117,-0.34184 0.0733,-4.08993 0.0733,-4.08994 0.56233,-0.0802 0.56233,-0.0802 0.42986,0.42986 0.42985,0.42985 v 3.57037 3.57037 l -0.27389,0.51177 -0.27389,0.51178 h -0.66046 -0.66045 z m 2.24984,-10.70563 0.57318,-0.46413 v -4.21017 -4.21018 l -0.47772,-0.47689 -0.47772,-0.4769 -0.52917,-0.0501 -0.52916,-0.0501 -0.92605,0.0419 -0.92604,0.0419 v 5.15938 5.15937 h 1.35975 1.35975 z m -2.30721,-4.76139 0.0729,-4.16719 0.56233,-0.0802 0.56233,-0.0802 0.42986,0.42986 0.42985,0.42985 v 3.50006 3.50006 l -0.3175,0.3175 -0.3175,0.3175 h -0.74755 -0.74755 z m 25.40461,-3.37725 -0.12718,-0.66527 0.42845,0.16441 0.42845,0.16441 v -0.29289 -0.29289 h -0.92604 -0.92605 v 0.26459 0.26458 h 0.41471 0.4147 l -0.16795,0.52917 -0.16795,0.52916 h 0.37802 0.37801 z m 2.71409,-0.12848 v -0.79375 h -0.33073 -0.33073 v 0.39688 0.39687 h -0.26458 -0.26458 v -0.39687 -0.39688 h -0.22049 -0.22049 v 0.79375 0.79375 h 0.8158 0.8158 z"
       id="path85" /></g></svg>
