<?xml version="1.0" encoding="UTF-8" standalone="no"?>
<!-- Created with Inkscape (http://www.inkscape.org/) -->

<svg
   width="75.583061mm"
   height="56.728504mm"
   viewBox="0 0 75.583061 56.728504"
   version="1.1"
   id="svg1"
   xml:space="preserve"
   xmlns="http://www.w3.org/2000/svg"
   xmlns:svg="http://www.w3.org/2000/svg"><defs
     id="defs1" /><g
     id="layer1"
     transform="translate(-85.293423,-117.85429)"><path
       id="path43"
       style="fill:#000000"
       d="m 104.0908,117.85431 c -2.6e-4,4e-5 -8e-4,4.3e-4 -0.001,5.1e-4 h -5.2e-4 v 5.2e-4 h -5.1e-4 l -5.2e-4,5.2e-4 -5.2e-4,5.1e-4 v 5.2e-4 c -8e-5,2.2e-4 -4.6e-4,7.8e-4 -5.1e-4,10e-4 -0.001,0.0129 0.0296,0.057 0.0946,0.13281 0.54937,0.64093 -1.11958,7.81034 -2.20503,9.47229 l -0.38912,0.59531 h -0.63614 c -0.35005,0 -0.82346,-0.18731 -1.052131,-0.41599 l -0.415996,-0.41548 v -2.4443 -2.44377 l -0.359668,-0.49196 -0.359668,-0.49196 -0.971517,0.59996 c -3.313764,2.04802 -7.871928,13.65079 -6.07043,15.45229 0.09398,0.094 0.181047,0.17097 0.197404,0.1757 l 5.17e-4,5.1e-4 h 5.16e-4 c 0.01213,-1e-5 0.03331,-0.74415 0.04703,-1.65364 0.06821,-4.52295 4.471537,-13.42761 6.639905,-13.42761 h 0.346749 v 2.49184 c 0,2.92418 0.08592,3.22299 1.075379,3.73466 l 0.74724,0.38602 0.64183,-0.24391 0.64182,-0.24392 -0.89194,1.80971 c -0.49038,0.9954 -0.88818,1.96884 -0.88418,2.16318 0.004,0.19433 0.33498,-0.36092 0.73535,-1.23404 0.40037,-0.87313 0.95974,-2.00422 1.24282,-2.51354 0.28307,-0.50933 0.53324,-1.10463 0.55604,-1.32291 0.0228,-0.21828 0.48369,-1.88516 1.02371,-3.70417 0.54001,-1.81901 0.99814,-3.75179 1.01854,-4.29483 l 0.0372,-0.98702 -0.52245,-0.46819 c -0.16392,-0.14674 -0.26311,-0.22211 -0.28422,-0.22065 z m -1.66139,0.0176 -0.48731,0.60204 -0.48731,0.60254 -0.37776,-0.33796 -0.37775,-0.33745 0.3483,0.45992 c 0.39889,0.52747 0.69429,0.41748 1.09812,-0.40876 z m 0.81287,0.37001 c -0.20144,0.003 -0.49331,0.2913 -0.88367,0.95291 -0.65956,1.11787 -0.60735,1.11332 -1.70997,0.14521 -4.315282,-3.78887 -12.281541,3.12502 -14.072012,12.21321 l -0.406694,2.06499 0.33228,1.85829 0.332279,1.8588 0.834058,1.2485 0.834574,1.2485 1.190625,0.61237 1.190625,0.61236 1.152384,-0.14831 c 4.589858,-0.58977 10.339711,-8.88163 6.158798,-8.88163 -0.29195,0 -0.601995,0.23119 -0.692465,0.51625 -0.625968,1.97225 -3.522433,5.41263 -4.833813,5.74177 l -0.642338,0.16123 -0.571541,-0.57102 -0.571025,-0.57155 0.02274,-1.7787 c 0.08293,-6.50013 6.272627,-16.61125 8.689392,-14.19448 l 0.415993,0.41548 v 2.574 2.574 l 0.31729,0.31781 c 0.52471,0.52471 0.92321,0.36429 1.34876,-0.5426 1.68748,-3.59615 2.39364,-8.43824 1.56373,-8.42739 z m 16.73593,0.005 c -0.42954,-0.005 -1.24494,0.4211 -2.65566,1.32911 -3.18798,2.05197 -3.80099,2.92592 -2.05258,2.92592 h 0.67437 l -0.12402,0.33073 c -0.0681,0.18191 -1.22008,3.78355 -2.55953,8.00365 l -2.435,7.67291 -0.44596,0.3359 c -1.11602,0.84083 -1.3715,1.15081 -1.3715,1.66398 v 0.54984 l 2.95486,-0.0842 2.95538,-0.0842 0.25424,-0.76429 0.25374,-0.76378 -0.43099,-0.24133 c -0.60948,-0.34109 0.23028,-4.23216 1.68207,-7.79384 0.52806,-1.29549 3.70779,-11.99703 3.70779,-12.47882 0,-0.39203 -0.11332,-0.59781 -0.40721,-0.60151 z m 1.13274,0.13384 c -0.1162,0.005 -0.19637,0.2285 -0.19637,0.57619 0,0.68823 -1.29514,5.04968 -4.39146,14.78669 -1.58254,4.9766 -1.59147,5.01724 -1.04076,4.80591 l 0.3886,-0.14934 -0.0879,1.1746 c -0.0484,0.64612 -0.238,1.35544 -0.42116,1.57613 l -0.3328,0.40153 h -3.12952 -3.12953 l -0.25114,-0.44907 -0.25167,-0.44907 0.25477,-0.67024 c 0.14008,-0.36845 0.61292,-0.97005 1.05058,-1.33687 l 0.79582,-0.66662 2.34766,-7.4011 c 1.29143,-4.07055 2.32531,-7.40434 2.29701,-7.40834 -1.13265,-0.16177 -1.47678,-1.2975 -0.67076,-2.21382 l 0.61909,-0.70383 -0.72761,0.64131 -0.7276,0.6413 v 0.79323 c 0,0.43611 0.19752,1.01138 0.43925,1.27848 l 0.43977,0.48576 -0.63046,2.24689 c -0.67078,2.39149 -0.88675,2.68369 -1.12499,1.5198 -0.0819,-0.40018 -0.32903,-0.96573 -0.54881,-1.25677 l -0.39945,-0.52916 0.40514,1.19062 0.40514,1.19063 -0.28267,1.90117 c -0.7101,4.78113 -3.21239,9.03966 -6.1805,10.51874 l -1.35754,0.67696 -1.20509,-0.001 -1.20458,-0.001 -0.87798,-0.53536 -0.87799,-0.53537 -0.550868,-1.24592 -0.551387,-1.24592 0.252181,-1.52497 c 0.297485,-1.79876 0.146905,-1.91582 -0.543119,-0.42116 -1.214893,2.63158 -4.557479,5.17479 -7.12153,5.41827 l -1.370975,0.13022 -1.187008,-0.61443 c -2.453506,-1.26971 -3.587535,-3.65941 -3.555855,-7.49308 l 0.01964,-2.38125 0.612365,-1.85208 c 0.336823,-1.01865 0.895755,-2.41764 1.241785,-3.10886 0.34603,-0.69123 0.569371,-1.25677 0.496611,-1.25677 -0.217477,0 -1.354258,2.40018 -1.942517,4.10104 -1.196522,3.45955 -1.316121,5.85518 -0.439767,8.80618 l 0.394291,1.3286 1.212329,1.34824 1.21233,1.34824 1.458308,0.42426 1.458309,0.42375 1.229383,-0.32659 c 1.831929,-0.48685 3.253693,-1.39137 4.734594,-3.01171 1.389632,-1.52048 1.654163,-1.58687 1.654163,-0.41444 0,0.84616 0.899397,2.2448 1.938377,3.01377 l 0.74776,0.55345 1.5012,-0.0171 1.5012,-0.0171 1.41542,-0.72864 c 0.76021,-0.39121 1.40254,-0.67684 1.45262,-0.64699 l 5.2e-4,5.2e-4 5.2e-4,5.1e-4 h 5.1e-4 l 5.2e-4,5.2e-4 v 5.2e-4 l 5.2e-4,5.1e-4 c 0.66344,1.39785 1.20777,1.54587 4.8612,1.31879 l 2.8329,-0.17622 0.40618,-0.79375 c 0.2234,-0.43656 0.44411,-0.85183 0.49041,-0.92243 0.0463,-0.0706 0.28445,0.12506 0.52916,0.4346 0.68446,0.86578 2.00871,1.41429 3.40858,1.41129 l 1.26969,-0.003 1.35651,-0.63149 c 0.74616,-0.34743 1.43766,-0.76298 1.53686,-0.92346 0.26085,-0.42208 0.76078,-0.3595 0.59427,0.0744 -0.0774,0.20158 0.0361,0.6183 0.25167,0.92604 l 0.39171,0.55965 h 3.07319 3.07268 l 0.46147,-0.41754 0.46147,-0.41755 0.65475,0.4284 0.65422,0.42891 2.20297,-0.077 2.20244,-0.0775 0.60514,-0.89917 c 1.43287,-2.12968 0.38171,0.13592 -2.54093,5.47615 -1.73019,3.1614 -4.95761,9.13983 -7.17166,13.2855 -2.21405,4.14566 -4.27763,7.83518 -4.58577,8.19898 l -0.56017,0.66198 0.69557,-0.66146 c 0.38266,-0.3638 2.09153,-3.28083 3.79718,-6.48229 1.70566,-3.20146 3.42703,-6.41614 3.82509,-7.14375 0.39806,-0.7276 2.24885,-4.12089 4.11293,-7.54063 l 3.38894,-6.21771 0.20309,-3.175 c 0.11149,-1.74625 0.27456,-4.3061 0.36276,-5.68854 0.0882,-1.38245 0.22895,-2.93025 0.31265,-3.43958 l 0.15193,-0.92604 -0.24702,0.26458 c -0.13604,0.14552 -0.45748,0.97895 -0.71417,1.85208 -0.2567,0.87312 -0.95125,3.11141 -1.54357,4.97438 l -1.07694,3.38739 0.2527,0.25321 0.25321,0.2527 0.87075,-2.87321 c 0.47889,-1.58033 0.98175,-3.0397 1.11776,-3.24321 l 0.24753,-0.37001 -0.14831,1.85209 c -0.0813,1.01865 -0.199,2.68551 -0.262,3.70416 -0.063,1.01864 -0.12009,1.89467 -0.12609,1.94717 -1.4e-4,0.001 -1.1e-4,0.003 -5.1e-4,0.004 -1.7e-4,2.7e-4 -8.4e-4,0.001 -10e-4,0.002 -2.2e-4,2e-4 -0.001,8.6e-4 -0.002,0.001 -0.0335,0.0158 -0.27028,-0.21329 -0.54984,-0.53537 l -0.54208,-0.62425 0.31316,0.55036 0.31367,0.55087 -0.36948,0.77204 -0.36949,0.77257 -2.3952,0.0754 -2.3952,0.0755 -0.47801,-0.52865 -0.47801,-0.52813 -0.4315,0.50953 -0.43098,0.50901 -2.93057,0.0537 c -1.61185,0.0295 -3.08029,-0.0386 -3.26285,-0.15141 l -0.33176,-0.20515 0.17105,-0.6811 c 0.16898,-0.67325 1.45211,-2.41626 1.46761,-1.99368 0.0226,0.61392 0.70284,-1.17174 1.86603,-4.89634 1.50652,-4.82401 1.44313,-4.44321 0.77153,-4.61884 l -0.52916,-0.13797 -0.004,0.7028 c -0.0299,5.37065 -4.33644,11.51412 -8.46253,12.07213 l -1.19063,0.16123 -0.92087,-0.47388 c -0.50642,-0.26051 -1.19102,-0.87806 -1.52135,-1.37252 l -0.60048,-0.89917 v -1.57613 c 0,-2.71765 1.4167,-6.92015 3.09335,-9.17515 l 0.70228,-0.94413 -0.74931,0.66146 -0.74982,0.66146 0.20877,-0.52917 c 1.55426,-3.94107 2.79826,-9.19062 2.25723,-9.525 -0.0237,-0.0146 -0.0467,-0.0216 -0.0682,-0.0207 z m -30.549553,3.45973 -0.632002,0.5793 c -0.347805,0.31872 -0.859589,0.97357 -1.136882,1.45521 -0.25266,0.43885 -0.378611,0.67965 -0.360185,0.70486 l 5.17e-4,5.2e-4 5.17e-4,5.2e-4 c 0.03991,0.0186 0.399043,-0.43528 1.135848,-1.41749 z m 43.952353,2.77813 c -10e-4,2.2e-4 -0.003,10e-4 -0.004,0.002 -6.2e-4,4.3e-4 -0.002,10e-4 -0.003,0.002 -0.0305,0.0378 0.0593,0.31962 0.21343,0.65784 0.16576,0.3638 0.40417,0.66146 0.52968,0.66146 0.12552,0 0.0332,-0.29766 -0.20516,-0.66146 -0.23837,-0.3638 -0.47678,-0.66146 -0.52968,-0.66146 -8.3e-4,0 -0.001,-1.4e-4 -0.002,0 z m 17.45062,0.2775 0.1142,0.77928 0.11472,0.7798 -1.05523,1.04438 c -0.58028,0.57452 -1.74353,2.33413 -2.58485,3.91036 -0.84131,1.57623 -2.60031,4.77096 -3.90933,7.0993 -3.36082,5.97781 -3.91712,6.98739 -11.2913,20.50521 -5.49388,10.07098 -7.34671,12.88818 -9.28418,14.1149 l -0.79789,0.5054 -1.91978,-0.12351 -1.92029,-0.12299 -1.52859,-0.70021 c -0.84076,-0.38492 -1.87606,-1.07149 -2.30064,-1.52601 l -0.77204,-0.8263 v -0.84543 c 0,-0.46483 0.0893,-0.96042 0.19843,-1.10174 0.0256,-0.0331 0.0386,-0.0527 0.0403,-0.0594 v -5.2e-4 -5.1e-4 -5.2e-4 -5.2e-4 -5.1e-4 h -5.1e-4 -5.2e-4 -5.2e-4 c -0.0168,0.004 -0.12826,0.11454 -0.30334,0.30282 -1.54319,1.65953 0.90949,4.54154 4.7687,5.60379 1.72655,0.47524 3.03756,0.46617 4.27623,-0.0294 l 1.05213,-0.42065 1.14773,-1.36529 c 2.02756,-2.41163 3.00303,-3.92516 5.22759,-8.11165 1.19854,-2.25557 3.01732,-5.58932 4.04161,-7.40833 1.02429,-1.81901 3.13254,-5.62901 4.68499,-8.46667 1.55246,-2.83765 4.01338,-7.30251 5.46892,-9.92188 1.45554,-2.61938 3.27914,-5.92076 4.05246,-7.3365 l 1.40612,-2.574 0.5147,-0.1633 c 0.94954,-0.30138 1.61244,-2.66636 0.91053,-3.2489 z m -18.46244,0.0739 c -0.3968,0.0111 -0.99354,0.41399 -2.21537,1.26659 -1.99326,1.39091 -2.24611,1.89307 -1.02526,2.0376 0.89393,0.10582 0.96919,-0.35574 -0.87023,5.35523 l -1.57768,4.89789 -0.76791,0.56793 c -0.42236,0.31227 -0.83226,0.81397 -0.91106,1.11517 l -0.14314,0.54777 h 2.89388 2.89439 l 0.22686,-0.59531 0.22686,-0.59531 -0.36793,-0.41755 c -0.48956,-0.55634 -0.20514,-2.05551 0.92449,-4.87412 0.11664,-0.29104 0.61771,-1.76897 1.11362,-3.28404 l 0.90176,-2.75435 0.60565,-0.21704 0.60513,-0.21704 0.14934,0.38861 c 0.1391,0.36249 -0.42032,2.34704 -2.31097,8.20053 -0.90243,2.79391 -0.93984,3.3352 -0.27233,3.93929 l 0.49712,0.44959 2.05311,-0.0775 2.05362,-0.078 0.21911,-0.59531 0.21962,-0.59531 -0.93689,-0.39171 -0.93741,-0.39119 0.18655,-0.601 c 0.48673,-1.56749 2.07443,-6.59103 2.53111,-8.00881 0.28125,-0.87312 0.57691,-2.00422 0.65681,-2.51354 l 0.14521,-0.92605 -0.56017,-0.59531 -0.55966,-0.59531 h -0.7922 c -0.43573,0 -1.38555,0.30058 -2.11098,0.66818 l -1.3193,0.66869 -0.55035,-0.93328 c -0.3308,-0.56067 -0.52529,-0.85571 -0.8754,-0.84594 z m -5.8937,0.2005 c -0.004,3e-4 -0.006,0.002 -0.008,0.005 -0.0198,0.0391 0.15553,0.29826 0.56637,0.78651 0.37673,0.44773 0.68523,0.93089 0.68523,1.07384 0,0.143 0.11664,0.18793 0.25942,0.0997 0.14278,-0.0882 -0.11434,-0.5714 -0.57154,-1.07383 -0.53959,-0.593 -0.87143,-0.89587 -0.93173,-0.89091 z m 12.62094,0.0904 c -0.26964,0 -0.43244,0.0939 -0.36174,0.20825 0.0707,0.11429 0.23339,0.20774 0.36174,0.20774 0.12834,0 0.29103,-0.0934 0.36173,-0.20774 0.0707,-0.11429 -0.0921,-0.20825 -0.36173,-0.20825 z m -13.45138,0.0186 -1.5751,0.009 -1.57509,0.009 -1.06609,0.70538 c -2.36194,1.56306 -4.23404,4.57603 -5.22294,8.40517 l -0.44441,1.71979 0.11162,1.56063 0.11162,1.56063 0.84439,0.75448 0.84439,0.75396 h 1.32189 1.32136 l 1.18029,-0.55501 c 2.40715,-1.1315 4.79671,-5.03456 5.61,-9.16275 l 0.41858,-2.12493 -0.1819,-0.96945 c -0.10006,-0.53333 -0.52339,-1.35148 -0.94052,-1.81798 z m -18.04851,0.0331 c -1.43292,-0.0434 -3.14596,0.65567 -4.53926,2.04898 -2.09433,2.09433 -3.91294,6.6954 -3.91294,9.89913 v 1.66398 l 0.4346,0.66353 c 0.23913,0.36496 0.74515,0.83252 1.12448,1.0387 3.91513,2.12798 9.74853,-4.60951 9.85005,-11.37657 l 0.0248,-1.63814 -0.4284,-0.82734 c -0.494,-0.95531 -1.43884,-1.43851 -2.55333,-1.47227 z m 42.91934,0.0775 -2.204,0.0775 -2.20451,0.077 -0.0873,0.61702 -0.0873,0.6165 0.48421,0.36173 0.48421,0.36174 -1.29295,2.52646 c -0.71118,1.38944 -1.45168,2.73482 -1.64537,2.99 l -0.35192,0.46405 -0.008,-0.81804 c -0.005,-0.44981 0.12611,-1.81901 0.29042,-3.0427 l 0.29869,-2.22468 0.62735,-0.58291 c 0.34501,-0.32048 0.62736,-0.76695 0.62736,-0.99218 v -0.40928 h -2.59313 -2.5926 l -0.31781,0.31729 c -0.42788,0.42793 -0.39981,1.00511 0.0744,1.52911 l 0.39222,0.43305 -0.40359,6.4673 -0.40307,6.46679 -0.73794,1.45521 c -0.40589,0.80037 -2.3216,4.37224 -4.25711,7.9375 -1.93552,3.56526 -4.88462,9.04213 -6.55309,12.17083 -3.1309,5.87103 -3.6629,6.66478 -4.89944,7.30808 l -0.72709,0.37828 -1.18545,-0.54002 c -3.69095,-1.68142 -7.01715,-1.5652 -7.01715,0.24494 0,1.01158 2.32011,2.67224 4.42712,3.1688 h 5.2e-4 c 0.54805,0.12907 1.53498,0.24637 2.19366,0.26097 l 1.19786,0.0269 0.63407,-0.4439 c 1.51387,-1.06035 4.29142,-4.86803 5.85339,-8.02432 0.46767,-0.94501 2.24343,-4.21855 3.94602,-7.27449 1.7026,-3.05593 3.96789,-7.16359 5.03431,-9.12812 1.06643,-1.96453 3.26962,-5.95313 4.89583,-8.86355 1.62621,-2.91041 3.65129,-6.60135 4.49998,-8.20208 0.8487,-1.60073 1.92314,-3.27543 2.38797,-3.72122 0.46484,-0.4458 0.92958,-1.07565 1.0325,-1.39991 z m -5.07307,1.76475 -0.37362,0.38551 c -0.20553,0.21204 -0.44775,1.09988 -0.53795,1.973 l -0.16382,1.5875 0.52607,-0.92604 c 0.28936,-0.50932 0.46506,-1.16416 0.39016,-1.45521 l -0.13643,-0.52917 0.2527,0.36587 0.25321,0.36536 0.18759,-0.59067 c 0.10647,-0.33546 0.0608,-0.71742 -0.10542,-0.88366 z m -38.93406,0.0362 0.43977,0.16847 0.44028,0.16898 -0.18707,0.86041 c -0.30433,1.40293 -1.88316,6.4368 -2.64066,8.41913 -0.38689,1.01251 -0.91806,1.95617 -1.18029,2.09651 l -0.47646,0.25476 -0.29042,-0.34933 -0.29042,-0.34985 0.54777,-2.09238 c 0.93415,-3.57047 2.56598,-8.10569 3.11402,-8.65373 z m 16.89406,0.14263 c 0.27421,0.006 0.49928,0.2053 0.55397,0.5948 0.0887,0.63131 -2.08734,7.62633 -2.98276,9.58856 l -0.63355,1.38906 h -0.54416 -0.54363 l 0.003,-0.7276 c 0.005,-1.2913 2.49761,-9.05845 3.29902,-10.28155 0.25069,-0.38262 0.5738,-0.56945 0.84801,-0.56327 z m 0.11782,0.32763 -0.39791,0.39687 c -0.50579,0.50404 -2.3082,5.87942 -3.23804,9.65729 l -0.13023,0.52917 0.4129,-0.51728 c 0.3777,-0.47273 2.74855,-7.39971 3.17345,-9.2723 z m -16.97984,0.39687 c -0.46156,0 -3.04685,7.34201 -3.32279,9.43664 l -0.13385,1.0144 0.38448,-0.66145 c 0.77514,-1.33419 3.42864,-9.78959 3.07216,-9.78959 z m 27.73991,0.59066 c -0.2637,0.0879 -0.82182,1.62538 -1.65881,4.56872 -0.2069,0.72761 -0.67997,2.19753 -1.05162,3.26647 -0.37165,1.06894 -0.59175,2.07989 -0.48886,2.24637 0.10288,0.16647 0.50765,-0.70813 0.89917,-1.94355 2.119,-6.68638 2.55265,-8.22221 2.30012,-8.13801 z m -38.569222,3.69177 c -0.0572,0.0139 -0.508892,0.71486 -1.404049,2.16576 l -1.000455,1.6216 0.658357,-0.78341 c 0.36191,-0.43095 0.965187,-1.38345 1.340487,-2.11667 0.289518,-0.56562 0.430461,-0.86696 0.410311,-0.88676 -9.57e-4,-5.8e-4 -0.0032,-8.8e-4 -0.0047,-5.2e-4 z m -2.255676,3.78736 -0.463021,0.36329 c -0.254662,0.19972 -0.463021,0.40812 -0.463021,0.46302 0,0.21777 0.217113,0.0774 0.562756,-0.36328 z m 17.648538,8.81962 -0.62219,0.0879 -0.62218,0.0884 -0.0873,0.6165 -0.0873,0.6165 -0.80047,0.27905 -0.79995,0.27905 -0.38344,0.82424 -0.38292,0.82424 0.13488,-0.83664 0.13539,-0.83716 -0.33176,-0.27492 c -0.28292,-0.2348 -2.47834,-0.22209 -2.68511,0.0155 -0.0389,0.0447 -0.15537,0.89418 -0.2589,1.88825 l -0.1881,1.80764 0.61856,-0.0873 0.61857,-0.0879 0.1509,-1.12965 c 0.0829,-0.62136 0.30438,-1.27619 0.49247,-1.4552 l 0.3421,-0.32557 -0.14779,0.52917 c -0.0814,0.29105 -0.22731,0.97566 -0.32401,1.52136 l -0.1757,0.99218 h 0.69091 0.69091 l 0.0227,-0.85989 0.0227,-0.8599 0.23048,0.77101 c 0.12684,0.42416 0.35625,0.84892 0.50953,0.94362 0.15329,0.0947 0.78356,0.10503 1.40043,0.0227 l 1.12137,-0.14986 0.1602,-1.45521 c 0.0881,-0.80037 0.249,-1.97138 0.3576,-2.60191 z m -21.624006,0.30851 c -2.107887,0 -3.55798,2.728 -2.359546,4.43901 0.234114,0.33424 0.662335,0.5724 0.992187,0.5519 l 0.580327,-0.0357 -0.59583,-0.11472 c -0.82451,-0.15876 -1.210085,-1.01305 -1.037662,-2.29857 l 0.145727,-1.08572 0.692464,-0.59583 c 0.7939,-0.68288 1.657244,-0.76219 2.398304,-0.22014 l 0.513663,0.37569 -0.02532,1.2175 -0.02584,1.21801 -0.615983,0.65526 c -0.338758,0.36059 -0.803201,0.66494 -1.032496,0.67644 l -0.417028,0.0212 0.316259,0.12867 c 1.492812,0.60723 2.805698,-2.7654 1.648995,-4.23591 l -0.548287,-0.69712 z m 8.863541,0 -0.592212,1.22576 -0.591695,1.22577 -0.132291,-1.15962 -0.132292,-1.15962 H 97.370801 96.71296 l -0.444418,1.64745 c -0.244571,0.90624 -0.526044,2.0178 -0.625284,2.46961 l -0.180351,0.82114 0.621151,-0.0879 0.62115,-0.0879 0.112138,-0.92604 0.111621,-0.92604 0.152963,0.92294 0.152445,0.92294 0.409794,0.0786 0.409277,0.078 0.450619,-0.94413 c 0.327977,-0.68777 0.461348,-1.0804 0.419613,-1.11828 -0.03941,-0.029 -0.218239,0.2219 -0.521416,0.79634 -0.684935,1.29775 -1.035595,1.04322 -1.035595,-0.75189 0,-1.86957 -0.438927,-1.85709 -0.673344,0.0191 -0.159058,1.27305 -0.48342,1.97336 -0.77618,1.67638 l -5.17e-4,-5.2e-4 c -0.04588,-0.0647 0.158358,-1.02352 0.457336,-2.1425 l 0.547771,-2.05052 h 0.486792 0.487308 v 1.32291 c 0,0.7276 0.09524,1.32292 0.211874,1.32292 0.11664,0 0.463608,-0.59532 0.771012,-1.32292 l 0.559139,-1.32291 h 0.490409 0.490413 l -0.25063,2.11666 -0.250635,2.11667 h -0.378788 -0.378788 l 0.171049,-0.99219 c 0.09393,-0.54571 0.238317,-1.34938 0.321427,-1.78594 l 0.151412,-0.79375 -0.305408,0.29094 c -0.168074,0.16002 -0.357002,0.83739 -0.419612,1.50534 -0.06261,0.66795 -0.146219,1.37047 -0.185519,1.56114 l -0.07131,0.34675 0.674377,0.0786 0.674375,0.0786 0.29042,-2.32751 c 0.31841,-2.55458 0.28901,-2.72438 -0.467667,-2.72438 z m 11.683525,0 h 0.39739 0.39688 l -0.13074,0.46302 c -0.0719,0.25467 -0.20543,0.99881 -0.29663,1.65365 -0.0912,0.65484 -0.22269,1.49296 -0.29249,1.86242 l -0.12712,0.67179 -1.04283,0.0413 c -1.9406,0.0774 -1.57717,-2.78859 0.39894,-3.14606 l 0.52917,-0.0956 0.0837,-0.72502 z m -16.10496,0.0258 c -0.24422,-0.0103 -0.542764,-0.002 -0.89917,0.0238 l -1.154968,0.0827 -0.154513,1.19063 c -0.08504,0.65484 -0.248671,1.76294 -0.363285,2.46238 l -0.208256,1.27176 1.419035,-0.0811 1.418518,-0.0811 0.08785,-0.45992 0.08733,-0.46044 -0.856795,0.17157 -0.80667,0.16123 c 0.152176,0.14127 0.397554,0.18358 0.730705,0.11989 0.346723,-0.0663 0.630418,-0.0178 0.630453,0.10749 -4.8e-5,0.12533 -0.535811,0.22789 -1.190625,0.22789 -0.639495,0 -1.165313,-0.0283 -1.189592,-0.0636 l -5.17e-4,-5.2e-4 v -5.2e-4 -5.1e-4 h -5.16e-4 v -5.2e-4 -5.2e-4 c 2.5e-5,-0.0364 0.178618,-0.99934 0.396875,-2.13992 0.218256,-1.14059 0.397178,-2.09306 0.397391,-2.11666 2.13e-4,-0.0236 0.476464,-0.0753 1.058334,-0.11524 0.592763,-0.0406 1.057816,0.0466 1.057816,0.19844 0,0.14903 -0.357187,0.27078 -0.79375,0.27078 h -0.79375 v 0.37517 c 0,0.20638 -0.06855,0.55447 -0.152445,0.77308 l -0.152446,0.39739 0.615467,0.11731 0.615466,0.1173 -0.590145,0.0357 -0.590145,0.0362 -0.162264,0.64648 c -0.115666,0.46085 -0.08596,0.79178 0.0801,0.9803 l 0.15968,-0.416 c 0.09719,-0.25326 0.176733,-0.56122 0.176733,-0.68471 0,-0.1235 0.258619,-0.26253 0.574642,-0.30903 0.316024,-0.0465 0.623779,-0.23357 0.683679,-0.41547 l 0.108521,-0.33073 h -0.550871 -0.551387 v -0.52917 -0.52917 h 0.765328 0.765328 l 0.156579,-0.40669 c 0.152365,-0.39704 -0.09106,-0.59495 -0.823722,-0.6258 z m -1.46451,4.24677 -0.01705,0.0444 0.05064,-0.01 c -0.01171,-0.0109 -0.02298,-0.0226 -0.03359,-0.0346 z m 22.69422,-4.1212 -1.26969,0.0191 -0.6103,0.70952 c -0.33569,0.39026 -0.69306,1.14846 -0.79375,1.68517 l -0.18293,0.97617 0.37362,0.66559 c 0.20553,0.36618 0.66985,0.7481 1.03146,0.84853 0.36162,0.1004 0.81596,0.13499 1.00976,0.077 0.19381,-0.058 0.52122,-0.10542 0.7276,-0.10542 0.20638,0 0.37517,-0.23073 0.37517,-0.51263 v -0.51263 l -0.89865,0.14625 -0.89865,0.14572 -0.17932,-0.56534 c -0.2552,-0.80406 0.0649,-2.00475 0.68368,-2.5647 l 0.52865,-0.47904 0.54984,0.34365 0.54983,0.34313 0.2248,-0.35501 c 0.40708,-0.64301 0.0662,-0.88447 -1.22112,-0.86507 z m 0.23513,0.11369 c 0.36245,0 0.74066,0.13193 0.84026,0.29301 l 0.18087,0.29248 -0.80977,-0.17776 -0.80926,-0.17777 -0.54002,0.5395 c -0.69578,0.69576 -0.95855,1.76834 -0.6475,2.64118 l 0.24598,0.6904 0.85059,-0.003 c 0.46766,-0.001 0.85008,0.0879 0.85008,0.19844 v 5.2e-4 c 0,0.11059 -0.46952,0.20102 -1.04335,0.20102 h -1.04334 l -0.41187,-0.58808 c -1.09759,-1.56703 0.3029,-3.90984 2.33733,-3.90984 z m -26.329143,0.13177 -0.645438,0.7426 L 88.9,147.13779 v 1.13171 c 0,0.62247 0.0792,1.21147 0.176217,1.30845 0.09701,0.097 0.45122,0.17622 0.787032,0.17622 h 0.610815 l 0.418579,-0.80977 c 0.230281,-0.44532 0.382087,-1.23686 0.337447,-1.75907 l -0.08113,-0.94929 -0.47904,-0.29146 z m 34.337443,0.006 c -0.18115,0.005 -0.40545,0.12576 -0.60927,0.3638 l -0.44958,0.52451 -0.74518,-0.14882 -0.74517,-0.14935 -0.66456,0.43563 c -0.3655,0.23944 -0.66456,0.31373 -0.66456,0.16485 0,-0.14887 -0.28421,-0.27078 -0.63149,-0.27078 h -0.63148 l -0.17777,1.18442 c -0.25832,1.72257 -0.66543,1.73124 -0.48782,0.0103 0.0829,-0.80259 0.0447,-1.45721 -0.0847,-1.45521 -0.46403,0.008 -0.99324,0.49134 -1.05834,0.96686 -0.0365,0.26629 -0.13759,0.94389 -0.22479,1.50585 l -0.15865,1.02165 0.31471,0.37982 c 0.17316,0.20861 0.48405,0.31401 0.69092,0.23461 0.20687,-0.0794 0.71152,-0.14418 1.12189,-0.14418 h 0.74621 l 0.19999,-1.65364 0.19947,-1.65365 0.23409,0.8723 c 0.12875,0.47979 0.40777,0.93911 0.62012,1.02061 0.66202,0.25404 0.42822,0.68872 -0.27544,0.51211 l -0.66145,-0.16588 v 0.50591 c 0,1.16135 2.167,0.73626 2.3368,-0.45837 l 0.0879,-0.61856 -0.55345,-0.58911 c -0.30438,-0.32397 -0.47295,-0.66962 -0.37465,-0.76792 0.0984,-0.0983 0.0401,-0.1788 -0.12971,-0.1788 -0.50658,0 -0.3495,0.7532 0.22066,1.05834 l 0.52916,0.28318 v 0.65216 c 0,0.35868 -0.11906,0.65216 -0.26458,0.65216 -0.14552,0 -0.26458,-0.16032 -0.26458,-0.35605 0,-0.19573 -0.24361,-0.57572 -0.54106,-0.84491 -0.29744,-0.26918 -0.50582,-0.7317 -0.46302,-1.02785 0.0832,-0.57578 1.38041,-1.19701 1.72651,-0.82682 0.11198,0.11978 0.0541,0.27111 -0.12867,0.33641 -0.18296,0.0653 -0.26847,0.22209 -0.19017,0.34882 0.0783,0.1267 0.33092,0.15816 0.56121,0.0698 l 0.41857,-0.16071 -0.18086,1.31568 -0.18087,1.31517 0.36277,0.30127 0.36328,0.30127 0.68678,-0.35656 0.68627,-0.35606 0.37827,0.37828 0.37775,0.37775 0.6935,-0.26355 c 0.38139,-0.14501 0.88604,-0.55757 1.12138,-0.91674 l 0.42788,-0.65319 -0.0832,-0.98547 -0.0832,-0.98547 -0.46819,-0.29145 -0.46819,-0.29146 -0.7338,0.4191 -0.73381,0.41961 -0.31936,-0.3421 c -0.17568,-0.18806 -0.31936,-0.45895 -0.31936,-0.60203 0,-0.28263 -0.14971,-0.42377 -0.35501,-0.41754 z m -34.387569,0.3023 0.471806,0.18139 0.471806,0.18087 -0.133842,1.18597 c -0.07351,0.65218 -0.281798,1.36449 -0.463021,1.58285 -0.181224,0.21836 -0.553083,0.39687 -0.826306,0.39687 h -0.496611 v -1.16117 -1.16168 l 0.487826,-0.60255 z m 34.397899,0.0909 c 0.0658,2.8e-4 0.0609,0.079 -0.0439,0.24857 -0.0854,0.13822 0.0713,0.37269 0.3483,0.5209 l 0.50332,0.26975 -0.40721,1.46347 -0.40772,1.46348 h -0.64699 -0.64751 l 0.1757,-0.99219 c 0.0967,-0.54571 0.23733,-1.20055 0.31213,-1.45521 0.0748,-0.25466 0.009,-0.46302 -0.14625,-0.46302 -0.15533,0 -0.0445,-0.23812 0.2465,-0.52916 0.33619,-0.3362 0.61101,-0.52702 0.71365,-0.52659 z m 7.81451,0.21033 -0.54363,0.29094 c -0.29919,0.1601 -0.60785,0.18809 -0.68575,0.062 -0.1508,-0.24398 -1.29453,-0.28171 -1.97559,-0.14883 l 0.21342,0.3452 0.21704,0.35088 0.52194,-0.27957 0.52244,-0.27957 0.27699,0.27647 0.27647,0.27699 0.58601,-0.31368 0.58601,-0.31368 0.26148,0.26149 0.26097,0.26148 -0.33176,1.4826 c -0.18253,0.81562 -0.4316,1.48311 -0.55397,1.48311 -0.29154,0 -0.28279,-0.72087 0.0222,-1.78439 l 0.24546,-0.85421 -0.25683,-0.15865 c -0.46874,-0.2897 -0.99909,0.44419 -1.17667,1.62833 l -0.17519,1.16892 h -0.39532 -0.39533 l 0.16123,-0.42013 c 0.0887,-0.231 0.23611,-0.88585 0.32711,-1.45521 l 0.16537,-1.03508 h -0.2837 c -0.48961,0 -1.10691,1.13972 -1.10691,2.04329 v 0.86713 h -0.39688 c -0.21828,0 -0.39416,-0.0893 -0.39016,-0.19844 0.01,-0.29788 0.5162,-2.52329 0.67593,-2.96933 l 0.13746,-0.38292 c -0.24384,0.048 -0.42783,0.1184 -0.48369,0.20878 -0.0986,0.1595 -0.19764,0.47059 -0.22014,0.69143 -0.0225,0.22084 -0.13252,0.97728 -0.24443,1.68103 l -0.20309,1.27951 0.6227,-0.0889 0.62219,-0.0889 0.19895,-1.1715 c 0.10947,-0.64441 0.33416,-1.29925 0.49919,-1.45521 l 0.30024,-0.28371 -0.139,0.52917 c -0.0764,0.29105 -0.21435,0.97566 -0.30645,1.52136 l -0.16743,0.99218 h 0.67386 0.67335 l 0.001,-0.46302 c 0.002,-0.77921 0.53816,-2.44739 0.786,-2.44739 0.13266,0 0.12728,0.37129 -0.0124,0.85834 -0.13536,0.47198 -0.24598,1.12682 -0.24598,1.45521 v 0.59686 h 0.49454 0.49506 l 0.31936,-1.62367 0.31936,-1.62367 -0.38654,-0.38654 z m -3.21014,0.20515 c 0.002,-3.4e-4 0.003,-6.9e-4 0.005,-0.001 l -0.003,-0.005 z m -24.96178,-0.13849 c -0.24638,-5.2e-4 -0.55069,0.0509 -0.92759,0.15193 l -0.59532,0.15968 v 0.52658 0.5271 l 0.66146,-0.16588 c 0.3638,-0.0913 0.66146,-0.0598 0.66146,0.0703 0,0.1301 -0.35384,0.30727 -0.78652,0.39377 l -0.78703,0.15762 -0.16743,0.66869 c -0.0924,0.36789 -0.0994,0.84799 -0.0155,1.0666 l 0.15244,0.39739 h 1.17254 1.17254 l 0.26355,-1.52135 0.26303,-1.52136 -0.24598,-0.46302 c -0.16063,-0.30196 -0.41102,-0.44716 -0.82165,-0.44803 z m 0.10955,0.18087 0.32918,0.36535 0.32918,0.36483 -0.23151,1.33687 -0.23099,1.33687 -0.93225,0.0269 -0.93224,0.0264 -0.15658,-0.40721 c -0.23244,-0.60572 0.28494,-1.25024 1.07952,-1.34514 l 0.70073,-0.0837 v -0.54261 -0.54208 l -0.66146,0.12609 c -0.87565,0.1674 -0.85585,-0.27055 0.0222,-0.49093 z m 3.63957,0.13952 c 0.3112,-0.008 0.3066,0.45037 0.154,1.76527 l -0.18655,1.60352 h -0.38861 -0.38861 l 0.13591,-0.46302 c 0.0748,-0.25466 0.21543,-0.9095 0.31213,-1.45521 l 0.1757,-0.99219 h -0.25322 c -0.48874,0 -1.08819,0.93548 -1.17409,1.83193 -0.0478,0.49812 -0.24834,0.95871 -0.44596,1.02371 l -0.35967,0.11783 0.19844,-1.15601 c 0.10907,-0.63583 0.21106,-1.33459 0.22686,-1.55287 0.038,-0.52488 0.49875,-0.83888 0.71571,-0.48783 l 0.17209,0.27802 0.58549,-0.31368 c 0.22865,-0.12236 0.39861,-0.1964 0.52038,-0.19947 z m 19.03605,0.0233 c 0.10559,-0.003 0.21118,0.0106 0.31471,0.0434 l 0.51263,0.16278 v 0.98185 c 0,0.5399 -0.18532,1.24599 -0.41186,1.56941 l -0.41186,0.58808 h -0.7612 -0.76067 l -0.1695,-0.5333 c -0.37533,-1.18256 0.66705,-2.78332 1.68775,-2.81223 z m -6.99647,0.17053 h 0.31057 l -0.25321,1.53169 -0.25322,1.53169 -1.17718,0.0512 -1.17719,0.0512 0.14211,-0.59066 c 0.078,-0.32494 0.22252,-1.03715 0.32142,-1.58285 0.28047,-1.54773 0.67557,-1.16953 0.4837,0.46302 l -0.17105,1.45521 h 0.26871 c 0.46594,0 0.83322,-0.6496 1.017,-1.79886 0.0977,-0.61124 0.31748,-1.11156 0.48834,-1.11156 z m -9.4971,0.26458 c -0.70841,0 -1.28689,1.94186 -0.74104,2.48771 0.32342,0.32342 1.12862,-0.90608 1.12862,-1.72341 v -0.7643 z m 13.91233,0 -0.23616,1.12448 c -0.1299,0.61846 -0.17042,1.24354 -0.0899,1.38906 0.0805,0.14552 0.23673,-0.26263 0.34727,-0.90692 0.11053,-0.64429 0.35235,-1.26745 0.53743,-1.38492 l 0.33642,-0.21395 -0.44752,-0.004 z m 2.25568,0.0408 c -0.44019,-0.0188 -0.69067,0.5521 -0.69505,1.61282 l -0.004,0.99219 h 0.40359 c 0.80323,0 1.24324,-2.27367 0.49558,-2.56057 -0.0705,-0.027 -0.13711,-0.0418 -0.19999,-0.0444 z m -15.95562,0.0915 -0.1819,0.91778 c -0.10003,0.50478 -0.29904,1.03439 -0.44183,1.17719 l -0.25942,0.25993 v -0.81442 c 0,-0.44785 0.1985,-0.97747 0.44132,-1.17719 z m 16.07654,0.13643 c 0.17846,1.7e-4 0.24825,0.4057 0.11059,1.0325 -0.0978,0.4453 -0.28736,0.87714 -0.42168,0.96014 -0.31802,0.19653 -0.30997,-1.21878 0.01,-1.72444 0.11669,-0.18453 0.22015,-0.26828 0.30127,-0.2682 z m -22.8508,1.0542 c -0.38889,0 -0.98805,0.51329 -0.98805,0.84646 0,0.4298 0.78432,0.19471 1.05833,-0.31729 l 0.28319,-0.52917 z m -0.31109,0.26458 c 0.0642,0 0.11679,0.11907 0.11679,0.26459 0,0.14552 -0.12598,0.26458 -0.28009,0.26458 -0.15408,0 -0.20669,-0.11906 -0.11679,-0.26458 0.0899,-0.14552 0.21589,-0.26459 0.28009,-0.26459 z m 17.81235,1.09193 c 0.14386,0.002 0.27785,0.0211 0.36742,0.0574 0.17913,0.0725 -0.0316,0.12695 -0.46819,0.12195 -0.43656,-0.005 -0.583,-0.0647 -0.32556,-0.13177 0.12871,-0.0334 0.28246,-0.0493 0.42633,-0.0475 z m -5.27307,2.04173 -0.26458,0.75913 -0.26458,0.75861 -0.77877,0.29404 -0.77824,0.29352 0.0574,-0.29197 c 0.0723,-0.3684 -1.62527,-0.41125 -2.06964,-0.0522 -0.1801,0.14553 -0.4061,1.00872 -0.5023,1.91823 l -0.17518,1.65365 h 0.67489 0.67438 v -1.00562 c 0,-0.92224 0.35982,-1.64021 0.82166,-1.64021 0.1026,0 0.12285,0.47506 0.045,1.05575 l -0.14159,1.05575 0.31781,0.38343 0.31678,0.38293 0.97358,-0.0889 c 0.38606,-0.0354 0.61617,-0.0603 0.83561,-0.0837 l -0.33641,-0.27905 -0.33642,-0.27906 -0.38809,0.24547 c -0.76162,0.4817 -1.04955,0.22223 -1.04955,-0.94568 0,-1.01299 0.84036,-2.17296 1.65882,-2.28927 l 0.59014,-0.0837 0.0847,-0.59531 c 0.0465,-0.32743 0.23129,-0.59531 0.41083,-0.59531 h 0.32659 l -0.37103,2.05052 c -0.20396,1.12779 -0.41988,2.21293 -0.48008,2.41122 l -0.10955,0.36019 c 0.0848,-0.009 0.29457,-0.0284 0.32298,-0.0326 0.10192,-0.0148 0.26894,-0.76893 0.37155,-1.67586 l 0.18655,-1.649 0.20516,0.52452 c 0.11267,0.28846 0.21304,1.02361 0.22324,1.63349 0.0102,0.60987 0.12704,1.176 0.25942,1.2578 0.3918,0.24214 1.08105,-0.14002 1.09915,-0.60926 l 0.0165,-0.4346 0.23926,0.59531 c 0.13161,0.32743 0.34363,0.59531 0.47129,0.59531 0.35241,0 1.21652,-1.03761 1.02423,-1.2299 -0.0927,-0.0927 -0.24358,0.027 -0.33538,0.26614 -0.0917,0.2391 -0.33266,0.4346 -0.53537,0.4346 h -0.36845 l -0.0171,-0.8599 -0.0165,-0.8599 -0.42788,0.8599 c -0.23537,0.47295 -0.58534,0.8599 -0.77722,0.8599 h -0.34881 V 155.729 c 0,-0.64294 -0.0724,-1.35731 -0.16072,-1.5875 l -0.16019,-0.41858 h 0.42478 0.42529 v 1.05833 c 0,0.58209 0.10996,1.05833 0.24392,1.05833 0.2334,0 0.70502,-1.50666 0.60048,-1.91823 -0.0277,-0.10914 0.12795,-0.19843 0.34623,-0.19843 h 0.39687 v 1.24385 1.24333 l 0.23255,-0.25114 c 0.12794,-0.13825 0.37545,-0.69816 0.54983,-1.24386 0.27503,-0.86065 0.79746,-1.37302 0.80926,-0.79375 0.002,0.10914 0.11223,0.36933 0.24443,0.57826 l 0.24029,0.37983 0.42375,-0.3514 c 0.23289,-0.19323 0.49974,-0.27489 0.59324,-0.18139 0.23599,0.236 0.0644,0.36252 -0.77876,0.57413 l -0.72709,0.18241 -0.009,-0.49144 -0.009,-0.49196 -0.37776,0.66146 c -0.20797,0.36381 -0.37504,0.84005 -0.37104,1.05833 0.004,0.21828 0.12154,0.11187 0.26097,-0.23667 0.13942,-0.34855 0.32013,-0.56716 0.40153,-0.48576 0.0814,0.0814 0.0198,0.38762 -0.13695,0.68058 -0.15682,0.29296 -0.21337,0.71995 -0.12557,0.94877 l 0.15968,0.416 h 1.26866 1.26865 l 0.18759,-1.61489 0.18758,-1.61489 -0.36018,-0.35811 -0.35967,-0.35812 -1.52135,0.15813 -1.52136,0.15761 -0.0315,0.69091 -0.031,0.6904 -0.17001,-0.79375 c -0.0934,-0.43656 -0.25764,-0.764 -0.36535,-0.7276 -0.10771,0.0363 -0.37445,0.0661 -0.59273,0.0661 h -0.39688 l -0.0398,0.72761 -0.0398,0.7276 -0.11007,-0.7276 -0.11007,-0.72761 h -0.65422 -0.65371 l 0.0765,-0.7183 0.076,-0.7183 -0.46973,-0.0961 z m -8.04705,0.56948 c -0.0702,-0.001 -0.15153,10e-4 -0.24495,10e-4 h -0.632 l -0.17363,0.92604 -0.17363,0.92604 h -0.52917 -0.52917 l 0.17363,-0.92604 0.17364,-0.92604 h -0.66353 -0.66404 l -0.30696,1.78594 c -0.16897,0.98227 -0.37268,2.05383 -0.45268,2.38125 l -0.14573,0.59531 h 0.68678 0.6873 l 0.16898,-1.05833 0.1695,-1.05834 h 0.52916 0.52917 l -0.1695,1.05834 -0.16898,1.05833 h 0.66456 c 0.36552,0 0.66456,-0.049 0.66456,-0.10904 0,-0.06 0.17861,-1.04222 0.39687,-2.18281 0.43674,-2.28238 0.50115,-2.46239 0.01,-2.47168 z m -3.00447,0.26561 h 0.35605 0.35657 l -0.15038,0.92604 -0.15038,0.92605 h 0.81649 0.81649 l 0.17363,-0.92605 0.17363,-0.92604 h 0.38551 0.38499 l -0.13539,0.46302 c -0.1184,0.40498 -0.69402,3.46265 -0.69402,3.6866 0,0.046 -0.16601,0.0837 -0.36897,0.0837 h -0.36897 l 0.21291,-0.94361 0.21239,-0.94362 -0.35708,-0.13694 c -0.19662,-0.0755 -0.5689,-0.0967 -0.82683,-0.047 l -0.4687,0.0904 -0.2341,0.99064 -0.23461,0.99012 h -0.38602 c -0.21238,0 -0.33363,-0.0893 -0.26923,-0.19844 0.0644,-0.10914 0.26101,-1.06165 0.43666,-2.11667 z m 5.09633,0.49765 -0.71985,0.27388 c -0.73056,0.27776 -0.95391,0.90474 -0.43615,1.22473 l 0.2837,0.1757 -0.54828,0.38448 c -0.52561,0.36815 -0.74257,1.39528 -0.37259,1.76526 0.097,0.097 0.68268,0.17622 1.30121,0.17622 h 1.12448 l 0.28681,-1.33584 c 0.3982,-1.85678 0.36905,-2.07727 -0.31626,-2.38951 z m 15.2523,0.21445 c -0.76618,-0.0322 -1.16061,0.1811 -1.2237,0.65578 -0.0257,0.19354 -0.12764,0.977 -0.22634,1.74098 l -0.17932,1.38906 h 0.67025 0.67076 v -0.81132 c 0,-0.91054 0.41043,-1.83451 0.81493,-1.83451 h 0.26717 l -0.1757,0.93689 -0.1757,0.93638 0.46974,0.51883 c 0.25813,0.28509 0.65886,0.50914 0.8909,0.49764 l 0.4222,-0.0212 -0.39688,-0.1416 c -0.21828,-0.078 -0.53949,-0.32158 -0.71416,-0.54105 l -0.31782,-0.39894 0.15555,-0.82734 c 0.0855,-0.45501 0.34134,-1.04121 0.56844,-1.30276 l 0.4129,-0.47594 0.67489,0.0791 0.67541,0.0786 v 0.52916 0.52917 l -0.8692,0.38241 -0.86919,0.38292 0.0837,0.41083 c 0.0472,0.23179 0.33987,0.40195 0.67076,0.39015 0.32288,-0.0116 0.58705,0.0778 0.58705,0.19844 0,0.12075 -0.13874,0.21963 -0.30851,0.21963 -0.16979,0 -0.23251,0.0765 -0.13901,0.17001 0.2371,0.23711 1.00383,-0.44128 0.82527,-0.73019 -0.0801,-0.1295 -0.43577,-0.16248 -0.79065,-0.0734 -0.9003,0.22596 -0.7872,-0.19007 0.22479,-0.82682 l 0.84956,-0.53485 v -0.65577 -0.6563 l -0.75085,-0.0858 -0.75086,-0.0863 -0.55087,0.48318 -0.55087,0.48265 0.15864,-0.43614 0.15865,-0.43615 -0.91106,-0.10646 c -0.12474,-0.0146 -0.24142,-0.0243 -0.35088,-0.0289 z m -12.98835,0.21394 0.23151,0.35916 0.23151,0.35863 0.18087,-0.29249 c 0.22559,-0.36496 0.67902,-0.38405 0.67902,-0.0284 0,0.14552 -0.17441,0.26458 -0.38757,0.26458 -0.51281,0 -0.93534,0.82865 -0.93534,1.83452 v 0.81132 h -0.42788 -0.42737 l 0.15917,-0.59532 c 0.0877,-0.32742 0.16343,-0.89297 0.16743,-1.25677 0.004,-0.36381 0.1249,-0.84005 0.2682,-1.05833 z m 12.5522,0.0884 c 0.0865,-0.007 0.1478,0.10149 0.1478,0.36122 v 0.31781 l 0.31729,-0.31781 c 0.38634,-0.38633 0.74104,-0.41146 0.74104,-0.0527 0,0.14552 -0.1744,0.26458 -0.38757,0.26458 -0.5128,0 -0.93535,0.82865 -0.93535,1.83452 v 0.81132 h -0.40204 -0.40153 l 0.12196,-0.59532 c 0.0672,-0.32742 0.19394,-1.0418 0.28164,-1.5875 0.0953,-0.59255 0.35168,-1.0235 0.51676,-1.03611 z m -2.32957,0.0439 h 0.9617 l -0.16795,1.22783 c -0.0926,0.67516 -0.16847,1.37517 -0.16847,1.55598 v 0.32866 l -1.07435,0.015 -1.07435,0.015 0.0822,-0.71158 0.0822,-0.71107 0.85989,-0.25322 0.8599,-0.25321 v -0.5054 -0.50487 l -0.66146,0.12609 c -0.3638,0.0695 -0.66146,0.0241 -0.66146,-0.10129 0,-0.12534 0.43312,-0.22789 0.96222,-0.22789 z m -12.59665,0.0341 c 0.0533,0.002 0.10693,0.005 0.15916,0.0114 l 0.75965,0.0868 -0.062,0.66146 c -0.0341,0.3638 -0.12486,1.02877 -0.20206,1.47794 l -0.14056,0.81701 -1.05471,0.0413 -1.0542,0.0413 v -0.5085 c 0,-0.65355 0.68755,-1.33997 1.34203,-1.33997 h 0.51005 v -0.55759 -0.5581 l -0.7276,0.17983 -0.72761,0.17984 0.29869,-0.30438 c 0.14365,-0.14626 0.5258,-0.23942 0.89917,-0.22841 z m 5.47874,0.23048 c -0.72066,0 -1.53627,1.70834 -1.12965,2.36626 0.43337,0.7012 1.07282,0.0444 1.3379,-1.37407 l 0.18552,-0.99219 z m 12.41113,0 c -0.22873,0 -0.54343,0.23813 -0.69919,0.52917 l -0.28318,0.52916 h 0.53846 c 0.29616,0 0.53847,-0.0497 0.53847,-0.11058 0,-0.0608 0.0724,-0.29899 0.16072,-0.52917 l 0.16071,-0.41858 z m -12.30778,0.17208 -0.18449,0.77412 c -0.10155,0.42559 -0.2842,0.95219 -0.40566,1.17047 l -0.22065,0.39687 -0.008,-0.82734 c -0.004,-0.45513 0.17772,-0.98224 0.40515,-1.17099 z m -5.8384,0.0925 c 0.13693,0 0.24908,0.11907 0.24908,0.26459 0,0.14552 -0.18551,0.26458 -0.41238,0.26458 -0.22687,0 -0.33898,-0.11906 -0.24908,-0.26458 0.0899,-0.14552 0.27545,-0.26459 0.41238,-0.26459 z m 17.99166,0 c 0.15407,0 0.20669,0.11907 0.11679,0.26459 -0.0899,0.14552 -0.21588,0.26458 -0.28008,0.26458 -0.0642,0 -0.11679,-0.11906 -0.11679,-0.26458 0,-0.14552 0.12597,-0.26459 0.28008,-0.26459 z m -17.86557,1.05834 c -0.1137,0 -0.23777,0.0623 -0.35399,0.15864 l 0.12868,0.32091 c 0.0764,0.19099 0.0667,0.41905 -0.0212,0.50695 -0.088,0.0879 -0.15051,-0.0684 -0.13901,-0.34727 l 0.0196,-0.47077 c -0.31914,0.27211 -0.57427,0.79723 -0.38396,0.98754 0.29492,0.29491 0.58264,0.18012 0.86351,-0.34468 0.36449,-0.68106 0.34626,-0.81132 -0.11368,-0.81132 z m -0.36587,0.16846 c 0.004,-0.003 0.008,-0.007 0.0119,-0.01 l -0.0103,-0.0264 z m 12.90515,-0.12144 c -0.33583,0.008 -0.77463,0.39891 -0.77463,0.79737 0,0.2876 0.14011,0.47578 0.31161,0.41858 0.4041,-0.1347 0.90475,-0.9282 0.709,-1.12396 -0.066,-0.066 -0.15194,-0.0942 -0.24598,-0.092 z m 19.59829,0.21756 v 0.79065 0.79065 l -0.59428,-0.063 -0.59479,-0.063 -0.0496,0.66146 -0.0496,0.66145 0.13436,-0.46302 c 0.0739,-0.25466 0.23669,-0.46302 0.36173,-0.46302 0.40338,0 0.53242,0.91331 0.262,1.85622 -0.36331,1.2668 -0.34831,1.31878 0.38189,1.31878 h 0.64492 l 0.17932,-1.19372 c 0.0985,-0.65664 0.3007,-1.26916 0.44958,-1.36116 l 0.27079,-0.16743 -0.19224,1.03043 c -0.1057,0.56674 -0.21153,1.14674 -0.23513,1.28881 -0.0236,0.14207 0.22499,0.29943 0.55242,0.34933 l 0.59532,0.0904 0.0207,-0.74569 c 0.0116,-0.41513 0.0857,-0.57019 0.16691,-0.34933 0.0803,0.21828 0.32923,0.60679 0.55294,0.86351 l 0.40669,0.46664 0.55087,-0.18397 c 0.303,-0.10121 0.96759,-0.19205 1.47692,-0.20205 l 0.92604,-0.0181 0.13229,-1.03766 c 0.0728,-0.5707 0.29779,-1.0924 0.50023,-1.1591 l 0.36793,-0.12144 -0.1757,0.70176 c -0.0968,0.38576 -0.0498,0.93667 0.10439,1.22473 0.43014,0.80373 2.37815,0.64464 2.37815,-0.1943 v -0.39739 l -0.66146,0.16588 c -0.90181,0.22634 -0.83041,-0.14275 0.13384,-0.69143 l 0.7922,-0.45114 v -0.68161 c 0,-0.82077 -0.59458,-1.1058 -1.47226,-0.7059 -0.35723,0.16277 -0.6444,0.18478 -0.6444,0.0496 0,-0.30355 -1.74425,-0.2128 -2.03554,0.10594 -0.12023,0.1316 -0.0114,0.16129 0.2496,0.0677 0.25466,-0.0913 0.46302,-0.0469 0.46302,0.0992 v 0.26562 l 0.52917,-0.28319 0.52916,-0.28318 v 0.27388 c 0,0.15064 -0.11033,0.27389 -0.24546,0.27389 -0.49896,0 -1.07745,0.85377 -1.07745,1.5906 0,0.69208 -0.39846,1.27431 -0.67955,0.99322 -0.0632,-0.0632 -0.0118,-0.66626 0.11421,-1.34049 l 0.22892,-1.22628 -0.44803,-0.40514 c -0.59649,-0.53982 -1.12661,-0.51133 -1.90738,0.10283 l -0.64647,0.5085 -0.33383,-0.53434 -0.33383,-0.53485 -0.5271,0.13798 -0.5271,0.13798 0.17002,-0.7736 0.16949,-0.77308 h -0.68212 z m -19.69596,0.0863 c 0.0704,0.004 0.11679,0.0563 0.11679,0.14728 0,0.14552 -0.11906,0.33798 -0.26458,0.42788 -0.14552,0.0899 -0.26458,0.0442 -0.26458,-0.10129 0,-0.14552 0.11906,-0.33798 0.26458,-0.42788 0.0546,-0.0337 0.10555,-0.0485 0.14779,-0.046 z m 20.05201,0.17828 h 0.3235 0.32297 l -0.20877,0.92604 c -0.23071,1.02294 -0.20301,1.05364 0.57516,0.63718 0.80759,-0.43222 1.00177,0.001 0.69195,1.54564 -0.35562,1.77256 -0.81414,1.8248 -0.58085,0.0661 l 0.1757,-1.32291 h -0.26613 c -0.44932,0 -0.87851,0.69937 -1.04025,1.69602 -0.0847,0.52231 -0.29409,0.94981 -0.4656,0.94981 h -0.31213 l 0.39223,-2.24896 z m -4.0659,1.00511 c -0.34506,-0.0117 -0.64337,0.80742 -0.56999,2.10375 l 0.0946,1.65364 h 0.49247 c 0.27088,0 0.6139,-0.20836 0.76223,-0.46302 l 0.26975,-0.46302 0.008,0.46302 0.008,0.46302 h 0.52348 0.524 l 0.53434,-1.04799 c 0.294,-0.57628 0.5311,-1.20137 0.5271,-1.38907 -0.004,-0.1877 -0.27738,0.18659 -0.6072,0.83148 -0.32982,0.64488 -0.74289,1.22049 -0.91829,1.27899 l -0.31885,0.10593 -0.0171,-0.88159 -0.017,-0.88212 -0.42788,0.85989 c -0.23537,0.47294 -0.574,0.8599 -0.75241,0.8599 h -0.32453 l -0.0904,-1.45573 -0.0904,-1.4552 h 0.33073 l 0.33073,5.1e-4 0.008,0.99219 0.008,0.99219 0.38809,-0.51367 c 0.21365,-0.28247 0.38861,-0.72895 0.38861,-0.99218 0,-0.26322 0.17859,-0.47853 0.39687,-0.47853 h 0.39688 v 0.94155 0.94154 l 0.28008,-0.1726 0.28009,-0.17311 -0.1757,-0.83509 c -0.2896,-1.37614 -1.40896,-1.63752 -1.46916,-0.34314 l -0.0264,0.56689 -0.17931,-0.64182 c -0.16545,-0.59203 -0.37384,-0.86003 -0.56741,-0.86661 z m 8.05119,0.38292 c 0.3925,-0.005 0.64552,0.32959 0.78238,1.01389 l 0.17208,0.8599 -0.40514,0.61805 -0.40515,0.61805 h -0.75912 c -1.27222,0 -1.35769,-2.01411 -0.11989,-2.82515 0.28528,-0.18693 0.52924,-0.28227 0.73484,-0.28474 z m 4.47879,0.001 c 0.33576,-0.004 0.59468,0.22864 0.65888,0.67954 l 0.0868,0.60772 -0.82165,0.31005 -0.82217,0.31058 0.0822,0.40204 c 0.0451,0.22116 0.34064,0.39321 0.65629,0.38241 0.31564,-0.0108 0.51284,0.0785 0.43874,0.19844 -0.0741,0.11993 -0.48464,0.21807 -0.91261,0.21807 h -0.77825 v -1.05833 -1.05834 l 0.54519,-0.54518 c 0.29768,-0.29768 0.60547,-0.44395 0.86661,-0.447 z m 0.0434,0.10387 -0.46302,0.46302 c -0.25466,0.25466 -0.46302,0.57387 -0.46302,0.709 0,0.30415 0.28479,0.30836 0.75344,0.0114 0.19618,-0.12435 0.31529,-0.44166 0.26459,-0.70487 z m -4.67672,0.36483 c -0.31724,-0.005 -0.74724,0.31428 -0.74724,0.64751 0,0.22285 0.10433,0.40514 0.23203,0.40514 0.33351,0 0.93155,-0.77687 0.74311,-0.96532 -0.0593,-0.0593 -0.13907,-0.0859 -0.2279,-0.0873 z m -1.76371,0.12661 0.13901,0.34726 c 0.0764,0.19099 0.0667,0.41905 -0.0212,0.50695 -0.088,0.0879 -0.15051,-0.0684 -0.13901,-0.34727 z m 2.47478,0.76481 c -0.15488,0.002 -0.50482,0.12182 -0.87281,0.30541 l -0.82373,0.41082 0.14728,0.38396 c 0.17296,0.45071 0.59429,0.48676 1.14929,0.0982 l 0.39687,-0.27802 -0.59531,0.16743 c -0.82468,0.23197 -0.74915,-0.24241 0.10025,-0.62942 0.3826,-0.17433 0.63996,-0.37238 0.57206,-0.44028 -0.0127,-0.0127 -0.0382,-0.0186 -0.0739,-0.0181 z m 0.71985,3.11919 -1.15548,0.0842 c -0.6355,0.0463 -1.29169,0.0949 -1.45831,0.10852 -0.30774,0.0251 -0.63965,1.62439 -0.63665,3.06752 l 0.002,0.79375 -0.78754,0.0553 c -0.43334,0.0305 -0.78807,-0.0588 -0.78807,-0.19844 0,-0.13966 0.23121,-0.25373 0.51366,-0.25373 0.28246,0 0.58706,-0.11906 0.67696,-0.26458 0.20405,-0.33061 0.0773,-0.33192 -0.77669,-0.007 -0.37328,0.14192 -0.67851,0.43958 -0.67851,0.66146 v 0.40359 h 0.6289 c 0.34598,0 0.78156,0.18373 0.9679,0.40825 v 5.1e-4 c 0.18633,0.22452 0.52797,0.37225 0.75964,0.32815 l 0.42116,-0.0801 0.45734,-2.37867 c 0.16927,-0.88053 0.27208,-1.28457 0.30696,-1.26193 0.0487,0.0448 -0.0443,0.98881 -0.28319,2.67735 l -0.16226,1.14774 0.63459,-0.0894 0.63406,-0.0899 0.15917,-1.19063 c 0.0873,-0.65484 0.25012,-1.80537 0.36173,-2.55643 z m -2.15594,0.42426 c 0.19229,-0.004 0.17001,0.74266 -0.0667,2.26498 l -0.31522,2.02572 h -0.30696 -0.30696 l 0.38034,-2.05052 c 0.20908,-1.12779 0.42819,-2.1 0.48679,-2.1606 0.0504,-0.0521 0.0931,-0.0788 0.12867,-0.0796 z m 1.11156,0.0574 h 0.38758 0.38757 l -0.154,0.39998 c -0.0845,0.22011 -0.23247,1.17262 -0.32917,2.11667 l -0.1757,1.71669 h -0.39119 -0.39119 l 0.16484,-0.59532 c 0.0908,-0.32742 0.24092,-1.27991 0.33332,-2.11666 z m -2.76934,0.99477 c -0.29375,0.0138 -0.65038,0.11418 -0.96118,0.27596 l 0.76791,0.11265 c 0.42363,0.0622 0.7705,0.0144 0.7705,-0.10594 0,-0.21086 -0.24681,-0.29816 -0.57723,-0.28267 z m -0.96118,0.27596 -0.002,-5.2e-4 -0.001,0.002 c 0.001,-5.4e-4 0.002,-0.001 0.003,-0.002 z m -0.003,0.002 c -0.1375,0.0718 -0.26853,0.15183 -0.37672,0.24856 l -0.46302,0.41393 v -0.43822 -0.4377 h -0.74104 c -0.40746,0 -0.8837,0.14319 -1.05833,0.31781 l -0.30179,0.30179 c 0.19858,-0.0379 0.54608,-0.12254 0.87281,-0.21445 l 0.75603,-0.21291 0.18965,0.30696 c 0.0617,0.0998 0.0985,0.31144 0.10542,0.55655 l -0.24133,-0.24908 c -0.44565,-0.45947 -1.11932,-0.0488 -1.30483,0.79582 -0.20801,0.94705 -0.004,1.30655 0.74673,1.31155 l 0.5798,0.004 -0.39687,0.25632 c -1.13412,0.73292 -1.7537,0.0926 -1.47433,-1.52342 l 0.17105,-0.99013 -0.29456,0.39688 -0.2253,0.30386 -0.0765,0.79168 -0.0847,0.88522 -0.46302,0.0873 -0.46302,0.0879 v -0.41599 c 0,-0.55535 -0.43938,-0.52968 -0.76067,0.0444 -0.14184,0.25346 -0.32922,0.38909 -0.41652,0.30179 -0.0873,-0.0873 0.0691,-0.44026 0.34779,-0.78445 l 0.50694,-0.6258 -0.24339,-0.63924 c -0.13366,-0.35145 -0.18751,-0.69358 -0.12041,-0.76068 0.22409,-0.2241 0.68626,0.22111 0.68626,0.66094 v 0.43409 l 0.30644,-0.30644 0.30593,-0.30645 -0.32453,-0.39119 -0.32453,-0.39119 -1.10639,0.001 c -1.64829,0.002 -2.04295,0.19093 -2.45308,1.17253 -0.48014,1.14919 -0.46945,1.56764 0.0522,2.08928 l 0.42427,0.4253 1.04438,-0.11989 c 0.57429,-0.066 1.20247,-0.25151 1.3963,-0.41238 l 0.35243,-0.29249 0.15296,0.39895 0.15348,0.39894 0.60203,-0.22273 0.60203,-0.22272 0.447,0.27853 0.44649,0.27906 0.68833,-0.31368 0.68833,-0.31368 0.50022,0.31265 0.50023,0.31212 0.61702,-0.28577 0.61701,-0.28577 -0.92604,0.0372 -0.92604,0.0372 -0.0842,-0.8785 c -0.0484,-0.50415 0.10234,-1.16418 0.35398,-1.54823 z m -3.45663,1.14825 0.009,-0.093 -0.0326,0.0202 -0.0455,0.16588 z m -0.0238,-0.0729 0.063,-0.23099 c 0.0596,-0.21828 0.21749,-0.40668 0.35088,-0.41858 0.0258,-0.002 0.0633,-0.008 0.11007,-0.0165 v -0.30489 c 0,-0.17462 -0.23812,-0.31781 -0.52916,-0.31781 -0.29104,0 -0.52917,0.11537 -0.52917,0.25632 0,0.1409 0.2019,0.17861 0.44907,0.0837 l 0.44958,-0.17208 -0.6134,0.86145 -0.6134,0.86144 0.3018,0.5762 0.30179,0.57567 -0.1385,-0.71158 c -0.0763,-0.39126 -0.0112,-0.79007 0.14521,-0.88677 z m 0.524,-0.66611 v 0.0124 l 0.015,-0.0155 c -0.005,0.001 -0.01,0.002 -0.015,0.003 z m 15.16032,-0.62321 c -0.8426,0 -1.43606,0.37141 -1.90169,1.19062 l -0.30076,0.52917 0.0698,-0.79375 0.0693,-0.79375 -2.30477,-0.0553 -2.30425,-0.0548 -0.54002,0.68574 c -0.59688,0.75881 -0.71525,2.18587 -0.22221,2.67891 l 5.2e-4,-5.2e-4 c 0.37162,0.37164 1.43789,0.42335 1.65003,0.0801 0.0807,-0.13054 -0.23985,-0.21984 -0.71211,-0.19844 l -0.85886,0.0393 -0.0842,-0.8785 c -0.0473,-0.49263 0.1008,-1.161 0.33693,-1.52136 l 0.42116,-0.64285 h 0.63976 c 1.25378,0 1.13457,1.10915 -0.16795,1.56321 -0.86075,0.30006 -0.89747,0.8905 -0.0651,1.04387 0.27898,0.0514 0.7109,0.27415 0.96014,0.49506 0.67548,0.59869 1.19182,0.24136 1.39578,-0.96584 0.26515,-1.56938 0.66954,-1.59318 0.48421,-0.0284 -0.0867,0.7323 -0.0914,1.3317 -0.0103,1.3317 0.53273,0 0.98629,-0.40476 0.99529,-0.88831 l 0.0103,-0.5669 0.39481,0.72761 c 0.42215,0.77814 0.88882,0.89744 1.73529,0.44442 l 0.52865,-0.28267 0.36897,0.30644 0.36897,0.30592 0.8015,-0.1757 c 0.44085,-0.0968 0.86992,-0.28631 0.95292,-0.42064 0.24033,-0.38886 -0.12324,-0.76516 -0.57258,-0.59273 l -0.41083,0.15761 0.32195,0.19895 0.32143,0.19896 -0.57671,0.18293 c -1.13663,0.36074 -1.66852,-0.71358 -1.03818,-2.09703 0.36222,-0.79498 0.86259,-0.91191 0.61908,-0.14469 -0.1819,0.57312 -0.1279,0.61226 0.50746,0.36845 0.55999,-0.21488 0.53268,-0.8257 -0.0444,-0.99322 l -0.46302,-0.13436 0.65888,0.0486 0.65887,0.0491 0.0889,0.46819 0.0889,0.46405 c 0.1963,-0.29446 0.25318,-0.60797 0.14262,-0.89606 l -0.16639,-0.43305 h -0.71469 c -0.39329,0 -0.9384,0.20152 -1.21078,0.44803 l -0.49506,0.44855 0.17208,-0.44855 0.17209,-0.44803 z m 2.87166,1.32911 c -0.001,0.002 -0.002,0.004 -0.003,0.005 l 0.004,-0.002 z m -3.19464,-1.07538 c 0.45443,0.0205 0.77192,0.50525 0.54984,1.48983 l -0.17364,0.76998 -0.4811,0.0822 -0.48059,0.0817 0.0837,-0.8754 0.0842,-0.87591 0.49145,0.0419 0.49092,0.0413 -0.28163,-0.28164 -0.28164,-0.28164 -0.40773,0.33848 c -0.22445,0.18628 -0.40824,0.74099 -0.40824,1.23249 v 0.89348 l 0.59531,0.004 0.59531,0.004 -0.39687,0.25632 c -0.5611,0.36261 -0.9434,0.3255 -1.32033,-0.12868 l -0.32608,-0.39326 0.18242,-0.73122 c 0.27909,-1.11825 0.96964,-1.69131 1.48466,-1.66811 z m -18.34978,0.0108 h 0.63872 l -0.0842,0.56844 c -0.0829,0.55698 -0.41947,0.83959 -1.33686,1.12241 l -0.45889,0.14108 0.15606,0.40721 c 0.16951,0.44173 1.035,0.55502 1.27486,0.16691 0.0816,-0.13193 -0.0896,-0.178 -0.38086,-0.1018 -0.29618,0.0774 -0.52968,0.009 -0.52968,-0.15658 0,-0.16249 0.17393,-0.29559 0.38654,-0.29559 0.21261,0 0.62933,-0.26081 0.92604,-0.57929 l 0.5395,-0.57878 v 0.49817 c 0,0.27413 -0.32003,0.83261 -0.71106,1.24075 -0.79012,0.82472 -1.43929,0.9421 -1.93167,0.34881 l -0.32659,-0.39377 0.18241,-0.73071 c 0.25234,-1.01109 0.89774,-1.65726 1.65572,-1.65726 z m 14.19396,0.0837 1.07539,0.0243 c 0.59139,0.0133 1.05469,0.14335 1.02939,0.28887 -0.0253,0.14552 -0.12175,0.77061 -0.21445,1.38907 -0.0927,0.61846 -0.28471,1.12448 -0.42633,1.12448 h -0.25735 l 0.17931,-1.35238 0.17932,-1.35288 -0.54312,0.29093 -0.54363,0.29094 -0.17932,1.06144 c -0.0987,0.58398 -0.32286,1.06195 -0.49816,1.06195 h -0.31885 l 0.2589,-1.41335 z m -1.41903,0.16898 c -0.25387,0.009 -0.62456,0.22105 -0.79582,0.54105 l -0.28319,0.52917 h 0.35347 c 0.38889,0 0.98805,-0.51328 0.98805,-0.84646 0,-0.16117 -0.1102,-0.22916 -0.26251,-0.22376 z m -5.8074,0.0212 c -0.18306,0.007 -0.36245,0.17938 -0.54467,0.51986 l -0.28319,0.52917 h 0.37362 c 0.45596,0 1.03005,-0.64324 0.7891,-0.88419 -0.1141,-0.1141 -0.22502,-0.16914 -0.33486,-0.16484 z m -7.08329,0.0382 c -0.2749,-0.007 -0.86971,0.48694 -0.86971,0.77876 0,0.12771 0.18229,0.23203 0.40514,0.23203 0.42653,0 0.83112,-0.70419 0.56017,-0.97514 -0.0236,-0.0236 -0.0563,-0.0346 -0.0956,-0.0356 z m -0.19275,0.21704 c 0.0642,0 0.11679,0.11906 0.11679,0.26458 0,0.14552 -0.12598,0.26458 -0.28009,0.26458 -0.15408,0 -0.20669,-0.11906 -0.11679,-0.26458 0.0899,-0.14552 0.21589,-0.26458 0.28009,-0.26458 z m 7.27604,0 c 0.15408,0 0.20669,0.11906 0.11679,0.26458 -0.0899,0.14552 -0.21589,0.26458 -0.28009,0.26458 -0.0642,0 -0.11679,-0.11906 -0.11679,-0.26458 0,-0.14552 0.12598,-0.26458 0.28009,-0.26458 z m 5.55625,0 c 0.15408,0 0.20669,0.11906 0.11679,0.26458 -0.0899,0.14552 -0.21589,0.26458 -0.28009,0.26458 -0.0642,0 -0.11679,-0.11906 -0.11679,-0.26458 0,-0.14552 0.12598,-0.26458 0.28009,-0.26458 z m -8.03052,0.13229 0.50178,0.0884 0.45785,0.0806 c 0.002,0.15831 -0.008,0.32828 -0.0315,0.48989 l -0.1142,0.77877 -0.52039,0.16536 c -0.71164,0.22586 -0.84488,0.0165 -0.54673,-0.85886 z m 9.26817,0.37775 -0.11627,0.60513 -0.11576,0.60462 -0.78445,0.0563 c -0.4478,0.0321 -0.71715,-0.0531 -0.62735,-0.19844 0.0866,-0.14007 0.28979,-0.25477 0.45165,-0.25477 0.16185,0 0.49618,-0.1827 0.74311,-0.40617 z m 7.77937,0.031 -0.94206,0.39377 c -0.95339,0.39835 -1.17551,0.74461 -0.67541,1.05369 0.14913,0.0922 0.23844,0.0393 0.19844,-0.11731 -0.04,-0.15658 0.21323,-0.4333 0.56275,-0.61495 0.38512,-0.20015 0.67751,-0.44954 0.85628,-0.7152 z m -5.50457,3.30264 c -0.0971,-0.006 -0.21379,0.0122 -0.35295,0.0486 l -0.52917,0.13797 v 0.60203 0.60203 l -0.67799,0.17002 -0.678,0.17053 -0.37517,0.85059 -0.37517,0.8506 0.061,-0.92604 0.061,-0.92605 -1.34358,-0.0785 -1.34359,-0.078 -0.25942,1.73787 c -0.14291,0.95607 -0.19945,1.79949 -0.12505,1.87379 0.38827,0.38828 0.96218,-0.14558 1.20716,-1.12293 0.40575,-1.61859 0.68204,-1.68456 0.49661,-0.11885 -0.0885,0.74733 -0.0945,1.35857 -0.0134,1.35857 0.53451,0 0.98557,-0.40502 0.98857,-0.88832 l 0.004,-0.56689 0.33486,0.66146 0.33435,0.66146 h 1.1591 1.15859 l 0.38396,-0.77618 0.11678,0.3793 0.12144,0.39688 h 1.03612 1.03559 l 0.3452,-1.41129 0.34468,-1.41076 -0.31109,-0.37517 c -0.17112,-0.20619 -0.70073,-0.37466 -1.17667,-0.37466 h -0.86507 l -0.15244,0.39688 c -0.0838,0.21828 -0.0884,0.56332 -0.0103,0.76688 0.0781,0.20356 -9.2e-4,0.45887 -0.1757,0.56689 l -0.31781,0.19637 0.18604,-1.48828 c 0.17287,-1.38368 0.12867,-1.86062 -0.29197,-1.88671 z m -0.0677,0.0682 c 0.17913,-9.8e-4 0.17925,1.16779 -0.10335,2.79931 l -0.31471,1.81695 -0.99012,0.0889 -0.99012,0.0884 -0.14883,-0.59273 c -0.0818,-0.32606 -0.0222,-0.9261 0.13281,-1.33377 l 0.28215,-0.74156 0.8015,-0.3023 0.80202,-0.30283 0.15038,-0.59944 c 0.16085,-0.64088 0.29079,-0.9204 0.37827,-0.92088 z m 7.12308,0.0568 v 0.60358 0.60306 l -0.79375,0.29972 c -0.43656,0.1648 -0.79375,0.20512 -0.79375,0.0894 0,-0.11573 -0.46122,-0.21679 -1.02474,-0.22479 l -1.02423,-0.014 -0.26768,1.63659 c -0.14737,0.90013 -0.211,1.7323 -0.1416,1.8495 0.0694,0.11724 0.32181,0.17571 0.56069,0.12971 l 0.43408,-0.0837 0.15193,-0.93224 c 0.31156,-1.91675 0.91467,-2.12736 0.91467,-0.31936 v 1.25729 l 1.25678,0.0579 c 0.69122,0.0319 1.25783,-0.0277 1.25883,-0.1323 0.003,-0.30464 0.51871,-3.5723 0.66663,-4.22506 l 0.13488,-0.59531 h -0.66611 z m -27.74973,0.22376 -0.61081,0.0863 -0.61134,0.0868 -0.0336,0.52917 c -0.0185,0.29104 -0.16601,1.22741 -0.32763,2.08101 -0.16165,0.85359 -0.22833,1.65727 -0.14883,1.78594 0.0112,0.0181 0.0227,0.0352 0.0351,0.0512 l 0.15244,-0.63356 c 0.0846,-0.35135 0.23493,-1.08521 0.33383,-1.63091 0.27179,-1.49983 0.69602,-1.19041 0.53485,0.39688 l -0.15657,1.54099 -0.41548,0.15916 -0.44597,0.17105 c 0.20074,0.25293 0.54629,0.22207 0.73432,-0.0822 l 0.16175,-0.26149 -0.032,0.0124 0.26717,-1.34152 c 0.13593,-0.65484 0.31834,-1.58698 0.40514,-2.07119 z m -1.69395,4.624 c -9.8e-4,-0.001 -0.002,-0.002 -0.003,-0.004 l -0.001,0.005 z m 30.06586,-4.58318 h 0.35761 l -0.37621,2.1792 c -0.40995,2.37378 -0.51549,2.62564 -0.86455,2.06085 l -0.23151,-0.37517 0.24598,-0.45992 c 0.32047,-0.59794 0.31805,-1.81746 -0.003,-1.81746 -0.39768,0 -1.07332,1.11969 -1.07332,1.7787 v 0.60255 h 0.41238 c 0.22687,0 0.33898,0.11906 0.24908,0.26458 h -5.2e-4 c -0.18634,0.30152 -0.75192,0.35086 -1.0144,0.0884 -0.6803,-0.68029 0.42562,-2.99878 1.4304,-2.99878 h 0.51005 v -0.66146 c 0,-0.37959 0.1527,-0.66146 0.35811,-0.66146 z m -29.06489,0.26458 c 0.21828,0 0.39688,0.11907 0.39688,0.26459 0,0.14552 -0.1786,0.26458 -0.39688,0.26458 -0.21828,0 -0.39687,-0.11906 -0.39687,-0.26458 0,-0.14552 0.17859,-0.26459 0.39687,-0.26459 z m 12.24318,0.015 c -0.21973,0.007 -0.5206,0.18249 -0.8046,0.51418 -0.24919,0.29105 -0.3316,0.52917 -0.18293,0.52917 0.14866,0 0.33891,-0.1786 0.42271,-0.39688 0.0838,-0.21829 0.27099,-0.39687 0.41651,-0.39687 0.14549,0 0.19646,0.17858 0.11266,0.39687 l -0.15245,0.39688 0.45475,0.0305 0.45475,0.031 -0.43614,0.11576 c -0.71173,0.18904 -1.06421,2.30893 -0.42375,2.54816 l 0.33073,0.12351 -0.48111,0.19792 c -0.26444,0.10907 -0.58572,0.0933 -0.71417,-0.0351 l -0.23358,-0.23358 0.25994,-1.15548 0.25941,-1.15549 -0.47129,-0.3576 c -1.4487,-1.099 -3.51046,0.41622 -2.19108,1.61024 0.67043,0.6067 0.68156,1.01025 0.0222,0.80098 -0.25042,-0.0795 -0.47217,-0.0395 -0.61236,0.0698 l 0.5581,0.17725 0.56379,0.17931 0.15142,-0.3948 c 0.0833,-0.21706 -0.0985,-0.6447 -0.40411,-0.95033 l -0.55604,-0.55604 0.28008,-0.52297 0.28009,-0.52296 h 0.65216 c 0.35869,0 0.65215,0.10789 0.65215,0.23978 0,0.13185 -0.22457,0.18083 -0.49919,0.10903 -0.72759,-0.19027 -0.89417,0.29925 -0.28836,0.8475 0.59232,0.53603 0.6736,1.19266 0.20568,1.66088 -0.3981,0.39813 -1.18085,0.41187 -1.42007,0.0248 l -0.17829,-0.28939 c -0.16216,0.12804 -0.213,0.34896 -0.0687,0.5824 0.21253,0.3432 1.08759,0.33844 1.73737,-0.009 0.60857,-0.3257 0.67404,-1.37859 0.11472,-1.84278 -0.59155,-0.49094 -0.4839,-0.7059 0.35347,-0.7059 h 0.74982 l -0.1943,1.06247 c -0.1068,0.58426 -0.13925,1.20488 -0.0724,1.37924 l 0.12144,0.3173 1.90221,-0.0522 1.90221,-0.0522 0.34468,-1.3932 0.3452,-1.39319 -0.31109,-0.37517 -0.3111,-0.37466 h -1.15858 -1.15807 v -0.39687 c 0,-0.26331 -0.13064,-0.38815 -0.32453,-0.38189 z m -3.97237,3.63595 c 7.6e-4,-5.9e-4 0.002,-0.001 0.003,-0.002 l -0.005,-0.002 z m -1.59111,-2.88509 -0.9586,0.0801 -0.9586,0.0801 v 0.66146 c 0,0.3638 -0.14883,0.75645 -0.33073,0.87282 -0.1819,0.11637 -0.33073,0.55327 -0.33073,0.97048 0,0.4172 0.14883,0.8124 0.33073,0.8785 0.1819,0.0661 0.62839,0.0843 0.99219,0.0403 0.3638,-0.0439 0.79387,-0.0882 0.9555,-0.0982 0.33165,-0.0206 0.69213,-2.46441 0.45475,-3.08301 z m -4.64261,0.0279 c -1.27195,0 -1.89791,1.35385 -0.97876,2.11667 0.55525,0.46082 0.49533,0.86047 -0.10076,0.67128 l -0.49816,-0.15813 -0.14522,0.3793 c -0.0799,0.20839 -0.0741,0.44992 0.0129,0.53692 0.53009,0.53009 2.45102,-0.35086 2.45102,-1.12396 0,-0.12296 -0.23813,-0.4389 -0.52917,-0.70229 -0.29104,-0.26339 -0.52917,-0.58758 -0.52917,-0.72036 0,-0.1328 0.23813,-0.16579 0.52917,-0.0734 l 0.52917,0.16795 v -0.54725 -0.54674 z m 14.25752,0.22325 c 0.0548,-8.2e-4 0.11016,0.0788 0.16692,0.23771 l 0.11782,0.32866 0.52813,-0.28267 c 0.29067,-0.15548 0.68247,-0.22413 0.87075,-0.15193 l 0.34262,0.13178 -0.26562,1.3441 c -0.14618,0.73932 -0.37644,1.3441 -0.5116,1.3441 h -0.24598 l 0.1788,-1.19062 c 0.26169,-1.74507 -0.7482,-1.55578 -1.07797,0.20205 -0.10261,0.54698 -0.30794,1.06947 -0.4563,1.16117 l -0.26975,0.16692 0.19275,-1.55908 c 0.14364,-1.16014 0.28391,-1.73003 0.42943,-1.73219 z m -11.39982,0.008 0.8599,0.0832 0.85989,0.0827 -0.0925,1.32291 c -0.0508,0.7276 -0.11039,1.33533 -0.13229,1.35083 -0.0219,0.0155 -0.43154,0.1032 -0.91002,0.1943 l -0.86971,0.16536 -0.16433,-0.42839 c -0.22009,-0.57356 0.2435,-1.26309 0.91674,-1.36374 0.30025,-0.0449 0.61348,-0.25756 0.69608,-0.47284 0.16515,-0.43042 -0.44689,-0.78346 -0.88677,-0.5116 -0.15249,0.0942 -0.27699,0.0378 -0.27699,-0.12557 z m 9.27644,0.0336 h 0.77825 l -0.004,0.85989 c -0.002,0.47294 -0.0722,1.11602 -0.15606,1.42886 l -0.15245,0.56844 -0.77463,0.11368 c -1.47734,0.21683 -1.65398,-1.1141 -0.21445,-1.61592 0.43535,-0.15177 0.77256,-0.46091 0.77256,-0.70848 v -0.43925 l -0.68368,0.17156 -0.68368,0.17157 0.17002,-0.27543 c 0.0935,-0.15136 0.52028,-0.27492 0.94826,-0.27492 z m 11.13782,0 c 9.6e-4,-9e-5 0.002,0 0.003,0 0.12114,0 0.22014,0.14267 0.22014,0.31729 v 0.31781 l 0.3173,-0.31781 c 0.38635,-0.38633 0.74104,-0.41146 0.74104,-0.0527 0,0.14552 -0.17442,0.26458 -0.38758,0.26458 -0.48428,0 -0.93534,0.81339 -0.93534,1.68672 0,0.63433 -0.31718,1.08325 -0.57981,0.82062 -0.19976,-0.19975 0.37771,-3.01452 0.62115,-3.0365 z m -23.15104,0.009 c 0.21594,0.0146 0.35553,0.0932 0.35553,0.231 0,0.13194 -0.23812,0.17738 -0.52916,0.10128 l -0.52917,-0.13797 v 0.31936 c 0,0.17592 0.24003,0.62503 0.5333,0.99787 l 0.5333,0.67799 -0.44235,0.48834 c -0.4648,0.51361 -1.418,0.66959 -1.418,0.23203 0,-0.14094 0.17775,-0.1882 0.39481,-0.1049 l 0.39429,0.15141 0.1757,-0.45682 0.17518,-0.45734 -0.4377,-0.24494 c -0.557,-0.31173 -0.57004,-1.43397 -0.0191,-1.64538 0.30521,-0.11712 0.59745,-0.16656 0.81339,-0.15193 z m 21.00078,0.0253 c 0.0533,0.002 0.10641,0.005 0.15865,0.0114 l 0.75964,0.0868 -0.0703,0.79375 c -0.0388,0.43656 -0.12696,1.04788 -0.19586,1.35857 l -0.12557,0.56483 -0.79014,0.11627 c -0.43459,0.0638 -0.92688,-0.0117 -1.09399,-0.16795 l -0.29403,-0.27544 0.0325,-0.0661 c 0.23226,-0.46951 0.74683,-0.96724 1.14825,-1.11053 0.40019,-0.14284 0.72761,-0.45755 0.72761,-0.69918 v -0.43925 l -0.72761,0.17983 -0.7276,0.17984 0.29869,-0.30438 c 0.14365,-0.14626 0.52632,-0.23942 0.89968,-0.22841 z m -2.77554,0.36225 c -0.1134,0.004 -0.26032,0.0543 -0.44183,0.15142 l -0.49454,0.26458 v 0.91674 c 0,1.37843 0.78857,1.08129 1.14928,-0.43305 0.14572,-0.61174 0.0769,-0.90906 -0.21291,-0.89969 z m 7.77834,5.2e-4 0.008,0.57361 c 0.005,0.31552 -0.0642,0.762 -0.15245,0.99219 h 5.2e-4 c -0.0883,0.23018 -0.26692,0.41858 -0.39688,0.41858 -0.3703,0 -0.27706,-0.90354 0.15193,-1.47071 z m -15.28899,0.0941 c 0.13461,0.001 0.2301,0.15891 0.21859,0.51677 -0.003,0.10056 -0.24847,0.48059 -0.54467,0.84439 l -0.53847,0.66146 0.17829,-0.92604 c 0.12843,-0.66645 0.46191,-1.09882 0.68626,-1.09658 z m 1.03353,0.0382 c 0.13694,0 0.24908,0.11907 0.24908,0.26459 0,0.14552 -0.18551,0.26458 -0.41238,0.26458 -0.22687,0 -0.33898,-0.11906 -0.24908,-0.26458 0.0899,-0.14552 0.27545,-0.26459 0.41238,-0.26459 z m 8.99583,0 c 0.13693,0 0.24908,0.11907 0.24908,0.26459 0,0.14552 -0.1855,0.26458 -0.41237,0.26458 -0.22686,0 -0.33899,-0.11906 -0.24909,-0.26458 0.0899,-0.14552 0.27544,-0.26459 0.41238,-0.26459 z m -17.42167,0.12764 c 0.12368,-0.004 0.20825,0.0483 0.20825,0.14521 0,0.14096 -0.17859,0.25632 -0.39687,0.25632 -0.21828,0 -0.39688,-0.0467 -0.39688,-0.10387 0,-0.0572 0.1786,-0.17251 0.39688,-0.25631 0.0682,-0.0262 0.1324,-0.0396 0.18862,-0.0413 z m 14.56293,0.24805 c 0.11539,4.3e-4 0.19741,0.20412 0.19741,0.51935 0,0.3638 -0.11906,0.73485 -0.26459,0.82475 -0.14943,0.0924 -0.26458,-0.12456 -0.26458,-0.49816 0,-0.3638 0.11906,-0.73485 0.26458,-0.82475 0.0233,-0.0144 0.0458,-0.0213 0.0672,-0.0212 z m -14.04203,0.63459 -0.48421,0.093 c -0.2662,0.0513 -0.52593,0.31101 -0.57723,0.57722 l -0.093,0.48421 0.48421,-0.093 c 0.2662,-0.0513 0.52593,-0.31102 0.57723,-0.57722 z m 8.10751,0.0537 c -0.31724,-0.005 -0.74724,0.31429 -0.74724,0.64751 0,0.22285 0.10432,0.40514 0.23203,0.40514 0.33351,0 0.93154,-0.77687 0.7431,-0.96532 -0.0593,-0.0593 -0.13906,-0.0858 -0.22789,-0.0873 z m 8.99583,0 c -0.31724,-0.005 -0.74724,0.31429 -0.74724,0.64751 0,0.22285 0.10433,0.40514 0.23203,0.40514 0.33351,0 0.93155,-0.77687 0.74311,-0.96532 -0.0593,-0.0593 -0.13907,-0.0858 -0.2279,-0.0873 z M 136.5405,171.45 c 0.15407,0 0.20669,0.11906 0.11679,0.26458 -0.0899,0.14552 -0.21588,0.26459 -0.28008,0.26459 -0.0642,0 -0.11679,-0.11907 -0.11679,-0.26459 0,-0.14552 0.12597,-0.26458 0.28008,-0.26458 z m 8.46667,0 c 0.15408,0 0.20669,0.11906 0.11679,0.26458 -0.0899,0.14552 -0.21589,0.26459 -0.28009,0.26459 -0.0642,0 -0.11679,-0.11907 -0.11679,-0.26459 0,-0.14552 0.12598,-0.26458 0.28009,-0.26458 z m 8.99583,0 c 0.15407,0 0.20669,0.11906 0.11679,0.26458 -0.0899,0.14552 -0.21588,0.26459 -0.28008,0.26459 -0.0642,0 -0.11679,-0.11907 -0.11679,-0.26459 0,-0.14552 0.12597,-0.26458 0.28008,-0.26458 z" /></g></svg>
