<?xml version="1.0" encoding="UTF-8" standalone="no"?>
<!-- Created with Inkscape (http://www.inkscape.org/) -->

<svg
   width="167.46042mm"
   height="38.147575mm"
   viewBox="0 0 167.46042 38.147575"
   version="1.1"
   id="svg1"
   xml:space="preserve"
   xmlns="http://www.w3.org/2000/svg"
   xmlns:svg="http://www.w3.org/2000/svg"><defs
     id="defs1" /><g
     id="layer1"
     transform="translate(-22.906377,-187.082)"><g
       id="g53"><path
         style="fill:#000000"
         d="m 164.9598,200.01223 -1.60418,-1.77741 -2.67833,1.34405 c -1.47309,0.73923 -2.74891,1.34406 -2.83517,1.34406 -0.0863,0 0.62099,-1.11564 1.57167,-2.47919 l 1.72851,-2.47919 -1.57471,-1.82029 -1.5747,-1.82029 2.97478,-0.0803 2.97479,-0.0803 1.84082,-2.49941 c 2.24286,-3.04531 2.10325,-3.05591 1.92679,0.14642 l -0.14579,2.64583 1.49638,0.0196 c 0.82301,0.0108 2.03217,0.10377 2.68701,0.20663 l 1.19062,0.18701 -2.82529,1.57931 -2.82529,1.57931 -0.17058,2.24896 c -0.0938,1.23693 -0.25666,2.53327 -0.36187,2.88075 l -0.19129,0.6318 z"
         id="path52" /><path
         style="fill:#000000"
         d="m 147.406,224.13306 c 0,-0.0475 2.31333,-5.08081 5.14072,-11.1852 l 5.14072,-11.09889 2.69136,-1.42569 2.69136,-1.42569 1.53504,1.55798 1.53503,1.55798 -5.10029,10.98021 -5.1003,10.98021 -4.26682,0.0727 c -2.34675,0.04 -4.26682,0.0339 -4.26682,-0.0136 z"
         id="path51" /><path
         style="fill:#000000"
         d="m 134.09124,215.40886 c 2.25448,-4.83856 4.16126,-8.94622 4.23729,-9.12812 l 0.13825,-0.33073 h -3.46789 c -1.90734,0 -3.46789,-0.0638 -3.46789,-0.14182 0,-0.078 0.73809,-1.74488 1.64019,-3.70417 l 1.64019,-3.56234 h 11.3244 c 6.22841,0 11.32439,0.0492 11.32439,0.10925 0,0.0601 -0.76685,1.72696 -1.70411,3.70416 l -1.70412,3.59492 h -3.52256 -3.52257 l -4.22527,9.12812 -4.22526,9.12813 h -4.28204 -4.28204 z"
         id="path50" /><path
         style="fill:#000000"
         d="m 74.703579,222.02345 c 0.597668,-1.34607 3.079281,-6.97177 5.514696,-12.50157 l 4.428027,-10.05416 4.392349,-0.0726 c 2.415792,-0.0399 4.392349,0.0295 4.392349,0.15425 0,0.12474 -0.662278,3.35471 -1.471728,7.17773 -0.809451,3.82301 -1.423724,6.99893 -1.365051,7.05761 0.05867,0.0587 2.287135,-3.16843 4.952139,-7.17133 l 4.84546,-7.278 h 4.44879 4.44878 l -0.1372,0.35754 c -0.0755,0.19665 -2.54734,5.82236 -5.49306,12.50157 l -5.355857,12.14401 -3.229886,0.0743 c -1.776438,0.0409 -3.229887,0.0291 -3.229887,-0.0262 0,-0.0553 1.022308,-2.41043 2.271795,-5.23367 1.249487,-2.82324 2.334154,-5.31175 2.410372,-5.53003 0.07622,-0.21829 -1.559889,2.1332 -3.635792,5.22552 l -3.77437,5.62239 h -3.133919 c -1.723655,0 -3.133919,-0.0622 -3.133919,-0.13825 0,-0.076 0.545724,-2.58625 1.212719,-5.57825 0.666996,-2.992 1.173011,-5.47881 1.124479,-5.52624 -0.04853,-0.0474 -1.208731,2.46279 -2.578219,5.57826 l -2.48998,5.66448 H 76.866788 73.61691 Z"
         id="path49" /><path
         style="fill:#000000"
         d="m 106.89005,211.90621 5.70911,-12.83537 h 9.8628 c 5.42453,0 9.86279,0.0447 9.86279,0.0994 0,0.0546 -0.59123,1.3941 -1.31384,2.97657 l -1.31384,2.8772 -6.357,0.0708 -6.357,0.0708 -0.66353,1.30942 c -0.36495,0.72018 -0.66354,1.43244 -0.66354,1.5828 v 0.27338 h 5.68854 c 3.1287,0 5.68861,0.0893 5.68869,0.19844 7e-5,0.10914 -0.56413,1.47619 -1.25379,3.0379 l -1.25393,2.83946 -5.90759,0.071 -5.9076,0.071 -0.87377,1.98437 -0.87376,1.98438 6.57994,0.0707 c 3.61897,0.0389 6.57396,0.15794 6.56664,0.26458 -0.007,0.10664 -0.57833,1.44405 -1.26892,2.97202 l -1.25562,2.77812 -10.20195,0.0692 -10.20194,0.0692 z"
         id="path48" /><path
         style="fill:#000000"
         d="m 179.40267,224.43736 -0.30111,-0.56263 0.28613,-0.62799 0.28613,-0.62799 h 0.8051 0.80509 l 0.28614,0.62799 0.28613,0.62799 -0.30112,0.56263 L 181.25405,225 h -0.77513 -0.77513 z m 1.34083,0.0491 c 0,-0.40901 -0.47342,-0.57425 -0.61797,-0.2157 -0.0737,0.1828 -0.1434,-0.009 -0.15489,-0.42607 l -0.0209,-0.75845 0.65345,0.12491 c 0.3594,0.0687 0.5905,0.0231 0.51356,-0.10145 -0.24226,-0.39198 -1.1298,-0.24586 -1.39601,0.22983 l -0.25529,0.45619 0.25145,0.46985 c 0.26211,0.48976 1.02659,0.65425 1.02659,0.22089 z m 0.44533,-0.59439 -0.13897,-0.34727 -0.0209,0.50712 c -0.0115,0.27891 0.0511,0.43518 0.13897,0.34726 0.0879,-0.0879 0.0973,-0.31612 0.0209,-0.50711 z"
         id="path47" /><path
         style="fill:#000000"
         d="m 168.63008,224.7135 c -2.68914,-0.46332 -4.45679,-1.67523 -5.53583,-3.79539 l -0.66354,-1.30376 0.10831,-2.66499 0.1083,-2.66499 0.9442,-2.28837 c 3.34865,-8.11579 9.88266,-13.41084 17.15198,-13.89968 l 2.24896,-0.15124 1.48603,0.30972 c 0.81732,0.17034 2.11592,0.69153 2.88578,1.15819 l 1.39975,0.84847 0.79059,1.41173 0.79059,1.41174 0.0108,1.76326 0.0108,1.76327 -0.4673,1.38906 -0.46729,1.38906 h -3.96351 -3.96351 l 0.18119,-1.83879 0.18119,-1.83879 -0.71032,-0.17828 c -3.58623,-0.90008 -8.31878,3.34304 -9.83239,8.81556 l -0.45703,1.65241 0.29067,0.63795 0.29067,0.63795 0.80629,0.17709 0.8063,0.1771 1.46401,-0.42561 1.46402,-0.4256 1.14139,-1.1158 c 0.62777,-0.6137 1.32367,-1.38666 1.54646,-1.71769 l 0.40507,-0.60187 4.37172,0.0727 4.37172,0.0727 -1.39038,2.07496 c -4.46769,6.66742 -11.43295,10.24592 -17.80571,9.14792 z"
         id="path46" /><path
         style="fill:#000000"
         d="M 28.903002,224.7155 C 17.49626,222.71102 23.563984,203.42136 37.02237,198.90353 l 1.982992,-0.66567 2.27584,-0.14617 2.27584,-0.14616 1.719791,0.43565 c 2.164158,0.54823 3.602595,1.53886 4.617048,3.17969 l 0.793108,1.28283 0.0069,2.01628 0.0069,2.01629 -0.484904,1.25677 -0.484904,1.25677 h -3.946867 -3.946867 l 0.01152,-0.46302 c 0.0063,-0.25466 0.11057,-0.97536 0.231627,-1.60156 l 0.220104,-1.13853 -0.382817,-0.38282 c -2.39559,-2.39559 -8.565896,2.80589 -10.250966,8.64142 l -0.428408,1.48361 0.256519,0.67469 0.256519,0.6747 0.805211,0.17685 0.805211,0.17686 1.47185,-0.42788 1.47185,-0.42788 1.272914,-1.24582 c 0.700103,-0.68521 1.38561,-1.45717 1.523348,-1.71548 l 0.250432,-0.46965 4.416248,0.0728 4.416248,0.0728 -1.255477,1.8672 c -4.746933,7.05985 -11.412053,10.51973 -18.026184,9.35745 z"
         id="path45" /><path
         style="fill:#000000"
         d="m 54.823362,224.84453 c -5.753118,-1.54678 -7.178376,-6.64714 -3.851301,-13.78208 3.738188,-8.01657 10.370518,-12.58554 18.249564,-12.57201 l 2.38125,0.004 1.555969,0.58481 c 2.916231,1.09606 4.629939,3.28497 4.855313,6.20165 l 0.123269,1.59528 -0.431962,1.85208 c -0.918385,3.93767 -3.775427,8.63277 -7.069578,11.61772 l -1.678844,1.52127 -2.645834,1.29529 -2.645833,1.29529 -2.039366,0.40344 c -2.511044,0.49676 -4.914495,0.49082 -6.802647,-0.0168 z m 8.395186,-7.79861 1.622068,-0.81055 1.095461,-1.23997 c 3.072051,-3.47729 4.405955,-7.85637 2.728011,-8.9558 l -0.649696,-0.4257 -1.314351,0.15567 c -1.949993,0.23095 -3.535485,1.04384 -5.113243,2.6216 l -1.408592,1.40859 -1.107941,2.24242 -1.107941,2.24242 -0.157427,1.35138 -0.157427,1.35137 0.620428,0.43456 0.620428,0.43457 h 1.354077 1.354077 z"
         id="path44" /><path
         id="path53"
         style="opacity:1;fill:#90908f;fill-opacity:1;fill-rule:evenodd;stroke-width:1.17968;stroke-linejoin:bevel"
         d="m 167.32519,187.09865 c -0.38065,0.32621 -0.65722,0.7561 -0.97429,1.14159 -0.89218,1.14896 -1.74849,2.32515 -2.62084,3.48914 -1.81515,-0.0255 -3.62809,0.0829 -5.43697,0.22276 -0.14257,0.0356 -0.1364,0.27773 -0.2201,0.39508 -0.0668,0.16096 -0.13364,0.32191 -0.20046,0.48287 0.91028,1.05085 1.82051,2.10174 2.73059,3.15278 -0.95768,1.41956 -1.95985,2.81111 -2.85288,4.27289 -0.10717,0.16043 -0.16807,0.35789 -0.069,0.5373 -0.001,0.19843 0.15019,0.24098 0.31668,0.26604 0.17078,0.0385 0.34832,0.14143 0.50842,0.0185 1.59121,-0.73601 3.15116,-1.53736 4.72399,-2.31148 0.86687,0.91928 1.69829,1.87259 2.59582,2.76215 0.24612,0.25208 0.63536,0.47294 0.97945,0.27493 0.39322,-0.23355 0.40712,-0.7448 0.47897,-1.14718 0.20031,-1.45837 0.30717,-2.92729 0.44265,-4.39259 1.59718,-0.90356 3.22325,-1.75906 4.77955,-2.73265 0.16576,-0.11198 0.38448,-0.23245 0.35703,-0.46539 0.011,-0.16123 0.0949,-0.34204 -0.0556,-0.4646 -0.21511,-0.29011 -0.62363,-0.28517 -0.94817,-0.34802 -1.26779,-0.16003 -2.54794,-0.18139 -3.82427,-0.1741 0.0611,-1.46169 0.18376,-2.92355 0.14676,-4.38733 0.003,-0.2125 -0.064,-0.41913 -0.23331,-0.55597 -0.10661,-0.10466 -0.29925,-0.0177 -0.43899,-0.0479 -0.0594,0.009 -0.13196,-0.019 -0.18501,0.0112 z" /></g></g></svg>
