<?xml version="1.0" encoding="UTF-8" standalone="no"?>
<!-- Created with Inkscape (http://www.inkscape.org/) -->

<svg
   width="205.96648mm"
   height="60.347183mm"
   viewBox="0 0 205.96648 60.347183"
   version="1.1"
   id="svg1"
   xml:space="preserve"
   xmlns="http://www.w3.org/2000/svg"
   xmlns:svg="http://www.w3.org/2000/svg"><defs
     id="defs1" /><g
     id="layer1"
     transform="translate(-19.252985,7.5672891)"><g
       id="g41"
       transform="matrix(1.9494395,0,0,1.9494395,-112.50039,-20.421571)"><path
         id="path10"
         style="display:inline;fill:#0093d0;fill-opacity:1"
         d="m 83.733628,11.530195 v 0.22427 c -0.631878,0.0756 -3.819259,0.13515 -7.625374,0.13694 -4.346819,0.002 -7.911171,0.113 -8.131287,0.25219 l -0.391707,0.24753 0.549837,0.74052 c 0.30242,0.40719 1.243864,1.09719 2.091862,1.53376 l 1.541508,0.79375 5.576404,0.0837 c 3.066946,0.0461 5.689306,0.19492 5.827551,0.33073 l 0.251147,0.24701 -5.278231,0.004 c -2.910867,0.002 -5.456243,0.11785 -5.675105,0.25786 l -0.396875,0.25425 0.40411,0.72916 c 0.88546,1.59746 4.502367,2.71779 8.790161,2.72179 l 2.05052,0.002 v 0.26458 0.26459 h -2.101163 -2.101164 l -0.176734,0.28628 c -0.262861,0.42531 1.168471,1.81822 2.526978,2.45929 l 1.087789,0.37103 0.102836,-0.009 0.595313,-0.39532 0.481624,-0.31936 v 3.72242 l 74.361352,-0.79805 v -2.74402 l 0.25011,0.18293 c 0.27825,0.3146 0.45031,0.37603 0.54778,0.35295 -0.004,0.0119 -0.008,0.0247 -0.0124,0.0382 l 1.36787,-0.78135 c 2.50696,-1.43179 2.47337,-2.36833 -0.0848,-2.36833 -2.77495,0 -1.94162,-0.43455 1.17512,-0.61288 l 2.8789,-0.16485 1.48879,-0.55707 c 0.81876,-0.30634 1.92476,-0.96805 2.45774,-1.47071 l 0.96893,-0.91416 -0.32195,-0.32297 -0.32246,-0.32298 -4.28707,-0.13643 c -5.31676,-0.16918 -4.91467,-0.47544 0.76016,-0.57929 l 4.25348,-0.078 1.54151,-0.79375 c 1.54265,-0.79415 2.79479,-2.06161 2.41381,-2.44326 -0.11133,-0.11152 -3.90904,-0.23707 -8.4398,-0.27957 l -7.69889,-0.46623 z m 74.361352,1.88464 c 0.10892,0.1671 0.23435,0.31108 0.35295,0.39532 0.66019,0.46892 1.07022,1.3562 1.07022,2.31717 v 0.83768 l -0.79375,0.74155 -0.62942,0.58756 z" /><path
         style="display:inline;fill:#000000"
         d="m 91.184453,36.727015 -0.824033,-0.82403 -2.925927,0.0336 -2.925926,0.0336 -0.661458,-0.34095 c -0.365121,-0.1882 -0.799156,-0.75273 -0.968816,-1.26009 l -0.307356,-0.91915 0.04277,-4.86267 0.04277,-4.86267 0.595312,-0.39512 0.595313,-0.39512 v -5.68434 -5.68434 l -0.661459,-0.5203 -0.661458,-0.5203 v -1.17142 -1.17143 l 0.529167,-0.52916 0.529166,-0.52917 h 5.765245 5.765244 l 1.557135,0.40558 c 2.258923,0.58838 3.996218,1.63058 5.464898,3.27841 0.71017,0.7968 1.29123,1.29327 1.29123,1.10326 0,-0.19001 -0.29766,-0.5796 -0.66146,-0.86577 l -0.66146,-0.5203 v -1.17142 -1.17143 l 0.52917,-0.52916 0.52916,-0.52917 7.2099,0.001 7.2099,0.001 1.05236,0.29216 c 0.57881,0.16069 1.49049,0.73028 2.02596,1.26575 l 0.97359,0.97359 0.19085,1.27265 0.19084,1.27265 -0.31412,1.04845 c -0.17277,0.57665 -0.72658,1.50499 -1.23069,2.06298 l -0.91657,1.01453 0.84929,1.36621 0.84928,1.36622 0.33575,-0.87584 c 0.18467,-0.48171 0.88905,-2.24506 1.5653,-3.91855 l 1.22953,-3.04271 -0.0429,-1.50575 -0.0429,-1.50575 0.54477,-0.54477 0.54477,-0.54477 h 4.49792 4.49791 l 0.53793,0.53793 0.53792,0.53792 -0.0433,1.64489 -0.0433,1.64489 0.44265,1.01051 0.44264,1.01052 0.67091,-1.2751 c 2.33996,-4.44727 7.3947,-6.40651 13.83321,-5.36183 l 1.69425,0.2749 0.2769,-0.2769 c 0.15229,-0.15229 0.66116,-0.2769 1.13082,-0.2769 h 0.85392 l 0.51711,0.65741 0.51712,0.6574 0.18954,1.76995 c 0.24342,2.27303 0.3307,2.47149 1.08686,2.47149 h 0.62811 l 0.16757,0.66764 c 0.0922,0.36719 0.37319,0.81368 0.62451,0.99218 0.66019,0.46892 1.07009,1.35671 1.07009,2.31768 v 0.83728 l -0.79375,0.74147 -0.79375,0.74148 v 2.31207 2.31208 l 0.41442,0.30303 c 0.22794,0.16667 0.4814,0.80236 0.56326,1.41265 l 0.14883,1.10961 -0.41148,0.628 -0.41148,0.628 0.29211,2.63209 0.2921,2.63209 -0.51002,1.04498 -0.51003,1.04497 -0.92605,0.46394 -0.92604,0.46394 -11.77395,-0.10912 c -6.47568,-0.06 -12.07162,-0.0977 -12.43542,-0.0837 -1.55864,0.06 -30.87303,0.0226 -31.35313,-0.0401 -0.29104,-0.038 -1.044564,0.0154 -1.674499,0.11862 l -1.145336,0.18764 -0.227026,0.59712 c -0.124865,0.32842 -0.499158,0.78773 -0.831764,1.0207 l -0.604738,0.42358 h -1.945856 -1.945856 z m 4.138101,-2.1669 -0.156098,-1.13886 1.730988,0.11022 1.730989,0.11022 0.679129,-0.67913 0.679129,-0.67913 v -1.54065 -1.54066 l -0.406404,-0.58022 -0.406404,-0.58023 -3.450865,0.0117 -3.450865,0.0117 0.153102,0.39897 c 0.08421,0.21944 0.153103,1.93706 0.153103,3.81693 v 3.41794 h 1.450147 1.450147 z m -0.04542,-3.82209 0.07935,-1.52135 0.859896,-0.0829 0.859896,-0.0829 v 1.60427 1.60426 H 96.13703 95.197785 Z m 1.269974,-0.0661 c 0,-0.14552 -0.112036,-0.26458 -0.248968,-0.26458 -0.136933,0 -0.322553,0.11906 -0.41249,0.26458 -0.08994,0.14552 0.0221,0.26458 0.248968,0.26458 0.22687,0 0.41249,-0.11906 0.41249,-0.26458 z m -5.306832,2.7964 c 0.172816,-0.20823 0.37173,-1.0119 0.442032,-1.78594 l 0.127822,-1.40734 -0.349862,-0.66145 -0.349861,-0.66146 -1.843279,-0.13229 -1.84328,-0.1323 -0.092,-0.4839 -0.092,-0.4839 2.14071,0.087 2.14071,0.087 -6.22e-4,-0.30909 c -3.41e-4,-0.17 -0.07289,-0.49742 -0.16122,-0.7276 l -0.160599,-0.41851 h -2.882109 -2.882109 l -0.529167,0.52916 -0.529167,0.52917 0.0041,1.52135 c 0.0022,0.83675 0.116735,1.69995 0.254459,1.91823 l 0.250408,0.39688 1.925854,0.13229 1.925854,0.13229 0.08805,0.46302 0.08805,0.46302 h -2.296666 -2.296666 l 0.160599,0.41852 c 0.08833,0.23018 0.1606,0.52784 0.1606,0.66145 0,0.13391 1.410536,0.24295 3.142603,0.24295 h 3.142603 z m 16.484094,-0.54744 0.12644,-0.66146 h -2.21227 -2.21226 v -0.39688 -0.39687 h 2.24895 2.24896 v -1.30402 -1.30402 l -0.41577,-0.41577 -0.41578,-0.41577 h -2.97089 -2.97089 l -0.3175,0.3175 -0.3175,0.3175 v 1.97677 1.97677 l 0.43788,0.48385 0.43788,0.48386 h 3.10315 3.10315 z m -4.29809,-3.30729 v -0.52917 h 0.76544 0.76544 l 0.1606,0.41851 c 0.24181,0.63016 0.23026,0.63982 -0.76544,0.63982 h -0.92604 z m 11.11611,3.77031 c 0.002,-0.10914 0.0679,-0.43656 0.14642,-0.72761 l 0.1428,-0.52916 -1.73392,0.0887 -1.73392,0.0887 v -1.6409 -1.6409 l 1.7198,0.10951 c 1.74036,0.11082 1.84747,0.0636 1.55919,-0.68768 l -0.1606,-0.41851 h -2.60252 -2.60253 l -0.41187,0.58803 -0.41188,0.58804 v 1.66092 1.66092 l 0.52916,0.52917 0.52917,0.52917 h 2.51354 c 1.38245,0 2.51517,-0.0893 2.51716,-0.19844 z m 3.96513,-2.57969 v -2.77812 h -1.52135 -1.52135 v 2.77812 2.77813 h 1.52135 1.52135 z m 8.24593,0.57963 -0.091,-2.16713 -0.37942,-0.59531 -0.37942,-0.59531 h -3.0083 -3.0083 l -0.1606,0.41851 c -0.28563,0.74434 -0.19055,0.77739 1.95607,0.67991 l 2.11666,-0.0961 v 0.2926 0.2926 h -1.66092 -1.66092 l -0.58804,0.41187 -0.58803,0.41188 v 1.16062 1.16062 l 0.57,0.39924 0.57,0.39925 3.20156,-0.003 3.20156,-0.003 z m -4.7058,0.49137 c -0.22961,-0.59834 0.12334,-0.93871 0.97341,-0.93871 h 0.77813 v 0.66146 0.66146 h -0.80205 c -0.45711,0 -0.86546,-0.16524 -0.94949,-0.38421 z m 8.36612,-1.86475 v -3.57187 h -1.52135 -1.52135 v 3.57187 3.57188 h 1.52135 1.52135 z m 6.87917,3.32893 c 0,-0.13362 0.0696,-0.42434 0.15469,-0.64605 l 0.15468,-0.4031 -1.27916,-0.0816 -1.27917,-0.0815 -0.0794,-1.52136 -0.0794,-1.52135 h 1.20383 1.20383 v -0.52917 -0.52916 h -1.19063 -1.19062 v -0.66146 -0.66146 h -0.9044 c -1.2469,0 -1.74143,0.23345 -1.74143,0.82206 v 0.50086 h -0.66146 -0.66146 v 0.52916 0.52917 h 0.66146 0.66146 v 1.83708 1.83708 l 0.58804,0.41188 0.58803,0.41188 h 1.92551 c 1.05902,0 1.9255,-0.10933 1.9255,-0.24295 z m 3.96875,-2.53518 v -2.77812 l -1.52135,2.9e-4 -1.52136,3e-4 v 2.77796 2.77795 l 1.52136,-1.2e-4 1.52135,-1.3e-4 z m 7.88832,2.0615 0.0831,-0.58434 -2.17848,-0.0771 -2.17848,-0.0771 -0.10949,-0.33073 -0.10949,-0.33073 h 2.271 2.27101 v -1.40229 c 0,-0.77126 -0.14287,-1.54517 -0.3175,-1.71979 l -0.3175,-0.3175 h -2.98369 -2.98369 l -0.43377,0.662 -0.43376,0.66201 0.11151,1.75123 0.11151,1.75123 0.50977,0.37275 0.50977,0.37276 3.04753,-0.074 3.04753,-0.074 z m -4.18415,-3.25212 v -0.52917 h 0.79375 0.79375 v 0.52917 0.52916 h -0.79375 -0.79375 z m 11.53121,3.32286 c 0.49481,-0.6776 0.47697,-2.00125 -0.0368,-2.73483 l -0.41188,-0.58803 h -1.70478 -1.70479 v -0.29351 -0.2935 l 1.98437,0.10021 c 2.01101,0.10155 2.11028,0.0644 1.82378,-0.68219 l -0.1606,-0.41851 h -2.63492 c -1.44921,0 -2.86522,0.12325 -3.14669,0.27389 l -0.51178,0.27389 v 1.28121 c 0,1.61094 0.2689,1.82764 2.3914,1.92724 l 1.70964,0.0802 -0.13229,0.26459 c -0.0732,0.14633 -1.05489,0.25185 -2.19666,0.2361 l -2.06438,-0.0285 0.14615,0.38085 c 0.0804,0.20947 0.14614,0.50043 0.14614,0.64657 v 0.26571 l 3.06455,-0.0889 3.06455,-0.0889 z m -38.25413,-5.9687 v -0.52916 h -1.32292 -1.32291 v 0.52916 0.52917 h 1.32291 1.32292 z m 22.75417,0 v -0.52916 h -1.32292 -1.32292 v 0.52916 0.52917 h 1.32292 1.32292 z m -39.31308,-1.05833 c 0.18212,0 0.33113,-0.1786 0.33113,-0.39688 0,-0.52104 -0.0938,-0.5035 -0.9284,0.17366 l -0.70319,0.57052 0.48466,-0.17365 c 0.26656,-0.0955 0.63367,-0.17365 0.8158,-0.17365 z m -3.754542,-0.7564 c 0.542028,-0.17771 1.493292,-0.71042 2.113922,-1.18379 l 1.12841,-0.86067 0.7965,-1.55742 0.7965,-1.55743 -0.0112,-2.13538 -0.0112,-2.13537 -0.58921,-1.30184 c -0.32407,-0.71601 -1.00677,-1.81141 -1.51712,-2.43422 l -0.9279,-1.13239 -1.772359,-0.87306 -1.772359,-0.87307 -5.893638,-0.0881 -5.893638,-0.0882 v 0.41888 c 0,0.23039 0.174405,0.41888 0.387566,0.41888 0.213161,0 0.512836,0.23407 0.665944,0.52016 l 0.278377,0.52015 -0.07063,6.82204 -0.07063,6.82203 -0.595312,0.26118 c -0.327422,0.14365 -0.595313,0.41933 -0.595313,0.61262 v 0.35144 l 6.283854,-0.10165 6.283854,-0.10166 z m -6.419789,-1.76958 -0.339702,-0.40932 0.05899,-5.69687 c 0.03245,-3.13328 0.123942,-5.86611 0.203322,-6.07297 l 0.144326,-0.37611 1.096172,0.002 c 2.007017,0.003 3.518355,1.54623 4.283661,4.3735 l 0.458227,1.69282 -0.136933,1.70589 -0.136932,1.70589 -0.627593,1.13682 c -0.345175,0.62525 -1.032153,1.40932 -1.526615,1.74237 l -0.899024,0.60555 h -1.1191 -1.119101 z m 3.191899,-2.8401 c 1.256628,-2.06636 0.28595,-7.59851 -1.333244,-7.59851 h -0.260829 v 4.50723 4.50723 l 0.543325,-0.29078 c 0.298828,-0.15993 0.771665,-0.66626 1.050748,-1.12517 z m 17.191342,4.84894 c 0,-0.13891 -0.29765,-0.55021 -0.66146,-0.91402 l -0.66146,-0.66146 v -2.92244 -2.92244 h 0.51931 0.51931 l 1.03095,1.52135 c 1.47156,2.17155 2.16377,3.62826 2.16377,4.55352 v 0.8043 h -0.39688 c -0.21828,0 -0.39687,0.17859 -0.39687,0.39687 v 0.39688 h 5.82083 5.82083 v -0.33414 c 0,-0.18377 -0.26789,-0.45292 -0.59531,-0.5981 l -0.59531,-0.26397 0.055,-0.96157 c 0.0303,-0.52887 0.33468,-1.65871 0.6765,-2.51076 l 0.62149,-1.54917 0.63479,-0.0917 c 1.71785,-0.24813 4.69561,1.79131 5.1274,3.51171 l 0.18499,0.73706 -0.41504,0.63344 c -0.22828,0.3484 -0.60082,0.63345 -0.82787,0.63345 -0.22706,0 -0.36334,0.14882 -0.30285,0.33072 l 0.10998,0.33073 4.40999,0.0726 4.40998,0.0725 v -0.40327 c 0,-0.2218 -0.18034,-0.40327 -0.40076,-0.40327 -0.69005,0 -1.28298,-1.36117 -3.58337,-8.22623 l -2.23358,-6.66569 0.33073,-0.11672 c 0.18191,-0.0642 0.33073,-0.28538 0.33073,-0.49154 v -0.37483 h -3.70416 -3.70417 v 0.39688 c 0,0.21828 0.11906,0.39687 0.26458,0.39687 0.50965,0 -3.10482,10.26461 -4.72282,13.41218 l -0.51796,1.00762 -0.32173,-0.79375 c -1.03617,-2.55634 -2.48959,-5.21507 -3.4429,-6.29809 -0.60155,-0.68339 -0.97742,-1.24254 -0.83527,-1.24254 0.14215,0 0.86325,-0.54376 1.60245,-1.20837 l 1.34399,-1.20836 0.26069,-0.94415 0.2607,-0.94415 -0.37593,-0.89972 -0.37592,-0.89971 -0.92707,-0.38735 -0.92706,-0.38736 h -6.75538 -6.75537 v 0.39688 c 0,0.21828 0.17441,0.39687 0.38757,0.39687 0.21316,0 0.51081,0.2303 0.66146,0.51178 l 0.27389,0.51177 v 6.51708 6.51708 l -0.27389,0.51177 c -0.15065,0.28148 -0.4483,0.51178 -0.66146,0.51178 -0.21316,0 -0.38757,0.17859 -0.38757,0.39687 v 0.39688 h 3.96875 3.96875 z m 16.93333,-7.73783 c -0.50932,-0.2615 -1.19393,-0.47564 -1.52135,-0.47587 -0.32742,-2.3e-4 -0.59531,-0.14079 -0.59531,-0.31237 0,-0.50413 1.14796,-3.92138 1.31731,-3.92138 0.14647,0 1.91062,5.09728 1.7848,5.15693 -0.0327,0.0155 -0.47612,-0.1858 -0.98545,-0.44731 z m -18.25625,-3.8695 v -2.32178 l 0.3175,-0.3175 c 0.17463,-0.17463 0.88225,-0.3175 1.5725,-0.3175 h 1.255 l 0.41188,0.58804 c 1.0818,1.54449 -0.1165,3.3825 -2.89362,4.43836 l -0.66326,0.25217 z m 46.56667,11.60733 c 0,-0.13891 -0.29766,-0.55021 -0.66146,-0.91402 l -0.66146,-0.66146 v -3.03751 c 0,-1.67063 0.11612,-3.34291 0.25804,-3.71619 l 0.25803,-0.67868 h 0.53572 c 0.2998,0 0.53571,-0.17477 0.53571,-0.39688 v -0.39687 h -4.10104 -4.10104 v 0.27113 c 0,0.14912 0.29433,0.38304 0.65407,0.51981 0.85164,0.32379 1.00476,1.02909 0.8932,4.11443 l -0.0921,2.54617 -0.51359,0.37527 c -2.09838,1.53325 -5.44708,-0.94705 -6.22448,-4.61031 l -0.34315,-1.61701 0.1846,-1.39506 c 0.76128,-5.75326 6.93026,-7.23074 9.72898,-2.33011 1.07685,1.8856 1.22384,1.32256 0.69388,-2.65787 l -0.31021,-2.32998 -0.52257,0.27967 -0.52257,0.27968 -2.80524,-0.33354 -2.80523,-0.33353 -1.85209,0.31445 c -3.44736,0.58529 -5.65106,2.11895 -6.8103,4.73961 l -0.51622,1.167 0.0914,2.28603 0.0914,2.28603 0.7786,1.53664 c 2.02334,3.99324 4.30953,4.86329 12.91359,4.91454 l 5.22552,0.0311 z m -28.22175,-1.88486 0.47085,-0.54992 -0.32663,-0.39357 c -0.17965,-0.21646 -0.65817,-0.56501 -1.06337,-0.77455 l -0.73674,-0.38098 -0.27472,0.51332 c -0.80269,1.49985 0.84521,2.85335 1.93061,1.5857 z m 19.75508,-3.57919 v -1.74786 l -0.66145,-0.52031 -0.66146,-0.5203 v -1.28451 -1.28451 l 0.69714,-0.54837 0.69714,-0.54837 1.08879,-0.009 1.0888,-0.009 -0.66146,-0.37812 c -0.3638,-0.20797 -1.14672,-0.38235 -1.73981,-0.3875 l -1.07836,-0.009 -0.55766,0.59531 c -2.03353,2.17082 -1.01673,8.40053 1.37111,8.40053 h 0.41722 z"
         id="path9" /><path
         id="path39"
         style="display:inline;opacity:1;fill:#ffffff;fill-opacity:1;fill-rule:evenodd;stroke-width:1.785;stroke-linejoin:bevel"
         d="m 147.21502,8.369665 -1.85208,0.31419 c -3.44737,0.58529 -5.65119,2.1191 -6.81044,4.73976 l -0.51624,1.16685 0.0915,2.28617 0.0915,2.28617 0.77824,1.53634 c 2.02334,3.99324 4.30989,4.86317 12.91394,4.91442 l 5.22552,0.031 v -0.25218 c 0,-0.13891 -0.29765,-0.55035 -0.66145,-0.91416 l -0.66146,-0.66146 v -3.03754 c 0,-1.67063 0.11594,-3.34277 0.25786,-3.71605 l 0.25787,-0.67851 h 0.53588 c 0.29981,0 0.53589,-0.17476 0.53589,-0.39687 v -0.39688 h -4.10104 -4.10105 v 0.27078 c 0,0.14912 0.29397,0.3831 0.65371,0.51987 0.85165,0.32379 1.00504,1.02914 0.89349,4.11448 l -0.092,2.5461 -0.51367,0.37517 c -2.09838,1.53325 -5.44703,-0.9468 -6.22442,-4.61006 l -0.34313,-1.61695 0.18448,-1.39527 c 0.76128,-5.75326 6.9304,-7.23072 9.72912,-2.33009 1.07685,1.8856 1.22346,1.32271 0.6935,-2.65772 l -0.31006,-2.33009 -0.52245,0.27957 -0.52245,0.27957 -2.80551,-0.33331 z m -62.838537,0.56224 v 0.41909 c 0,0.23039 0.174412,0.4191 0.387573,0.4191 0.213161,0 0.512484,0.23377 0.665592,0.51986 l 0.278536,0.52038 -0.0708,6.82181 -0.07028,6.82232 -0.595313,0.26097 c -0.327422,0.14365 -0.595312,0.41907 -0.595312,0.61236 v 0.35192 l 6.283854,-0.1018 6.283854,-0.1018 0.98547,-0.32298 c 0.542028,-0.17771 1.492939,-0.71054 2.113563,-1.18391 l 1.12862,-0.86041 0.79633,-1.55753 0.79685,-1.55753 -0.0114,-2.13527 -0.0114,-2.13527 -0.58911,-1.30224 c -0.32407,-0.71601 -1.00688,-1.81115 -1.51722,-2.43396 l -0.927594,-1.13275 -1.772501,-0.87282 -1.772502,-0.87281 -5.893697,-0.0884 z m 19.579167,0.0444 v 0.39687 c 0,0.21828 0.17441,0.39688 0.38757,0.39688 0.21316,0 0.51082,0.23011 0.66146,0.51159 l 0.27389,0.5116 v 6.51743 6.51692 l -0.27389,0.51159 c -0.15064,0.28148 -0.4483,0.51212 -0.66146,0.51212 -0.21316,0 -0.38757,0.17859 -0.38757,0.39687 v 0.39688 h 3.96875 3.96875 v -0.2527 c 0,-0.13891 -0.29766,-0.55035 -0.66146,-0.91416 l -0.66146,-0.66146 v -2.9223 -2.9223 h 0.51935 0.51883 l 1.03095,1.52135 c 1.47156,2.17155 2.16421,3.62795 2.16421,4.55321 v 0.80461 h -0.39688 c -0.21828,0 -0.39687,0.17859 -0.39687,0.39687 v 0.39688 h 5.82083 5.82083 v -0.33435 c 0,-0.18377 -0.26789,-0.45272 -0.59531,-0.5979 l -0.59531,-0.26406 0.0548,-0.9617 c 0.0303,-0.52887 0.33462,-1.65891 0.67644,-2.51096 l 0.62167,-1.54874 0.63459,-0.092 c 1.71784,-0.24813 4.69554,1.79153 5.12733,3.51193 l 0.185,0.73691 -0.41496,0.63355 c -0.22827,0.3484 -0.6008,0.63356 -0.82785,0.63356 -0.22706,0 -0.36332,0.14883 -0.30283,0.33073 l 0.11007,0.33073 4.41007,0.0723 4.41007,0.0724 v -0.40308 c 0,-0.2218 -0.18059,-0.40307 -0.40101,-0.40307 -0.69005,0 -1.28286,-1.36131 -3.58325,-8.22637 l -2.23345,-6.66575 0.33073,-0.11679 c 0.1819,-0.0642 0.33073,-0.28528 0.33073,-0.49144 v -0.37465 h -3.70417 -3.70417 v 0.39687 c 0,0.21828 0.11907,0.39688 0.26459,0.39688 0.50964,0 -3.10523,10.26453 -4.72323,13.4121 l -0.5178,1.00769 -0.32194,-0.79375 c -1.03617,-2.55634 -2.48938,-5.2153 -3.44269,-6.29832 -0.60155,-0.68339 -0.97724,-1.24231 -0.83509,-1.24231 0.14215,0 0.86329,-0.5441 1.60249,-1.20871 l 1.34359,-1.20819 0.26096,-0.94413 0.26045,-0.94413 -0.37569,-0.89969 -0.3762,-0.89968 -0.92708,-0.38758 -0.92707,-0.38705 h -6.75514 z m -12.37909,1.85208 1.096057,0.002 c 2.007017,0.003 3.51867,1.54662 4.283976,4.37389 l 0.457854,1.6924 -0.136943,1.70636 -0.136426,1.70584 -0.627868,1.13688 c -0.345175,0.62525 -1.03206,1.40896 -1.526522,1.74201 l -0.89917,0.60565 h -1.118795 -1.119311 l -0.339515,-0.40979 -0.340031,-0.40928 0.05891,-5.69681 c 0.03245,-3.13328 0.124225,-5.86616 0.203605,-6.07302 z m 20.88348,0 h 1.25522 l 0.41186,0.58756 c 1.08181,1.54449 -0.11676,3.38263 -2.89388,4.43849 l -0.66301,0.25218 v -2.32182 -2.32182 l 0.3173,-0.3173 c 0.17462,-0.17463 0.88226,-0.31729 1.57251,-0.31729 z m 15.56494,2.11667 h 5.2e-4 5.2e-4 c 3.5e-4,10e-6 6.8e-4,0 0.001,0 0.14646,0 1.91072,5.09714 1.7849,5.15679 -0.0327,0.0155 -0.47615,-0.18601 -0.98547,-0.44752 -0.50932,-0.2615 -1.19393,-0.47571 -1.52135,-0.47594 -0.32743,-2.3e-4 -0.59532,-0.14055 -0.59532,-0.31213 0,-0.50216 1.13889,-3.89471 1.31517,-3.9212 z m -42.590164,13.49323 -0.529167,0.52917 -0.529166,0.52916 0.0041,1.52136 c 0.0022,0.83675 0.116524,1.69995 0.254248,1.91823 l 0.250631,0.39687 1.925463,0.13229 1.925981,0.1323 0.08785,0.46302 0.08837,0.46302 h -2.297018 -2.2965 l 0.160713,0.41858 c 0.08833,0.23018 0.160714,0.52784 0.160714,0.66145 0,0.13391 1.410377,0.24288 3.142444,0.24288 h 3.142444 l 0.314192,-0.37827 c 0.172816,-0.20823 0.372049,-1.0119 0.442351,-1.78594 l 0.12764,-1.40714 -0.349849,-0.66146 -0.349849,-0.66146 -1.843299,-0.13229 -1.843298,-0.13229 -0.09198,-0.48421 -0.09198,-0.48369 2.140438,0.0868 2.140954,0.0868 -5.17e-4,-0.30903 c -3.41e-4,-0.17 -0.0729,-0.49742 -0.16123,-0.7276 l -0.160714,-0.41858 h -2.881994 z m 30.162504,5.2e-4 v 0.52916 0.52917 h 1.32291 1.32292 v -0.52917 -0.52916 h -1.32292 z m 11.77395,0 v 3.57187 3.57188 h 1.52136 1.52135 v -3.57188 -3.57187 h -1.52135 z m 10.98021,0 v 0.52916 0.52917 h 1.32292 1.32292 v -0.52917 -0.52916 h -1.32292 z m -4.34443,0.26458 c -1.2469,0 -1.74098,0.23305 -1.74098,0.82166 v 0.50126 h -0.66146 -0.66146 v 0.52916 0.52917 h 0.66146 0.66146 v 1.8371 1.83658 l 0.58807,0.41238 0.58757,0.41186 h 1.92598 c 1.05902,0 1.92546,-0.10978 1.92546,-0.2434 0,-0.13362 0.0694,-0.42424 0.15451,-0.64595 l 0.15451,-0.40308 -1.27899,-0.0817 -1.27899,-0.0811 -0.0796,-1.52136 -0.0796,-1.52135 h 1.20406 1.20406 v -0.52917 -0.52916 h -1.19062 -1.19063 v -0.66146 -0.66146 z m -24.72976,1.3224 -0.41186,0.58808 -0.41186,0.58808 v 1.66088 1.66088 l 0.52916,0.52916 0.52917,0.52917 h 2.51354 c 1.38083,0 2.51253,-0.089 2.51716,-0.19792 0.002,-0.10936 0.0678,-0.43675 0.14624,-0.7276 l 0.14263,-0.52917 -1.73374,0.0884 -1.73375,0.0889 v -1.64124 -1.64073 l 1.71979,0.10955 c 1.74037,0.11082 1.84737,0.0635 1.55908,-0.68781 l -0.16071,-0.41858 h -2.60243 z m -8.12664,5.2e-4 -0.31729,0.31729 -0.31729,0.31729 v 1.97714 1.97663 l 0.4377,0.48369 0.4377,0.48421 h 3.10317 3.10316 l 0.12661,-0.66146 0.12661,-0.66146 h -2.21227 -2.21227 v -0.39687 -0.39688 h 2.24896 2.24896 v -1.30431 -1.3038 l -0.416,-0.41599 -0.41599,-0.41548 h -2.97088 z m 14.31437,0 v 2.77812 2.77813 h 1.52136 1.52135 v -2.77813 -2.77812 h -1.52135 z m 4.42196,0 -0.16072,0.41806 c -0.28563,0.74434 -0.19014,0.77754 1.95647,0.68006 l 2.11667,-0.0961 v 0.29249 0.29301 h -1.66088 -1.6614 l -0.58756,0.41186 -0.58808,0.41186 v 1.16065 1.16014 l 0.56999,0.39946 0.57,0.39946 3.20135,-0.003 3.20136,-0.003 -0.0909,-2.16731 -0.091,-2.16679 -0.37931,-0.59531 -0.3793,-0.59531 h -3.00809 z m 19.85357,0 -1.52136,5.1e-4 v 2.77761 2.77813 h 1.52136 1.52135 v -2.77813 -2.77812 z m 2.85615,0 -0.43356,0.66197 -0.43409,0.66198 0.11163,1.75131 0.11162,1.7508 0.50953,0.3731 0.51004,0.37259 3.04736,-0.0739 3.04788,-0.0739 0.0827,-0.58447 0.0832,-0.58446 -2.17816,-0.077 -2.17868,-0.077 -0.10956,-0.33073 -0.10955,-0.33073 h 2.27118 2.27118 v -1.4025 c 0,-0.77126 -0.14319,-1.54517 -0.31781,-1.71979 l -0.31729,-0.31729 h -2.9838 z m 11.05462,0 c -1.4492,0 -2.8651,0.12324 -3.14657,0.27388 l -0.5116,0.27389 v 1.28106 c 0,1.61094 0.26857,1.82741 2.39107,1.92701 l 1.70997,0.0801 -0.13229,0.26458 c -0.0732,0.14633 -1.055,0.25191 -2.19677,0.23616 l -2.06447,-0.0284 0.14625,0.38086 c 0.0804,0.20947 0.14624,0.50033 0.14624,0.64647 v 0.26613 l 3.06441,-0.0889 3.06441,-0.0889 0.37518,-0.51367 c 0.4948,-0.6776 0.47712,-2.00165 -0.0367,-2.73523 l -0.41187,-0.58756 h -1.7048 -1.70481 v -0.29353 -0.29352 l 1.98438,0.10025 c 2.011,0.10155 2.11016,0.064 1.82366,-0.68264 l -0.16071,-0.41806 z m -54.477291,0.0155 -3.450952,0.0114 -3.450952,0.0119 0.152962,0.39895 c 0.08421,0.21944 0.153479,1.93695 0.153479,3.81682 v 3.41788 h 1.450041 1.45004 l -0.156062,-1.13843 -0.156063,-1.13895 1.73116,0.11007 1.730644,0.11007 0.679028,-0.67903 0.679545,-0.67903 v -1.54047 -1.54099 l -0.406693,-0.58033 z m -2.097546,1.00924 v 1.60404 1.60403 h -0.939478 -0.939477 l 0.07958,-1.52135 0.07958,-1.52135 0.859896,-0.0827 z m 6.349997,0.0336 h 0.76533 0.76533 l 0.16071,0.41806 c 0.24182,0.63016 0.23038,0.64027 -0.76533,0.64027 h -0.92604 v -0.52916 z m 41.53959,0 h 0.79375 0.79375 v 0.52917 0.52916 h -0.79375 -0.79375 v -0.52916 z m -48.667834,1.32292 c -0.136933,0 -0.322441,0.11906 -0.412378,0.26458 -0.08994,0.14552 0.0217,0.26458 0.248563,0.26458 0.22687,0 0.412895,-0.11906 0.412895,-0.26458 0,-0.14552 -0.112148,-0.26458 -0.24908,-0.26458 z m 26.722914,0.52916 h 0.77825 v 0.66146 0.66146 h -0.80202 c -0.4571,0 -0.86579,-0.1655 -0.94981,-0.38447 -0.22961,-0.59834 0.12352,-0.93845 0.97358,-0.93845 z" /></g></g></svg>
