<?xml version="1.0" encoding="UTF-8" standalone="no"?>
<!-- Created with Inkscape (http://www.inkscape.org/) -->

<svg
   width="105.65424mm"
   height="30.956169mm"
   viewBox="0 0 105.65424 30.956169"
   version="1.1"
   id="svg1"
   xml:space="preserve"
   xmlns="http://www.w3.org/2000/svg"
   xmlns:svg="http://www.w3.org/2000/svg"><defs
     id="defs1" /><g
     id="layer1"
     transform="translate(-4.6648317,-107.66813)"><g
       id="g41"><path
         id="path10"
         style="display:inline;fill:#0093d0;fill-opacity:1"
         d="m 20.8132,112.6045 v 0.22427 c -0.631878,0.0756 -3.819259,0.13515 -7.625374,0.13694 -4.3468194,0.002 -7.9111716,0.113 -8.1312871,0.25219 l -0.3917074,0.24753 0.5498373,0.74052 c 0.3024201,0.40719 1.2438641,1.09719 2.091862,1.53376 l 1.5415079,0.79375 5.5764043,0.0837 c 3.066946,0.0461 5.689306,0.19492 5.827551,0.33073 l 0.251147,0.24701 -5.278231,0.004 c -2.910867,0.002 -5.4562431,0.11785 -5.6751053,0.25786 l -0.396875,0.25425 0.4041097,0.72916 c 0.8854606,1.59746 4.5023676,2.71779 8.7901616,2.72179 l 2.05052,0.002 v 0.26458 0.26459 h -2.101163 -2.101164 l -0.176734,0.28628 c -0.262861,0.42531 1.168471,1.81822 2.526978,2.45929 l 1.087789,0.37103 0.102836,-0.009 0.595313,-0.39532 0.481624,-0.31936 v 3.72242 l 74.361352,-0.79805 v -2.74402 l 0.250114,0.18293 c 0.278247,0.3146 0.450306,0.37603 0.547771,0.35295 -0.004,0.0119 -0.0083,0.0247 -0.0124,0.0382 l 1.367875,-0.78135 c 2.506962,-1.43179 2.473369,-2.36833 -0.08475,-2.36833 -2.774955,0 -1.941616,-0.43455 1.175122,-0.61288 l 2.878896,-0.16485 1.48879,-0.55707 c 0.81876,-0.30634 1.92476,-0.96805 2.45774,-1.47071 l 0.96893,-0.91416 -0.32195,-0.32297 -0.32246,-0.32298 -4.28707,-0.13643 c -5.316754,-0.16918 -4.914665,-0.47544 0.76016,-0.57929 l 4.25348,-0.078 1.54151,-0.79375 c 1.54265,-0.79415 2.79479,-2.06161 2.41381,-2.44326 -0.11133,-0.11152 -3.90904,-0.23707 -8.4398,-0.27957 l -7.698892,-0.46623 z m 74.361352,1.88464 c 0.108924,0.1671 0.234349,0.31108 0.35295,0.39532 0.66019,0.46892 1.070219,1.3562 1.070219,2.31717 v 0.83768 l -0.79375,0.74155 -0.629419,0.58756 z" /><path
         style="display:inline;fill:#000000"
         d="m 28.264025,137.80132 -0.824033,-0.82403 -2.925927,0.0336 -2.925926,0.0336 -0.661458,-0.34095 c -0.365121,-0.1882 -0.799156,-0.75273 -0.968816,-1.26009 l -0.307356,-0.91915 0.04277,-4.86267 0.04277,-4.86267 0.595312,-0.39512 0.595313,-0.39512 v -5.68434 -5.68434 l -0.661459,-0.5203 -0.661458,-0.5203 v -1.17142 -1.17143 l 0.529167,-0.52916 0.529166,-0.52917 h 5.765245 5.765244 l 1.557135,0.40558 c 2.258923,0.58838 3.996213,1.63058 5.464895,3.27841 0.710177,0.7968 1.291231,1.29327 1.291231,1.10326 0,-0.19001 -0.297657,-0.5796 -0.661459,-0.86577 l -0.661458,-0.5203 v -1.17142 -1.17143 l 0.529167,-0.52916 0.529166,-0.52917 7.209896,10e-4 7.209895,0.001 1.052369,0.29216 c 0.578802,0.16069 1.490483,0.73028 2.025957,1.26575 l 0.97359,0.97359 0.190845,1.27265 0.190846,1.27265 -0.314123,1.04845 c -0.172768,0.57665 -0.726579,1.50499 -1.230691,2.06298 l -0.916568,1.01453 0.849285,1.36621 0.849284,1.36622 0.335755,-0.87584 c 0.184666,-0.48171 0.889047,-2.24506 1.565291,-3.91855 l 1.229536,-3.04271 -0.04285,-1.50575 -0.04285,-1.50575 0.54477,-0.54477 0.54477,-0.54477 h 4.497916 4.497917 l 0.537924,0.53793 0.537924,0.53792 -0.04332,1.64489 -0.04332,1.64489 0.442645,1.01051 0.442644,1.01052 0.670904,-1.2751 c 2.339968,-4.44727 7.394702,-6.40651 13.833217,-5.36183 l 1.694246,0.2749 0.2769,-0.2769 c 0.152295,-0.15229 0.661164,-0.2769 1.130821,-0.2769 h 0.853922 l 0.517112,0.65741 0.517113,0.6574 0.189546,1.76995 c 0.243421,2.27303 0.330696,2.47149 1.08686,2.47149 h 0.62811 l 0.167565,0.66764 c 0.09216,0.36719 0.37319,0.81368 0.62451,0.99218 0.66019,0.46892 1.07009,1.35671 1.07009,2.31768 v 0.83728 l -0.79375,0.74147 -0.79375,0.74148 v 2.31207 2.31208 l 0.414425,0.30303 c 0.227934,0.16667 0.481399,0.80236 0.563256,1.41265 l 0.14883,1.10961 -0.411481,0.628 -0.411481,0.628 0.292109,2.63209 0.292109,2.63209 -0.510029,1.04498 -0.510029,1.04497 -0.926042,0.46394 -0.926041,0.46394 -11.773958,-0.10912 c -6.475677,-0.06 -12.071615,-0.0977 -12.435417,-0.0837 -1.558635,0.06 -30.87303,0.0226 -31.353124,-0.0401 -0.291041,-0.038 -1.044568,0.0154 -1.674503,0.11862 l -1.145336,0.18764 -0.227026,0.59712 c -0.124865,0.32842 -0.499158,0.78773 -0.831764,1.0207 l -0.604738,0.42358 h -1.945856 -1.945856 z m 4.138101,-2.1669 -0.156098,-1.13886 1.730988,0.11022 1.730989,0.11022 0.679129,-0.67913 0.679129,-0.67913 v -1.54065 -1.54066 l -0.406404,-0.58022 -0.406404,-0.58023 -3.450865,0.0117 -3.450865,0.0117 0.153102,0.39897 c 0.08421,0.21944 0.153103,1.93706 0.153103,3.81693 v 3.41794 h 1.450147 1.450147 z m -0.04542,-3.82209 0.07935,-1.52135 0.859896,-0.0829 0.859896,-0.0829 v 1.60427 1.60426 h -0.939246 -0.939245 z m 1.269974,-0.0661 c 0,-0.14552 -0.112036,-0.26458 -0.248968,-0.26458 -0.136933,0 -0.322553,0.11906 -0.41249,0.26458 -0.08994,0.14552 0.0221,0.26458 0.248968,0.26458 0.22687,0 0.41249,-0.11906 0.41249,-0.26458 z m -5.306832,2.7964 c 0.172816,-0.20823 0.37173,-1.0119 0.442032,-1.78594 l 0.127822,-1.40734 -0.349862,-0.66145 -0.349861,-0.66146 -1.843279,-0.13229 -1.84328,-0.1323 -0.092,-0.4839 -0.092,-0.4839 2.14071,0.087 2.14071,0.087 -6.22e-4,-0.30909 c -3.41e-4,-0.17 -0.07289,-0.49742 -0.16122,-0.7276 l -0.160599,-0.41851 H 25.39629 22.514181 l -0.529167,0.52916 -0.529167,0.52917 0.0041,1.52135 c 0.0022,0.83675 0.116735,1.69995 0.254459,1.91823 l 0.250408,0.39688 1.925854,0.13229 1.925854,0.13229 0.08805,0.46302 0.08805,0.46302 H 23.695956 21.39929 l 0.160599,0.41852 c 0.08833,0.23018 0.1606,0.52784 0.1606,0.66145 0,0.13391 1.410536,0.24295 3.142603,0.24295 h 3.142603 z m 16.484089,-0.54744 0.126446,-0.66146 h -2.212268 -2.212268 v -0.39688 -0.39687 h 2.248958 2.248958 v -1.30402 -1.30402 l -0.415774,-0.41577 -0.415773,-0.41577 H 41.201323 38.23043 l -0.3175,0.3175 -0.3175,0.3175 v 1.97677 1.97677 l 0.437882,0.48385 0.437882,0.48386 h 3.103149 3.103148 z m -4.29809,-3.30729 v -0.52917 h 0.765442 0.765443 l 0.160599,0.41851 c 0.241815,0.63016 0.230259,0.63982 -0.765443,0.63982 h -0.926041 z m 11.116112,3.77031 c 0.002,-0.10914 0.06788,-0.43656 0.146418,-0.72761 l 0.142804,-0.52916 -1.733917,0.0887 -1.733918,0.0887 v -1.6409 -1.6409 l 1.719792,0.10951 c 1.740363,0.11082 1.847477,0.0636 1.559192,-0.68768 l -0.160599,-0.41851 h -2.602523 -2.602522 l -0.411878,0.58803 -0.411878,0.58804 v 1.66092 1.66092 l 0.529166,0.52917 0.529167,0.52917 h 2.513542 c 1.382448,0 2.515167,-0.0893 2.517154,-0.19844 z m 3.965137,-2.57969 v -2.77812 h -1.521354 -1.521354 v 2.77812 2.77813 h 1.521354 1.521354 z m 8.245922,0.57963 -0.09095,-2.16713 -0.379418,-0.59531 -0.379419,-0.59531 H 59.97493 56.966629 l -0.160599,0.41851 c -0.285631,0.74434 -0.190544,0.77739 1.956067,0.67991 l 2.116667,-0.0961 v 0.2926 0.2926 h -1.660921 -1.66092 l -0.588038,0.41187 -0.588038,0.41188 v 1.16062 1.16062 l 0.570002,0.39924 0.570001,0.39925 3.20156,-0.003 3.201561,-0.003 z m -4.705796,0.49137 c -0.229607,-0.59834 0.12334,-0.93871 0.973406,-0.93871 h 0.778135 v 0.66146 0.66146 h -0.802054 c -0.457106,0 -0.865462,-0.16524 -0.949487,-0.38421 z m 8.366124,-1.86475 v -3.57187 h -1.521354 -1.521355 v 3.57187 3.57188 h 1.521355 1.521354 z m 6.879166,3.32893 c 0,-0.13362 0.06961,-0.42434 0.154685,-0.64605 l 0.154686,-0.4031 -1.279165,-0.0816 -1.279164,-0.0815 -0.07935,-1.52136 -0.07935,-1.52135 h 1.203828 1.203829 v -0.52917 -0.52916 h -1.190625 -1.190625 v -0.66146 -0.66146 H 71.08686 c -1.2469,0 -1.741431,0.23345 -1.741431,0.82206 v 0.50086 h -0.661458 -0.661459 v 0.52916 0.52917 h 0.661459 0.661458 v 1.83708 1.83708 l 0.588038,0.41188 0.588038,0.41188 h 1.925504 c 1.059027,0 1.925503,-0.10933 1.925503,-0.24295 z m 3.96875,-2.53518 v -2.77812 l -1.521354,2.9e-4 -1.521354,3e-4 v 2.77796 2.77795 l 1.521354,-1.2e-4 1.521354,-1.3e-4 z m 7.888318,2.0615 0.08311,-0.58434 -2.178481,-0.0771 -2.17848,-0.0771 -0.10949,-0.33073 -0.109491,-0.33073 h 2.271007 2.271007 v -1.40229 c 0,-0.77126 -0.142875,-1.54517 -0.3175,-1.71979 l -0.3175,-0.3175 H 82.66007 79.676378 l -0.433763,0.662 -0.433762,0.66201 0.11151,1.75123 0.11151,1.75123 0.509772,0.37275 0.509771,0.37276 3.047527,-0.074 3.047527,-0.074 z m -4.184151,-3.25212 v -0.52917 h 0.79375 0.79375 v 0.52917 0.52916 h -0.79375 -0.79375 z m 11.531214,3.32286 c 0.494804,-0.6776 0.476972,-2.00125 -0.03684,-2.73483 l -0.411878,-0.58803 h -1.704788 -1.704789 v -0.29351 -0.2935 l 1.984375,0.10021 c 2.011004,0.10155 2.110275,0.0644 1.823776,-0.68219 L 93.3659,129.1004 h -2.63492 c -1.449206,0 -2.865218,0.12325 -3.146693,0.27389 l -0.511772,0.27389 v 1.28121 c 0,1.61094 0.268893,1.82764 2.391396,1.92724 l 1.709645,0.0802 -0.132291,0.26459 c -0.07317,0.14633 -1.054898,0.25185 -2.196668,0.2361 l -2.064377,-0.0285 0.146148,0.38085 c 0.08038,0.20947 0.146147,0.50043 0.146147,0.64657 v 0.26571 l 3.064548,-0.0889 3.064548,-0.0889 z m -38.25413,-5.9687 V 127.5129 H 53.999596 52.67668 v 0.52916 0.52917 h 1.322916 1.322917 z m 22.754166,0 v -0.52916 h -1.322917 -1.322917 v 0.52916 0.52917 h 1.322917 1.322917 z m -39.313082,-1.05833 c 0.182126,0 0.331139,-0.1786 0.331139,-0.39688 0,-0.52104 -0.0938,-0.5035 -0.928407,0.17366 l -0.703191,0.57052 0.484661,-0.17365 c 0.266563,-0.0955 0.633672,-0.17365 0.815798,-0.17365 z m -3.754537,-0.7564 c 0.542028,-0.17771 1.493292,-0.71042 2.113919,-1.18379 l 1.128414,-0.86067 0.796498,-1.55742 0.796497,-1.55743 -0.01116,-2.13538 -0.01116,-2.13537 -0.589211,-1.30184 c -0.324065,-0.71601 -1.006766,-1.81141 -1.517112,-2.43422 l -0.927903,-1.13239 -1.772359,-0.87306 -1.772359,-0.87307 -5.893638,-0.0881 -5.893638,-0.0882 v 0.41888 c 0,0.23039 0.174405,0.41888 0.387566,0.41888 0.213161,0 0.512836,0.23407 0.665944,0.52016 l 0.278377,0.52015 -0.07063,6.82204 -0.07063,6.82203 -0.595312,0.26118 c -0.327422,0.14365 -0.595313,0.41933 -0.595313,0.61262 v 0.35144 l 6.283854,-0.10165 6.283854,-0.10166 z m -6.419789,-1.76958 -0.339702,-0.40932 0.05899,-5.69687 c 0.03245,-3.13328 0.123942,-5.86611 0.203322,-6.07297 l 0.144326,-0.37611 1.096172,0.002 c 2.007017,0.003 3.518355,1.54623 4.283661,4.3735 l 0.458227,1.69282 -0.136933,1.70589 -0.136932,1.70589 -0.627593,1.13682 c -0.345175,0.62525 -1.032153,1.40932 -1.526615,1.74237 l -0.899024,0.60555 h -1.1191 -1.119101 z m 3.191899,-2.8401 c 1.256628,-2.06636 0.28595,-7.59851 -1.333244,-7.59851 h -0.260829 v 4.50723 4.50723 l 0.543325,-0.29078 c 0.298828,-0.15993 0.771665,-0.66626 1.050748,-1.12517 z m 17.191343,4.84894 c 0,-0.13891 -0.297656,-0.55021 -0.661458,-0.91402 l -0.661459,-0.66146 v -2.92244 -2.92244 h 0.519308 0.519308 l 1.030951,1.52135 c 1.47156,2.17155 2.163767,3.62826 2.163767,4.55352 v 0.8043 h -0.396875 c -0.218282,0 -0.396875,0.17859 -0.396875,0.39687 v 0.39688 h 5.820833 5.820833 v -0.33414 c 0,-0.18377 -0.267891,-0.45292 -0.595313,-0.5981 l -0.595312,-0.26397 0.05501,-0.96157 c 0.03026,-0.52887 0.334682,-1.65871 0.676501,-2.51076 l 0.621489,-1.54917 0.634788,-0.0917 c 1.717848,-0.24813 4.695613,1.79131 5.127406,3.51171 l 0.184991,0.73706 -0.415047,0.63344 c -0.228275,0.3484 -0.600817,0.63345 -0.827871,0.63345 -0.227053,0 -0.363334,0.14882 -0.302845,0.33072 l 0.109978,0.33073 4.409987,0.0726 4.409986,0.0725 v -0.40327 c 0,-0.2218 -0.180343,-0.40327 -0.400764,-0.40327 -0.690049,0 -1.282978,-1.36117 -3.583364,-8.22623 l -2.23358,-6.66569 0.330729,-0.11672 c 0.181902,-0.0642 0.33073,-0.28538 0.33073,-0.49154 v -0.37483 h -3.704167 -3.704166 v 0.39688 c 0,0.21828 0.119062,0.39687 0.264583,0.39687 0.509642,0 -3.104827,10.26461 -4.722823,13.41218 l -0.517958,1.00762 -0.321734,-0.79375 c -1.03617,-2.55634 -2.489584,-5.21507 -3.442894,-6.29809 -0.601551,-0.68339 -0.977425,-1.24254 -0.835276,-1.24254 0.14215,0 0.863251,-0.54376 1.602448,-1.20837 l 1.343995,-1.20836 0.260692,-0.94415 0.260693,-0.94415 -0.375924,-0.89972 -0.375925,-0.89971 -0.927065,-0.38735 -0.927066,-0.38736 h -6.755373 -6.755373 v 0.39688 c 0,0.21828 0.174405,0.39687 0.387566,0.39687 0.213161,0 0.510818,0.2303 0.661459,0.51178 l 0.273892,0.51177 v 6.51708 6.51708 l -0.273892,0.51177 c -0.150641,0.28148 -0.448298,0.51178 -0.661459,0.51178 -0.213161,0 -0.387566,0.17859 -0.387566,0.39687 v 0.39688 h 3.96875 3.96875 z m 16.933333,-7.73783 c -0.509323,-0.2615 -1.193932,-0.47564 -1.521354,-0.47587 -0.327422,-2.3e-4 -0.595313,-0.14079 -0.595313,-0.31237 0,-0.50413 1.14796,-3.92138 1.317314,-3.92138 0.146468,0 1.910622,5.09728 1.784798,5.15693 -0.03267,0.0155 -0.476122,-0.1858 -0.985445,-0.44731 z m -18.25625,-3.8695 v -2.32178 l 0.3175,-0.3175 c 0.174625,-0.17463 0.882249,-0.3175 1.572497,-0.3175 h 1.254997 l 0.411878,0.58804 c 1.081804,1.54449 -0.1165,3.3825 -2.893618,4.43836 l -0.663254,0.25217 z m 46.566666,11.60733 c 0,-0.13891 -0.297657,-0.55021 -0.661459,-0.91402 l -0.661458,-0.66146 v -3.03751 c 0,-1.67063 0.116115,-3.34291 0.258035,-3.71619 l 0.258034,-0.67868 h 0.535716 c 0.299802,0 0.535715,-0.17477 0.535715,-0.39688 v -0.39687 h -4.101042 -4.101041 v 0.27113 c 0,0.14912 0.294331,0.38304 0.654068,0.51981 0.851646,0.32379 1.004758,1.02909 0.893202,4.11443 l -0.09206,2.54617 -0.51359,0.37527 c -2.098384,1.53325 -5.44708,-0.94705 -6.224477,-4.61031 l -0.343154,-1.61701 0.184597,-1.39506 c 0.761283,-5.75326 6.930263,-7.23074 9.728984,-2.33011 1.076851,1.8856 1.223841,1.32256 0.693883,-2.65787 l -0.310216,-2.32998 -0.522571,0.27967 -0.52257,0.27968 -2.805235,-0.33354 -2.805234,-0.33353 -1.852083,0.31445 c -3.447368,0.58529 -5.651062,2.11895 -6.810307,4.73961 l -0.516216,1.167 0.09139,2.28603 0.09139,2.28603 0.778603,1.53664 c 2.023337,3.99324 4.309529,4.86329 12.913584,4.91454 l 5.225521,0.0311 z m -28.221749,-1.88486 0.470852,-0.54992 -0.326635,-0.39357 c -0.179649,-0.21646 -0.658166,-0.56501 -1.06337,-0.77455 l -0.736736,-0.38098 -0.274722,0.51332 c -0.802694,1.49985 0.845214,2.85335 1.930611,1.5857 z m 19.755082,-3.57919 v -1.74786 l -0.661458,-0.52031 -0.661458,-0.5203 v -1.28451 -1.28451 l 0.697139,-0.54837 0.69714,-0.54837 1.088798,-0.009 1.088797,-0.009 -0.661458,-0.37812 c -0.363802,-0.20797 -1.14672,-0.38235 -1.739817,-0.3875 l -1.078358,-0.009 -0.557663,0.59531 c -2.033524,2.17082 -1.016727,8.40053 1.371111,8.40053 h 0.417227 z"
         id="path9" /><path
         id="path39"
         style="display:inline;opacity:1;fill:#ffffff;fill-opacity:1;fill-rule:evenodd;stroke-width:1.785;stroke-linejoin:bevel"
         d="m 84.294596,109.44397 -1.852083,0.31419 c -3.447368,0.58529 -5.651192,2.1191 -6.810437,4.73976 l -0.516248,1.16685 0.09147,2.28617 0.09147,2.28617 0.778247,1.53634 c 2.023337,3.99324 4.309886,4.86317 12.913941,4.91442 l 5.22552,0.031 v -0.25218 c 0,-0.13891 -0.297656,-0.55035 -0.661458,-0.91416 l -0.661458,-0.66146 v -3.03754 c 0,-1.67063 0.115945,-3.34277 0.257865,-3.71605 l 0.257865,-0.67851 h 0.535885 c 0.299802,0 0.535885,-0.17476 0.535885,-0.39687 v -0.39688 h -4.101042 -4.101042 v 0.27078 c 0,0.14912 0.29397,0.3831 0.653707,0.51987 0.851646,0.32379 1.005042,1.02914 0.893486,4.11448 l -0.09198,2.5461 -0.513664,0.37517 c -2.098384,1.53325 -5.447029,-0.9468 -6.224426,-4.61006 l -0.343132,-1.61695 0.184485,-1.39527 c 0.761283,-5.75326 6.930401,-7.23072 9.729122,-2.33009 1.076851,1.8856 1.223456,1.32271 0.693498,-2.65772 l -0.310059,-2.33009 -0.522449,0.27957 -0.522448,0.27957 -2.805514,-0.33331 z m -62.838541,0.56224 v 0.41909 c 0,0.23039 0.174412,0.4191 0.387573,0.4191 0.213161,0 0.512484,0.23377 0.665592,0.51986 l 0.278536,0.52038 -0.0708,6.82181 -0.07028,6.82232 -0.595313,0.26097 c -0.327422,0.14365 -0.595312,0.41907 -0.595312,0.61236 v 0.35192 l 6.283854,-0.1018 6.283854,-0.1018 0.98547,-0.32298 c 0.542028,-0.17771 1.492939,-0.71054 2.113566,-1.18391 l 1.128613,-0.86041 0.796334,-1.55753 0.79685,-1.55753 -0.01137,-2.13527 -0.01137,-2.13527 -0.589112,-1.30224 c -0.324065,-0.71601 -1.006874,-1.81115 -1.51722,-2.43396 l -0.927592,-1.13275 -1.772501,-0.87282 -1.772502,-0.87281 -5.893697,-0.0884 z m 19.579166,0.0444 v 0.39687 c 0,0.21828 0.174413,0.39688 0.387574,0.39688 0.213161,0 0.510817,0.23011 0.661458,0.51159 l 0.273885,0.5116 v 6.51743 6.51692 l -0.273885,0.51159 c -0.150641,0.28148 -0.448297,0.51212 -0.661458,0.51212 -0.213161,0 -0.387574,0.17859 -0.387574,0.39687 v 0.39688 h 3.96875 3.96875 v -0.2527 c 0,-0.13891 -0.297656,-0.55035 -0.661458,-0.91416 l -0.661458,-0.66146 v -2.9223 -2.9223 h 0.519348 0.518831 l 1.030945,1.52135 c 1.47156,2.17155 2.164209,3.62795 2.164209,4.55321 v 0.80461 h -0.396875 c -0.218282,0 -0.396875,0.17859 -0.396875,0.39687 v 0.39688 h 5.820833 5.820834 v -0.33435 c 0,-0.18377 -0.267891,-0.45272 -0.595313,-0.5979 l -0.595312,-0.26406 0.05478,-0.9617 c 0.03026,-0.52887 0.334625,-1.65891 0.676444,-2.51096 l 0.621668,-1.54874 0.634586,-0.092 c 1.717848,-0.24813 4.695543,1.79153 5.127336,3.51193 l 0.185002,0.73691 -0.414962,0.63355 c -0.228275,0.3484 -0.600803,0.63356 -0.827857,0.63356 -0.227053,0 -0.363313,0.14883 -0.302824,0.33073 l 0.110071,0.33073 4.410067,0.0723 4.410067,0.0724 v -0.40308 c 0,-0.2218 -0.180588,-0.40307 -0.401009,-0.40307 -0.690049,0 -1.282858,-1.36131 -3.583244,-8.22637 l -2.233456,-6.66575 0.33073,-0.11679 c 0.181902,-0.0642 0.330729,-0.28528 0.330729,-0.49144 v -0.37465 h -3.704167 -3.704167 v 0.39687 c 0,0.21828 0.119063,0.39688 0.264584,0.39688 0.509642,0 -3.10523,10.26453 -4.723226,13.4121 l -0.517798,1.00769 -0.321944,-0.79375 c -1.03617,-2.55634 -2.489374,-5.2153 -3.442684,-6.29832 -0.601551,-0.68339 -0.97724,-1.24231 -0.835091,-1.24231 0.14215,0 0.863289,-0.5441 1.602486,-1.20871 l 1.343587,-1.20819 0.260966,-0.94413 0.260449,-0.94413 -0.375687,-0.89969 -0.376205,-0.89968 -0.927075,-0.38758 -0.927075,-0.38705 h -6.755143 z m -12.379089,1.85208 1.096057,0.002 c 2.007017,0.003 3.51867,1.54662 4.283976,4.37389 l 0.457854,1.6924 -0.136943,1.70636 -0.136426,1.70584 -0.627868,1.13688 c -0.345175,0.62525 -1.03206,1.40896 -1.526522,1.74201 l -0.89917,0.60565 h -1.118795 -1.119311 l -0.339515,-0.40979 -0.340031,-0.40928 0.05891,-5.69681 c 0.03245,-3.13328 0.124225,-5.86616 0.203605,-6.07302 z m 20.88348,0 h 1.25522 l 0.411862,0.58756 c 1.081804,1.54449 -0.116763,3.38263 -2.893881,4.43849 l -0.663008,0.25218 v -2.32182 -2.32182 l 0.317293,-0.3173 c 0.174625,-0.17463 0.882266,-0.31729 1.572514,-0.31729 z m 15.564941,2.11667 h 5.17e-4 5.17e-4 c 3.51e-4,10e-6 6.83e-4,0 0.001,0 0.146468,0 1.910728,5.09714 1.784904,5.15679 -0.03267,0.0155 -0.476146,-0.18601 -0.985469,-0.44752 -0.509323,-0.2615 -1.193932,-0.47571 -1.521354,-0.47594 -0.327422,-2.3e-4 -0.595313,-0.14055 -0.595313,-0.31213 0,-0.50216 1.13889,-3.89471 1.315165,-3.9212 z m -42.590165,13.49323 -0.529167,0.52917 -0.529166,0.52916 0.0041,1.52136 c 0.0022,0.83675 0.116524,1.69995 0.254248,1.91823 l 0.250631,0.39687 1.925463,0.13229 1.925981,0.1323 0.08785,0.46302 0.08837,0.46302 h -2.297018 -2.2965 l 0.160713,0.41858 c 0.08833,0.23018 0.160714,0.52784 0.160714,0.66145 0,0.13391 1.410377,0.24288 3.142444,0.24288 h 3.142444 l 0.314192,-0.37827 c 0.172816,-0.20823 0.372049,-1.0119 0.442351,-1.78594 l 0.12764,-1.40714 -0.349849,-0.66146 -0.349849,-0.66146 -1.843299,-0.13229 -1.843298,-0.13229 -0.09198,-0.48421 -0.09198,-0.48369 2.140438,0.0868 2.140954,0.0868 -5.17e-4,-0.30903 c -3.41e-4,-0.17 -0.0729,-0.49742 -0.16123,-0.7276 l -0.160714,-0.41858 H 25.39636 Z m 30.1625,5.2e-4 v 0.52916 0.52917 h 1.322917 1.322916 v -0.52917 -0.52916 h -1.322916 z m 11.773958,0 v 3.57187 3.57188 h 1.521355 1.521354 v -3.57188 -3.57187 h -1.521354 z m 10.980209,0 v 0.52916 0.52917 h 1.322916 1.322917 v -0.52917 -0.52916 h -1.322917 z m -4.344438,0.26458 c -1.2469,0 -1.740979,0.23305 -1.740979,0.82166 v 0.50126 H 68.68418 68.022721 v 0.52916 0.52917 h 0.661459 0.661458 v 1.8371 1.83658 l 0.588078,0.41238 0.587561,0.41186 h 1.92598 c 1.059027,0 1.925464,-0.10978 1.925464,-0.2434 0,-0.13362 0.06944,-0.42424 0.154513,-0.64595 l 0.154512,-0.40308 -1.278991,-0.0817 -1.278992,-0.0811 -0.07958,-1.52136 -0.07958,-1.52135 h 1.20406 1.204061 v -0.52917 -0.52916 h -1.190625 -1.190625 v -0.66146 -0.66146 z m -24.729757,1.3224 -0.411861,0.58808 -0.411861,0.58808 v 1.66088 1.66088 l 0.529167,0.52916 0.529166,0.52917 h 2.513542 c 1.380828,0 2.512529,-0.089 2.517159,-0.19792 0.0021,-0.10936 0.06776,-0.43675 0.146244,-0.7276 l 0.142627,-0.52917 -1.733744,0.0884 -1.733744,0.0889 v -1.64124 -1.64073 l 1.719791,0.10955 c 1.740363,0.11082 1.847363,0.0635 1.559078,-0.68781 l -0.160713,-0.41858 h -2.602426 z m -8.126635,5.2e-4 -0.317294,0.31729 -0.317293,0.31729 v 1.97714 1.97663 l 0.437699,0.48369 0.4377,0.48421 h 3.10317 3.103169 l 0.126608,-0.66146 0.126607,-0.66146 h -2.212268 -2.212268 v -0.39687 -0.39688 h 2.248958 2.248958 v -1.30431 -1.3038 l -0.415995,-0.41599 -0.415995,-0.41548 h -2.970878 z m 14.314371,0 v 2.77812 2.77813 h 1.521355 1.521354 v -2.77813 -2.77812 h -1.521354 z m 4.421953,0 -0.160714,0.41806 c -0.285631,0.74434 -0.190141,0.77754 1.95647,0.68006 l 2.116666,-0.0961 v 0.29249 0.29301 h -1.66088 -1.661397 l -0.587562,0.41186 -0.588077,0.41186 v 1.16065 1.16014 l 0.569991,0.39946 0.569991,0.39946 3.201355,-0.003 3.201355,-0.003 -0.09095,-2.16731 -0.09095,-2.16679 -0.379305,-0.59531 -0.379305,-0.59531 h -3.008085 z m 19.853568,0 -1.521354,5.1e-4 v 2.77761 2.77813 h 1.521354 1.521354 v -2.77813 -2.77812 z m 2.856157,0 -0.433566,0.66197 -0.434082,0.66198 0.111621,1.75131 0.111621,1.7508 0.50953,0.3731 0.510046,0.37259 3.04736,-0.0739 3.047876,-0.0739 0.08268,-0.58447 0.0832,-0.58446 -2.178162,-0.077 -2.178678,-0.077 -0.109554,-0.33073 -0.109554,-0.33073 h 2.271179 2.271179 v -1.4025 c 0,-0.77126 -0.143185,-1.54517 -0.31781,-1.71979 l -0.317293,-0.31729 H 82.66007 Z m 11.054622,0 c -1.449206,0 -2.865103,0.12324 -3.146578,0.27388 l -0.511597,0.27389 v 1.28106 c 0,1.61094 0.268566,1.82741 2.391069,1.92701 l 1.709973,0.0801 -0.132292,0.26458 c -0.07317,0.14633 -1.054995,0.25191 -2.196765,0.23616 l -2.064473,-0.0284 0.146244,0.38086 c 0.08038,0.20947 0.146244,0.50033 0.146244,0.64647 v 0.26613 l 3.064413,-0.0889 3.064412,-0.0889 0.375171,-0.51367 c 0.494804,-0.6776 0.477122,-2.00165 -0.03669,-2.73523 l -0.411861,-0.58756 H 91.42336 89.718555 v -0.29353 -0.29352 l 1.984375,0.10025 c 2.011004,0.10155 2.11016,0.064 1.823661,-0.68264 l -0.160714,-0.41806 z m -54.477295,0.0155 -3.450952,0.0114 -3.450952,0.0119 0.152962,0.39895 c 0.08421,0.21944 0.153479,1.93695 0.153479,3.81682 v 3.41788 h 1.450041 1.45004 l -0.156062,-1.13843 -0.156063,-1.13895 1.73116,0.11007 1.730644,0.11007 0.679028,-0.67903 0.679545,-0.67903 v -1.54047 -1.54099 l -0.406693,-0.58033 z m -2.097546,1.00924 v 1.60404 1.60403 H 33.216577 32.2771 l 0.07958,-1.52135 0.07958,-1.52135 0.859896,-0.0827 z m 6.35,0.0336 h 0.765328 0.765328 l 0.160713,0.41806 c 0.241815,0.63016 0.230374,0.64027 -0.765328,0.64027 h -0.926041 v -0.52916 z m 41.539583,0 h 0.79375 0.79375 v 0.52917 0.52916 h -0.79375 -0.79375 v -0.52916 z m -48.66783,1.32292 c -0.136933,0 -0.322441,0.11906 -0.412378,0.26458 -0.08994,0.14552 0.0217,0.26458 0.248563,0.26458 0.22687,0 0.412895,-0.11906 0.412895,-0.26458 0,-0.14552 -0.112148,-0.26458 -0.24908,-0.26458 z m 26.722916,0.52916 h 0.778247 v 0.66146 0.66146 h -0.802018 c -0.457106,0 -0.865788,-0.1655 -0.949813,-0.38447 -0.229607,-0.59834 0.123518,-0.93845 0.973584,-0.93845 z" /></g></g></svg>
