<?xml version="1.0" encoding="UTF-8" standalone="no"?>
<!-- Created with Inkscape (http://www.inkscape.org/) -->

<svg
   width="56.571827mm"
   height="25.737061mm"
   viewBox="0 0 56.571827 25.737061"
   version="1.1"
   id="svg1"
   xml:space="preserve"
   xmlns="http://www.w3.org/2000/svg"
   xmlns:svg="http://www.w3.org/2000/svg"><defs
     id="defs1" /><g
     id="layer1"
     transform="translate(-34.214858,-194.80376)"><path
       style="fill:#000000"
       d="m 61.396595,220.06778 -1.741273,-0.47311 -1.529807,-0.91926 -1.529808,-0.91927 -0.902068,-1.04677 -0.902069,-1.04678 -0.390913,-1.31635 -0.390914,-1.31635 v -0.7247 -0.72471 l -0.813404,-0.17865 -0.813403,-0.17866 -0.899962,-0.79017 -0.899962,-0.79018 -0.260552,-0.94364 -0.260552,-0.94365 0.157797,-1.15125 0.157797,-1.15126 h -2.284921 -2.284922 v 0.26458 0.26459 h 0.79375 0.79375 l -0.0054,0.33072 -0.0054,0.33073 -0.748029,2.38125 -0.748028,2.38125 -5.836721,0.0711 -5.83672,0.0711 0.845797,-2.71698 0.845798,-2.71697 0.892674,-0.13229 0.892675,-0.1323 0.739172,-2.20296 0.739172,-2.20296 0.161556,-0.50902 0.161557,-0.50901 h -0.81158 -0.81158 l 0.01721,-0.33073 0.01721,-0.33073 0.842687,-2.38125 0.842688,-2.38125 7.404762,-0.0704 7.404762,-0.0704 0.331341,0.12714 0.33134,0.12715 -0.269026,0.70759 -0.269026,0.70759 0.08313,0.0831 0.08313,0.0831 1.331797,-0.6591 1.331797,-0.6591 1.83362,-0.28741 1.833619,-0.2874 2.52063,0.13699 2.520631,0.137 1.041561,0.43519 1.041561,0.43519 0.48649,0.44027 0.486491,0.44026 -0.27837,-0.73216 -0.278369,-0.73217 v -0.25375 -0.25376 l 4.431769,0.0725 4.43177,0.0726 0.0826,1.1503 0.0826,1.1503 0.77145,-1.21645 0.77145,-1.21644 h 5.69437 5.69437 v 0.2034 0.2034 l -2.58442,2.57472 -2.58442,2.57473 h -0.41315 -0.41315 l 0.021,0.59531 0.021,0.59531 h -0.52916 -0.52917 l 0.0225,-0.60933 0.0225,-0.60933 -1.41158,1.39404 -1.41158,1.39404 v 0.25223 0.25222 l 0.70653,1.89988 0.70654,1.89989 1.9105,0.56208 1.91051,0.56208 1.41786,1.29724 1.41786,1.29724 0.99218,1.68013 0.99219,1.68013 v 0.31759 0.31758 l -1.63014,-0.84073 -1.63014,-0.84073 h -1.87559 -1.87559 l -1.85208,0.99889 -1.85208,0.99888 -3.43959,1.70192 -3.43958,1.70191 -2.38125,0.68738 -2.381251,0.68737 -2.645833,0.12086 -2.645833,0.12086 z m 19.57933,-6.40286 2.32006,-1.06872 1.22818,-0.22945 1.22818,-0.22945 0.99589,0.19659 0.99588,0.19658 0.51259,0.21277 0.51258,0.21277 -0.7567,-0.99209 -0.7567,-0.99209 -1.12819,-0.77621 -1.12819,-0.77621 -1.62846,-0.4172 -1.62846,-0.41719 -1.28621,0.1769 -1.2862,0.1769 -1.79845,0.88317 -1.79844,0.88317 1.05833,0.0134 1.05834,0.0135 0.99218,-0.23041 0.99219,-0.2304 v 0.19467 0.19467 l -1.30947,0.7127 -1.30947,0.7127 -0.99866,0.34575 -0.99866,0.34574 1.31594,0.16803 1.31595,0.16803 0.99218,-0.23052 0.99219,-0.23052 -0.003,0.17057 -0.003,0.17057 -0.95968,0.62195 -0.95968,0.62194 -0.95527,0.37492 -0.95528,0.37491 1.409,-0.12686 1.409,-0.12685 z m -7.996,-5.02969 1.79961,-2.37404 0.19844,-0.007 0.19843,-0.007 v 1.07616 1.07617 l 0.46303,-0.14566 0.46302,-0.14565 1.42517,-0.26905 1.42518,-0.26905 h 0.99907 0.99907 l -0.7706,-2.00123 -0.7706,-2.00123 V 203.26 202.95234 l 1.9116,-1.92445 1.91161,-1.92445 h 0.9417 0.94171 l 1.43713,-1.45521 1.43713,-1.45521 h -4.12479 -4.12479 l -1.38964,2.11667 -1.38963,2.11667 h -0.23122 -0.23123 v -2.11667 -2.11667 h -3.175 -3.175 l 0.0151,0.19844 0.0151,0.19844 1.1367,3.175 1.13669,3.175 -3.99283,4.03489 -3.992828,4.0349 h 3.356568 3.35657 z m -27.728592,0.98498 0.224326,-0.59532 0.187023,-0.85989 0.187022,-0.8599 h -0.843455 -0.843456 l 0.17894,-0.71295 0.17894,-0.71295 0.360996,-0.86399 0.360996,-0.86398 2.30847,-0.0767 2.30847,-0.0767 0.468169,-1.37939 0.468169,-1.37939 -2.333104,-0.0758 -2.333103,-0.0758 0.396426,-0.99218 0.396427,-0.99219 h 2.840238 2.840238 l 0.325336,-1.08587 0.325335,-1.08588 0.141728,-0.36933 0.141727,-0.36934 H 46.93618 40.33517 l -0.325336,1.08588 -0.325335,1.08587 -0.141727,0.36933 -0.141728,0.36934 h 0.822058 0.822057 l -0.01915,0.19844 -0.01915,0.19843 -1.244882,3.83646 -1.244881,3.83646 -0.896226,0.13229 -0.896225,0.13229 -0.333158,0.92605 -0.333157,0.92604 -0.02013,0.46302 -0.02013,0.46302 h 4.504465 4.504466 z m 9.022993,0.14968 v -0.44563 l 0.55029,-1.13675 0.55029,-1.13675 1.235647,-1.35826 1.235648,-1.35826 0.926042,-2.3929 0.926041,-2.3929 0.704572,-0.52176 0.704571,-0.52176 0.684491,0.1718 0.684491,0.1718 v 0.77334 0.77334 l -0.926041,3.0551 -0.926042,3.0551 v 0.68183 0.68183 l 0.272427,0.50903 0.272426,0.50904 0.772768,0.39961 0.772767,0.39961 h 0.482022 0.482022 l 0.974383,-0.80317 0.974383,-0.80316 0.797826,-1.64423 0.797825,-1.64423 0.669326,-2.3447 0.669325,-2.3447 v -0.75171 -0.7517 l -0.301243,-0.66116 -0.301244,-0.66115 -0.955527,-0.47577 -0.955528,-0.47578 h -3.96875 -3.96875 l -1.5875,0.79375 -1.5875,0.79375 -0.852947,1.27627 -0.852948,1.27627 -0.93299,2.88603 -0.93299,2.88603 v 1.28168 1.28169 l 0.595313,0.54161 0.595312,0.54161 0.396875,0.14508 0.396875,0.14508 0.463021,0.0209 0.463021,0.0209 z m 30.162499,-8.6825 v -0.13229 h -0.13229 -0.13229 v 0.13229 0.1323 h 0.13229 0.13229 z"
       id="path129" /></g></svg>
