<?xml version="1.0" encoding="UTF-8" standalone="no"?>
<!-- Created with Inkscape (http://www.inkscape.org/) -->

<svg
   width="131.68449mm"
   height="32.764263mm"
   viewBox="0 0 131.68449 32.764263"
   version="1.1"
   id="svg1"
   xml:space="preserve"
   xmlns="http://www.w3.org/2000/svg"
   xmlns:svg="http://www.w3.org/2000/svg"><defs
     id="defs1" /><g
     id="layer1"
     transform="translate(-54.977357,-191.9822)"><path
       style="fill:#000000"
       d="m 54.977356,224.67714 c 0,-0.15184 13.881684,-30.86061 14.427077,-31.91528 l 0.40318,-0.77966 h 36.664157 36.66416 l 0.90904,0.43136 c 0.49997,0.23726 1.08351,0.68047 1.29676,0.98492 l 0.38771,0.55354 v 0.80933 0.80933 l -1.4552,3.79598 c -0.80037,2.08779 -1.45521,3.82942 -1.45521,3.87029 0,0.0409 0.48908,-0.16199 1.08684,-0.4508 0.59776,-0.2888 1.75862,-0.64839 2.57969,-0.79908 0.82106,-0.15069 1.67144,-0.37795 1.88972,-0.50501 0.21828,-0.12707 0.87312,-0.52336 1.45521,-0.88065 l 1.05833,-0.64961 2.3447,-0.67751 2.3447,-0.67751 h 2.08707 2.08707 v 0.38999 c 0,0.21449 -0.35719,1.28915 -0.79375,2.38814 -0.43656,1.09898 -0.79375,2.11975 -0.79375,2.26837 v 0.27022 l 6.81302,-0.094 6.81302,-0.094 3.05516,-0.45433 3.05515,-0.45432 4.38033,0.0728 4.38033,0.0728 -3.47935,8.46666 c -1.91364,4.65667 -3.67803,8.83999 -3.92088,9.29627 l -0.44153,0.8296 -1.21418,1.06876 -1.21417,1.06876 -1.2421,0.48289 -1.24209,0.48289 -59.46511,0.0696 c -32.705806,0.0383 -59.465104,0.0154 -59.465104,-0.0507 z m 119.773364,-3.05767 1.10773,-0.48853 0.54592,-1.07008 c 0.30025,-0.58855 0.54591,-1.13435 0.54591,-1.21291 0,-0.0786 -2.44078,-0.14283 -5.42396,-0.14283 h -5.42396 v -0.22357 c 0,-0.12296 0.45787,-0.92663 1.0175,-1.78594 l 1.01749,-1.56237 1.4299,-1.33288 c 0.78645,-0.73308 1.84662,-1.58648 2.35595,-1.89645 l 0.92604,-0.56356 1.68112,-0.30299 c 1.93665,-0.34905 2.02108,-0.31609 1.59361,0.62211 l -0.31696,0.69565 h -1.88682 -1.88682 l -1.11342,1.13449 c -0.61238,0.62397 -1.11342,1.22216 -1.11342,1.32931 v 0.19482 l 4.41234,-0.0725 4.41234,-0.0725 0.52076,-1.32292 c 0.28641,-0.7276 0.97976,-2.37975 1.54078,-3.67143 0.56102,-1.29168 1.02003,-2.47048 1.02003,-2.61955 v -0.27104 l -2.76533,0.1566 -2.76534,0.1566 -1.79873,0.4458 c -0.9893,0.24519 -2.5131,0.76845 -3.38623,1.1628 l -1.5875,0.71699 -1.67295,1.347 -1.67295,1.34699 -1.29322,1.61139 c -0.71128,0.88626 -1.72487,2.38323 -2.25243,3.3266 l -0.9592,1.71521 -3.21837,-0.0186 -3.21838,-0.0186 1.37136,-0.46758 c 0.75424,-0.25718 2.05123,-0.8739 2.8822,-1.37051 l 1.51085,-0.90293 1.61979,-1.5875 1.61979,-1.5875 1.2372,-2.11666 c 0.68046,-1.16417 1.31645,-2.32503 1.4133,-2.57969 l 0.17609,-0.46302 h -2.00936 -2.00936 l -0.90651,1.78594 -0.90651,1.78593 -1.14733,1.10809 -1.14734,1.10809 -1.54822,0.81014 -1.54822,0.81014 h -0.61479 -0.61478 l 0.67488,-1.65364 c 0.37118,-0.90951 1.01711,-2.45837 1.4354,-3.44192 0.41829,-0.98354 0.76069,-1.87651 0.76089,-1.98437 l 3.8e-4,-0.19611 -1.8849,0.13229 -1.8849,0.13229 -0.51743,1.32292 c -0.28459,0.7276 -0.84504,2.03729 -1.24544,2.91042 -0.4004,0.87312 -1.18195,2.68882 -1.73677,4.03489 l -1.00876,2.4474 h -0.62377 c -0.7923,0 -0.84382,0.25344 0.69914,-3.43958 0.7276,-1.74151 1.32291,-3.27401 1.32291,-3.40557 0,-0.13155 0.37116,-1.03234 0.8248,-2.00174 0.45364,-0.9694 0.76346,-1.82388 0.6885,-1.89885 -0.46185,-0.46185 -4.26479,1.1596 -4.72479,2.01449 -0.52904,0.98321 -2.33476,5.07216 -3.00868,6.81302 l -0.74259,1.91823 h -3.66237 -3.66237 v -0.17647 c 0,-1.13833 2.70489,-4.74956 4.83786,-6.4589 l 1.26597,-1.01454 1.56271,-0.30745 1.56272,-0.30744 0.67704,-1.69122 c 0.37237,-0.93017 0.67704,-1.74949 0.67704,-1.82072 0,-0.49935 -4.90567,0.31422 -6.32719,1.04932 l -0.81656,0.42226 v 0.9342 0.93421 l -0.82186,-0.47798 -0.82186,-0.47798 -1.445,1.5875 -1.44501,1.5875 -1.17212,1.97783 c -0.64467,1.0878 -1.43243,2.60585 -1.75058,3.37344 l -0.57845,1.39561 -3.58933,-0.029 -3.58933,-0.029 1.05833,-0.21846 c 0.58208,-0.12014 1.75287,-0.46129 2.60176,-0.7581 l 1.54343,-0.53965 1.07101,-0.78763 1.07101,-0.78763 0.97657,-1.2997 c 0.53712,-0.71483 1.12893,-1.70285 1.31514,-2.19559 0.18622,-0.49274 0.73127,-1.78886 1.21123,-2.88027 0.47995,-1.0914 2.0246,-4.76823 3.43255,-8.17073 l 2.5599,-6.18637 -0.15953,-0.63565 -0.15954,-0.63566 -0.61989,-0.28244 -0.61988,-0.28243 -33.82851,0.22529 -33.828508,0.22529 1.316627,0.9559 1.316627,0.95591 10.31875,0.1671 c 5.675313,0.0919 19.307974,0.23462 30.294794,0.31713 10.98682,0.0825 20.24393,0.20452 20.57135,0.2711 l 0.59532,0.12106 v 0.34156 c 0,0.18786 -1.11752,3.02995 -2.48339,6.31575 -1.36586,3.28581 -2.63148,6.43382 -2.81249,6.99559 l -0.3291,1.0214 -0.89463,1.10646 -0.89463,1.10646 -1.38611,0.6537 c -0.76236,0.35954 -1.78562,0.72437 -2.27392,0.81074 l -0.88781,0.15703 0.19451,-0.46199 c 0.10698,-0.25409 0.51999,-1.29542 0.91781,-2.31407 0.39782,-1.01865 1.87067,-4.63377 3.27299,-8.03361 1.40233,-3.39984 2.54968,-6.23239 2.54968,-6.29456 0,-0.0622 -0.97368,-0.0784 -2.16374,-0.0362 l -2.16375,0.0769 -1.16676,2.77812 c -0.64172,1.52797 -1.9758,4.74266 -2.96463,7.14375 -0.98883,2.4011 -2.4369,5.88244 -3.21793,7.73631 l -1.42006,3.37068 -0.46302,0.003 -0.46302,0.003 v -0.26459 -0.26458 h -5.68855 -5.68854 v -0.22356 c 0,-0.12296 0.45582,-0.92664 1.01292,-1.78594 l 1.01292,-1.56238 1.69403,-1.56397 1.69402,-1.56397 1.32795,-0.60643 c 0.73038,-0.33353 1.83397,-0.68676 2.45243,-0.78495 l 1.12448,-0.17852 -0.002,0.23226 c -8.9e-4,0.12774 -0.18882,0.58944 -0.4176,1.026 -0.80714,1.54016 -2.70309,6.21771 -2.52023,6.21771 0.1019,0 1.1798,-0.33418 2.39533,-0.74262 l 2.21006,-0.74261 1.51255,-3.68916 c 0.8319,-2.02903 2.54066,-6.06611 3.79725,-8.97129 1.25658,-2.90517 2.28469,-5.39359 2.28469,-5.52982 v -0.24769 l -3.50573,0.16827 c -1.92815,0.0925 -4.16057,0.17139 -4.96094,0.1752 l -1.45521,0.007 1.15149,0.65827 1.15149,0.65827 h 1.4282 1.4282 v 0.21441 c 0,0.11793 -0.62925,1.69463 -1.39833,3.50379 l -1.39833,3.28937 -1.22611,0.17539 c -2.00955,0.28745 -4.1964,1.00681 -6.16369,2.02753 l -1.85208,0.96095 -2.2514,2.25646 -2.25139,2.25647 -1.18819,2.14605 -1.18819,2.14605 -2.631686,0.16116 c -3.179159,0.19468 -3.038998,0.31727 -1.95783,-1.71239 l 0.885349,-1.66205 1.428792,-1.54372 1.428795,-1.54373 1.12358,-0.65846 1.12358,-0.65847 1.15179,-0.19092 1.1518,-0.19093 0.7122,-1.45359 c 0.39171,-0.79947 0.71914,-1.61942 0.72761,-1.82212 l 0.0154,-0.36853 -2.05052,0.14453 -2.05053,0.14454 -1.52135,0.57374 -1.521355,0.57374 v 0.90703 c 0,1.03192 -0.05025,1.05967 -0.904868,0.4997 l -0.621666,-0.40733 -1.384167,1.53181 c -1.64168,1.81679 -2.756152,3.48657 -4.068603,6.09587 l -0.964849,1.91823 H 85.78106 79.549749 l 0.608674,-1.08299 c 0.334771,-0.59564 1.150125,-1.7565 1.811899,-2.57969 l 1.203225,-1.49669 1.607763,-1.21742 1.607763,-1.21741 1.760442,-0.47653 1.760441,-0.47653 0.175912,0.17591 0.175913,0.17591 -0.440015,0.92272 -0.440014,0.92272 -1.393343,0.003 -1.393343,0.003 -1.147718,0.9124 -1.147717,0.91239 2.11706,0.0772 2.117061,0.0772 -0.654339,1.54972 c -0.822587,1.94821 -0.79244,1.96934 1.545045,1.08301 l 1.933108,-0.733 0.447885,-0.49746 c 0.246336,-0.27361 0.804973,-1.42343 1.241415,-2.55516 0.436442,-1.13173 1.217159,-2.98729 1.734928,-4.12346 0.517769,-1.13617 0.941397,-2.16996 0.941397,-2.29731 v -0.23291 h -2.262874 -2.262874 l -1.904313,0.4248 -1.904314,0.4248 -2.116667,0.99793 -2.116666,0.99794 -1.644292,1.42153 c -0.904361,0.78185 -2.198363,2.13592 -2.87556,3.00904 l -1.231267,1.5875 -0.952773,1.91823 -0.952772,1.91823 h -0.342407 -0.342406 l 0.422068,-0.99219 c 0.232138,-0.5457 1.176947,-2.83766 2.099577,-5.09323 0.922631,-2.25557 2.579766,-6.22735 3.682525,-8.82618 1.102758,-2.59883 2.005015,-4.83647 2.005015,-4.97253 v -0.24739 l -1.910838,0.0777 -1.910839,0.0777 -1.427679,3.37343 -1.42768,3.37344 H 73.20893 70.071704 l 0.23242,-0.59531 c 0.12783,-0.32742 0.89879,-2.17139 1.713243,-4.0977 1.564608,-3.70056 1.058581,-6.41949 -1.194747,-6.41949 -0.200584,0 -0.97164,1.78965 -4.502735,10.45104 -1.305179,3.20146 -2.533037,6.11849 -2.728574,6.4823 -0.195537,0.3638 -0.914067,2.03067 -1.596733,3.70416 -0.682666,1.67349 -1.655753,3.80534 -2.162416,4.73744 l -0.921205,1.69472 57.366013,-0.19172 57.36602,-0.19172 z m -26.29519,-1.12842 0.66316,-1.12448 2.14183,-0.0768 2.14184,-0.0768 v 0.27528 c 0,0.15141 -0.23812,0.51341 -0.52917,0.80446 l -0.52916,0.52916 h -1.7281 -1.72809 l -0.1523,0.39688 -0.15229,0.39687 h -0.39544 -0.39543 z m 4.02079,-0.46302 0.16352,-0.26458 h -1.60311 -1.60312 v 0.26458 0.26459 h 1.43959 1.4396 z m 1.77016,0.46302 0.61918,-1.12448 1.82179,-0.0791 c 1.00198,-0.0435 1.97594,-0.02 2.16436,0.0523 l 0.34257,0.13146 -0.5809,1.06998 c -0.3195,0.5885 -0.67543,1.07097 -0.79095,1.07217 l -0.21003,0.002 0.0777,-0.4456 0.0778,-0.44561 -1.45521,0.0646 -1.45521,0.0646 -0.29375,0.38099 c -0.16157,0.20955 -0.43838,0.38099 -0.61514,0.38099 h -0.32138 z m 4.05067,-0.46302 0.16352,-0.26458 h -1.60311 -1.60312 v 0.26458 0.26459 h 1.4396 1.43959 z m 1.19063,1.42509 c 0,-0.0893 0.26005,-0.62511 0.57789,-1.19063 l 0.57788,-1.02821 h 2.08735 2.08735 l -0.0871,0.46302 -0.0871,0.46302 -0.59193,0.26039 -0.59194,0.26039 0.14829,0.46722 0.14829,0.46721 h -0.2414 c -0.13278,0 -0.45691,-0.23812 -0.7203,-0.52916 l -0.47889,-0.52917 h -0.87572 -0.87573 l -0.2832,0.52917 c -0.2629,0.49123 -0.79375,0.73651 -0.79375,0.36675 z m 3.77031,-1.61649 c -0.47294,-0.0587 -1.24685,-0.0587 -1.71979,0 l -0.8599,0.10672 h 1.71979 1.7198 z m 3.37344,1.63347 c 0,-0.08 0.18165,-0.4967 0.40367,-0.92604 l 0.40367,-0.78061 h -0.80055 -0.80054 v -0.26458 -0.26459 h 2.26457 2.26458 l -0.16353,0.26459 -0.16352,0.26458 h -0.99371 -0.99372 l -0.4416,0.92604 -0.44159,0.92604 h -0.26887 c -0.14787,0 -0.26886,-0.0654 -0.26886,-0.14543 z m 3.70417,-0.11915 v -0.26458 h 1.83646 1.83647 l 0.16352,-0.26459 0.16353,-0.26458 h -1.8738 -1.8738 l 0.4334,-0.66146 0.43341,-0.66146 h 2.08624 2.08623 v 0.26459 0.26458 l -2.05052,0.0518 -2.05052,0.0518 1.78594,0.0926 1.78594,0.0926 v 0.34378 c 0,0.18908 -0.21774,0.54082 -0.48386,0.78166 l -0.48385,0.43788 h -1.8974 -1.89739 z M 66.151488,215.86084 c 0.873635,-2.14643 1.901773,-4.64354 2.284752,-5.54913 l 0.696325,-1.64654 3.108855,-0.007 c 1.709869,-0.004 3.108854,0.0375 3.108854,0.0919 0,0.25159 -0.809686,2.35097 -1.42842,3.70367 -0.376754,0.82367 -1.233622,2.80533 -1.90415,4.40369 l -1.219141,2.90612 h -3.117751 -3.117751 z m 87.545092,-11.24479 0.73115,-1.78594 h -0.33813 c -0.18598,0 -1.04206,0.35176 -1.90241,0.78168 l -1.56427,0.78168 -1.05671,1.08216 -1.0567,1.08216 2.22796,-0.0779 2.22796,-0.0779 z"
       id="path84" /></g></svg>
