<?xml version="1.0" encoding="UTF-8" standalone="no"?>
<!-- Created with Inkscape (http://www.inkscape.org/) -->

<svg
   width="91.545937mm"
   height="36.201485mm"
   viewBox="0 0 91.545937 36.201485"
   version="1.1"
   id="svg1"
   xml:space="preserve"
   xmlns="http://www.w3.org/2000/svg"
   xmlns:svg="http://www.w3.org/2000/svg"><defs
     id="defs1" /><g
     id="layer1"
     transform="translate(-66.11142,-59.673034)"><path
       style="fill:#000000"
       d="m 68.360381,95.523298 -1.058333,-0.37442 -0.595312,-0.68705 -0.595313,-0.68705 0.0058,-1.37431 0.0058,-1.37431 0.508277,-1.11969 0.508278,-1.1197 1.239963,-1.32562 1.239964,-1.32562 1.679728,-1.06084 c 2.645397,-1.67072 5.80275,-2.79872 9.287997,-3.31823 l 1.114371,-0.1661 1.068442,-1.69176 c 1.361428,-2.15567 1.348133,-2.19508 -0.320621,-0.95035 -1.767445,1.31835 -2.743603,1.80736 -4.307473,2.15783 l -1.252644,0.28072 -0.957181,-0.30546 -0.957181,-0.30547 -0.721488,-0.67318 -0.721489,-0.67319 -0.301399,-0.91325 -0.301399,-0.91324 0.135082,-0.96134 c 0.07429,-0.52874 0.398421,-1.65691 0.720279,-2.50705 l 0.585197,-1.5457 1.204413,-1.76159 c 3.08866,-4.5175 6.132476,-7.191625 10.620886,-9.330894 l 1.695081,-0.807911 1.985263,-0.507745 1.985263,-0.507744 h 1.232571 1.232571 l 1.437085,0.422102 c 0.790396,0.232156 1.828014,0.661043 2.305816,0.953082 l 0.868732,0.530979 0.652622,0.960421 0.652621,0.96042 v 1.142346 1.142344 l -0.388001,0.75032 c -0.213402,0.41267 -0.920731,1.21924 -1.571843,1.79237 l -1.18384,1.04206 -1.038541,0.31115 c -1.265251,0.37908 -2.791604,0.39883 -4.001686,0.0518 l -0.904378,-0.25937 -0.741406,-0.71031 -0.741405,-0.71031 -0.297069,-0.90013 c -0.364228,-1.10362 -0.200524,-1.3139 0.591182,-0.75937 l 0.605148,0.42387 0.933316,-9.9e-4 0.933316,-9.9e-4 0.847051,-0.51648 0.847051,-0.51648 0.40972,-0.79231 c 0.516423,-0.99865 0.517732,-1.60497 0.005,-2.336933 l -0.404609,-0.577776 -0.904669,-0.249791 -0.904668,-0.249791 -1.138052,0.241615 c -2.822119,0.599153 -5.595856,2.401192 -8.463606,5.498626 l -1.709734,1.84667 -0.816699,1.53928 c -0.449184,0.84661 -1.016775,2.2324 -1.261313,3.07954 l -0.444614,1.54026 0.306301,0.73947 0.306301,0.73948 0.622602,0.33321 0.622603,0.3332 1.220645,-0.18304 1.220645,-0.18305 1.643612,-1.12478 1.643613,-1.12478 1.059754,-1.32878 c 0.582865,-0.73083 1.178818,-1.50711 1.324338,-1.72507 l 0.264584,-0.39628 2.183775,0.11728 2.183776,0.11728 -1.001273,0.72532 c -1.723431,1.24845 -6.938153,8.00429 -6.938153,8.98861 v 0.28412 l 13.295312,0.005 c 7.312424,0.003 22.403594,0.0751 33.535944,0.16047 l 20.24062,0.15521 1.5774,0.52268 c 0.86758,0.28748 2.08799,0.82191 2.71204,1.18763 l 1.13463,0.66494 -0.14796,0.2394 -0.14796,0.23941 -0.71199,0.006 -0.71199,0.006 -1.48259,0.60989 -1.4826,0.60989 -1.60811,1.23742 -1.60812,1.23741 -1.01033,1.31015 c -1.18334,1.53449 -1.13362,1.52037 -2.40507,0.68285 l -0.98651,-0.64983 -1.57695,-0.4085 -1.57694,-0.4085 H 110.87768 79.55511 l -1.843242,1.97372 c -1.013784,1.08555 -2.436814,2.40945 -3.162291,2.942 l -1.319048,0.96827 -1.598751,0.49759 c -1.877866,0.58445 -1.89996,0.58513 -3.271397,0.0999 z m 4.467168,-2.96651 c 1.230554,-0.7891 3.338041,-2.69549 3.338041,-3.01953 v -0.23089 l -0.727604,0.003 c -0.970756,0.004 -3.168849,0.60233 -4.228855,1.15075 l -0.855417,0.44257 -0.401354,0.77613 c -0.493843,0.95499 -0.49403,0.93652 0.01466,1.44521 l 0.416012,0.41601 0.708467,-0.16223 c 0.389658,-0.0892 1.170881,-0.45875 1.736052,-0.82116 z m 14.926805,-7.17682 0.07939,-1.67745 -0.277826,0.17171 -0.277827,0.1717 v 1.32513 1.32514 l -0.529166,-0.16795 -0.529167,-0.16796 v 0.23832 c 0,0.4093 0.353672,0.61648 0.915154,0.53611 l 0.540054,-0.0773 z m 3.624778,1.28057 0.167951,-0.52917 h 0.368739 c 0.202806,0 0.610244,0.25923 0.905418,0.57606 l 0.536679,0.57606 0.153493,-0.1535 0.153492,-0.15349 -0.590823,-1.41475 c -0.324952,-0.77812 -0.687664,-1.52511 -0.806025,-1.65998 l -0.215203,-0.24522 -0.66759,1.50954 c -0.367174,0.83024 -0.667589,1.6252 -0.667589,1.76657 0,0.46817 0.490552,0.26636 0.661458,-0.27212 z m 0.396875,-1.3073 c 0,-0.13694 0.119063,-0.32256 0.264583,-0.41249 l 0.264584,-0.16353 v 0.41249 0.41249 H 92.04059 c -0.14552,0 -0.264583,-0.11203 -0.264583,-0.24896 z m 5.601112,0.71198 c 0.242955,0.61847 0.545772,1.12448 0.672926,1.12448 0.127155,0 0.425622,-0.50601 0.66326,-1.12448 l 0.432069,-1.12447 0.01948,1.12447 0.01948,1.12448 h 0.264583 0.264583 v -1.6069 -1.6069 l -0.441095,0.0855 -0.441096,0.0855 -0.390417,1.17161 -0.390416,1.17162 -0.431928,-1.16928 -0.431929,-1.16928 -0.456351,-0.0879 -0.456351,-0.0879 v 1.43051 1.43052 l 0.198437,0.20146 0.198438,0.20145 0.132292,-1.14955 0.132291,-1.14954 z m 6.834301,0.8599 v -0.26458 h -0.52916 -0.52917 v -0.39688 -0.39687 h 0.52917 0.52916 v -0.23373 c 0,-0.12855 -0.23812,-0.29599 -0.52916,-0.3721 l -0.52917,-0.13838 v -0.28936 -0.28935 h 0.38126 c 0.20969,0 0.45485,-0.11906 0.54478,-0.26458 l 0.16352,-0.26459 h -0.80936 -0.80937 v 1.5875 1.5875 h 0.79375 0.79375 z m 4.60319,-0.34852 0.29161,-0.48082 -0.72761,-0.58746 c -0.40018,-0.3231 -0.7276,-0.6803 -0.7276,-0.79378 v -0.20633 l 0.52916,0.16795 0.52917,0.16795 v -0.43228 -0.43227 l -0.7276,0.0837 -0.72761,0.0837 -0.0794,0.55618 -0.0794,0.55619 0.70302,0.46063 0.70302,0.46063 -0.28166,0.28166 -0.28165,0.28165 -0.36629,-0.30399 -0.36628,-0.30399 -0.1718,0.1718 -0.1718,0.1718 0.30528,0.36784 0.30528,0.36784 0.5253,-0.0789 0.5253,-0.0789 z m 7.94952,0.0251 c 0.22654,-0.32343 0.41188,-0.68061 0.41188,-0.79375 v -0.20572 h -1.05833 -1.05834 v 0.26459 0.26458 h 0.67708 0.67707 l -0.16352,0.26458 -0.16352,0.26459 h -0.65152 -0.65151 l -0.29781,-0.65363 -0.29782,-0.65362 0.33588,-0.40471 0.33588,-0.40471 h 0.57615 0.57614 l 0.31309,0.31309 0.31309,0.31309 0.17441,-0.1744 0.1744,-0.17441 -0.33468,-0.40327 -0.33468,-0.40327 h -0.87864 -0.87865 l -0.41187,0.58804 c -0.22654,0.32342 -0.41188,0.79967 -0.41188,1.05834 v 0.47029 l 0.52916,0.52917 0.52917,0.52916 h 0.77875 0.77874 z m 3.68256,0.19116 0.1523,-0.39688 h 0.57444 0.57445 l 0.33827,0.46261 0.33826,0.4626 0.14895,-0.14895 0.14895,-0.14895 -0.59034,-1.50375 -0.59033,-1.50376 -0.29401,-5.2e-4 -0.29401,-5.3e-4 -0.56589,1.47876 c -0.31124,0.81331 -0.56589,1.52768 -0.56589,1.5875 0,0.28753 0.49079,0.0612 0.62485,-0.28813 z m 0.43754,-1.12448 c 0.002,-0.10914 0.11947,-0.37703 0.26053,-0.59531 l 0.25648,-0.39688 0.004,0.59531 0.004,0.59532 h -0.26458 c -0.14552,0 -0.26276,-0.0893 -0.26053,-0.19844 z m 6.29716,0.66369 0.0835,-0.72536 -0.67881,-0.30929 c -0.37335,-0.17011 -0.67882,-0.42215 -0.67882,-0.56009 v -0.2508 l 0.68735,0.17252 0.68736,0.17251 -0.11409,-0.34227 -0.11409,-0.34226 h -0.7717 -0.7717 l -0.0842,0.59275 -0.0842,0.59275 0.67953,0.30961 0.67952,0.30962 v 0.38308 0.38309 l -0.66146,-0.16601 -0.66146,-0.16602 v 0.22553 c 0,0.41686 0.37249,0.60313 1.04844,0.5243 l 0.67136,-0.0783 z m 4.04597,0.39464 0.26245,0.46302 h 0.40174 0.40174 l -0.58077,-0.81562 -0.58077,-0.81561 0.57068,-0.77189 0.57067,-0.77188 h -0.37252 -0.37253 l -0.41526,0.59532 -0.41527,0.59531 -0.0139,-0.61736 -0.0139,-0.61736 -0.32128,0.10709 -0.32128,0.10709 0.0284,0.97329 c 0.0156,0.53531 0.0449,1.24118 0.0651,1.5686 l 0.0368,0.59532 0.40375,-0.52917 0.40374,-0.52917 z m 5.26323,0.19844 v -0.26458 h -0.52916 -0.52917 v -0.39688 -0.39687 h 0.52917 0.52916 v -0.26462 -0.26458 h -0.52916 -0.52917 v -0.39687 -0.39688 h 0.52917 0.52916 v -0.26458 -0.26459 h -0.79375 -0.79375 v 1.5875 1.5875 h 0.79375 0.79375 z m 3.70417,-1.05833 v -1.32292 h 0.26458 c 0.14553,0 0.26459,-0.11906 0.26459,-0.26458 v -0.26459 h -0.84667 -0.84667 l 0.3175,0.3175 0.3175,0.3175 v 1.27 1.27 h 0.26459 0.26458 z m 5.24173,0.61203 0.0824,-0.57859 -0.67767,-0.44403 c -0.37272,-0.24421 -0.67767,-0.55742 -0.67767,-0.69601 v -0.25198 l 0.56047,0.17789 0.56047,0.17788 -0.1195,-0.35849 -0.11949,-0.35849 h -0.63941 -0.63941 l -0.0824,0.57859 -0.0824,0.57859 0.67767,0.44402 c 0.37272,0.24422 0.67767,0.56231 0.67767,0.70687 v 0.26283 l -0.66146,-0.16601 -0.66146,-0.16602 v 0.22553 c 0,0.41686 0.37249,0.60313 1.04844,0.5243 l 0.67136,-0.0783 z m -29.8068,-6.83749 -0.57035,-0.72507 v -0.53961 -0.5396 l -0.59531,0.5475 c -0.32742,0.30113 -1.01203,0.79769 -1.52135,1.10347 l -0.92604,0.55596 -0.70871,9.8e-4 -0.70871,9.9e-4 -0.44478,-0.44478 -0.44478,-0.44478 0.12243,-1.08627 0.12244,-1.08627 2.07638,-3.11764 2.07637,-3.11763 -0.28667,-0.44455 -0.28666,-0.44454 -0.49408,0.0878 c -0.27174,0.0483 -0.87607,0.4538 -1.34297,0.90114 l -0.84889,0.81333 -2.69522,4.0598 -2.6952,4.0598 h -1.41684 c -1.75891,0 -1.92183,0.50635 1.49359,-4.64206 2.52314,-3.80338 3.25405,-5.14752 2.79909,-5.14752 -0.0612,0 -1.81741,1.70403 -3.90261,3.78674 l -3.79127,3.78674 -1.529928,1.02564 -1.529928,1.02564 -1.560486,0.11288 -1.560487,0.11287 -0.679899,-0.6799 -0.679898,-0.67989 2.09e-4,-1.00422 2.08e-4,-1.00421 0.786051,-1.66157 0.786051,-1.66156 1.360664,-1.4387 1.360664,-1.4387 1.344609,-0.67005 1.34461,-0.67005 h 0.94751 0.94751 l 0.58804,0.41188 0.58804,0.41188 v 0.79188 0.79189 l -0.38994,0.75406 c -0.21446,0.41473 -0.88962,1.18177 -1.50036,1.70453 l -1.11042,0.95048 -1.419982,0.53129 c -0.780989,0.2922 -1.710903,0.53128 -2.066473,0.53128 h -0.646493 l -0.166015,0.66146 -0.166016,0.66146 0.166016,0.66145 0.166015,0.66146 h 0.675449 0.675449 l 1.23774,-0.70629 1.237739,-0.70629 3.968751,-4.02098 3.96875,-4.02099 0.64607,-0.20146 0.64607,-0.20145 0.58458,0.73312 0.58457,0.73313 0.88602,-0.54468 c 0.48732,-0.29957 1.31326,-0.62384 1.83544,-0.72061 l 0.94942,-0.17592 0.94751,0.39589 0.94752,0.3959 0.30838,0.57621 0.30838,0.57621 -0.14623,0.58263 c -0.0804,0.32044 -1.04305,1.96748 -2.13917,3.66008 -1.09611,1.6926 -1.99293,3.20527 -1.99293,3.36148 v 0.28402 h 0.36231 c 0.19927,0 0.9559,-0.47262 1.68139,-1.05026 l 1.31908,-1.05027 1.06376,-1.39713 c 0.58507,-0.76842 1.75131,-2.43893 2.59166,-3.71223 l 1.5279,-2.31511 h 1.2832 1.2832 v 0.26748 c 0,0.14712 -1.19063,2.09295 -2.64584,4.32406 l -2.64583,4.05658 v 0.43844 0.43844 l 0.33073,-9.9e-4 c 1.24597,-0.004 2.94702,-1.77033 5.79496,-6.01828 l 2.35033,-3.50573 h 1.17033 1.17034 l 0.11262,0.19844 c 0.0619,0.10914 -1.11946,2.04391 -2.62535,4.29948 l -2.73798,4.10104 -0.005,0.46302 -0.005,0.46302 h 0.34475 c 0.18962,0 0.82306,-0.35175 1.40766,-0.78167 l 1.06291,-0.78167 2.49495,-3.84824 2.49494,-3.84825 1.53697,-2.9e-4 1.53697,-2.9e-4 -0.20001,0.33073 c -0.11,0.1819 -1.24812,1.91735 -2.52916,3.85656 -1.28104,1.93921 -2.40378,3.82316 -2.49499,4.18656 l -0.16583,0.66072 0.29741,0.29741 0.29741,0.29741 0.72832,-0.53562 0.72833,-0.53563 2.68424,-3.67356 c 1.47634,-2.02046 3.00102,-3.94604 3.38819,-4.27907 l 0.70395,-0.60551 h 0.89628 0.89629 l 0.37949,0.5418 0.37949,0.5418 1.08675,-0.56645 1.08675,-0.56644 1.05731,-0.14182 1.05731,-0.14181 0.80211,0.33224 0.80211,0.33225 0.16005,0.6377 0.16005,0.63769 -0.14757,0.73788 -0.14757,0.73787 -1.7339,2.62583 -1.7339,2.62583 -0.002,0.46302 -0.002,0.46302 h 0.2739 c 0.70329,0 3.16569,-1.97639 3.16569,-2.54087 0,-0.17887 0.5994,-1.22139 1.33199,-2.31671 l 1.332,-1.9915 0.98311,-0.77254 c 0.54071,-0.4249 1.36415,-0.96745 1.82986,-1.20567 l 0.84676,-0.43312 h 1.29505 1.29505 l 0.47954,0.52989 0.47955,0.52989 -0.29877,0.99146 -0.29877,0.99146 -0.77697,0.9394 c -1.04138,1.25906 -2.6731,2.35813 -4.33754,2.9216 l -1.36901,0.46345 -0.23032,0.69095 -0.23031,0.69094 0.32199,0.38798 c 0.61077,0.73592 2.0657,0.22942 3.93353,-1.36937 l 1.08618,-0.92972 v 0.54289 0.54289 l -1.89808,1.33297 -1.89808,1.33297 -0.99864,0.2992 -0.99863,0.2992 -0.84,-0.34794 -0.84,-0.34794 -0.36442,-0.87217 -0.36441,-0.87217 -1.49899,1.05004 -1.49898,1.05004 h -0.86298 -0.86297 l -0.56905,-0.72343 -0.56905,-0.72342 0.14366,-0.71831 0.14366,-0.71831 2.12937,-3.24177 2.12938,-3.24178 -0.40721,-0.4072 -0.4072,-0.4072 -0.72067,0.39576 -0.72067,0.39576 -3.10261,4.69495 -3.10261,4.69495 h -1.48976 -1.48976 l 0.13117,-0.34183 c 0.0721,-0.18801 1.39457,-2.2761 2.93873,-4.6402 2.84767,-4.3598 3.07719,-4.80755 2.46437,-4.80755 h -0.34318 l -0.94721,0.99219 c -0.52097,0.5457 -1.7561,2.12328 -2.74474,3.50573 -0.98865,1.38244 -2.13859,2.94046 -2.55543,3.46226 l -0.75789,0.94873 -1.07016,0.60146 -1.07017,0.60147 -0.82135,-0.16427 c -0.92395,-0.18479 -1.78211,-0.85395 -1.78211,-1.38962 0,-0.49446 -0.17519,-0.45075 -1.14213,0.28499 -0.46324,0.35247 -1.16967,0.72257 -1.56985,0.82243 l -0.72761,0.18158 -0.61609,-0.15463 -0.6161,-0.15463 -0.31331,-0.68763 -0.3133,-0.68763 0.17248,-0.27908 0.17248,-0.27908 -0.23526,0.10047 c -0.1294,0.0553 -0.9012,0.55141 -1.71511,1.10255 l -1.47985,1.00209 -0.92637,0.15033 -0.92638,0.15033 z m 35.9565,-5.10719 c 0.64695,-0.41212 1.62276,-1.2459 2.16847,-1.85285 l 0.99219,-1.10353 v -0.66069 -0.6607 h -0.27773 c -1.21332,0 -4.74936,3.63453 -4.74936,4.88165 0,0.34297 0.77233,0.0931 1.86643,-0.60388 z m -52.798724,-0.27348 1.058333,-0.482 0.965071,-1.07044 c 0.5308,-0.58874 1.04864,-1.33371 1.15077,-1.65549 l 0.18568,-0.58504 -0.30084,-0.30085 -0.30085,-0.30085 -0.97282,0.52592 -0.97283,0.52592 -1.393232,1.71979 c -1.864501,2.30152 -1.730619,2.67571 0.580718,1.62304 z m 34.845624,-6.43846 -0.3175,-0.3175 v -0.58056 -0.58056 l 0.76762,-0.82173 0.76761,-0.82173 h 0.6552 0.6552 l 0.32918,0.39664 0.32917,0.39663 -0.33172,0.80086 -0.33172,0.80085 -0.73351,0.5223 c -0.84205,0.5996 -1.33798,0.65635 -1.78953,0.2048 z"
       id="path71" /></g></svg>
