<?xml version="1.0" encoding="UTF-8" standalone="no"?>
<!-- Created with Inkscape (http://www.inkscape.org/) -->

<svg
   width="107.30958mm"
   height="67.503181mm"
   viewBox="0 0 107.30958 67.503181"
   version="1.1"
   id="svg1"
   xml:space="preserve"
   xmlns="http://www.w3.org/2000/svg"
   xmlns:svg="http://www.w3.org/2000/svg"><defs
     id="defs1" /><g
     id="layer1"
     transform="translate(-244.23235,-181.56673)"><g
       id="g128"
       transform="matrix(0.57971045,0,0,0.57971045,234.76076,114.28965)"><path
         d="m 101.58295,232.41915 -1.19063,-0.0758 -3.836452,-0.28092 -3.836462,-0.28092 -4.630208,-0.67 -4.630209,-0.66999 -4.101041,-0.90147 -4.101042,-0.90147 -2.38125,-0.63895 -2.38125,-0.63895 -2.513541,-0.78198 -2.513542,-0.78199 -2.645833,-0.99304 -2.645833,-0.99304 -2.513542,-1.0617 -2.513542,-1.0617 -3.336207,-1.67042 -3.336207,-1.67042 -2.749209,-1.6462 -2.74921,-1.64621 -1.895499,-1.2737 -1.8955,-1.2737 -2.734709,-2.17787 -2.734708,-2.17787 -2.806788,-2.79034 -2.806788,-2.79034 -1.585815,-1.98437 -1.585816,-1.98438 -1.384006,-2.06293 -1.384005,-2.06294 -1.443927,-2.82896 -1.443927,-2.82895 -0.898984,-2.91332 -0.898984,-2.91332 -0.291856,-1.71979 -0.291856,-1.71979 -0.278037,-1.32292 -0.278037,-1.32291 0.125784,-3.43959 0.125783,-3.43958 0.407154,-2.18761 0.407154,-2.1876 0.578819,-1.91344 0.578818,-1.91343 0.945945,-2.37152 0.945945,-2.37153 1.17127,-2.12639 1.17127,-2.1264 1.210361,-1.71979 1.210361,-1.71979 1.506942,-1.85208 1.506942,-1.85209 3.007722,-2.92645 3.007723,-2.92645 2.727516,-2.16832 2.727517,-2.16832 2.56415,-1.68888 2.56415,-1.68887 2.38125,-1.36275 2.38125,-1.36275 3.042708,-1.47876 3.042708,-1.47876 3.439583,-1.39542 3.439584,-1.39542 3.704166,-1.23419 3.704167,-1.23419 2.898315,-0.78946 2.898315,-0.78945 3.583976,-0.76023 3.583977,-0.76023 4.497916,-0.67625 4.497917,-0.67625 3.042712,-0.33223 3.0427,-0.33223 10.980212,-0.003 10.98021,-0.003 3.30729,0.34839 3.30729,0.3484 4.23334,0.64994 4.23333,0.64994 3.175,0.67551 3.175,0.67551 2.51354,0.66114 2.51354,0.66114 3.83646,1.20022 3.83646,1.20021 4.23052,1.71341 4.23051,1.71341 3.57469,1.78831 3.5747,1.78832 2.91041,1.73123 2.91042,1.73123 2.51354,1.79399 2.51354,1.79399 1.5875,1.29832 1.5875,1.29833 3.13138,3.0882 3.13138,3.0882 1.82708,2.28261 1.82708,2.28261 1.42836,2.27512 1.42837,2.27512 1.18841,2.45373 1.1884,2.45372 0.83479,2.64584 0.8348,2.64583 0.44565,2.38125 0.44565,2.38125 v 4.10104 4.10104 l -0.4669,2.51355 -0.4669,2.51354 -0.66452,2.17889 -0.66453,2.17889 -0.79293,1.78986 -0.79292,1.78986 -0.69597,1.32291 -0.69597,1.32292 -1.17766,1.85208 -1.17766,1.85209 -1.74414,2.24896 -1.74413,2.24895 -2.38752,2.48463 -2.38751,2.48463 -2.85288,2.33709 -2.85288,2.33709 -2.43879,1.68959 -2.43879,1.6896 -2.75042,1.64212 -2.75043,1.64211 -3.63149,1.81922 -3.6315,1.81921 -3.53995,1.43793 -3.53996,1.43793 -3.175,1.06812 -3.175,1.06812 -3.96875,1.05647 -3.96875,1.05648 -3.30729,0.68047 -3.30729,0.68048 -4.63021,0.6517 -4.63021,0.6517 -3.57187,0.30891 -3.57188,0.3089 -7.54062,0.0507 -7.54063,0.0507 z"
         id="path87"
         style="fill:#fec600;fill-opacity:1" /><path
         style="fill:#000000"
         d="m 101.58295,232.41915 -1.19063,-0.0758 -3.836452,-0.28092 -3.836462,-0.28092 -4.630208,-0.67 -4.630209,-0.66999 -4.101041,-0.90147 -4.101042,-0.90147 -2.38125,-0.63895 -2.38125,-0.63895 -2.513541,-0.78198 -2.513542,-0.78199 -2.645833,-0.99304 -2.645833,-0.99304 -2.513542,-1.0617 -2.513542,-1.0617 -3.336207,-1.67042 -3.336207,-1.67042 -2.749209,-1.6462 -2.74921,-1.64621 -1.895499,-1.2737 -1.8955,-1.2737 -2.734709,-2.17787 -2.734708,-2.17787 -2.806788,-2.79034 -2.806788,-2.79034 -1.585815,-1.98437 -1.585816,-1.98438 -1.384006,-2.06293 -1.384005,-2.06294 -1.443927,-2.82896 -1.443927,-2.82895 -0.898984,-2.91332 -0.898984,-2.91332 -0.291856,-1.71979 -0.291856,-1.71979 -0.278037,-1.32292 -0.278037,-1.32291 0.125784,-3.43959 0.125783,-3.43958 0.407154,-2.18761 0.407154,-2.1876 0.578819,-1.91344 0.578818,-1.91343 0.945945,-2.37152 0.945945,-2.37153 1.17127,-2.12639 1.17127,-2.1264 1.210361,-1.71979 1.210361,-1.71979 1.506942,-1.85208 1.506942,-1.85209 3.007722,-2.92645 3.007723,-2.92645 2.727516,-2.16832 2.727517,-2.16832 2.56415,-1.68888 2.56415,-1.68887 2.38125,-1.36275 2.38125,-1.36275 3.042708,-1.47876 3.042708,-1.47876 3.439583,-1.39542 3.439584,-1.39542 3.704166,-1.23419 3.704167,-1.23419 2.898315,-0.78946 2.898315,-0.78945 3.583976,-0.76023 3.583977,-0.76023 4.497916,-0.67625 4.497917,-0.67625 3.042712,-0.33223 3.0427,-0.33223 10.980212,-0.003 10.98021,-0.003 3.30729,0.34839 3.30729,0.3484 4.23334,0.64994 4.23333,0.64994 3.175,0.67551 3.175,0.67551 2.51354,0.66114 2.51354,0.66114 3.83646,1.20022 3.83646,1.20021 4.23052,1.71341 4.23051,1.71341 3.57469,1.78831 3.5747,1.78832 2.91041,1.73123 2.91042,1.73123 2.51354,1.79399 2.51354,1.79399 1.5875,1.29832 1.5875,1.29833 3.13138,3.0882 3.13138,3.0882 1.82708,2.28261 1.82708,2.28261 1.42836,2.27512 1.42837,2.27512 1.18841,2.45373 1.1884,2.45372 0.83479,2.64584 0.8348,2.64583 0.44565,2.38125 0.44565,2.38125 v 4.10104 4.10104 l -0.4669,2.51355 -0.4669,2.51354 -0.66452,2.17889 -0.66453,2.17889 -0.79293,1.78986 -0.79292,1.78986 -0.69597,1.32291 -0.69597,1.32292 -1.17766,1.85208 -1.17766,1.85209 -1.74414,2.24896 -1.74413,2.24895 -2.38752,2.48463 -2.38751,2.48463 -2.85288,2.33709 -2.85288,2.33709 -2.43879,1.68959 -2.43879,1.6896 -2.75042,1.64212 -2.75043,1.64211 -3.63149,1.81922 -3.6315,1.81921 -3.53995,1.43793 -3.53996,1.43793 -3.175,1.06812 -3.175,1.06812 -3.96875,1.05647 -3.96875,1.05648 -3.30729,0.68047 -3.30729,0.68048 -4.63021,0.6517 -4.63021,0.6517 -3.57187,0.30891 -3.57188,0.3089 -7.54062,0.0507 -7.54063,0.0507 z m 15.74271,-9.64682 3.175,-0.26114 3.30729,-0.37487 3.30729,-0.37487 3.57188,-0.64135 3.57187,-0.64135 2.77813,-0.70693 2.77812,-0.70693 2.24896,-0.64209 2.24896,-0.64209 0.52916,-0.23578 0.52917,-0.23577 1.71979,-0.59236 1.71979,-0.59235 2.77813,-1.17882 2.77812,-1.17882 3.24717,-1.68913 3.24716,-1.68914 2.70596,-1.76463 2.70596,-1.76462 2.64206,-2.01228 2.64205,-2.01228 2.78191,-2.78205 2.7819,-2.78206 1.5875,-2.16122 1.5875,-2.16122 1.04195,-1.67131 1.04196,-1.6713 1.29367,-2.97596 1.29368,-2.97595 0.50516,-2.44801 0.50517,-2.448 -0.001,-3.43958 -0.001,-3.43959 -0.36304,-2.38125 -0.36304,-2.38125 -0.7146,-2.38125 -0.7146,-2.38125 -1.30143,-2.64583 -1.30144,-2.64583 -2.285,-2.91042 -2.28499,-2.91042 -2.54108,-2.51797 -2.54108,-2.51798 -1.85208,-1.47443 -1.85209,-1.47442 -2.11666,-1.44889 -2.11667,-1.44889 -2.24896,-1.31905 -2.24896,-1.31906 -2.38125,-1.22082 -2.38125,-1.22082 -2.84748,-1.21551 -2.84748,-1.21551 -1.12127,-0.40877 -1.12127,-0.40876 -3.175,-1.02002 -3.175,-1.02001 -2.11666,-0.54834 -2.11667,-0.54835 -2.41523,-0.522 -2.41523,-0.522 -4.59623,-0.66782 -4.59623,-0.66782 -3.41186,-0.27023 -3.41186,-0.27023 -5.0548,9.3e-4 -5.05481,9.4e-4 -4.23333,0.26738 -4.233342,0.26738 -4.497912,0.65631 -4.497917,0.65631 -2.513541,0.55621 -2.513542,0.55622 -2.910417,0.78285 -2.910416,0.78285 -3.141667,1.05658 -3.141667,1.05658 -2.704675,1.15523 -2.704674,1.15524 -3.281783,1.64443 -3.281784,1.64444 -3.042708,1.92728 -3.042708,1.92728 -1.852083,1.36275 -1.852084,1.36274 -2.248958,2.02999 -2.248958,2.03 -2.089798,2.29096 -2.089798,2.29096 -1.428087,2.07793 -1.428087,2.07793 -1.293282,2.64584 -1.293282,2.64583 -0.821619,2.77813 -0.821618,2.77812 -0.285137,2.77813 -0.285137,2.77812 0.152369,2.38125 0.152369,2.38125 0.39358,1.85208 0.393579,1.85209 0.691549,2.11666 0.69155,2.11667 1.3307,2.64583 1.330699,2.64584 1.874229,2.51354 1.874228,2.51354 2.798413,2.81637 2.798413,2.81637 2.172673,1.73405 2.172672,1.73405 2.325244,1.55691 2.325244,1.55692 1.852083,1.07191 1.852084,1.07191 3.439583,1.72788 3.439583,1.72788 3.175,1.22505 3.175,1.22504 0.661458,0.24095 0.661459,0.24095 2.778125,0.78814 2.778124,0.78813 2.248959,0.56006 2.248958,0.56005 3.704167,0.66167 3.704166,0.66167 3.289979,0.38906 3.28999,0.38905 3.456892,0.22513 3.45689,0.22513 4.63021,0.0126 4.63021,0.0126 z m 2.3958,-1.3 -0.13999,-0.38135 -0.23667,-2.63538 -0.23667,-2.63539 -0.29592,-0.0986 -0.29593,-0.0986 0.004,-0.30868 0.004,-0.30868 0.91217,-1.05834 0.91217,-1.05833 0.01,0.44364 0.01,0.44364 0.76359,0.38093 0.76359,0.38093 1.52937,-0.23983 1.52937,-0.23982 0.21653,0.34129 0.21654,0.3413 0.004,0.8599 0.004,0.8599 h -0.23219 -0.23218 l -0.32938,-0.39688 -0.32938,-0.39687 h -0.23194 -0.23219 l 0.002,0.99218 0.002,0.99219 0.36985,0.7089 0.36985,0.7089 -0.15099,0.151 -0.151,0.15099 h -1.14653 -1.14653 v -0.21166 -0.21167 l 0.26222,-0.26221 0.26221,-0.26221 -0.32351,-1.54233 -0.3235,-1.54232 -0.35337,-0.1356 -0.35336,-0.1356 -0.21347,0.23357 -0.21346,0.23357 0.21977,1.96167 0.21977,1.96167 0.34221,0.21363 0.3422,0.21364 -0.98106,0.98417 -0.98107,0.98416 z m -28.716131,-1.35195 0.0057,-0.6169 0.348134,-2.3151 0.348133,-2.3151 h -0.221542 -0.221557 v -0.4058 -0.40579 l 0.802873,-0.78483 0.802872,-0.78483 h 0.652336 0.65234 v 1.21539 1.2154 l -0.50086,0.13097 -0.500855,0.13098 -0.18543,1.73152 -0.18543,1.73153 0.353344,0.21837 0.353341,0.21838 -0.262367,0.23326 -0.262372,0.23326 -0.992187,0.59309 -0.992188,0.59309 z m 15.770071,0.0981 -0.13045,-0.21107 0.24307,-0.38424 0.24308,-0.38424 0.004,-2.1672 0.004,-2.1672 -0.26459,-0.16352 -0.26458,-0.16352 v -0.24897 -0.24896 h 1.05833 1.05834 v 2.63021 2.63022 l 0.25302,0.15638 0.25303,0.15638 -0.14904,0.3884 -0.14905,0.38841 h -1.01441 -1.01441 z m 3.42793,-2.01246 -1.21205,-2.22354 v -0.30522 -0.30521 l 1.12448,0.0813 1.12448,0.0814 -0.0845,0.72318 -0.0845,0.72317 0.18372,0.29726 0.18372,0.29726 0.22746,-0.35897 0.22746,-0.35898 0.004,-0.7276 0.004,-0.72761 h 1.05833 1.05833 v 0.0886 0.0886 l -0.88874,1.82967 -0.88873,1.82967 -0.18743,0.59531 -0.18742,0.59532 h -0.22533 -0.22533 z m -12.676582,-1.51328 -1.69616,-3.53923 0.11367,-0.19843 0.11367,-0.19844 h 1.3156 1.31561 l 0.14436,0.3762 0.14436,0.3762 -0.25019,0.48369 -0.25019,0.4837 0.45252,1.05833 0.45252,1.05834 0.46673,-0.90085 0.466732,-0.90085 -0.14363,-0.88509 -0.14363,-0.88509 h 1.57086 1.57087 v 0.12232 0.12233 l -1.88603,3.3834 -1.886032,3.38341 -0.0877,0.0996 -0.0877,0.0996 z m 4.738232,2.9658 -0.4781,-0.52829 0.15188,-0.8717 0.15188,-0.8717 0.20917,-1.19063 0.20918,-1.19062 0.19844,0.0661 0.19844,0.0661 h 0.87547 0.87547 l 0.50528,0.36947 0.50528,0.36947 0.16181,1.68105 0.16181,1.68105 0.11108,0.39688 0.11109,0.39687 -1.73504,0.0771 -1.73504,0.0771 z m 1.9638,-1.34565 v -0.5292 h -0.52916 -0.52917 v 0.52917 0.52917 h 0.52917 0.52916 z m 10.91383,1.44534 -0.818,-0.34394 -0.28541,-0.53331 -0.28542,-0.5333 v -0.96379 -0.96379 l 0.72761,-0.7247 0.7276,-0.7247 -0.0837,-0.71015 -0.0837,-0.71016 h 0.67903 0.67903 v 0.1416 0.1416 l -0.38332,0.586 -0.38333,0.58601 0.8145,0.0582 0.81449,0.0582 0.60417,0.39587 0.60418,0.39587 0.18841,0.85782 0.18841,0.85782 -0.27078,0.0903 -0.27078,0.0903 0.14575,1.08668 0.14576,1.08668 -0.58105,-0.15195 -0.58105,-0.15194 -0.73718,0.21141 -0.73717,0.21142 z m 2.31534,-1.70995 v -0.26459 l -0.33073,0.0186 -0.33073,0.0186 -0.52917,0.2274 -0.52916,0.22739 0.85989,0.0186 0.8599,0.0186 z m -0.52917,-1.63511 v -0.25213 l -0.7072,0.0837 -0.7072,0.0837 -0.0937,0.28595 -0.0937,0.28595 0.80088,-0.11754 0.80087,-0.11754 z m 9.01685,1.8634 -0.5844,-0.62517 0.16957,-0.66146 0.16957,-0.66146 -0.0335,-1.25677 -0.0335,-1.25677 h 1.16829 1.1683 l 0.66635,0.52415 0.66634,0.52415 0.18785,1.26179 0.18785,1.26179 0.28152,0.34194 0.28153,0.34194 -0.24014,0.23524 -0.24015,0.23523 -1.61551,0.18029 -1.61552,0.18029 z m 2.04587,-1.35581 0.0886,-0.45998 h -0.54856 -0.54857 v 0.54856 0.54857 l 0.45998,-0.0886 0.45998,-0.0886 z m -0.55104,-1.67817 -0.15985,-0.15985 -0.34727,0.13896 -0.34727,0.13897 0.50712,0.0209 0.50712,0.0209 z m 8.70947,1.54891 -0.46572,-2.05052 -0.13513,-0.46302 -0.13512,-0.46302 h -0.40849 -0.4085 l 0.18131,0.99219 0.18132,0.99219 0.3773,0.586 0.3773,0.586 v 0.1204 0.12039 l -1.83817,0.41808 -1.83817,0.41809 h -0.70405 -0.70406 l 0.14315,-0.59532 0.14314,-0.59531 -0.32513,-1.25577 -0.32513,-1.25577 -0.30929,-0.3093 -0.30929,-0.30929 0.45381,-0.33427 0.45381,-0.33426 -0.46302,-0.1795 -0.46302,-0.1795 v -0.33549 -0.3355 l 0.83601,-0.1672 0.83601,-0.1672 0.14682,0.14682 0.14682,0.14682 -0.27291,0.43265 -0.2729,0.43265 0.4414,0.4414 0.4414,0.4414 0.1886,1.42175 0.18861,1.42175 0.27997,0.33734 0.27997,0.33735 h 0.20388 0.20387 l 0.14303,-0.37272 0.14302,-0.37272 -0.35929,-1.362 -0.35928,-1.362 -0.3144,-0.37882 -0.31439,-0.37882 0.36053,-0.0981 0.36052,-0.0981 0.94483,-0.30194 0.94483,-0.30195 h 0.66781 0.66781 l 0.39913,0.46302 0.39912,0.46302 0.3395,1.65365 0.33949,1.65365 h 0.36072 0.36072 v 0.20316 0.20316 l -0.67099,0.98746 -0.671,0.98747 h -0.20119 -0.2012 z m -48.986774,1.20179 -0.529167,-0.30348 -0.322314,-0.41608 -0.322315,-0.41608 -0.0084,-0.95651 -0.0084,-0.9565 0.532391,-0.67683 0.532391,-0.67682 0.789609,-0.17343 0.78961,-0.17343 0.928989,0.3066 0.928989,0.30659 0.262552,0.49058 0.262552,0.49059 v 1.08836 1.08836 l -0.700093,0.64882 -0.700094,0.64883 -0.953552,-0.008 -0.953552,-0.008 z m 2.41517,-1.70576 0.176294,-0.70241 -0.26442,-0.42207 -0.26442,-0.42207 -0.582854,-0.0864 -0.582855,-0.0865 -0.382312,0.31729 -0.382311,0.31729 v 0.57615 0.57614 l 0.3175,0.3175 0.3175,0.3175 h 0.735792 0.735792 z m -8.236003,0.57238 -0.264584,-0.0883 -0.727604,-0.16048 -0.727604,-0.16048 v -0.36978 -0.36979 l 0.271709,-0.0906 0.271709,-0.0906 0.379391,-1.4382 0.379391,-1.4382 -0.267073,-0.32181 -0.267072,-0.3218 0.275035,-0.16998 0.275035,-0.16998 1.490849,0.34486 1.490849,0.34486 0.106308,0.27589 0.106307,0.27588 -0.23137,1.04703 -0.23137,1.04704 -0.347527,-0.72761 -0.347527,-0.7276 h -0.331149 -0.331149 l -0.214466,1.12448 -0.214466,1.12448 0.06893,0.59531 0.06893,0.59531 -0.208452,-0.0209 -0.208452,-0.0209 z m -3.175,-0.9283 -0.163522,-0.26458 h -0.798487 -0.798488 l -0.773397,-0.7734 -0.773398,-0.7734 v -0.69495 -0.69495 l 0.401688,-0.77678 0.401687,-0.77678 0.649711,-0.16306 0.649712,-0.16307 0.171648,-0.91496 0.171649,-0.91497 0.386092,0.14816 0.386092,0.14816 h 0.375236 0.375235 v 0.2033 0.2033 l -0.700195,0.42485 -0.700196,0.42486 0.96681,0.31907 0.96681,0.31908 0.262552,0.49058 0.262552,0.49058 v 0.94344 0.94344 h -0.264583 -0.264583 v 0.54656 0.54656 l -0.273893,0.51177 -0.273892,0.51177 h -0.239659 -0.23966 z m 0.616799,-1.81888 0.352215,-0.22328 -1.115142,-0.17832 -1.115142,-0.17832 -0.155452,0.15545 -0.155453,0.15545 0.389212,0.24615 0.389213,0.24615 h 0.529166 0.529167 z m -0.284397,-1.68685 -0.108571,-0.33073 -0.83952,-0.0829 -0.839519,-0.0829 v 0.26195 0.26194 l 0.46302,0.121 0.463021,0.121 0.48507,0.0307 0.485069,0.0307 z m 63.116945,2.4282 -0.84441,-0.25249 -0.54466,-0.7649 -0.54465,-0.76489 v -1.32792 -1.32792 l 0.67741,-0.80505 0.6774,-0.80506 0.91302,-0.17128 0.91301,-0.17128 0.14499,-0.23459 0.14498,-0.23459 h 0.23966 0.23966 l 0.23729,0.46302 0.23729,0.46302 0.17982,0.75103 0.17981,0.75102 -0.81542,-0.1791 -0.81543,-0.17909 -0.6507,0.42636 -0.65071,0.42635 v 0.73474 0.73473 l 0.3175,0.3175 0.3175,0.3175 h 0.76879 0.76878 l 0.69965,-0.59627 0.69966,-0.59627 0.0241,-1.14024 0.0241,-1.14025 0.55654,-0.55654 0.55654,-0.55654 h 1.25274 1.25273 l 0.74634,0.894 0.74634,0.894 v -0.22962 -0.22961 l -0.70423,-0.92329 -0.70422,-0.92329 0.49021,-0.35846 0.49021,-0.35845 0.41246,-0.008 0.41245,-0.008 0.51359,-0.38846 0.51359,-0.38846 h 0.41979 0.4198 l 0.45309,-0.52917 0.45308,-0.52916 h 0.75534 0.75533 l 0.40534,0.46302 0.40535,0.46302 0.36137,1.02288 0.36137,1.02288 0.58398,0.63012 0.58397,0.63012 -0.37963,0.90859 -0.37964,0.9086 -0.22288,0.13775 -0.22288,0.13775 -1.11248,-2.36862 -1.11248,-2.36861 h -0.40627 -0.40627 l 0.17694,0.59531 0.17695,0.59531 0.75879,0.96655 0.75879,0.96654 -0.32259,0.24242 -0.32259,0.24241 -1.62059,0.70927 -1.62058,0.70927 h -0.44777 -0.44776 l 0.14408,-0.46302 0.14408,-0.46302 -0.23611,-0.37619 -0.2361,-0.37618 -0.29741,1.10449 -0.29741,1.1045 -0.64501,0.42263 -0.64501,0.42262 h -0.90103 -0.90103 l -0.64677,-0.42378 -0.64677,-0.42378 0.11311,0.77068 0.11311,0.77069 -0.62189,0.40081 -0.62189,0.40082 -0.92604,0.13622 -0.92605,0.13623 z m 6.74461,-3.20872 0.3175,-0.3175 v -0.59923 -0.59924 l -0.53916,-0.28855 -0.53916,-0.28855 -0.51856,0.16459 -0.51855,0.16458 -0.16246,0.64726 -0.16245,0.64726 0.32653,0.39344 0.32652,0.39344 h 0.57615 0.57614 z m 4.42931,-1.73302 -0.17889,-0.72761 -0.38506,-0.59531 -0.38506,-0.59531 h -0.26352 -0.26353 l 0.17919,0.7276 0.17919,0.72761 0.38545,0.59531 0.38545,0.59531 h 0.26283 0.26284 z m -81.568579,3.89436 -0.595313,-0.23929 v -0.24071 -0.24071 l 0.363897,-0.30201 0.363897,-0.30201 0.355024,-1.25174 0.355024,-1.25175 -0.07409,-0.46302 -0.07409,-0.46302 h 0.241733 0.241732 l 0.767086,0.24271 0.767087,0.24271 0.727604,0.15921 0.727604,0.1592 v 0.54152 0.54152 l -0.273892,0.51178 -0.273893,0.51177 H 74.617006 74.39259 l -0.13838,-0.52917 -0.13838,-0.52916 h -0.295911 -0.295902 l -0.280828,0.7276 -0.280829,0.7276 -0.0037,0.8599 -0.0037,0.8599 -0.568854,-0.0168 -0.568854,-0.0168 z m -2.71198,-1.22672 -0.926041,-0.4054 -0.661459,-0.31762 -0.661458,-0.31762 0.063,-1.04501 0.063,-1.04501 0.092,-0.65234 0.092,-0.65234 1.035618,-0.45854 1.035618,-0.45854 0.08676,0.24669 0.08676,0.24669 -0.535075,1.43011 -0.535075,1.43012 0.16168,0.16168 0.16168,0.16168 h 0.188387 0.188387 l 0.313317,-0.75642 0.313317,-0.75641 0.02363,-0.83109 0.02363,-0.83108 h 0.347634 0.347634 l 0.935018,0.44587 0.935018,0.44588 v 0.21558 0.21558 l -0.198437,0.002 -0.198438,0.002 -0.582327,0.85809 -0.582328,0.85808 -0.106015,1.04525 -0.106015,1.04525 -0.237699,0.0613 -0.237699,0.0613 z m -6.349999,-1.03661 v -0.15491 l 1.349611,-2.62742 1.349612,-2.62742 -0.149882,-0.39058 -0.149882,-0.39059 0.718499,-0.37132 0.7185,-0.37131 0.661458,-0.0938 0.661458,-0.0938 -0.08335,0.48742 -0.08335,0.48742 0.480222,0.36745 0.480222,0.36745 -0.396875,0.26556 -0.396875,0.26556 -0.459694,0.004 -0.459695,0.004 -0.926093,1.83898 -0.926094,1.83897 0.14384,0.37484 0.143839,0.37484 -1.190318,0.29973 -1.190318,0.29973 h -0.147421 -0.14742 z m 96.096108,-1.76332 -0.51998,-0.8599 -1.10553,-2.07018 -1.10553,-2.07017 0.61174,-0.60283 0.61173,-0.60282 0.57792,-0.30356 0.57792,-0.30356 h 0.61998 0.61998 l 0.58804,0.41187 0.58804,0.41188 v -0.88217 -0.88218 l 0.38634,-0.55157 0.38633,-0.55157 0.79916,-0.33102 0.79915,-0.33102 0.6236,0.15651 0.62361,0.15652 0.70444,0.55412 0.70445,0.55412 v 1.11255 1.11255 l -0.40467,0.57775 -0.40468,0.57776 -0.94076,0.25975 -0.94076,0.25976 -0.61324,-0.23315 -0.61324,-0.23316 -0.1736,-0.2809 -0.17361,-0.2809 h -0.24067 -0.24066 l 0.14519,0.37835 0.14519,0.37836 -0.44361,0.93483 -0.44361,0.93484 -0.50363,0.15984 -0.50364,0.15985 v 0.24675 0.24676 h 0.39688 0.39687 v 0.36456 0.36456 l -0.40042,0.95836 -0.40043,0.95835 h -0.10716 -0.10716 z m 0.87368,-4.56407 v -0.79375 h -0.63262 -0.63262 l -0.27808,0.44085 -0.27807,0.44084 0.35838,0.43182 0.35838,0.43182 0.55231,-0.0789 0.55232,-0.0789 z m 4.63021,-1.71979 0.2832,-0.52916 -0.2832,-0.52917 -0.2832,-0.52917 h -0.66067 -0.66068 l -0.22675,0.59531 -0.22675,0.59532 0.40857,0.46302 0.40858,0.46302 h 0.47885 0.47885 z m -103.867975,5.11385 -0.65521,-0.70698 -0.145158,-0.57836 -0.145159,-0.57835 0.403329,-0.96531 0.403329,-0.9653 0.691481,-0.2629 0.69148,-0.2629 h 0.67915 0.67915 l 0.887818,0.5487 0.887818,0.54871 -0.415228,0.80296 -0.415229,0.80296 -0.760267,-0.72838 -0.760268,-0.72838 -0.67328,0.44115 -0.673279,0.44115 v 0.34977 0.34976 l 0.483854,0.43789 0.483854,0.43788 h 0.574479 0.574479 v 0.34396 0.34396 l -0.3175,0.3175 -0.3175,0.3175 h -0.753467 -0.753466 z m 52.345735,-0.29599 -0.32536,-0.21225 0.0521,-1.97207 0.052,-1.97208 -0.12356,-0.37574 -0.12356,-0.37574 0.89441,-0.0204 0.89441,-0.0204 0.001,2.51284 0.001,2.51284 -0.49889,0.0677 -0.49888,0.0677 z m 1.92431,-0.0368 -0.14752,-0.23869 0.24958,-0.65645 0.24959,-0.65646 -0.078,-0.0934 -0.078,-0.0933 -0.15311,-0.99219 -0.15311,-0.99218 h 1.59564 1.59564 l 0.14197,0.54291 0.14198,0.54292 0.56086,-0.52407 0.56085,-0.52407 0.66146,-0.06 0.66146,-0.06 0.48142,0.0411 0.48143,0.0411 -0.0846,0.59531 -0.0845,0.59531 -0.68422,-0.0794 -0.68421,-0.0794 -0.31254,0.37659 -0.31254,0.37659 0.16707,0.43537 0.16707,0.43537 1.46092,-0.0711 1.46093,-0.0711 0.29479,0.47055 0.2948,0.47055 -0.32395,0.20234 -0.32395,0.20233 -1.72535,-0.0612 -1.72535,-0.0612 -0.24751,-0.15298 -0.24752,-0.15297 -0.13306,0.21529 -0.13306,0.21529 -0.74512,-0.014 -0.74512,-0.014 0.046,-0.7923 0.046,-0.7923 -0.11994,-0.60613 -0.11993,-0.60613 -0.28735,0.17759 -0.28735,0.17759 0.13031,1.15615 0.13031,1.15614 -0.16593,0.0197 -0.16594,0.0197 -0.58198,0.10894 -0.58198,0.10894 z m -57.029152,-1.2248 -0.926041,-0.61529 -0.298333,-0.0153 -0.298332,-0.0153 -0.314155,-0.37853 -0.314155,-0.37854 -0.02338,-0.8223 -0.02338,-0.82231 0.920631,-0.84968 0.92063,-0.84968 0.263232,-0.47787 0.263232,-0.47788 0.834448,0.47788 0.834448,0.47787 0.44019,0.81631 0.44019,0.81631 -0.698154,1.19131 -0.698154,1.19131 v 0.55645 0.55645 l -0.198437,0.11699 -0.198438,0.11699 z m 0.21684,-2.18787 0.08455,-0.57459 h -0.399662 -0.399662 l -0.171352,0.27726 -0.171353,0.27725 0.155877,0.40621 0.155876,0.4062 0.33059,-0.10887 0.33059,-0.10887 z m 50.053992,-3.16985 v -4.97652 l -0.34555,-0.47257 -0.34555,-0.47257 -0.64664,0.0913 -0.64663,0.0913 -0.0775,2.38125 -0.0775,2.38125 0.53552,0.95312 0.53553,0.95311 -0.17136,0.17137 -0.17137,0.17136 h -1.91863 -1.91864 l -0.42621,-0.16356 -0.4262,-0.16355 0.53685,-0.9099 0.53686,-0.90991 v -4.11122 -4.11122 l -0.55803,-0.78368 -0.55803,-0.78368 0.17041,-0.17041 0.1704,-0.1704 1.36169,-0.0626 1.36169,-0.0626 0.48114,0.2575 0.48115,0.2575 v 1.29063 1.29062 l 0.7432,-0.28053 0.74321,-0.28052 0.93427,0.17527 0.93427,0.17527 0.62845,0.66895 0.62844,0.66895 0.19127,1.90668 0.19126,1.90669 0.0164,2.18281 0.0164,2.18282 h 0.25628 0.25628 l -0.1487,-0.38749 -0.14869,-0.38748 0.55387,-0.77784 0.55387,-0.77784 -0.002,-2.4727 -0.002,-2.4727 -0.52568,-0.79375 -0.52568,-0.79375 -0.002,-0.33073 -0.002,-0.33072 h 1.85191 1.85208 v 3.60679 3.60679 l 0.54776,0.8863 0.54777,0.8863 -0.16651,0.26941 -0.1665,0.26941 h -1.83647 -1.83647 v 0.38372 0.38373 l -0.37491,0.21159 -0.37491,0.21158 -1.32578,1.25677 -1.32579,1.25677 h -0.28368 -0.28368 z m 14.2875,0 v -4.97652 l -0.34555,-0.47257 -0.34555,-0.47257 -0.64664,0.0913 -0.64663,0.0913 -0.0775,2.38125 -0.0775,2.38125 0.53552,0.95312 0.53553,0.95311 -0.17137,0.17137 -0.17136,0.17136 h -2.33715 -2.33715 v -0.27863 -0.27862 l 0.63859,-0.93977 0.6386,-0.93978 -0.15211,-2.54956 -0.15211,-2.54955 -0.47277,-0.77742 -0.47278,-0.77741 0.1342,-0.21713 0.13419,-0.21713 h 1.69103 1.69103 l 0.26969,0.46302 0.26968,0.46302 0.008,-0.43434 0.008,-0.43434 0.67137,-0.1685 0.67137,-0.16851 1.03424,0.27849 1.03423,0.2785 0.54335,0.69076 0.54336,0.69076 v 3.93307 3.93307 l 0.33073,-0.0109 0.33072,-0.0109 0.59532,-1.27111 0.59531,-1.27111 -0.002,-2.35606 -0.002,-2.35607 -0.52568,-0.79375 -0.52568,-0.79375 -0.002,-0.34281 -0.002,-0.34282 1.78593,0.0782 1.78594,0.0782 0.0739,3.67414 0.0738,3.67413 0.52146,0.73233 0.52147,0.73233 v 0.28989 0.28989 h -1.8982 -1.8982 l -1.91006,1.85208 -1.91006,1.85208 h -0.29278 -0.29279 z m 14.74127,4.81292 -0.14498,-0.14498 -0.032,-4.61713 -0.032,-4.61712 -0.25477,-0.67011 -0.25478,-0.67011 -0.72747,0.0837 -0.72748,0.0837 -0.0768,2.34129 -0.0768,2.34129 0.53985,0.91498 0.53985,0.91498 v 0.24946 0.24946 h -2.53137 -2.53137 l 0.18142,-0.59532 0.18141,-0.59531 0.36558,-0.41771 0.36558,-0.41771 v -2.76456 -2.76457 l -0.42047,-0.60031 -0.42047,-0.60031 0.14758,-0.3846 0.14759,-0.3846 h 1.54289 1.54288 l 0.3175,0.3175 0.3175,0.3175 v -0.3175 -0.3175 h 1.44046 1.44045 l 0.71409,0.61423 0.71409,0.61423 0.22363,1.56858 0.22364,1.56858 -0.16704,2.57969 -0.16705,2.57969 0.30241,0.0331 0.30241,0.0331 0.46302,0.0327 0.46302,0.0327 v -1.04519 -1.04518 l 0.66146,-0.18483 0.66145,-0.18483 0.97658,-0.0264 0.97657,-0.0264 0.16323,0.26411 0.16324,0.26412 -0.4122,0.58851 -0.41221,0.5885 v 0.47457 0.47458 l 0.91904,0.43826 0.91903,0.43825 0.67236,-0.30635 0.67237,-0.30634 0.29821,-0.65452 0.29822,-0.65452 -0.42724,-0.65205 -0.42724,-0.65205 -1.52852,-0.2895 -1.52852,-0.28951 -0.66146,-0.33141 -0.66146,-0.33142 -0.47745,-0.92068 -0.47745,-0.92068 0.11608,-1.14095 0.11608,-1.14096 0.62595,-0.67012 0.62596,-0.67012 0.71447,-0.37174 0.71446,-0.37173 h 2.2621 2.2621 v 0.29265 0.29265 l -0.66146,0.5203 -0.66146,0.5203 v 0.21452 0.21452 l 0.55455,0.14502 0.55456,0.14502 -0.0901,1.56321 -0.09,1.56321 0.88717,1.01043 0.88717,1.01043 -0.11205,1.54909 -0.11205,1.54909 -0.52752,0.72405 -0.52751,0.72405 -1.17514,0.61419 -1.17513,0.61419 -1.39385,-0.13255 -1.39384,-0.13254 -0.92822,-0.57367 -0.92821,-0.57367 -0.45607,-0.88501 -0.45606,-0.88502 -1.45521,1.31597 -1.45521,1.31597 -0.42823,0.24707 -0.42823,0.24707 z m 9.16563,-8.59385 0.38898,-0.55535 -0.25833,-0.74106 -0.25833,-0.74105 -0.54092,-0.14145 -0.54092,-0.14146 -0.63306,0.24069 -0.63307,0.24069 v 0.87968 0.87967 l 0.3175,0.3175 0.3175,0.3175 h 0.72583 0.72583 z m -94.550648,7.15125 v -0.28953 l 1.5875,-2.05211 1.5875,-2.05212 v -0.43961 -0.4396 H 53.978301 53.73407 l -0.8519,0.8519 -0.8519,0.8519 -0.367092,0.87857 -0.367093,0.87858 -1.217367,-0.87058 -1.217368,-0.87058 -0.380922,-0.57757 -0.380922,-0.57757 0.317387,-0.61306 0.317386,-0.61305 0.388796,-0.44635 0.388795,-0.44635 -0.174981,-0.28312 -0.17498,-0.28313 0.383375,-0.14711 0.383376,-0.14712 1.116004,0.0828 1.116005,0.0828 -1.121722,1.40599 -1.121722,1.40599 0.261236,0.26124 0.261236,0.26123 0.833084,-0.94883 0.833084,-0.94883 v -0.51996 -0.51996 h 0.160363 0.160363 l 1.010191,0.80009 1.010191,0.80008 1.043147,-0.1668 1.043147,-0.16681 0.564424,0.30207 0.564424,0.30207 v 0.20427 0.20427 l -0.676132,0.81615 -0.676133,0.81615 -0.448346,-0.10264 -0.448347,-0.10263 -0.881483,1.20709 -0.881483,1.20708 0.149418,0.38938 0.149418,0.38938 -0.326268,0.10022 -0.326269,0.10021 -1.124479,0.15748 -1.124479,0.15748 z m 44.846876,-2.06642 -1.05834,-0.48599 -0.50347,-0.56591 -0.50347,-0.56592 -0.480075,-1.38968 -0.48008,-1.38968 -0.0086,1.03509 -0.0086,1.03509 0.672615,1.14772 0.67261,1.14773 -0.47418,0.008 -0.47417,0.008 -2.771624,0.10303 -2.771625,0.10303 -0.898708,-0.37551 -0.898708,-0.3755 -0.166126,0.004 -0.166125,0.004 0.396875,0.25648 0.396875,0.25648 -0.264583,0.0143 -0.264584,0.0143 -2.336856,0.0616 -2.336857,0.0616 -0.129136,-0.20895 -0.129136,-0.20895 0.528541,-0.8552 0.528542,-0.8552 -0.01824,-2.47973 -0.01823,-2.47974 -0.285838,0.49549 -0.285839,0.49549 -0.801183,1.95195 -0.801184,1.95195 -0.264584,0.0252 -0.264583,0.0252 -0.986272,-2.47838 -0.986271,-2.47838 -0.102239,-0.10224 -0.102239,-0.10224 0.05671,2.58781 0.05671,2.58782 0.59491,0.99219 0.59491,0.99219 h -2.407384 -2.407384 l 0.0017,-0.33073 0.0017,-0.33073 0.52568,-0.79375 0.52568,-0.79375 0.0017,-3.90786 0.0017,-3.90787 -0.66835,-1.05873 -0.66835,-1.05874 0.359737,-0.13804 0.359737,-0.13804 2.190963,0.0776 2.190963,0.0776 0.531202,1.45521 0.531202,1.45521 0.183958,0.20303 0.183958,0.20303 0.643636,-1.65824 0.643635,-1.65824 2.436345,-0.0759 2.436345,-0.0759 0.540218,-0.75866 0.540217,-0.75867 v -4.09066 -4.09066 l -0.563213,-0.71601 -0.563213,-0.71601 0.243991,-0.24399 0.243991,-0.24399 2.944348,-0.0233 2.944348,-0.0233 1.184537,0.52398 1.18454,0.52398 0.33798,0.93465 0.33797,0.93465 2.22845,0.0843 2.22845,0.0843 0.12182,-0.19844 0.121812,-0.19843 0.84428,0.004 0.84429,0.004 0.59531,0.15954 0.59531,0.15954 v 1.95351 1.95352 h -0.31194 -0.31194 l -0.84823,-0.92604 -0.84822,-0.92604 -0.2289,0.004 -0.22889,0.004 -0.355222,0.22513 -0.35521,0.22513 -0.0255,2.24399 -0.0255,2.244 0.55715,0.94428 0.557142,0.94429 -0.15441,0.15441 -0.15442,0.15442 h -2.337152 -2.33715 l 0.008,-0.19844 0.008,-0.19844 0.65184,-1.05833 0.65185,-1.05834 -0.008,-2.38125 -0.008,-2.38125 -0.65063,-0.79375 -0.65063,-0.79375 -0.001,0.60381 -10e-4,0.60382 -0.37478,0.89696 -0.37477,0.89696 -0.701,0.45932 -0.701003,0.45931 -1.636203,0.15658 -1.636204,0.15658 -0.0815,1.27781 -0.0815,1.27781 0.681334,0.89327 0.681334,0.89328 -0.485043,0.25958 -0.485042,0.25959 -1.980695,-0.1498 -1.980694,-0.1498 -0.713783,0.84828 -0.713782,0.84829 0.0041,4.14688 0.0041,4.14689 0.258741,0.39688 0.258742,0.39687 -0.158458,-1.19836 -0.158459,-1.19836 0.403989,-0.96688 0.403988,-0.96688 0.847858,-0.43844 0.847858,-0.43845 1.158013,0.0921 1.158013,0.0921 -0.09084,-0.26654 -0.09084,-0.26654 -1.166587,0.0278 -1.166588,0.0278 -0.595312,0.20149 -0.595313,0.20148 v -0.92382 -0.92383 l 0.163849,-0.81925 0.163849,-0.81924 0.460412,0.24641 0.460413,0.2464 0.965677,-0.15671 0.965677,-0.1567 1.184843,0.45249 1.184843,0.4525 0.53251,0.74784 0.53251,0.74784 v 1.23154 1.23155 l 0.22983,-0.14205 0.22983,-0.14204 0.163803,-1.0244 0.16381,-1.0244 0.52269,-0.6645 0.5227,-0.66449 1.38639,-0.59641 1.3864,-0.59642 1.30246,0.15426 1.302472,0.15426 0.49585,-0.26537 0.49585,-0.26538 v 1.99369 1.99368 h -0.12591 -0.1259 l -0.866292,-0.52818 -0.86629,-0.52817 -0.82422,-9.9e-4 -0.82421,-9.9e-4 -0.71043,0.55882 -0.71042,0.55882 0.0794,1.21834 0.0794,1.21833 0.91942,0.61784 0.91941,0.61784 0.66809,-0.15852 0.66808,-0.15851 0.716892,-0.51669 0.71689,-0.51669 h 0.143 0.14301 v 1.5385 1.53849 l -0.93502,0.44588 -0.935022,0.44588 -1.1155,-0.006 -1.1155,-0.006 z m -5.75469,-2.22169 0.330729,-0.25591 v -0.70843 -0.70844 l -0.3175,-0.3175 -0.3175,-0.3175 h -0.830655 -0.830655 l -0.315233,0.69186 -0.315233,0.69186 0.163739,0.5159 0.163739,0.5159 0.572045,0.21268 0.572045,0.21268 0.396875,-0.1386 0.396875,-0.13859 z m 2.38125,-17.31613 0.330729,-0.43862 v -0.4786 -0.4786 l -0.529166,-0.52916 -0.529167,-0.52917 h -1.058333 -1.058334 v 1.41111 1.41111 l 0.198438,0.19923 0.198437,0.19922 1.058334,-0.16395 1.058333,-0.16394 z m 73.620312,19.41658 v -0.61885 l -0.7276,-0.96056 -0.72761,-0.96055 -0.46302,-0.15822 -0.46302,-0.15821 v -0.34365 -0.34365 l 1.23405,-0.96144 1.23404,-0.96143 h 0.60553 0.60553 l 1.13699,1.44044 1.13699,1.44044 0.49609,0.0148 0.49609,0.0148 -0.16536,0.82682 -0.16537,0.82683 v 0.49609 0.4961 h -0.35202 -0.35202 l -0.88044,-1.25678 -0.88044,-1.25677 -0.66011,-0.71819 -0.66011,-0.7182 -0.22409,0.1385 -0.2241,0.1385 v 0.24897 0.24897 l 1.0954,1.09539 1.0954,1.0954 -0.86667,0.75669 -0.86667,0.75668 h -0.22873 -0.22873 z M 44.697532,199.70497 v -0.35165 l 1.773118,-1.75579 1.773119,-1.7558 -0.165679,-0.16567 -0.16568,-0.16568 -0.535969,0.17011 -0.535969,0.17011 -0.58825,0.97852 -0.58825,0.97853 -0.0891,0.113 -0.0891,0.11301 -0.79099,-0.75782 -0.79099,-0.75782 v -0.22338 -0.22339 l 0.463021,-0.16184 0.463021,-0.16185 0.992187,-0.94188 0.992188,-0.94188 v -0.47547 -0.47547 l 0.330729,0.004 0.330729,0.004 1.07349,1.12011 1.07349,1.12011 0.194094,0.32296 0.194093,0.32296 -0.385114,0.73537 -0.385113,0.73537 -0.948616,0.9118 -0.948616,0.9118 v 0.47726 0.47727 h -1.322916 -1.322917 z m 125.015628,-0.69224 -0.52917,-0.21658 -0.50387,-0.56022 -0.50387,-0.56022 -0.0505,-0.72778 -0.0505,-0.72778 0.21774,-0.43465 0.21774,-0.43465 -0.55841,-0.37077 -0.55841,-0.37077 0.18524,-0.58364 0.18524,-0.58364 h 0.37905 0.37904 v 0.76055 0.76056 l 1.09772,-0.54311 1.09772,-0.54311 0.9528,0.51016 0.9528,0.51015 0.0809,0.56769 0.0809,0.56768 0.51438,0.46551 0.51439,0.46551 v 0.22358 0.22358 h -0.2734 -0.27341 l -0.92604,0.92604 -0.92604,0.92604 -0.58649,-0.0168 -0.5865,-0.0168 z m 1.97699,-1.98993 0.32199,-0.38798 -0.0912,-0.24899 -0.0912,-0.24899 -0.47537,0.63697 -0.47537,0.63697 h 0.24454 0.24453 z m -1.51397,-0.77409 0.46302,-0.35148 v -0.30156 -0.30156 h -0.24569 -0.24568 l -0.41577,0.41577 -0.41578,0.41578 v 0.24568 0.24569 l 0.19844,-0.008 0.19844,-0.008 z m -108.18222,0.0187 -1.024553,-0.94518 0.295065,-0.4771 0.295066,-0.4771 h 1.203774 1.203774 l 0.805551,-0.59532 0.805551,-0.59531 h 0.275297 0.275296 v -0.37523 -0.37524 l -0.160599,-0.41851 -0.160599,-0.41852 H 65.535501 65.26342 l -0.613019,0.66146 -0.613019,0.66146 h -0.277217 -0.277217 v -0.31368 -0.31367 l 0.55171,-0.58727 0.55171,-0.58727 -0.43485,-0.66367 -0.43485,-0.66366 0.08158,-1.27966 0.08158,-1.27966 1.24418,-0.67092 1.244179,-0.67091 0.139847,-0.13985 0.139847,-0.13985 0.156222,-2.23194 0.156221,-2.23195 0.268069,-1.58056 0.268069,-1.58057 0.272701,-0.50955 0.272701,-0.50954 2.655236,-3.28957 2.655235,-3.28957 0.952288,-0.60122 0.952288,-0.60121 1.5875,-1.70218 1.5875,-1.70218 2.882919,-3.72592 2.882918,-3.72592 0.462081,-1.2173 0.462082,-1.21731 1.152916,-1.37317 1.152917,-1.37317 1.246632,-1.27129 1.246631,-1.27129 1.578365,-0.79676 1.578365,-0.79675 0.172215,-0.27865 0.172216,-0.27865 2.82362,-1.42078 2.82362,-1.42078 1.769142,-1.19176 1.76914,-1.19176 2.3319,-0.19529 2.33191,-0.19529 2.31919,0.26513 2.3192,0.26513 0.53759,0.48652 0.5376,0.48652 -0.0787,0.67526 -0.0787,0.67526 -0.62583,0.0885 -0.62582,0.0886 -0.25108,-0.25108 -0.25108,-0.25107 0.4568,-0.4568 0.45679,-0.45679 -0.36081,-0.223 -0.36081,-0.22299 -1.90899,-0.17889 -1.90899,-0.17889 -2.09738,0.0952 -2.09738,0.0953 -2.09188,1.30157 -2.091872,1.30158 -2.22074,1.15473 -2.22074,1.15472 -0.73495,0.52333 -0.734943,0.52333 -1.54223,0.80938 -1.54223,0.80939 -0.623991,0.57652 -0.623992,0.57653 -1.563902,1.92189 -1.563902,1.92188 -0.531004,1.38541 -0.531004,1.3854 -0.678895,0.79375 -0.678896,0.79375 -2.106414,2.62954 -2.106414,2.62954 -1.639542,1.73609 -1.639543,1.73608 -0.990844,0.74005 -0.990844,0.74004 -1.508519,1.90579 -1.50852,1.90579 -0.156764,0.13229 -0.156765,0.13229 -1.259312,1.62031 -1.259312,1.6203 -0.247047,2.34845 -0.247047,2.34844 -0.0047,1.53366 -0.0047,1.53366 -0.819807,0.45072 -0.819808,0.45071 -0.635401,0.48223 -0.6354,0.48222 v 0.47535 0.47534 l 0.963981,0.15643 0.963982,0.15644 0.581151,0.54596 0.581151,0.54596 0.769971,0.20266 0.769972,0.20266 0.595312,-0.0951 0.595313,-0.0951 v -0.18702 -0.18703 l -1.058334,0.10093 -1.058333,0.10093 v -0.50983 -0.50982 l 0.421746,-1.23776 0.421747,-1.23776 h 0.504295 0.504295 v -0.52633 -0.52632 l 0.529034,-1.39191 0.529033,-1.3919 1.33e-4,-1.50574 1.34e-4,-1.50573 0.265027,-0.1638 0.265027,-0.1638 -0.165979,-1.41221 -0.165978,-1.41222 0.545015,-0.29169 0.545016,-0.29168 0.215832,0.003 0.215831,0.003 1.256771,1.15912 1.256771,1.15911 v 0.83984 0.83983 l -0.273892,0.51177 -0.273893,0.51177 h 0.137792 0.137792 l 0.768628,-1.52135 0.768629,-1.52136 0.58192,-0.52558 0.581921,-0.52559 1.54508,-0.007 1.54508,-0.007 0.175137,-0.17514 0.175137,-0.17514 -1.28102,-0.19225 -1.28102,-0.19225 -1.190625,0.46187 -1.190624,0.46186 -0.727605,0.13745 -0.727604,0.13744 v -0.28541 -0.28541 l -0.809913,-0.92244 -0.809914,-0.92244 0.280785,-0.52465 0.280784,-0.52465 -0.238217,-0.62656 -0.238218,-0.62656 0.251327,-0.4491 0.251327,-0.44909 h 0.630482 0.630481 l 0.160368,-0.50528 0.160367,-0.50527 0.377156,-0.31301 0.377155,-0.31301 1.516731,-0.14391 1.516732,-0.14392 0.811456,0.96654 0.811457,0.96654 2.197088,-0.80184 2.197088,-0.80184 1.066087,-0.54388 1.066087,-0.54387 -0.141944,-0.14195 -0.141943,-0.14194 -1.784751,0.57659 -1.78475,0.5766 -0.648169,0.50985 -0.648168,0.50985 H 81.666483 81.13602 l -0.351483,-0.46302 -0.351483,-0.46303 -0.0084,-0.53416 -0.0084,-0.53416 2.400371,-1.69418 2.400371,-1.69418 1.149476,-1.60812 1.149476,-1.60811 1.848353,-1.78972 1.848353,-1.78972 -0.121489,-0.46457 -0.121489,-0.46457 0.828473,-0.61252 0.828472,-0.61251 1.170857,-2.40566 1.17086,-2.40566 v -0.90235 -0.90236 l 1.07486,0.1816 1.07486,0.18159 0.51264,-0.46393 0.51264,-0.46393 -0.0179,-0.42201 -0.0179,-0.42202 -0.29204,0.60638 -0.29205,0.60637 -0.81453,-0.17447 -0.81453,-0.17446 -0.19843,-0.11679 -0.19844,-0.1168 v -0.39589 -0.3959 l 1.46665,-0.67146 1.46665,-0.67145 0.62082,0.62081 0.62082,0.62082 -0.2358,1.45434 -0.23579,1.45434 0.15868,1.0974 0.15868,1.09741 -1.08431,1.11731 -1.08432,1.11731 v 0.29361 0.29361 l -0.95626,1.54926 -0.95626,1.54927 0.27175,0.27175 0.27175,0.27175 0.23843,-0.14736 0.23843,-0.14735 0.59279,-1.13928 0.59279,-1.13928 0.44861,-0.52916 0.4486,-0.52917 0.88019,-0.7276 0.880202,-0.72761 h 0.36727 0.36726 l 0.29085,0.54347 0.29086,0.54346 -1.60446,1.71518 -1.604492,1.71481 v 0.2549 0.25491 h 0.21065 0.21066 l 1.645462,-1.83785 1.64546,-1.83784 1.21696,-0.34497 1.21696,-0.34497 -0.55073,-0.66146 -0.55073,-0.66146 -0.009,0.59532 -0.009,0.59531 h -0.3099 -0.30989 l -0.50266,-0.4549 -0.50266,-0.4549 -0.56689,-0.008 -0.56689,-0.008 -0.32001,-1.05834 -0.32002,-1.05833 -0.0203,-0.87729 -0.0203,-0.87729 0.29691,-0.57792 0.29692,-0.57792 0.67863,-0.7276 0.67863,-0.7276 h 0.46405 0.46405 l 0.18596,-0.30089 0.18596,-0.30089 -0.63337,-0.48175 -0.63336,-0.48175 0.28281,-0.47413 0.28282,-0.47414 1.0401,-0.52466 1.0401,-0.52467 3.10885,-0.0985 3.10886,-0.0985 0.0473,0.82162 0.0473,0.82162 0.0189,0.58046 0.0189,0.58045 -1.46463,-0.0678 -1.46462,-0.0679 -0.69378,0.54572 -0.69377,0.54573 -1.28118,0.0225 -1.28119,0.0225 1.32292,0.32556 1.32292,0.32557 0.60338,0.37954 0.60339,0.37953 0.2325,-0.37363 0.23249,-0.37364 0.43979,0.43978 0.43978,0.43979 h 0.64256 0.64256 v -0.24295 -0.24294 l 0.1606,-0.41852 0.1606,-0.41851 h -0.29289 -0.29289 v 0.42518 0.42518 l -0.41851,-0.16059 -0.41852,-0.1606 h -0.24294 -0.24295 v -0.26459 -0.26458 h 0.43386 0.43385 l 0.35487,-0.46302 0.35487,-0.46302 0.26556,0.39687 0.26556,0.39688 0.004,-0.20775 0.004,-0.20775 0.54608,0.29226 0.54608,0.29225 0.38507,-0.31959 0.38508,-0.31958 -0.16633,-0.88661 -0.16633,-0.8866 0.42639,-0.16362 0.42639,-0.16362 0.60744,0.15246 0.60745,0.15245 0.59685,1.06195 0.59684,1.06195 0.31162,-0.0614 0.31161,-0.0614 0.0338,1.03409 0.0338,1.03409 -0.77526,1.14872 -0.77527,1.14873 h -0.16264 -0.16264 l -0.59278,-0.55689 -0.59277,-0.55688 -0.28417,0.17562 -0.28417,0.17563 v 1.18704 1.18703 l 0.66145,0.66146 0.66146,0.66146 v 1.42441 1.4244 l -1.52135,0.44611 -1.52136,0.4461 -0.94758,0.13069 -0.94758,0.1307 -1.65993,-0.8639 -1.65992,-0.8639 -0.67238,0.23973 -0.67238,0.23973 -0.29199,0.47055 -0.29199,0.47056 0.30645,0.19151 0.30644,0.19151 0.19194,1.05773 0.19194,1.05772 0.36831,0.72761 0.3683,0.7276 h 1.46475 1.46474 l 2.49721,2.46897 2.49722,2.46897 v 0.80173 0.80172 l -0.79639,1.75639 -0.79638,1.75639 h -1.99925 -1.99914 l -0.50325,-0.26934 -0.50326,-0.26933 -1.19322,0.91081 -1.19322,0.9108 -1.46747,0.30465 -1.46747,0.30464 -1.24707,-0.26597 -1.24706,-0.26597 -0.0144,0.0475 -0.0144,0.0475 -0.69299,1.08313 -0.69299,1.08312 -0.8835,0.41287 -0.88351,0.41287 -1.91823,-0.14249 -1.918229,-0.14248 v -0.36132 -0.36133 h -0.645842 -0.645843 l -0.178207,-0.28834 -0.178207,-0.28835 -0.866575,0.16257 -0.866576,0.16257 -2.036079,0.88537 -2.036079,0.88537 -0.381184,0.38118 -0.381184,0.38118 0.315323,1.36606 0.315322,1.36605 -0.318073,1.06163 -0.318072,1.06163 -0.940515,0.91342 -0.940515,0.91341 -1.629575,0.77477 -1.629575,0.77477 -1.540937,0.17193 -1.540936,0.17192 -1.093098,0.55766 -1.093099,0.55766 -1.467006,1.38913 -1.467007,1.38914 -0.661459,0.19655 -0.661458,0.19656 -0.463021,0.40659 -0.463021,0.40659 v 1.2385 1.23851 l -1.073411,0.96362 -1.073411,0.96362 -1.672348,0.17134 -1.672348,0.17134 z m 10.473549,-8.32509 0.272905,-0.98263 0.0015,-0.19843 0.0015,-0.19844 h -0.222163 -0.222114 l -0.307053,0.67391 -0.307053,0.6739 v 0.66463 0.66462 l 0.254787,-0.15746 0.254786,-0.15747 z m 2.119836,-5.74513 v -0.26458 l -0.25648,0.39688 -0.256481,0.39687 v 0.26458 0.26459 l 0.256481,-0.39688 0.25648,-0.39687 z m 0.272686,-0.52916 v -0.13229 H 74.72774 74.595448 v 0.13229 0.13229 h 0.132292 0.132291 z m 17.458448,-7.07761 0.0041,-0.7276 -0.198438,0.002 -0.198437,0.002 -0.291775,0.6296 -0.291775,0.6296 0.256541,0.45841 0.256541,0.45841 0.22962,-0.36247 0.22962,-0.36247 z m 3.813059,0.96831 0.16146,-0.42075 -0.16622,-0.26895 -0.16623,-0.26896 -0.22746,0.35898 -0.22745,0.35898 -0.004,0.33073 -0.004,0.33073 h 0.23627 0.23628 z m 7.906502,-3.08497 0.84616,-0.59532 0.32534,-0.39687 0.32533,-0.39688 0.008,-1.38906 0.008,-1.38906 h -0.49776 -0.49775 l -0.31344,1.25677 -0.31343,1.25677 -0.65517,1.12448 -0.65517,1.12448 h 0.28645 0.28645 z m -9.863422,-2.65775 v -0.50343 l -0.40963,-0.86322 -0.409625,-0.86322 -0.663393,-0.30226 -0.663394,-0.30226 -1.506668,0.80238 -1.506669,0.80239 1.129171,-0.0596 1.12917,-0.0596 0.429125,0.42913 0.429124,0.42912 0.130708,1.36031 0.130708,1.3603 0.890684,-0.86328 0.890689,-0.86329 z m 2.78748,-0.58278 -0.32452,-1.72689 -0.17315,-0.17315 -0.17315,-0.17315 -0.1749,0.17491 -0.17491,0.1749 0.33604,1.52284 0.33604,1.52284 0.10158,0.3475 0.10158,0.3475 0.23495,-0.14521 0.23496,-0.14521 z m 12.293772,-0.38818 v -1.04903 l -0.51178,-0.27389 -0.51177,-0.27389 h -0.41427 -0.41427 v 0.33545 0.33546 l 0.671,0.98746 0.671,0.98746 h 0.25504 0.25505 z m 2.0154,0.13753 0.14671,-0.38232 -0.81648,-1.18671 -0.81647,-1.1867 v -0.23355 -0.23356 l -0.79549,-0.76213 -0.7955,-0.76214 -0.30795,0.30796 -0.30795,0.30795 1.22311,1.13901 1.22311,1.13902 0.17874,1.11775 0.17873,1.11774 h 0.37136 0.37137 z m 1.4732,-1.11359 -0.26459,-0.49438 -0.55367,-0.50107 -0.55368,-0.50107 9.9e-4,0.37174 9.9e-4,0.37173 0.54577,0.89522 0.54577,0.89522 0.2715,-0.2715 0.2715,-0.2715 z m -0.21011,-9.79174 1.02954,-0.22172 0.28402,-0.45033 0.28402,-0.45033 -0.15806,-0.15806 -0.15806,-0.15806 -0.99398,0.67453 -0.99399,0.67454 h -0.47724 -0.47724 l -0.34573,-0.49355 -0.34573,-0.49355 -1.53982,0.0223 -1.53981,0.0223 0.87835,0.74161 0.87836,0.74161 1.32292,-0.11477 1.32291,-0.11476 z m -0.70816,-7.39688 -0.1763,-0.17629 -0.40035,0.33227 -0.40036,0.33226 0.16069,0.26 0.16068,0.25999 0.41597,-0.41597 0.41596,-0.41596 z m 3.2505,0.28769 v -0.40518 l -0.40829,-0.15668 -0.40828,-0.15667 -0.12711,0.12711 -0.12711,0.12711 0.16683,0.43474 0.16682,0.43475 h 0.36857 0.36857 z m -5.55625,-0.62485 v -0.23628 l -0.41852,-0.16059 -0.41851,-0.1606 h -0.27534 -0.27534 l 0.32938,0.39687 0.32937,0.39688 h 0.36448 0.36448 z m 64.82291,45.7662 v -0.24299 l -1.03758,-1.07993 -1.03759,-1.07992 h -0.40201 -0.402 l -0.17563,-0.28417 -0.17563,-0.28417 0.50804,-0.57573 0.50804,-0.57572 0.45183,-0.72761 0.45182,-0.7276 h 0.81707 0.81708 l 1.33794,1.12018 1.33794,1.12019 0.41857,0.004 0.41857,0.004 v 1.16857 1.16858 l -0.31324,0.10441 -0.31325,0.10442 -1.53883,-1.46587 -1.53884,-1.46586 -0.46302,-0.006 -0.46303,-0.006 v 0.25112 0.25112 l 0.88487,0.67492 0.88487,0.67493 h 0.43805 0.43805 v 0.17346 0.17346 l -0.67493,0.88487 -0.67492,0.88487 h -0.25112 -0.25112 z M 43.110032,195.61313 v -0.21014 l -1.058333,-1.13496 -1.058333,-1.13496 v -0.33901 -0.33901 l 0.54837,-0.69713 0.54837,-0.69714 h 0.774546 0.774547 v -0.33323 -0.33324 l 0.554931,-0.34656 0.554932,-0.34656 0.07589,0.0845 0.07589,0.0845 0.692099,1.02911 0.692098,1.02911 v 0.33134 0.33133 l -1.190625,1.32427 -1.190625,1.32426 v 0.29185 0.29186 h -0.396882 -0.396875 z m 0.529167,-2.70027 v -0.52917 h -0.38126 -0.38126 l -0.163522,0.26459 -0.163521,0.26458 0.163521,0.26458 0.163522,0.26459 h 0.38126 0.38126 z m 109.008331,-3.1561 v -5.00819 l -0.41577,-0.41577 -0.41578,-0.41577 h -0.22404 -0.22405 l -0.41851,0.16059 -0.41851,0.1606 v 2.42301 2.42301 l 0.51411,0.95922 0.51411,0.95923 -0.16133,0.16133 -0.16134,0.16134 h -2.16076 -2.16077 l -0.16528,-0.16528 -0.16528,-0.16528 0.65035,-1.22168 0.65035,-1.22168 v -2.28028 -2.28029 l -0.66146,-0.97471 -0.66145,-0.97472 v -0.12054 -0.12054 h 1.98437 1.98438 v 0.28348 0.28348 l 0.41577,-0.41577 0.41577,-0.41577 0.841,0.0264 0.841,0.0264 0.65233,0.18184 0.65234,0.18184 0.47049,0.80558 0.47048,0.80558 0.0678,3.81485 0.0678,3.81486 0.59531,0.0846 0.59531,0.0845 v 0.21387 0.21387 l -1.69431,1.48752 -1.6943,1.48752 h -0.29007 -0.29007 z m -26.46264,2.57958 -0.78944,-0.86433 v -0.20562 -0.20561 h -2.11667 -2.11667 v -0.13326 -0.13325 l 0.52917,-0.98731 0.52917,-0.98731 -0.002,-2.51746 -0.002,-2.51746 -0.52568,-0.79375 -0.52568,-0.79375 -0.002,-0.21002 -0.002,-0.21003 1.91824,0.0777 1.91822,0.0777 0.1323,3.83646 0.13229,3.83646 0.39437,0.59531 0.39438,0.59531 h 0.20093 0.20094 l 0.0313,-1.38906 0.0313,-1.38906 -0.0313,-0.19844 -0.0313,-0.19844 h 0.27613 0.27613 l 0.71606,0.66438 0.71606,0.66438 0.48211,0.15326 0.48212,0.15326 0.64236,-0.16122 0.64237,-0.16122 v -0.35944 -0.35944 l -0.33073,-0.25142 -0.33073,-0.25142 -1.22437,-0.45194 -1.22437,-0.45195 -0.4517,-0.49912 -0.4517,-0.49912 -0.12023,-1.01272 -0.12024,-1.01273 0.34884,-0.66145 0.34884,-0.66146 0.7279,-0.34902 0.72789,-0.34902 1.97635,-0.0479 1.97634,-0.0479 -10e-6,1.65364 v 1.65365 h -0.11717 -0.11717 l -0.93044,-0.54897 -0.93044,-0.54898 -0.60604,0.0859 -0.60603,0.086 0.0457,0.26458 0.0457,0.26458 0.35116,0.18965 0.35116,0.18964 1.33838,0.54874 1.33839,0.54874 0.44755,0.75765 0.44755,0.75765 v 0.93106 0.93107 l -0.67011,0.79638 -0.67012,0.79639 -0.93144,0.3074 -0.93143,0.3074 -0.60625,-0.15216 -0.60626,-0.15216 -0.63646,0.68047 -0.63647,0.68046 -0.46733,0.25191 -0.46732,0.2519 z m -14.90575,-0.50839 -0.97395,-1.08492 -0.45851,0.2058 -0.45852,0.20581 -1.21147,0.10784 -1.21146,0.10784 -0.90521,-0.37926 -0.9052,-0.37926 -0.83741,-0.70616 -0.83742,-0.70616 -0.1977,-1.11987 -0.1977,-1.11988 0.0484,-0.79375 0.0484,-0.79375 0.29103,-0.92604 0.29103,-0.92604 0.66099,-0.70876 0.66098,-0.70876 1.31005,-0.31427 1.31005,-0.31428 1.09703,0.17543 1.09704,0.17542 0.87121,0.6645 0.8712,0.6645 0.52673,1.03247 0.52672,1.03246 0.029,0.60585 0.029,0.60586 0.21908,-1.10859 0.21909,-1.1086 0.4538,-0.69258 0.4538,-0.69259 1.06927,-0.5455 1.06927,-0.5455 2.17781,-0.0379 2.17781,-0.0379 0.0975,1.72308 0.0975,1.72308 -0.10564,0.21834 -0.10564,0.21833 -0.61707,-0.57971 -0.61707,-0.57971 -1.18698,-0.13379 -1.18699,-0.13379 -0.68157,0.68158 -0.68158,0.68157 v 0.90239 0.90239 l 0.53239,0.67682 0.5324,0.67683 0.7982,0.17531 0.79821,0.17532 1.0588,-0.55188 1.0588,-0.55187 h 0.11215 0.11216 l 0.16941,0.90303 0.16941,0.90304 -0.16251,0.51202 -0.1625,0.51202 -0.66883,0.30473 -0.66882,0.30474 h -1.55782 -1.55783 l -0.6836,-0.2599 -0.6836,-0.25991 -0.95191,1.05366 -0.95191,1.05365 h -0.32269 -0.32268 z m 2.81239,-1.19312 0.16136,-0.16136 -0.64643,-1.024 -0.64643,-1.02401 v -0.66672 -0.66671 h -3.30729 -3.30729 v 0.38187 0.38187 l 0.58804,0.41188 0.58803,0.41188 h 0.88621 0.8862 l 1.13749,-0.66662 1.13749,-0.66661 0.16639,0.83198 0.1664,0.83197 v 0.74311 0.7431 l 0.7276,0.11022 0.72761,0.11023 0.28663,0.0396 0.28663,0.0396 z m -4.46005,-5.62508 0.15859,-0.2566 -0.69966,-0.55035 -0.69966,-0.55036 h -0.51088 -0.51088 l -0.57791,0.30419 -0.57792,0.3042 -0.18098,0.27848 -0.18098,0.27849 0.10447,0.16904 0.10447,0.16904 1.70638,0.0552 1.70637,0.0552 z m 67.66412,6.31468 -1.94256,-1.58773 -0.26983,0.16677 -0.26984,0.16677 -0.23095,-0.36463 -0.23095,-0.36463 -0.004,-1.15278 -0.004,-1.15279 0.43042,0.16516 0.43041,0.16517 0.3835,-0.31828 0.38351,-0.31828 0.24036,0.37986 0.24037,0.37986 0.004,0.55992 0.004,0.55992 1.21258,0.94471 1.21257,0.9447 0.37493,-0.14387 0.37492,-0.14387 0.0397,0.95435 0.0397,0.95435 0.0264,0.30868 0.0265,0.30868 -0.26458,0.0878 -0.26458,0.0879 z m -137.599017,-0.14649 -0.555301,-0.94116 v -0.24946 -0.24946 h 0.542306 0.542306 l 0.780611,-0.40367 0.78061,-0.40367 v -0.12044 -0.12043 l -1.231968,0.16886 -1.231969,0.16886 0.21388,-0.37236 0.213879,-0.37236 0.399106,-0.46464 0.399106,-0.46465 -0.171327,-0.17132 -0.171326,-0.17133 -0.911573,0.96655 -0.911572,0.96655 -0.547076,-0.7683 -0.547076,-0.7683 v -0.36441 -0.36442 l 1.196381,-0.35325 1.196382,-0.35324 1.289889,-1.15973 1.28989,-1.15972 h 0.286476 0.286477 l 0.509069,0.99786 0.509069,0.99786 -0.3714,0.50792 -0.3714,0.50792 v 0.20746 0.20747 l 0.654955,-0.24901 0.654954,-0.24902 0.791425,1.1503 0.791425,1.15029 -0.746993,0.1494 -0.746992,0.1494 -1.735378,1.08808 -1.735378,1.08808 -0.14633,0.38133 -0.14633,0.38133 h -0.246753 -0.246753 z m 94.496267,-0.044 -0.8599,-0.10671 v -0.11649 -0.11649 l 0.52917,-0.98731 0.52916,-0.98731 v -2.54792 -2.54792 l -0.52916,-0.67273 -0.52917,-0.67273 v -0.28899 -0.289 h 1.85208 1.85209 l 0.0333,1.12448 0.0333,1.12448 -0.0598,2.31445 -0.0598,2.31446 0.55568,0.94181 0.55569,0.94182 v 0.38175 0.38175 l -1.52135,-0.0423 -1.52136,-0.0423 z m 6.28574,-0.21542 -0.92415,-0.41542 -0.62234,-0.58107 -0.62235,-0.58107 -0.37173,-0.71446 -0.37174,-0.71447 v -1.29657 -1.29657 l 0.30205,-0.89938 0.30205,-0.89938 0.42556,-0.50039 0.42555,-0.50039 1.05833,-0.48598 1.05834,-0.48599 1.06008,-0.006 1.06008,-0.006 0.90438,0.25937 0.90437,0.25937 0.7692,0.73282 0.76919,0.73281 0.3752,0.89221 0.37521,0.89221 v 1.16885 1.16885 l -0.5344,1.0475 -0.53439,1.0475 -1.06903,0.70745 -1.06904,0.70745 -1.37313,0.0909 -1.37314,0.0909 z m 3.63613,-2.94147 0.59531,-0.64997 v -1.13486 -1.13487 l -0.55694,-0.50402 -0.55695,-0.50403 h -1.18575 -1.18576 l -0.63855,0.74236 -0.63855,0.74235 v 0.86072 0.86072 l 0.33073,0.43602 0.33073,0.43601 0.78354,0.39931 0.78353,0.3993 0.67168,-0.14953 0.67167,-0.14954 z m 35.16444,1.27693 -0.43788,-0.48385 v -0.28121 -0.28122 l 0.66146,-0.16601 0.66146,-0.16602 v -0.2904 -0.2904 l -0.59531,0.18451 -0.59532,0.18451 -0.56942,0.13683 -0.56941,0.13682 -0.53701,-0.537 -0.53701,-0.53701 0.18039,-0.62796 0.18038,-0.62796 0.58379,-0.73405 0.5838,-0.73405 0.66466,0.48406 0.66466,0.48406 0.008,0.20499 0.008,0.20498 -0.69815,0.26544 -0.69815,0.26544 0.13622,0.13623 0.13623,0.13623 0.9424,-0.4494 0.94239,-0.44939 0.67786,0.44415 0.67787,0.44415 v 0.86804 0.86804 l -0.87249,0.84566 -0.8725,0.84565 h -0.14483 -0.14483 z m -21.47871,-5.87288 -0.76691,-0.80048 0.043,-1.07827 0.043,-1.07827 0.42367,-0.6466 0.42366,-0.64659 0.66485,-0.25278 0.66484,-0.25277 h 0.75623 0.75622 l 0.80506,0.67741 0.80505,0.6774 0.16642,0.88709 0.16642,0.88709 -0.17795,0.56067 -0.17795,0.56068 -0.65296,0.65295 -0.65295,0.65296 h -1.26139 -1.26139 z m 3.42364,-0.2875 0.71043,-0.55882 -0.0794,-1.21392 -0.0794,-1.21392 -0.86508,-0.5036 -0.86508,-0.5036 -0.66301,0.16641 -0.663,0.1664 -0.52244,0.52244 -0.52243,0.52243 v 1.01733 1.01732 l 0.46302,0.40336 0.46302,0.40336 0.39687,0.14593 0.39688,0.14593 0.55963,0.0209 0.55963,0.0209 z m -2.48995,-1.62399 0.001,-1.65365 0.90229,-0.0458 0.9023,-0.0458 0.42581,0.47053 0.42582,0.47052 -0.16698,0.43514 -0.16698,0.43514 h -0.24558 -0.24559 l 0.28613,0.53463 0.28613,0.53464 -0.16014,0.25911 -0.16014,0.25912 h -0.2575 -0.25749 l -0.2166,-0.58551 -0.21659,-0.58551 -0.31336,0.58551 -0.31335,0.58551 h -0.25528 -0.25527 z m 1.58631,-0.74322 v -0.24897 h -0.39688 -0.39687 v 0.22049 0.22048 l 0.16919,0.1692 0.1692,0.1692 0.22768,-0.14072 0.22768,-0.14071 z m -38.22755,-0.50869 -1.02869,-1.05348 0.14886,-0.14886 0.14886,-0.14886 2.03053,0.0779 2.03054,0.0778 -1.08193,1.12448 -1.08193,1.12448 h -0.0688 -0.0688 z m 12.21441,0.0446 -0.98512,-1.00886 0.18177,-0.18177 0.18177,-0.18177 h 1.76389 1.76388 l 0.18178,0.18177 0.18177,0.18177 -0.98512,1.00886 -0.98512,1.00885 h -0.15719 -0.15719 z m -26.90353,-0.44636 v -1.19062 l 0.59531,-0.004 0.59532,-0.004 0.59531,-0.15953 0.59531,-0.15954 -0.001,0.36159 -0.001,0.36158 -0.91129,0.99219 -0.91129,0.99219 h -0.27807 -0.27807 z m 43.2153,-31.48501 -0.48509,-0.66106 -1.42009,-0.36656 -1.42009,-0.36657 -0.95931,-0.95932 -0.95932,-0.95931 -0.0814,-2.04796 -0.0815,-2.04796 0.53303,-0.85052 0.53304,-0.85052 1.00177,-0.63164 1.00178,-0.63165 0.89808,-0.13126 0.89808,-0.13126 1.09156,0.23281 1.09157,0.23281 0.88597,0.82801 0.88597,0.82801 0.36553,0.87484 0.36553,0.87484 v 1.1819 1.18189 l -0.26856,0.70637 -0.26856,0.70637 -0.624,-0.15661 -0.624,-0.15662 -2.27671,-1.06169 -2.27672,-1.0617 h -0.13802 -0.13801 v 0.38212 0.38212 l 0.6384,0.74236 0.63841,0.74236 1.6694,0.0443 1.66941,0.0443 0.0882,0.2647 0.0882,0.2647 -0.81235,1.60926 -0.81235,1.60927 h -0.10642 -0.10641 z m 1.61091,-6.81241 -0.18863,-0.59429 -0.42452,-0.32985 -0.42452,-0.32985 -0.57438,-0.15762 -0.57439,-0.15762 -0.48394,0.0932 -0.48395,0.0932 v 0.37192 0.37192 l 1.16609,0.61664 1.16609,0.61665 h 0.50539 0.50538 z m -83.190792,5.99491 v -1.21398 l -0.827415,-1.76259 -0.827416,-1.76258 -0.885696,-1.91823 -0.885696,-1.91823 -0.205118,-10e-4 -0.205117,-0.001 -0.786864,-0.62957 -0.786864,-0.62958 2.302826,-1.0889 2.302827,-1.0889 h 0.137683 0.137683 v 1.33605 1.33606 l 0.434865,0.84093 0.434865,0.84094 0.189931,-0.52335 0.189931,-0.52334 0.188561,-1.27941 0.188561,-1.27941 -0.456903,-0.3341 -0.456904,-0.3341 0.206584,-0.33426 0.206585,-0.33426 1.459648,-0.64552 1.459647,-0.64553 0.310203,0.11904 0.310203,0.11903 -0.341919,2.34151 -0.341919,2.34151 -0.154723,0.70446 -0.154724,0.70445 1.140317,0.76768 1.140316,0.76768 2.645834,1.54195 2.645833,1.54196 1.256771,0.78426 1.25677,0.78426 v 0.1921 0.19211 l -2.178995,0.94803 -2.178996,0.94804 -0.223692,-0.13825 -0.223693,-0.13825 0.152956,-0.60943 0.152957,-0.60943 -2.446623,-1.51577 -2.446622,-1.51578 -1.016464,-0.64388 -1.016465,-0.64387 -0.07754,0.086 -0.07754,0.086 0.635927,1.33493 0.635927,1.33494 0.788807,0.46596 0.788808,0.46596 v 0.24161 0.24162 l -2.021637,0.93405 -2.021637,0.93405 H 69.26652 69.039198 Z m 70.643752,-0.57789 v -0.52634 l 0.62869,-1.68515 0.62869,-1.68515 0.97437,-2.89754 0.97438,-2.89753 -0.56926,-0.4294 -0.56927,-0.4294 0.62013,-0.40632 0.62012,-0.40632 1.64582,-0.83081 1.64582,-0.8308 h 0.29539 0.29538 l -0.17429,1.03162 -0.17429,1.03163 0.94478,0.31181 0.94479,0.31181 v 0.22248 0.22249 l -0.89113,0.55074 -0.89112,0.55075 h -0.52912 -0.52911 l -0.9524,2.71198 -0.95241,2.71198 -0.16958,0.7276 -0.16958,0.72761 h 0.40994 0.40995 l 0.16811,0.27201 0.16811,0.27201 -1.70208,0.77177 -1.70209,0.77176 -0.69937,0.17553 -0.69937,0.17553 z m -7.8756,-2.37283 0.11795,-0.99464 0.60474,-3.88459 0.60474,-3.88458 -0.17054,-0.67948 -0.17054,-0.67948 h -0.6408 -0.6408 l -0.14681,0.23754 -0.14681,0.23754 -0.29947,2.07757 -0.29947,2.07756 0.009,0.26458 0.009,0.26459 0.34322,0.8498 0.34322,0.84979 -0.12034,0.1083 -0.12034,0.1083 -2.22783,-0.29664 -2.22782,-0.29664 -0.0982,-0.29742 -0.0982,-0.29742 0.68182,-0.8103 0.68182,-0.81029 0.37784,-2.14905 0.37784,-2.14905 0.16684,-1.90261 0.16684,-1.90261 -0.29692,-0.76429 -0.29691,-0.7643 0.12771,-0.12771 0.1277,-0.1277 1.76343,0.18885 1.76344,0.18884 -0.14707,1.10003 -0.14707,1.10003 -0.18251,0.60484 -0.18252,0.60483 0.67456,-0.30735 0.67456,-0.30735 0.88014,0.1713 0.88014,0.17129 0.63046,0.48491 0.63045,0.48491 0.12502,1.30108 0.12501,1.30109 -0.42474,2.67159 -0.42474,2.67159 v 0.56374 0.56374 h 0.26459 0.26458 v -0.40956 -0.40957 l 0.67824,-0.5834 0.67825,-0.5834 0.63218,-2.36849 0.63219,-2.3685 -0.15577,-1.13646 -0.15577,-1.13645 h 0.44797 0.44797 l 1.17999,0.29713 1.17999,0.29712 0.14158,0.22908 0.14158,0.22908 -0.57269,2.18578 -0.57269,2.18577 -0.37143,1.14639 -0.37144,1.14638 0.28627,1.06314 0.28628,1.06313 -0.13007,0.13006 -0.13006,0.13006 -1.54097,-0.43633 -1.54098,-0.43633 -0.49615,-0.14566 -0.49615,-0.14566 0.17737,0.287 0.17738,0.28701 -1.79789,1.14714 -1.79789,1.14715 -0.49104,0.18415 -0.49105,0.18414 z m -52.562792,-1.45766 0.193239,-0.8599 0.004,-0.26458 0.004,-0.26459 -0.745501,-2.24895 -0.7455,-2.24896 -0.922312,-0.87644 -0.922312,-0.87643 0.234814,-0.21288 0.234814,-0.21288 1.303903,-0.43204 1.303904,-0.43204 h 0.324719 0.32472 l 0.809915,2.23831 0.809914,2.23831 0.420354,1.28515 0.420354,1.28516 0.793385,0.46866 0.793384,0.46867 -0.09359,0.28076 -0.09359,0.28076 -1.838898,0.60952 -1.838897,0.60952 -0.484043,0.0124 -0.484044,0.0124 z m 5.023017,-0.52917 -0.100849,-0.33073 -0.676401,-3.04271 -0.676401,-3.04271 -0.303198,-1.63328 -0.303198,-1.63329 -0.763332,-0.73132 -0.763332,-0.73132 v -0.31122 -0.31122 l 1.574335,-0.33409 1.574334,-0.3341 0.391518,0.15024 0.391517,0.15024 0.181345,1.20929 0.181344,1.20929 0.194921,0.12047 0.19492,0.12047 1.031321,-0.53807 1.03132,-0.53807 1.400035,0.1063 1.400035,0.10629 0.716632,0.53082 0.716631,0.53081 0.57088,0.83844 0.570879,0.83844 0.176607,1.28409 0.176606,1.28408 -0.277905,1.02815 -0.277906,1.02815 -0.419496,0.59682 -0.419496,0.59683 -0.843834,0.44468 -0.843835,0.44469 -2.029105,0.0168 -2.029106,0.0168 -0.63378,0.59532 -0.63378,0.59531 h -0.189689 -0.189689 z m 5.60756,-4.07589 0.595312,-0.64997 v -1.00257 -1.00258 l -0.463505,-0.41946 -0.463505,-0.41947 -0.660974,-0.24218 -0.660974,-0.24218 -0.856567,0.23047 -0.856567,0.23046 -0.400204,0.77391 -0.400203,0.77391 v 0.52986 0.52985 l 0.30883,0.67781 0.30883,0.67781 0.815649,0.23028 0.815649,0.23027 0.661458,-0.12813 0.661459,-0.12812 z m 3.673633,-0.95119 -0.445721,-3.50573 -0.227426,-1.63923 -0.227425,-1.63924 -0.559707,-0.71155 -0.559708,-0.71155 v -0.34014 -0.34013 l 1.731781,-0.18546 1.731786,-0.18546 0.13654,0.13655 0.13654,0.13654 0.15307,1.48306 0.15306,1.48307 0.16143,-0.008 0.16142,-0.008 0.48742,-0.36933 0.48743,-0.36933 1.00413,-0.16964 1.00413,-0.16965 1.06068,0.28561 1.060692,0.28561 0.94143,0.96926 0.94144,0.96925 0.27575,1.28582 0.27576,1.28582 -0.27361,1.22092 -0.27361,1.22092 -0.51405,0.72192 -0.51405,0.72191 -0.97801,0.46409 -0.978012,0.4641 -2.01079,-0.13782 -2.0108,-0.13782 -0.61759,0.50009 -0.61759,0.5001 h -0.32533 -0.32533 z m 6.499662,-0.4753 0.80602,-0.80602 -0.15598,-0.97992 -0.15599,-0.97991 -0.685142,-0.59531 -0.68515,-0.59531 h -0.87265 -0.87265 l -0.7001,0.64882 -0.70009,0.64883 v 1.08299 1.08299 l 0.64943,0.64943 0.64943,0.64944 h 0.95842 0.95842 z m 23.08066,3.38956 -0.18779,-0.59916 -0.62501,-1.37211 -0.62501,-1.37211 v -0.28153 -0.28154 l -0.19844,0.0112 -0.19843,0.0112 -1.1844,1.84085 -1.18439,1.84084 h -0.18265 -0.18264 l -0.53045,-1.78594 -0.53045,-1.78594 -0.31171,-1.38906 -0.31172,-1.38906 h -0.19237 -0.19237 l 0.11605,0.7907 0.11605,0.7907 -0.42645,0.16365 -0.42646,0.16364 v 2.08836 2.08836 h -0.51355 -0.51356 l -0.17505,-0.28325 -0.17506,-0.28325 -1.09733,0.18861 -1.09733,0.18861 -1.02715,-0.0371 -1.02716,-0.0371 -1.08951,-0.59585 -1.08951,-0.59585 -0.61261,-1.19062 -0.6126,-1.19063 0.1017,-1.34677 0.1017,-1.34677 0.52624,-1.03448 0.52623,-1.03448 1.16521,-0.59531 1.16521,-0.59531 h 1.27536 1.27535 l 0.98369,0.40199 0.98369,0.40199 0.62544,0.72249 0.62544,0.72249 -0.19181,-0.52917 -0.19182,-0.52917 -0.0367,-0.39687 -0.0367,-0.39688 1.85209,0.0979 1.85208,0.0979 0.61731,0.2346 0.6173,0.23459 -0.69754,0.82898 -0.69754,0.82899 0.14638,0.38146 0.14638,0.38147 v 0.24295 0.24294 h 0.22713 0.22712 l 0.97911,-1.47465 0.97911,-1.47465 0.38127,0.31642 0.38127,0.31642 0.003,0.29834 0.003,0.29833 0.60488,1.30763 0.60489,1.30763 0.35479,-0.85653 0.35478,-0.85653 -0.30162,-0.66199 -0.30162,-0.66199 v -0.37781 -0.37781 l 0.72761,0.11588 0.7276,0.11587 1.52136,0.16114 1.52135,0.16113 v 0.27349 0.2735 l -0.68193,0.81042 -0.68193,0.81043 -1.69073,3.37403 -1.69073,3.37403 -0.25412,0.15706 -0.25413,0.15706 z m -8.84614,-3.90645 1.19062,-0.79148 -2.57968,-0.001 -2.57969,-0.001 v 0.24538 0.24538 l 0.69714,0.54837 0.69714,0.54837 0.69192,-0.001 0.69192,-10e-4 z m -0.79375,-3.16 v -0.24958 l -0.58804,-0.41188 -0.58804,-0.41187 h -0.676 -0.67601 l -0.58804,0.41187 -0.58804,0.41188 v 0.24958 0.24958 h 1.85209 1.85208 z m 2.82222,-0.72056 -0.17639,-0.17638 v 0.35277 0.35278 l 0.17639,-0.17639 0.17639,-0.17639 z m -13.67014,7.20298 v -0.11717 l 0.56246,-0.9533 0.56246,-0.9533 -0.1937,-4.01677 -0.19369,-4.01677 -0.50106,-0.63699 -0.50105,-0.63698 v -0.33037 -0.33037 l 1.78594,-0.12286 1.78593,-0.12286 0.0525,0.0343 0.0525,0.0343 0.17543,4.88634 0.17543,4.88634 0.68163,1.012 0.68163,1.01199 -0.38044,0.24073 -0.38044,0.24072 -2.18281,0.004 -2.18281,0.004 z m 49.48297,-2.60655 0.006,-0.58358 0.46893,-0.60943 0.46892,-0.60943 0.66055,0.25114 0.66054,0.25114 0.34965,0.4213 0.34966,0.42131 -0.36053,0.13101 -0.36053,0.13101 -1.12448,0.38955 -1.12447,0.38955 z m -75.478281,-3.6443 -0.992188,-0.5238 v -0.36929 -0.36929 l 1.389063,-0.45667 1.389062,-0.45668 0.330729,-0.12206 0.330729,-0.12206 v 0.35019 0.35019 l -0.43282,1.13333 -0.432821,1.13332 -0.294783,-0.0117 -0.294784,-0.0117 z m 62.760721,-1.50334 -0.38256,-0.99219 -0.10121,-0.23354 -0.10122,-0.23354 1.25885,0.18878 1.25886,0.18877 0.62698,0.28568 0.62698,0.28567 v 0.226 0.226 l -0.8599,0.52429 -0.8599,0.52429 -0.54216,9.9e-4 -0.54216,9.9e-4 z m -28.30599,-3.54355 -0.91879,-1.10098 -0.0934,-0.23996 -0.0934,-0.23996 1.28402,0.0818 1.28402,0.0817 v 1.16858 1.16857 l -0.27183,0.0906 -0.27182,0.0906 z"
         id="path86" /><path
         style="display:inline;fill:#ef2929"
         d="m 103.25661,120.72411 -3.457148,0.31574 -3.45767,0.31575 -3.88039,0.39429 -3.88038,0.39429 -1.41128,0.24236 -1.41129,0.24236 -2.24896,0.40153 -2.24895,0.40101 -2.51355,0.56482 -2.51354,0.56483 -3.30729,0.91777 -3.30729,0.91829 -1.85208,0.62683 -1.85209,0.62736 -2.51354,0.90433 -2.51354,0.90382 -1.719792,0.72761 -1.719792,0.7276 -3.482474,1.6769 -3.482475,1.67742 -3.442167,2.11512 -3.442167,2.11511 -2.173511,1.61179 -2.174028,1.61179 -1.476912,1.24643 -1.477429,1.24696 -2.806547,2.77812 -2.807064,2.77813 -1.857768,2.51354 -1.858284,2.51354 -1.039213,1.85208 -1.039214,1.85209 -0.885734,1.98437 -0.885217,1.98438 -0.504879,1.71979 -0.504878,1.71979 -0.407211,1.85208 -0.40721,1.85209 -0.149862,3.07268 -0.150378,3.07216 0.325045,2.61638 0.325045,2.61586 0.537434,1.98437 0.537952,1.98438 0.738973,1.85208 0.73949,1.85209 0.908471,1.76113 0.908989,1.76165 1.403015,2.07481 1.403015,2.07532 1.790072,2.11667 1.790071,2.11667 1.013892,1.05833 1.014408,1.05833 1.984375,1.73943 1.984375,1.73943 1.719792,1.31568 1.719792,1.31517 1.528589,1.04644 1.528072,1.04594 0.623734,0.39687 0.623735,0.39688 2.345593,1.35392 2.34611,1.35444 2.910417,1.45521 2.910416,1.45521 3.263884,1.37821 3.26388,1.37821 4.27674,1.40819 4.27675,1.40766 4.36562,1.07746 4.36563,1.07745 2.24895,0.39429 2.24896,0.39429 1.45521,0.2682 1.45521,0.26769 3.43958,0.3917 3.43959,0.3912 1.85208,0.18138 1.85208,0.18087 3.968748,0.16226 3.96875,0.16175 2.24896,-0.0625 2.24896,-0.0631 3.96875,-0.10386 3.96875,-0.10439 4.49792,-0.43512 4.49791,-0.43511 2.38125,-0.36949 2.38125,-0.37 2.77813,-0.5395 2.77812,-0.53951 3.175,-0.78238 3.175,-0.78238 1.5875,-0.43873 1.5875,-0.43925 1.85209,-0.62219 1.85208,-0.6227 2.51354,-0.91932 2.51354,-0.91984 2.24896,-0.91778 2.24896,-0.91777 2.77812,-1.39165 2.77813,-1.39164 1.32292,-0.75241 1.32291,-0.75241 0.66146,-0.33176 0.66146,-0.33177 2.11667,-1.38286 2.11666,-1.38287 1.19063,-0.83819 1.19062,-0.83767 2.24896,-1.87017 2.24896,-1.87017 2.3859,-2.39572 2.38642,-2.39624 1.60403,-1.98437 1.60404,-1.98438 1.35961,-2.13113 1.36012,-2.13062 1.17357,-2.49959 1.17358,-2.49907 0.80615,-2.91042 0.80667,-2.91042 0.29714,-2.77812 0.29765,-2.77813 -0.17156,-2.77812 -0.17157,-2.77813 -0.65681,-2.61741 -0.65732,-2.61741 -0.94723,-2.40967 -0.94723,-2.40967 -0.79788,-1.45521 -0.7984,-1.45521 -0.9245,-1.45521 -0.92449,-1.45521 -1.65364,-2.11666 -1.65416,-2.11667 -2.21021,-2.22726 -2.21071,-2.22777 -2.64584,-2.22208 -2.64583,-2.22261 -2.91042,-1.942 -2.91041,-1.94251 -3.10937,-1.73271 -3.10989,-1.73272 -3.63699,-1.63349 -3.6375,-1.63349 -2.77813,-1.05523 -2.77812,-1.05523 -0.92605,-0.24495 -0.92604,-0.24546 -0.52916,-0.24185 -0.52917,-0.24184 -2.89595,-0.82683 -2.89594,-0.82682 -2.26343,-0.5178 -2.26343,-0.51728 -3.70417,-0.77101 -3.70416,-0.7705 -5.95313,-0.69763 -5.95312,-0.69763 -8.05171,-0.14625 z m 5.4498,1.59577 5.72368,0.30902 5.7242,0.30955 1.5875,0.24339 1.5875,0.24391 3.43958,0.42788 3.43958,0.4284 1.5875,0.35709 1.5875,0.3576 3.175,0.71107 3.175,0.71158 2.91042,0.92087 2.91042,0.92036 1.05833,0.35037 1.05833,0.34985 3.01119,1.21491 3.01118,1.21491 3.65249,1.83555 3.65249,1.83555 2.06758,1.2516 2.06757,1.25212 2.11667,1.45159 2.11667,1.45159 1.85208,1.45883 1.85208,1.45882 2.60811,2.53163 2.60863,2.53163 1.91616,2.38125 1.91668,2.38125 0.93483,1.32292 0.93534,1.32291 1.19528,2.51354 1.19475,2.51355 0.79892,2.64583 0.7984,2.64583 0.41807,2.2965 0.41754,2.2965 v 4.1243 4.1243 l -0.55397,2.57503 -0.55449,2.57504 -0.82165,2.11667 -0.82166,2.11666 -1.04386,1.98438 -1.04438,1.98437 -1.10691,1.71979 -1.10743,1.7198 -1.69757,2.11666 -1.69757,2.11667 -2.11718,2.11667 -2.1177,2.11666 -1.43506,1.19063 -1.43505,1.19062 -1.87224,1.4149 -1.87224,1.41439 -0.39687,0.15089 -0.39688,0.15038 -0.96376,0.74983 -0.96428,0.74982 h -0.42478 -0.4253 v 0.26097 0.26096 l -0.98237,0.41083 -0.98237,0.41031 -0.46044,0.41652 -0.45992,0.41651 -1.26917,0.67283 -1.26969,0.67334 -1.45521,0.71934 -1.45521,0.71985 -1.71979,0.79633 -1.71979,0.79582 -1.72031,0.6842 -1.72031,0.68368 -1.58698,0.55138 -1.58698,0.55191 -1.19063,0.36793 -1.19062,0.36794 -2.91042,0.82218 -2.91042,0.82217 -0.39687,0.10232 -0.39688,0.10232 -4.10104,0.82837 -4.10104,0.82837 -5.15938,0.65526 -5.15937,0.65526 -7.01146,0.10025 -7.01146,0.10025 -2.91041,-0.21962 -2.910418,-0.21911 -4.63021,-0.56276 -4.63021,-0.56224 -1.15341,-0.26768 -1.15342,-0.2682 -2.24896,-0.39222 -2.24896,-0.39223 -3.47679,-0.90485 -3.47679,-0.90486 -1.5875,-0.55397 -1.5875,-0.55449 -1.32292,-0.41548 -1.32291,-0.416 -2.63964,-1.05058 -2.63963,-1.0511 -3.974949,-2.00918 -3.974951,-2.00866 -0.661459,-0.44803 -0.661458,-0.44753 -2.116667,-1.3534 -2.116666,-1.35341 -0.264584,-0.2036 -0.264583,-0.20412 -2.634464,-1.98335 -2.634465,-1.98385 -3.19102,-3.175 -3.190503,-3.175 -2.181779,-2.91042 -2.181779,-2.91042 -1.297078,-2.64583 -1.297078,-2.64583 -0.802535,-2.38125 -0.803052,-2.38125 -0.467155,-2.11667 -0.467672,-2.11667 0.0072,-4.7625 0.0078,-4.7625 0.613916,-2.38125 0.613916,-2.38125 0.901754,-2.36574 0.901754,-2.36575 0.809253,-1.69654 0.809769,-1.69654 0.631486,-0.9648 0.63097,-0.96479 0.2682,-0.31936 0.268201,-0.31988 v -0.16072 -0.16123 l 0.722437,-0.97461 0.722436,-0.97462 1.909961,-2.2779 1.909444,-2.2779 2.196765,-1.9668 2.196249,-1.96681 1.434537,-1.17925 1.434538,-1.17926 2.137337,-1.53117 2.137338,-1.53169 0.727604,-0.31264 0.727604,-0.31213 v -0.2067 -0.20671 h 0.237712 0.237711 l 1.76165,-1.07022 1.762166,-1.07073 2.828768,-1.39113 2.829285,-1.39113 2.91042,-1.2175 2.91041,-1.21698 2.88613,-0.97513 2.88561,-0.97514 3.3321,-0.91364 3.33158,-0.91312 3.96875,-0.7705 3.96875,-0.77049 4.10104,-0.5333 4.10104,-0.5333 5.520594,-0.30696 z"
         id="path128" /></g></g></svg>
