<?xml version="1.0" encoding="utf-8"?>
<!-- Generator: Adobe Illustrator 19.2.1, SVG Export Plug-In . SVG Version: 6.00 Build 0)  -->
<svg version="1.1" id="layer" xmlns="http://www.w3.org/2000/svg" xmlns:xlink="http://www.w3.org/1999/xlink" x="0px" y="0px"
	 viewBox="0 0 652 652" style="enable-background:new 0 0 652 652;" xml:space="preserve">
<style type="text/css">
	.st0{filter:url(#Adobe_OpacityMaskFilter);}
	.st1{fill:#FFFFFF;}
	.st2{mask:url(#mask-2_1_);fill:#FFFFFF;}
	.st3{fill:#1A1918;}
	.st4{fill:#BD252B;}
	.st5{fill:none;stroke:#FFFFFF;stroke-width:1.3604;}
	.st6{fill:#0A0A08;}
	.st7{fill:none;stroke:#0A0A08;stroke-width:0.8942;}
	.st8{fill:none;stroke:#1A1918;stroke-width:0.8942;}
</style>
<g id="Page-1">
	<g id="klock" transform="translate(-142.000000, -975.000000)">
		<g id="who-we-are" transform="translate(0.000000, 930.000000)">
			<g id="full-logo" transform="translate(142.000000, 45.000000)">
				<g id="Group-3">
					<g id="Clip-2">
					</g>
					<defs>
						<filter id="Adobe_OpacityMaskFilter" filterUnits="userSpaceOnUse" x="126.5" y="72.2" width="387.8" height="500">
							<feColorMatrix  type="matrix" values="1 0 0 0 0  0 1 0 0 0  0 0 1 0 0  0 0 0 1 0"/>
						</filter>
					</defs>
					<mask maskUnits="userSpaceOnUse" x="126.5" y="72.2" width="387.8" height="500" id="mask-2_1_">
						<g class="st0">
							<path id="path-1_1_" class="st1" d="M126.6,72.2h387.8v500H126.6"/>
						</g>
					</mask>
					<path id="Fill-1" class="st2" d="M437,279.2c-24.5-23.6-49.3-50.8-70.2-77.7c-21.5-27.1-35-59.7-39.2-94.2
						c-0.2-1.3-2.1-17.3-4-32c-0.2-1.9-1.9-3.3-3.7-3.1c-1.7,0.2-2.8,1.5-3,3.2c-1.5,15.5-2.8,30.3-2.8,30.3
						c-3,31.5-14.7,61.5-33.5,86.9c-22.2,30.6-48.8,60.1-76.1,86.2l-26.1-36.5l-7.3,6.6l-44.4,62.2l20.9,30.4
						c-12.9,21.4-20.5,38.1-20.5,62c-0.2,55.9,44.7,101.6,100.4,101.8c24.7,0.2,49.1-5.6,71.3-16.4c-11.1,34.4-26.8,56.3-51.7,83.3
						h147.7c-24.7-26.9-40.7-48.7-51.7-83.3c22,10.9,46.3,16.6,71.1,16.4c55.7-0.2,100.6-45.8,100.4-101.8
						c0-24.1-9.5-47.1-24.3-66.7l20.9-30.2l-45.5-64.3l-7.1,6L437,279.2"/>
				</g>
				<path id="Fill-4" class="st3" d="M150.7,345.8l21,30l6.5-6.3l31.4-45.5l34.9,49.7l5.8-6l30.8-43.8l34.9,49.8l5.8-6l31.3-44.4
					l35.3,50.3l5.8-6l31-44.1l35.2,50.1l7.4-5.2l19.1-28l1-1.2c5.4,7,8.3,13.9,11.7,20.7c6.5,13,10.2,27.7,10.2,43.3
					c0,53.2-42.6,96.3-95.1,96.3c-28.1,0-60.1-8.5-80.5-22.3c8.4,34,25.1,64.6,48,89.4l-122-0.1c22.9-24.8,39.6-55.4,48-89.3
					c-20.4,13.8-52.6,22.3-80.7,22.3c-52.4,0-95.1-43.1-95.1-96.3c0-15.6,3.7-30.3,10.2-43.3"/>
				<path id="Fill-5" class="st4" d="M392.7,366.7l-4.2,4.3L353,320.2l-32.6,46.5l-4.2,4.3l-35.1-50.1l-32.2,45.9l-4.2,4.3
					l-35.1-50.1l-32.1,45.8l-4.2,4.3L131.2,311l42.1-60l4.2-4.3l35.1,50.1l32.1-45.8l4.2-4.3l35.2,50.1l32.1-45.9l4.2-4.3l35.6,50.7
					l32.5-46.4l4.2-4.3l35.3,50.4l32.4-46.1l4.2-4.3l42.1,60l-41.4,60l-4.8,4.2l-35.4-50.4L392.7,366.7"/>
				<path id="Stroke-6" class="st5" d="M392.7,366.7l-4.2,4.3L353,320.2l-32.6,46.5l-4.2,4.3l-35.1-50.1l-32.2,45.9l-4.2,4.3
					l-35.1-50.1l-32.1,45.8l-4.2,4.3L131.2,311l42.1-60l4.2-4.3l35.1,50.1l32.1-45.8l4.2-4.3l35.2,50.1l32.1-45.9l4.2-4.3l35.6,50.7
					l32.5-46.4l4.2-4.3l35.3,50.4l32.4-46.1l4.2-4.3l42.1,60l-41.4,60l-4.8,4.2l-35.4-50.4L392.7,366.7L392.7,366.7z"/>
				<path id="Fill-8" class="st1" d="M246.2,432.6c11-10.8,22.9-26.8,35.9-52.6c0.1-0.2,0.9-1.8,1.4-3.1c0.3-0.8,0.4-1.7,0.4-2v-0.9
					l-0.3-0.2c-0.3-0.7-1.2-2-2.9-2h-0.2l-0.2,0.1c-1.3,0.2-2,1.1-2,1.2c-0.5,0.5-1.1,1.5-2.1,3.1c-11,18.6-23.3,35.9-32.3,46
					c1.7-5.2,2.9-10.3,3.8-15.6l1.9-9.8l-6.9,6.9c-6.2,6.1-16.5,14.1-25.2,19.6c7.5-12.6,15.7-28.2,18.3-36.8l1.5-5.3l-3.2-2
					l-3.6,4.4c-5.9,7.4-16,13.7-28.2,16c-0.3,0.1-0.6,0.2-1,0.2c-1.2,0.2-2.3,0.5-3.4,0.6L192,401l0.8,5.4l5.4,0.1h1.4
					c0.7,0,1.4,0,2.2-0.1c2.7-0.1,5.4-0.6,8-1.1c3-0.6,6-1.5,8.9-2.5c-12.2,21.1-18.1,30.5-22.9,36.3l-0.7,1l0.5,1.1l0.6,1.8
					l0.4,1.1l1.2,0.2c0.2,0,0.4,0.1,0.6,0.1c0.1,0,0.2-0.1,0.3-0.1h0.2l0.3-0.1h0.1c0.1,0,0.2-0.1,0.4-0.1l0.2-0.1l0.2-0.1
					c0.3-0.2,0.7-0.3,1.4-0.7c1.4-0.6,3-1.5,5.1-2.5c0.5-0.2,0.9-0.5,1.5-0.7c1.9-1,4-2.2,6.3-3.5c2.8-1.6,5.7-3.6,8.9-5.8
					c0.5-0.3,0.8-0.5,1.3-0.9c2.8-1.8,5.7-4,8.7-6.2c-1.9,5.2-5.2,11.6-12,20.3l-3.5,4.4l2.8,3.1l4.6-2.7c5-3,10.3-6.5,15.7-11.2
					l2.6,1c1.4,0.5,3.2,1,5.7,1c0.3,0,0.8-0.1,1.2-0.1c1.4-0.1,3-0.3,4.8-0.7c1.9,3.8,6,5.5,10.4,5.5h1c4.3-0.2,9.5-1.9,15-5
					c7.5-4.2,15.1-10.6,20.6-17.3l0.2-0.1c2.3-0.2,5-0.7,7.7-1.4c-3.7,3.8-6.5,6.8-7.7,9.3c-0.5,1-0.6,1.9-0.7,2.8l-0.1,0.2l0.1,0.3
					c0.2,1.9,1.2,3.4,2.5,4.6l0.2,0.5l1,0.3c1.5,0.5,2.9,0.9,4.6,0.9c0.2,0,0.5-0.1,0.8-0.1c6.5-0.5,13.7-6,20.4-11.6
					c0.4,4.8,4.3,7.9,9.8,8.8c1.4,0.3,2.9,0.5,4.5,0.5c0.8,0,1.6-0.1,2.4-0.1l0.4-0.1h0.2l0.2-0.1c9.1-1.9,12.3-3.3,16.3-5.4
					c0.3,0.1,0.7,0.2,1,0.3c7.3,2.3,14,3.4,19.7,3.4c0.7,0,1.4,0,2.1-0.1c2.1-0.1,4-0.4,5.6-0.9c3.6-1,6.6-2.9,8.1-6
					c21.8-2.9,39-7.6,46.7-13.4c2.6-2,4.5-4.5,4.6-7.4l0.1-6.7l-4,5.4c-4.1,5.6-21.5,11.4-47.1,14.7c-0.7-2.8-2.4-5.6-5.2-8
					c-6.2-5.3-10.5-10.9-12.5-16.4l-0.7-2c-0.5-1.1-1.4-1.6-2.4-1.6c-1.1,0-2.3,0.8-2.4,2.2l-0.3,2.2c-1.5,13-8.6,21-15.9,25.6
					c-1.3,0.9-2.7,1.6-4.2,2.3c-4.7,2.2-9.3,3.1-12.3,3.3h-0.9c-0.8,0-1.4-0.1-1.7-0.1c-2.8-0.6-3-1.6-3.1-2.5v-0.3
					c0-0.5,0.1-0.9,0.2-1.2c0.2-0.6,0.7-1.3,1.1-1.9c1.4-0.3,3.3-0.7,5-1.3c2.3-0.7,4.5-1.7,6.4-2.7c7.2-3.7,12.8-8.9,12.8-13.3
					v-0.2c-0.2-2.7-2.2-4.1-4.1-4.5c-0.5-0.1-1-0.1-1.6-0.1h-0.2c-1.1,0-2.4,0.3-3.7,0.8c3.2-4.5,5.4-8.3,6.9-11.5
					c1-2.3,1.7-4.1,2.3-5.4c0.2-0.5,0.3-0.9,0.5-1.2l0.1-0.2l0.1-0.2c0.1-0.5,0.2-1.1,0.3-1.6l0.2-0.2v-0.9c0-0.2,0-0.7-0.3-1.4
					l-0.6-1.2l-1.3,0.1l-1.6,0.1l-1.2,0.1l-0.6,1.1c-5.6,10.9-12.3,20.1-20.5,29.4c-0.2,0.2-0.3,0.4-0.4,0.5
					c-0.2,0.2-0.4,0.5-0.5,0.5l-2.4,2.7c-11.6,13.1-21.5,20-25.4,20h-0.2c1-1.8,3.3-4.4,6.6-7.7c0.3-0.3,0.6-0.7,0.9-1
					c3.6-3.7,8.1-8.3,10-13l4.1-9.9l-8.7,6.2c-4.2,3.1-11.9,6-17.3,7.4c0.3-0.9,0.5-1.7,0.8-2.6l1.6-5.6L305,404l-2.8,4.4
					c-5.2,8.2-13.6,17.5-21.8,22.5c-5.7,3.6-10.6,5.4-14,5.6c-0.2,0.1-0.5,0.1-0.7,0.1c-1.3,0-2.3-0.2-2.9-0.7
					c10.4-4.6,19.3-9.9,23.2-15c1.3-1.6,2.5-3.6,2.5-6c0-0.3,0-0.5-0.1-0.8l-0.1-0.5c-0.5-3.8-3.8-6.2-7.8-6.2
					c-0.3,0-0.6,0.1-0.8,0.1c-2.3,0.2-4.6,0.9-7.3,2.3c-5.9,3-17.3,11.6-19,21.4C251.3,432,248.9,432.4,246.2,432.6"/>
				<path id="Fill-9" class="st3" d="M435.3,283.8l-7.1,10.1l-35.1-50.1l-5.8,6l-31.2,44.4l-35.4-50.4l-5.8,6l-30.8,43.9l-34.9-49.8
					l-5.9,6l-30.7,43.8l-6.4-9.2c51.4-51.3,112.2-111.6,114.2-185.9c0-0.7,1.1-0.7,1.1,0C323.7,172.6,384.1,232.7,435.3,283.8"/>
				<path id="Fill-10" class="st1" d="M481.2,364.8c5.3,11.5,8.6,27.6,8,41.4c-1.9,41.5-32.8,63.4-73.4,67.6
					c-9.8-0.4-13.4,12.5-1.1,14.2c48.5,0,88.2-35.7,88.6-84.9c0.2-14.5-3.2-28.1-9.1-40.1c-2.8-5.7-1.8-4.1-5.7-10.4l-4.2-6.3
					l-7.1,10.2"/>
				<path id="Stroke-11" class="st5" d="M431.5,312.9l4.6-6.5l-4.6-6.5l32.9-46.8l37.3,53.3l-37.3,53.3L431.5,312.9L431.5,312.9z"/>
				<path id="Fill-12" class="st1" d="M390,245.4c-28.4-31.5-54.6-66.8-66.2-106.7c9.4,45.6,34,81.7,60.8,112.7l1.7-2.4L390,245.4"
					/>
				<path id="Stroke-13" class="st5" d="M353.2,300.7l-4.3,6.2l4.4,6.2l-33,47l-32.5-46.4l4.8-6.8l-4.8-6.8l32.5-46.4L353.2,300.7
					L353.2,300.7z"/>
				<path id="Fill-14" class="st1" d="M328.7,496.1c0.9,25.7,4.6,40.4,14.6,60.7h16.9C345.6,537.2,335.3,520.5,328.7,496.1"/>
				<path id="Fill-15" class="st1" d="M160.9,333.2h11.7v-16.1l2-4l6.5,20.1h11.6l-11.4-31.5l10.7-21.7h-11.7l-7.7,18.1v-18.1H161
					L160.9,333.2"/>
				<path id="Fill-16" class="st1" d="M448.7,333.2h11.7v-16.1l2-4l6.5,20.1h11.6l-11.4-31.5l10.7-21.7h-11.7l-7.6,18.1v-18.1h-11.7
					L448.7,333.2"/>
				<path id="Fill-17" class="st1" d="M395.9,311.2l-0.1,9.2c0,4-1.5,4.9-3.3,4.9c-1.7,0-3.2-0.9-3.2-4.9v-28c0-3.2,1.4-4.3,3.2-4.3
					c1.8,0,3.3,1.2,3.3,4.2v6.6h11.8v-6.2c0-8.2-4.9-13.6-15.1-13.6c-4.9,0-8.2,1.3-10.4,2.9c-2.9,2.3-4.5,5.1-4.5,9.9l-0.1,29.6
					c0,7.5,4.6,12.9,14.7,12.9c10.5,0,15.2-5.6,15.2-12.9l0.1-10.4H395.9"/>
				<path id="Fill-18" class="st1" d="M305.7,321.5c0,7.4,4.8,12.9,14.6,12.9c10.7,0,15.2-5.6,15.2-12.9l0.1-28.9
					c0-6.6-2.8-10.4-7.7-12.4c-1.6-0.6-4.2-1.2-7.6-1.2c-4.6,0-7.9,1.2-10.1,3c-2.9,2.3-4.5,5.2-4.5,9.9L305.7,321.5"/>
				<path id="Fill-19" class="st1" d="M237.4,333.2h25.3v-9.9h-13.6v-43.2h-11.7L237.4,333.2"/>
				<path id="Fill-20" class="st1" d="M411.9,268.6l16.3,23.4l2.8-4C424.8,281.7,418.3,275.2,411.9,268.6"/>
				<path id="Fill-21" class="st3" d="M392.3,422c-5.4,0.5-11.1,0.9-16.9,1.3c3.3-3.7,5.9-8.1,7.6-12.5c1.2,1.5,2.6,2.8,3.7,4
					c0.2,0.2,0.3,0.3,0.5,0.5c0.4,0.4,0.7,0.8,1.2,1.2c1.6,1.6,2.8,2.8,3.4,4.1C392.1,420.9,392.2,421.5,392.3,422"/>
				<path id="Fill-22" class="st6" d="M376.7,428.4c3.6,0.7,6.4,0.8,8.6,0.7c0.8-0.1,1.5-0.2,2-0.2c1.8-0.3,3.2-0.9,4.4-1.7
					C386.9,427.7,381.9,428.1,376.7,428.4"/>
				<path id="Stroke-23" class="st7" d="M376.7,428.4c3.6,0.7,6.4,0.8,8.6,0.7c0.8-0.1,1.5-0.2,2-0.2c1.8-0.3,3.2-0.9,4.4-1.7
					C386.9,427.7,381.9,428.1,376.7,428.4L376.7,428.4z"/>
				<path id="Fill-24" class="st3" d="M280.5,414.6c-1.4,2.3-6.4,6.6-15.3,11.4c2.7-3.4,6.4-6.8,10.1-9.3c1.5-1,3.5-1.9,4.2-2
					C279.9,414.6,280.3,414.6,280.5,414.6"/>
				<path id="Stroke-25" class="st8" d="M280.5,414.6c-1.4,2.3-6.4,6.6-15.3,11.4c2.7-3.4,6.4-6.8,10.1-9.3c1.5-1,3.5-1.9,4.2-2
					C279.9,414.6,280.3,414.6,280.5,414.6L280.5,414.6z"/>
				<path id="Fill-26" class="st3" d="M345.1,413.3c0.3,0.3,0.6,0.5,1,0.6c0.3,0.3,0.7,0.6,1,0.8c1.3-0.6,2.7-1.4,4.1-2.3
					c4.7-2.9,7.2-5.5,7.3-6.5h-0.2c-1.5,0.1-4.9,1.8-8.9,4.3C347.8,411.2,346.3,412.3,345.1,413.3"/>
				<path id="Stroke-27" class="st8" d="M345.1,413.3c0.3,0.3,0.6,0.5,1,0.6c0.3,0.3,0.7,0.6,1,0.8c1.3-0.6,2.7-1.4,4.1-2.3
					c4.7-2.9,7.2-5.5,7.3-6.5h-0.2c-1.5,0.1-4.9,1.8-8.9,4.3C347.8,411.2,346.3,412.3,345.1,413.3L345.1,413.3z"/>
				<path id="Fill-28" class="st4" d="M320.7,325.3c-1.9,0-3.3-1-3.3-4.9l0.1-28c0-3.1,1.5-4.3,3.2-4.3c1.7,0,3.3,1.2,3.3,4.2
					l-0.1,28c-0.1,2.6-0.3,3.1-0.6,3.5C322.8,324.7,321.8,325.3,320.7,325.3"/>
				<path id="Fill-29" class="st1" d="M429,301.7l-3.4,4.9l3.4,4.9l3.4-4.9L429,301.7"/>
				<path id="Fill-30" class="st3" d="M503.3,333.7h-3.6v0.3c0.3,0,0.5,0.1,0.6,0.1c0.1,0.1,0.2,0.2,0.3,0.3v0.8v4.8
					c0,0.5,0,0.7-0.1,0.9c-0.1,0.2-0.2,0.2-0.3,0.3c-0.1,0.1-0.3,0.1-0.6,0.1v0.3h3.4v-0.3c-0.4,0-0.7-0.1-0.8-0.2
					c-0.1-0.1-0.2-0.2-0.2-0.5v-2.8h0.7l0.7,1v-1.6c-0.3,0.1-0.8,0.2-1.4,0.2v-3.3c0.3-0.1,0.5-0.2,0.7-0.2s0.5,0.1,0.7,0.1V333.7
					L503.3,333.7z M503.3,331.2v0.6c-1,0-2,0.2-2.9,0.7c-1,0.5-1.7,1.2-2.2,2.2c-0.6,1-0.8,2-0.8,3c0,1,0.2,2,0.7,2.9
					c0.6,1,1.3,1.7,2.2,2.3c1,0.5,2,0.8,3,0.8v0.5c-1.1,0-2.2-0.3-3.3-0.9c-1-0.6-1.8-1.4-2.4-2.4c-0.6-1.1-0.9-2.2-0.9-3.3
					s0.3-2.2,0.9-3.3c0.6-1,1.4-1.9,2.4-2.4C501.2,331.5,502.2,331.2,503.3,331.2L503.3,331.2z M503.3,338.9l2,2.7h1.7v-0.3
					c-0.2-0.1-0.4-0.1-0.5-0.2c-0.2-0.1-0.4-0.3-0.6-0.7l-1.9-2.7c0.7-0.2,1.2-0.5,1.6-0.9c0.3-0.3,0.5-0.7,0.5-1.2
					c0-0.6-0.2-1.1-0.7-1.5c-0.5-0.4-1.1-0.6-2-0.6v0.5c0.2,0.1,0.5,0.2,0.7,0.4c0.3,0.3,0.5,0.8,0.5,1.2c0,0.3-0.1,0.6-0.3,0.9
					c-0.2,0.2-0.4,0.5-0.7,0.6c-0.1,0.1-0.1,0.1-0.2,0.1V338.9L503.3,338.9z M503.3,331.2c1.1,0,2.1,0.3,3.2,0.9
					c1,0.5,1.8,1.4,2.4,2.4c0.6,1.1,0.8,2.2,0.8,3.3s-0.3,2.2-0.8,3.3c-0.6,1-1.4,1.8-2.4,2.4c-1,0.6-2.1,0.9-3.2,0.9v-0.5
					c1,0,2-0.3,2.9-0.8c1-0.6,1.7-1.3,2.2-2.3c0.6-0.9,0.8-1.9,0.8-2.9c0-1-0.2-2-0.8-3c-0.5-1-1.2-1.7-2.2-2.2
					c-1-0.5-1.9-0.7-2.9-0.7V331.2L503.3,331.2z"/>
				<path id="Stroke-31" class="st5" d="M425.6,300.2l-4.3,6.2l4.4,6.2l-33,47l-32.5-46.4l4.8-6.8l-4.8-6.8l32.5-46.4L425.6,300.2
					L425.6,300.2z M281.9,300.5l-4.3,6.2l4.4,6.2l-33,47l-32.5-46.4l4.8-6.8l-4.8-6.8l32.5-46.4L281.9,300.5L281.9,300.5z
					 M210.1,313.1l-4.6-6.5l4.6-6.5l-32.9-46.8l-37.3,53.3l37.3,53.3L210.1,313.1L210.1,313.1z"/>
				<path id="Fill-32" class="st1" d="M356.7,301.7l-3.4,4.9l3.4,4.9l3.4-4.9L356.7,301.7"/>
				<path id="Fill-33" class="st1" d="M285.1,301.6l-3.4,4.9l3.4,4.9l3.4-4.9L285.1,301.6"/>
				<path id="Fill-34" class="st1" d="M213.1,301.4l-3.4,4.9l3.4,4.9l3.4-4.9L213.1,301.4"/>
			</g>
		</g>
	</g>
</g>
</svg>
