<?xml version="1.0" encoding="utf-8"?>
<!-- Generator: Adobe Illustrator 19.2.1, SVG Export Plug-In . SVG Version: 6.00 Build 0)  -->
<svg version="1.1" id="layer" xmlns="http://www.w3.org/2000/svg" xmlns:xlink="http://www.w3.org/1999/xlink" x="0px" y="0px"
	 viewBox="0 0 652 652" style="enable-background:new 0 0 652 652;" xml:space="preserve">
<style type="text/css">
	.st0{fill:#FFFFFF;}
	.st1{fill:#E41E26;}
	.st2{fill:#231F20;}
	.st3{fill:#00ABC7;}
	.st4{fill:#00ACC8;}
</style>
<path d="M620.2,303.8c0,0-0.4-5.2-0.7-7c-1.2-7.4-4-13.1-8.5-16.9c-4-3.4-9.5-5.5-16.6-6.4c-3.1-0.3-8.9-0.6-18.7-0.6H62.9
	l42.7,24.6v49.4l-42.7,24.8l557.1-0.1v-67.8H620.2z"/>
<polygon class="st0" points="105.7,297.7 62.9,273 62.9,273 20.2,297.7 20.2,347.1 62.9,371.7 62.9,371.7 105.7,347.1 "/>
<polygon class="st1" points="26.6,301.4 62.9,280.3 99.3,301.4 99.3,343.4 62.9,364.4 26.6,343.4 "/>
<polygon points="22.3,345.9 22.3,298.9 62.9,275.4 103.6,298.9 103.6,345.9 62.9,369.3 "/>
<polygon class="st2" points="22.3,345.9 22.3,298.9 62.9,275.4 103.6,298.9 103.6,345.9 62.9,369.3 "/>
<polygon class="st3" points="26.6,301.4 62.9,280.3 99.3,301.4 99.3,343.4 62.9,364.4 26.6,343.4 "/>
<path d="M52,342c-3.3,1-6.4,2.7-9.3,4.6H41l0.9,1.3c3.3-1.6,6.7-3.1,10.2-4.2c2.8-0.9,5.6-1.5,8.5-1.6c2.8,0,5.6,0.6,8.3,1.5
	c2.8,1.3,5.5,2.8,8.2,4.5l8.9-8.3l-1.8-1.5l-3.6,3.1c0,0-5.5-3.6-8.2-4c-3-0.6-5.9-0.7-8.9-0.3c-2.1,0.4-4.2,0.6-6.7,1.3L52,342
	L52,342l4.9-3.6c4.2-2.7,7.9-6.4,10.5-10.5c1.9-3.4,2.8-5.5,2.7-12.5c0-1.6-0.4-3.9-0.6-6.5s-0.4-4.7-0.4-5.6
	c-0.1-1.8,0.7-3.6,2.2-4.7c1.9-1.3,4.2-2.2,6.5-2.2l-0.9-1.9c-4.2-0.6-8.3,0.7-11.3,3.6c-2.2,2.1-3.6,5.6-3.6,10.2
	c0,0.7,0.6,4.7,1,9.9c0.4,5-0.7,10.1-3.4,14.4c-2.4,3.6-5.5,6.7-9.1,9.1c2.7-3.1,4.9-6.7,6.7-10.4c1.2-2.8,1.8-5.8,1.8-8.8
	c0-1.9-0.1-4.5-0.4-7.6c-0.1-1.5-0.9-4.6-1-6.7c-0.3-2.1,0.1-4.2,1.2-5.9c1.6-2.2,3.6-4.2,5.9-5.6l-1-2.2c-2.4,1.2-4.5,2.7-6.4,4.5
	c-3.4,3.3-5.5,7.7-5.9,12.5c-0.6,6.8,0,15,0,22.7c0,4.2-2.2,5.9-3.7,7.6c-2.4,2.7-3.4,3-6.5,5.3h1.6C43.5,346,46.8,343.8,52,342z"/>
<polygon points="115.2,345 115.2,344 115.2,340.5 115.2,283.3 115.2,279.9 115.2,278.8 116.2,278.8 119.6,278.8 137.9,278.8 
	141.3,278.8 142.3,278.8 142.3,279.9 142.3,283.3 142.3,321.6 178.8,321.6 182.1,321.6 183.1,321.6 183.1,322.6 183.1,326 
	183.1,340.5 183.1,344 183.1,345 182.1,345 178.8,345 119.6,345 116.2,345 "/>
<polygon points="182.1,344 178.8,344 119.6,344 116.2,344 116.2,340.5 116.2,283.3 116.2,279.9 119.6,279.9 137.9,279.9 
	141.3,279.9 141.3,283.3 141.3,322.6 178.8,322.6 182.1,322.6 182.1,326 182.1,340.5 "/>
<polygon points="118.6,341.7 118.6,340.5 118.6,283.3 118.6,282.1 119.6,282.1 137.9,282.1 139,282.1 139,283.3 139,325 178.8,325 
	179.8,325 179.8,326 179.8,340.5 179.8,341.7 178.8,341.7 119.6,341.7 "/>
<path d="M119.6,283.3H138V326h40.8v14.7h-59.2V283.3z"/>
<polygon points="187,345 187,344 187,340.5 187,283.3 187,279.9 187,278.8 188,278.8 191.4,278.8 254.9,278.8 258.3,278.8 
	259.4,278.8 259.4,279.9 259.4,283.3 259.4,296.6 259.4,300 259.4,301.1 258.3,301.1 257,301.1 257,301.7 257,304.9 257,317.6 
	257,321 257,322 256,322 252.5,322 213.1,322 213.1,322.4 255.2,322.4 258.6,322.4 259.7,322.4 259.7,323.5 259.7,326.8 
	259.7,340.5 259.7,344 259.7,345 258.6,345 255.2,345 191.4,345 188,345 "/>
<polygon points="258.6,344 255.2,344 191.4,344 188,344 188,340.5 188,283.3 188,279.9 191.4,279.9 254.9,279.9 258.3,279.9 
	258.3,283.3 258.3,296.6 258.3,300 254.9,300 211.9,300 211.9,301.7 252.5,301.7 256,301.7 256,304.9 256,317.6 256,321 252.5,321 
	211.9,321 211.9,323.5 255.2,323.5 258.6,323.5 258.6,326.8 258.6,340.5 "/>
<polygon points="190.2,341.7 190.2,340.5 190.2,283.3 190.2,282.1 191.3,282.1 254.9,282.1 256,282.1 256,283.3 256,296.6 
	256,297.8 254.9,297.8 209.7,297.8 209.7,303.9 252.5,303.9 253.6,303.9 253.6,304.9 253.6,317.6 253.6,318.7 252.5,318.7 
	209.7,318.7 209.7,325.7 255.2,325.7 256.3,325.7 256.3,326.8 256.3,340.5 256.3,341.7 255.2,341.7 191.3,341.7 "/>
<path d="M191.4,283.3h63.5v13.5h-46.3v8.3h43.9v12.6h-43.9v9.2h46.7v13.8h-63.9V283.3z"/>
<path d="M263.7,310.7c-0.1-5.6,0.3-11.1,1.2-16.6c1.3-5.3,3.6-9.2,7-11.4c1.9-1.3,4.2-2.4,6.4-2.8c3-0.7,5.9-1.2,8.9-1.3
	c5.2-0.4,12.2-0.7,20.8-0.7c11.4,0,19.3,0.4,24.2,1.3c5.6,1,9.8,3.1,12.3,6.1c2.2,2.8,3.6,6.7,4,11.9c0.1,1.9,0.1,3.7,0.1,5.6v4.9
	c0,1.3,0.1,2.2,0.1,2.7c0,7.6-0.1,13.6-0.6,17.8c-0.9,8.6-5.9,14.1-14.8,15.9c-4,0.7-8.2,1.2-12.3,1.3c-4.6,0.1-9.9,0.3-16,0.3
	c-8,0.1-16-0.3-24-1.2c-10.2-1.6-14.1-7.4-15.4-12c-0.9-3-1.5-6.2-1.5-9.3C263.8,319.5,263.7,315.3,263.7,310.7L263.7,310.7z
	 M322.1,301.7L322.1,301.7c-2.7-0.3-8-0.4-15.9-0.4c-4.7,0-9.6,0.1-14.4,0.6c-1,0.1-1.2,0.4-1.3,1c-0.6,3-0.7,5.9-0.6,8.9
	c-0.1,3.4,0.1,6.7,0.6,10.1c0.1,0.4,0.1,0.9,1.9,1c1,0.1,3.6,0.1,7.3,0.3v-19.4h22.6v-0.6C322.1,302.7,322.1,302.1,322.1,301.7z"/>
<path d="M304.9,344.9c-7.9,0.1-15.9-0.3-23.7-1.2c-9.6-1.6-13.4-7-14.7-11.3c-0.9-3-1.3-5.9-1.5-9.1c-0.1-3.9-0.1-8-0.1-12.5
	c-0.1-5.5,0.3-11,1.2-16.3c1.2-5,3.4-8.6,6.5-10.8c1.8-1.3,3.9-2.2,5.9-2.7c2.8-0.6,5.8-1,8.8-1.3c5.2-0.4,12.2-0.7,20.6-0.7
	c11.3,0,19.1,0.4,24,1.3c5.5,1,9.3,3,11.7,5.8s3.4,6.2,3.9,11.3c0.1,1.9,0.1,3.7,0.1,5.6v3.4l0,0v1.5c0,1.3,0.1,2.2,0.1,2.5
	c0,7.6-0.1,13.5-0.6,17.8c-0.9,8.2-5.6,13.4-13.9,15c-4,0.7-8,1.2-12.2,1.3C316.3,344.7,311,344.9,304.9,344.9L304.9,344.9z
	 M306.3,300c-4.9-0.1-9.6,0-14.5,0.6c-1.5,0.3-1.9,0.9-2.1,1.8c-0.6,3-0.7,6.1-0.6,9.2c-0.1,3.4,0,7,0.6,10.4
	c0.1,0.7,0.4,1.6,2.8,1.9c1.5,0.1,6.8,0.3,13.9,0.3c8.5,0,13.9-0.1,16.3-0.4c0.3,0,0.7-0.1,1-0.3v-0.6h-22.8v-18.2h22.6V303
	c0-0.7,0-1.6-0.1-2.4l0,0c-0.3-0.1-0.6-0.1-0.9-0.1C319.6,300.2,314.3,300,306.3,300z"/>
<path d="M267.1,310.7c-0.1-5.3,0.1-10.7,1-15.9c0.6-3.7,2.7-7.1,5.6-9.5c1.5-1.2,3.3-1.9,5.2-2.2c2.8-0.6,5.6-1,8.5-1.2
	c5-0.4,11.9-0.7,20.5-0.7c11,0,19,0.4,23.6,1.3c4.9,0.9,8.3,2.5,10.4,5c1.8,2.2,2.8,5.5,3.3,9.9c0.1,1.8,0.1,3.6,0.1,5.3v1h-19.6v-1
	c0-1.8-0.1-2.7-0.1-3c-0.1-0.6-0.6-1.5-2.8-1.8c-2.7-0.3-8.2-0.6-16.3-0.6c-5-0.1-9.9,0.1-15,0.7c-1.9,0.1-3.6,1.6-4,3.6
	c-0.6,3.1-0.7,6.4-0.6,9.6c-0.1,3.6,0.1,7.3,0.7,10.8c0.4,2.2,2.1,3.4,4.7,3.7c1,0.1,4.5,0.3,14.1,0.4c8.5,0,14.1-0.3,16.6-0.4
	c2.4-0.4,2.8-1.3,3-2.2c0.1-1.2,0.3-2.2,0.3-3.4h-23v-13.5h42v1c0,1.3,0.1,2.1,0.1,2.5c0,7.4-0.1,13.4-0.6,17.5
	c-0.7,7.1-4.7,11.4-12.2,12.9c-3.9,0.7-7.7,1.2-11.7,1.3c-4.5,0.1-9.8,0.3-15.9,0.3c-7.9,0.1-15.7-0.3-23.4-1.2
	c-6.8-1.2-11.1-4.3-12.8-9.6c-0.7-2.8-1.2-5.6-1.3-8.5C267.1,319,266.9,314.9,267.1,310.7L267.1,310.7z"/>
<path d="M304.2,308.1h39.9c0,1.2,0.1,2.1,0.1,2.4c0.1,5.8-0.1,11.6-0.6,17.4c-0.7,6.7-4.5,10.7-11.3,12c-3.9,0.7-7.7,1.2-11.6,1.3
	c-4.5,0.1-9.8,0.3-15.9,0.3c-7.7,0.1-15.6-0.3-23.3-1.2c-6.4-1-10.4-4-12-8.9c-0.7-2.7-1.2-5.3-1.3-8.2c-0.1-3.9-0.1-8-0.1-12.3
	c0-7.4,0.3-12.6,1-15.6c1-4.2,2.7-7.1,5.2-8.9c1.5-1,3.1-1.6,4.9-2.1c2.7-0.6,5.5-1,8.3-1.2c5-0.4,11.9-0.6,20.3-0.6
	c11,0,18.7,0.4,23.3,1.3c4.6,0.9,7.9,2.4,9.8,4.6c1.6,1.9,2.7,5.2,3,9.3c0.1,1.8,0.1,3.6,0.1,5.3h-17.5c0-1,0-2.2-0.3-3.3
	c-0.4-1.5-1.6-2.2-3.7-2.5c-2.8-0.3-8.2-0.6-16.3-0.6c-5-0.1-10.1,0.1-15.1,0.7c-2.4,0.3-4.3,1.9-4.9,4.3c-0.6,3.3-0.9,6.7-0.7,9.9
	c-0.1,3.7,0.1,7.4,0.7,11.1c0.6,2.7,2.5,4.2,5.6,4.5c1.6,0.1,6.4,0.3,14.2,0.4c8.6,0,14.2-0.3,16.6-0.4c2.4-0.1,3.6-1.3,3.9-3
	c0.1-1.5,0.3-3.1,0.3-4.6h-23v-11.7H304.2z"/>
<polygon points="355.4,345 355.4,344 355.4,340.5 355.4,283.3 355.4,279.9 355.4,278.8 356.4,278.8 359.7,278.8 423.3,278.8 
	426.7,278.8 427.8,278.8 427.8,279.9 427.8,283.3 427.8,296.6 427.8,300 427.8,301.1 426.7,301.1 425.4,301.1 425.4,301.7 
	425.4,304.9 425.4,317.6 425.4,321 425.4,322 424.4,322 420.9,322 381.3,322 381.3,322.4 423.6,322.4 427,322.4 428.1,322.4 
	428.1,323.5 428.1,326.8 428.1,340.5 428.1,344 428.1,345 427,345 423.6,345 359.7,345 356.4,345 "/>
<polygon points="427,344 423.6,344 359.7,344 356.4,344 356.4,340.5 356.4,283.3 356.4,279.9 359.7,279.9 423.3,279.9 426.7,279.9 
	426.7,283.3 426.7,296.6 426.7,300 423.3,300 380.3,300 380.3,301.7 420.9,301.7 424.4,301.7 424.4,304.9 424.4,317.6 424.4,321 
	420.9,321 380.3,321 380.3,323.5 423.6,323.5 427,323.5 427,326.8 427,340.5 "/>
<polygon points="358.6,341.7 358.6,340.5 358.6,283.3 358.6,282.1 359.7,282.1 423.3,282.1 424.4,282.1 424.4,283.3 424.4,296.6 
	424.4,297.8 423.3,297.8 378.1,297.8 378.1,303.9 420.9,303.9 422,303.9 422,304.9 422,317.6 422,318.7 420.9,318.7 378.1,318.7 
	378.1,325.7 423.6,325.7 424.7,325.7 424.7,326.8 424.7,340.5 424.7,341.7 423.6,341.7 359.7,341.7 "/>
<path d="M359.7,283.3h63.5v13.5h-46.3v8.3h43.9v12.6h-43.9v9.2h46.7v13.8h-63.9L359.7,283.3L359.7,283.3z"/>
<polygon points="433.3,345 433.3,344 433.3,340.5 433.3,283.3 433.3,279.9 433.3,278.8 434.3,278.8 437.7,278.8 468.3,278.8 
	470.1,278.8 470.6,278.8 470.9,279.3 472,280.6 495.7,314.4 495.4,283.3 495.3,279.9 495.3,278.8 496.5,278.8 499.7,278.8 
	517.5,278.8 520.9,278.8 522,278.8 522,279.9 522,283.3 522,340.5 522,344 522,345 520.9,345 517.5,345 487.1,345 485.5,345 
	484.9,345 484.6,344.6 483.6,343.2 459.7,309.2 460,340.5 460,344 460,345 458.9,345 455.5,345 437.7,345 434.3,345 "/>
<polygon points="520.9,344 517.5,344 487.1,344 485.5,344 484.4,342.6 458.5,305.8 458.9,340.5 458.9,344 455.5,344 437.7,344 
	434.3,344 434.3,340.5 434.3,283.3 434.3,279.9 437.7,279.9 468.3,279.9 470.1,279.9 471.1,281.2 496.8,317.8 496.5,283.3 
	496.5,279.9 499.7,279.9 517.5,279.9 520.9,279.9 520.9,283.3 520.9,340.5 "/>
<polygon points="436.7,341.7 436.7,340.5 436.7,283.3 436.7,282.1 437.7,282.1 468.4,282.1 468.9,282.1 469.2,282.5 499,325 
	499.1,325 498.7,283.3 498.7,282.1 499.7,282.1 517.5,282.1 518.6,282.1 518.6,283.3 518.6,340.5 518.6,341.7 517.5,341.7 
	487.1,341.7 486.7,341.7 486.4,341.3 456.4,298.9 456.1,298.9 456.6,340.5 456.6,341.7 455.5,341.7 437.7,341.7 "/>
<path d="M437.7,283.3h30.7l30.1,42.9h1.8l-0.4-42.9h17.8v57.4h-30.4l-30.1-42.9h-1.9l0.4,42.9h-17.8v-57.4H437.7z"/>
<path d="M529.8,345v-66.2h45.8c9.5,0,15.1,0.1,18,0.4c6.1,0.7,10.5,2.4,13.6,5c3.4,3,5.6,7.4,6.5,13.5c0.4,4.5,0.7,8.8,0.6,13.2
	c0,8-0.3,13.5-1.2,16.8c-0.7,4.3-2.8,8.3-5.9,11.3c-1.9,1.8-4.3,3.1-6.8,3.9c-3.1,0.9-6.2,1.5-9.3,1.6c-2.8,0.3-8,0.4-15.7,0.4
	C575.4,345,529.8,345,529.8,345z M556,302v19.6h19.9c3.4,0.1,7-0.1,10.4-0.6c1.2-0.1,1.3-0.6,1.5-1.3c0.4-2.5,0.7-5,0.6-7.6
	c0-4.7-0.3-7.1-0.7-8.2c-0.4-1-0.7-1.3-1.3-1.5c-1.2-0.3-3.9-0.6-10.7-0.6H556V302L556,302z"/>
<path d="M575.7,344h-44.8v-64.1h44.8c9.3,0,15.1,0.1,17.8,0.4c5.8,0.7,10.1,2.2,13.1,4.7c3.3,2.8,5.3,7.1,6.2,12.9
	c0.4,4.3,0.7,8.8,0.6,13.1c0.1,5.5-0.1,11.1-1,16.6c-0.7,4-2.7,7.9-5.6,10.7c-1.8,1.6-4,3-6.4,3.7c-3,0.9-5.9,1.5-9.1,1.6
	C588.4,343.8,583.3,344,575.7,344L575.7,344z M554.8,322.6h20.9c3.6,0.1,7-0.1,10.5-0.6c1.2,0,2.2-0.9,2.4-2.1
	c0.6-2.5,0.9-5.2,0.7-7.9c0.1-2.8-0.1-5.6-0.7-8.5c-0.3-1-1-1.9-2.1-2.2c-1.2-0.3-4-0.6-11-0.6h-20.8L554.8,322.6L554.8,322.6z"/>
<path d="M533.1,341.7v-59.6h42.4c9.2,0,14.8,0.1,17.5,0.4c5.3,0.6,9.2,2.1,11.9,4.3c2.7,2.2,4.6,6.2,5.5,11.4
	c0.4,4.2,0.7,8.5,0.6,12.6c0,7.7-0.3,13.1-1,16c-0.7,3.6-2.4,6.8-4.9,9.5c-1.6,1.5-3.6,2.5-5.6,3.3c-2.8,0.9-5.6,1.3-8.5,1.5
	c-2.8,0.3-8,0.4-15.4,0.4L533.1,341.7L533.1,341.7z M552.5,298.6v26.3h23.3c3.6,0.1,7.3-0.1,10.8-0.6c2.1-0.3,3.7-1.8,4.3-3.7
	c0.6-2.8,0.9-5.6,0.7-8.5c0.1-3-0.1-6.1-0.7-9.1c-0.4-1.9-1.9-3.4-3.9-3.9c-3.7-0.6-7.6-0.7-11.4-0.6L552.5,298.6L552.5,298.6z"/>
<path d="M534.1,340.5v-57.3h41.4c9.1,0,14.8,0.1,17.5,0.4c5,0.6,8.9,1.9,11.3,4s4.3,5.8,5,10.8c0.4,4.2,0.7,8.3,0.6,12.5
	c0,7.6-0.3,12.9-1,15.9c-0.6,3.4-2.1,6.5-4.6,8.9c-1.5,1.3-3.3,2.4-5.2,3c-2.7,0.7-5.5,1.3-8.3,1.5c-2.8,0.3-7.9,0.4-15.3,0.4
	L534.1,340.5L534.1,340.5z M551.5,326h24.3c3.7,0.1,7.4-0.1,11.1-0.6c2.5-0.3,4.6-2.1,5.2-4.5c0.6-2.8,0.9-5.8,0.7-8.8
	c0.1-3.1-0.1-6.2-0.9-9.3c-0.4-2.2-2.4-4.2-4.6-4.6c-3.9-0.6-7.9-0.9-11.7-0.7h-24.2V326z"/>
<polygon class="st3" points="182.1,344 178.8,344 119.6,344 116.2,344 116.2,340.5 116.2,283.3 116.2,279.9 119.6,279.9 
	137.9,279.9 141.3,279.9 141.3,283.3 141.3,322.6 178.8,322.6 182.1,322.6 182.1,326 182.1,340.5 "/>
<path class="st4" d="M119.6,283.3H138V326h40.8v14.7h-59.2V283.3z"/>
<polygon class="st3" points="258.6,344 255.2,344 191.4,344 188,344 188,340.5 188,283.3 188,279.9 191.4,279.9 254.9,279.9 
	258.3,279.9 258.3,283.3 258.3,296.6 258.3,300 254.9,300 211.9,300 211.9,301.7 252.5,301.7 256,301.7 256,304.9 256,317.6 
	256,321 252.5,321 211.9,321 211.9,323.5 255.2,323.5 258.6,323.5 258.6,326.8 258.6,340.5 "/>
<path class="st4" d="M191.4,283.3h63.5v13.5h-46.3v8.3h43.9v12.6h-43.9v9.2h46.7v13.8h-63.9V283.3z"/>
<path class="st3" d="M304.9,344.9c-7.9,0.1-15.9-0.3-23.7-1.2c-9.6-1.6-13.4-7-14.7-11.3c-0.9-3-1.3-5.9-1.5-9.1
	c-0.1-3.9-0.1-8-0.1-12.5c-0.1-5.5,0.3-11,1.2-16.3c1.2-5,3.4-8.6,6.5-10.8c1.8-1.3,3.9-2.2,5.9-2.7c2.8-0.6,5.8-1,8.8-1.3
	c5.2-0.4,12.2-0.7,20.6-0.7c11.3,0,19.1,0.4,24,1.3c5.5,1,9.3,3,11.7,5.8s3.4,6.2,3.9,11.3c0.1,1.9,0.1,3.7,0.1,5.6v3.4l0,0v1.5
	c0,1.3,0.1,2.2,0.1,2.5c0,7.6-0.1,13.5-0.6,17.8c-0.9,8.2-5.6,13.4-13.9,15c-4,0.7-8,1.2-12.2,1.3
	C316.3,344.7,311,344.9,304.9,344.9L304.9,344.9z M306.3,300c-4.9-0.1-9.6,0-14.5,0.6c-1.5,0.3-1.9,0.9-2.1,1.8
	c-0.6,3-0.7,6.1-0.6,9.2c-0.1,3.4,0,7,0.6,10.4c0.1,0.7,0.4,1.6,2.8,1.9c1.5,0.1,6.8,0.3,13.9,0.3c8.5,0,13.9-0.1,16.3-0.4
	c0.3,0,0.7-0.1,1-0.3v-0.6h-22.8v-18.2h22.6V303c0-0.7,0-1.6-0.1-2.4l0,0c-0.3-0.1-0.6-0.1-0.9-0.1C319.6,300.2,314.3,300,306.3,300
	z"/>
<path class="st4" d="M304.2,308.1h39.9c0,1.2,0.1,2.1,0.1,2.4c0.1,5.8-0.1,11.6-0.6,17.4c-0.7,6.7-4.5,10.7-11.3,12
	c-3.9,0.7-7.7,1.2-11.6,1.3c-4.5,0.1-9.8,0.3-15.9,0.3c-7.7,0.1-15.6-0.3-23.3-1.2c-6.4-1-10.4-4-12-8.9c-0.7-2.7-1.2-5.3-1.3-8.2
	c-0.1-3.9-0.1-8-0.1-12.3c0-7.4,0.3-12.6,1-15.6c1-4.2,2.7-7.1,5.2-8.9c1.5-1,3.1-1.6,4.9-2.1c2.7-0.6,5.5-1,8.3-1.2
	c5-0.4,11.9-0.6,20.3-0.6c11,0,18.7,0.4,23.3,1.3c4.6,0.9,7.9,2.4,9.8,4.6c1.6,1.9,2.7,5.2,3,9.3c0.1,1.8,0.1,3.6,0.1,5.3h-17.5
	c0-1,0-2.2-0.3-3.3c-0.4-1.5-1.6-2.2-3.7-2.5c-2.8-0.3-8.2-0.6-16.3-0.6c-5-0.1-10.1,0.1-15.1,0.7c-2.4,0.3-4.3,1.9-4.9,4.3
	c-0.6,3.3-0.9,6.7-0.7,9.9c-0.1,3.7,0.1,7.4,0.7,11.1c0.6,2.7,2.5,4.2,5.6,4.5c1.6,0.1,6.4,0.3,14.2,0.4c8.6,0,14.2-0.3,16.6-0.4
	c2.4-0.1,3.6-1.3,3.9-3c0.1-1.5,0.3-3.1,0.3-4.6h-23v-11.7H304.2z"/>
<polygon class="st3" points="427,344 423.6,344 359.7,344 356.4,344 356.4,340.5 356.4,283.3 356.4,279.9 359.7,279.9 423.3,279.9 
	426.7,279.9 426.7,283.3 426.7,296.6 426.7,300 423.3,300 380.3,300 380.3,301.7 420.9,301.7 424.4,301.7 424.4,304.9 424.4,317.6 
	424.4,321 420.9,321 380.3,321 380.3,323.5 423.6,323.5 427,323.5 427,326.8 427,340.5 "/>
<path class="st4" d="M359.7,283.3h63.5v13.5h-46.3v8.3h43.9v12.6h-43.9v9.2h46.7v13.8h-63.9L359.7,283.3L359.7,283.3z"/>
<polygon class="st3" points="520.9,344 517.5,344 487.1,344 485.5,344 484.4,342.6 458.5,305.8 458.9,340.5 458.9,344 455.5,344 
	437.7,344 434.3,344 434.3,340.5 434.3,283.3 434.3,279.9 437.7,279.9 468.3,279.9 470.1,279.9 471.1,281.2 496.8,317.8 
	496.5,283.3 496.5,279.9 499.7,279.9 517.5,279.9 520.9,279.9 520.9,283.3 520.9,340.5 "/>
<path class="st4" d="M437.7,283.3h30.7l30.1,42.9h1.8l-0.4-42.9h17.8v57.4h-30.4l-30.1-42.9h-1.9l0.4,42.9h-17.8v-57.4H437.7z"/>
<path class="st3" d="M575.7,344h-44.8v-64.1h44.8c9.3,0,15.1,0.1,17.8,0.4c5.8,0.7,10.1,2.2,13.1,4.7c3.3,2.8,5.3,7.1,6.2,12.9
	c0.4,4.3,0.7,8.8,0.6,13.1c0.1,5.5-0.1,11.1-1,16.6c-0.7,4-2.7,7.9-5.6,10.7c-1.8,1.6-4,3-6.4,3.7c-3,0.9-5.9,1.5-9.1,1.6
	C588.4,343.8,583.3,344,575.7,344L575.7,344z M554.8,322.6h20.9c3.6,0.1,7-0.1,10.5-0.6c1.2,0,2.2-0.9,2.4-2.1
	c0.6-2.5,0.9-5.2,0.7-7.9c0.1-2.8-0.1-5.6-0.7-8.5c-0.3-1-1-1.9-2.1-2.2c-1.2-0.3-4-0.6-11-0.6h-20.8L554.8,322.6L554.8,322.6z"/>
<path class="st4" d="M534.1,340.5v-57.3h41.4c9.1,0,14.8,0.1,17.5,0.4c5,0.6,8.9,1.9,11.3,4s4.3,5.8,5,10.8
	c0.4,4.2,0.7,8.3,0.6,12.5c0,7.6-0.3,12.9-1,15.9c-0.6,3.4-2.1,6.5-4.6,8.9c-1.5,1.3-3.3,2.4-5.2,3c-2.7,0.7-5.5,1.3-8.3,1.5
	c-2.8,0.3-7.9,0.4-15.3,0.4L534.1,340.5L534.1,340.5z M551.5,326h24.3c3.7,0.1,7.4-0.1,11.1-0.6c2.5-0.3,4.6-2.1,5.2-4.5
	c0.6-2.8,0.9-5.8,0.7-8.8c0.1-3.1-0.1-6.2-0.9-9.3c-0.4-2.2-2.4-4.2-4.6-4.6c-3.9-0.6-7.9-0.9-11.7-0.7h-24.2V326z"/>
<polygon points="118.6,341.7 118.6,340.5 118.6,283.3 118.6,282.1 119.6,282.1 137.9,282.1 139,282.1 139,283.3 139,325 178.8,325 
	179.8,325 179.8,326 179.8,340.5 179.8,341.7 178.8,341.7 119.6,341.7 "/>
<path d="M119.6,283.3H138V326h40.8v14.7h-59.2V283.3z"/>
<polygon points="190.2,341.7 190.2,340.5 190.2,283.3 190.2,282.1 191.3,282.1 254.9,282.1 256,282.1 256,283.3 256,296.6 
	256,297.8 254.9,297.8 209.7,297.8 209.7,303.9 252.5,303.9 253.6,303.9 253.6,304.9 253.6,317.6 253.6,318.7 252.5,318.7 
	209.7,318.7 209.7,325.7 255.2,325.7 256.3,325.7 256.3,326.8 256.3,340.5 256.3,341.7 255.2,341.7 191.3,341.7 "/>
<path d="M191.4,283.3h63.5v13.5h-46.3v8.3h43.9v12.6h-43.9v9.2h46.7v13.8h-63.9V283.3z"/>
<path d="M267.1,310.7c-0.1-5.3,0.1-10.7,1-15.9c0.6-3.7,2.7-7.1,5.6-9.5c1.5-1.2,3.3-1.9,5.2-2.2c2.8-0.6,5.6-1,8.5-1.2
	c5-0.4,11.9-0.7,20.5-0.7c11,0,19,0.4,23.6,1.3c4.9,0.9,8.3,2.5,10.4,5c1.8,2.2,2.8,5.5,3.3,9.9c0.1,1.8,0.1,3.6,0.1,5.3v1h-19.6v-1
	c0-1.8-0.1-2.7-0.1-3c-0.1-0.6-0.6-1.5-2.8-1.8c-2.7-0.3-8.2-0.6-16.3-0.6c-5-0.1-9.9,0.1-15,0.7c-1.9,0.1-3.6,1.6-4,3.6
	c-0.6,3.1-0.7,6.4-0.6,9.6c-0.1,3.6,0.1,7.3,0.7,10.8c0.4,2.2,2.1,3.4,4.7,3.7c1,0.1,4.5,0.3,14.1,0.4c8.5,0,14.1-0.3,16.6-0.4
	c2.4-0.4,2.8-1.3,3-2.2c0.1-1.2,0.3-2.2,0.3-3.4h-23v-13.5h42v1c0,1.3,0.1,2.1,0.1,2.5c0,7.4-0.1,13.4-0.6,17.5
	c-0.7,7.1-4.7,11.4-12.2,12.9c-3.9,0.7-7.7,1.2-11.7,1.3c-4.5,0.1-9.8,0.3-15.9,0.3c-7.9,0.1-15.7-0.3-23.4-1.2
	c-6.8-1.2-11.1-4.3-12.8-9.6c-0.7-2.8-1.2-5.6-1.3-8.5C267.1,319,266.9,314.9,267.1,310.7L267.1,310.7z"/>
<path d="M304.2,308.1h39.9c0,1.2,0.1,2.1,0.1,2.4c0.1,5.8-0.1,11.6-0.6,17.4c-0.7,6.7-4.5,10.7-11.3,12c-3.9,0.7-7.7,1.2-11.6,1.3
	c-4.5,0.1-9.8,0.3-15.9,0.3c-7.7,0.1-15.6-0.3-23.3-1.2c-6.4-1-10.4-4-12-8.9c-0.7-2.7-1.2-5.3-1.3-8.2c-0.1-3.9-0.1-8-0.1-12.3
	c0-7.4,0.3-12.6,1-15.6c1-4.2,2.7-7.1,5.2-8.9c1.5-1,3.1-1.6,4.9-2.1c2.7-0.6,5.5-1,8.3-1.2c5-0.4,11.9-0.6,20.3-0.6
	c11,0,18.7,0.4,23.3,1.3c4.6,0.9,7.9,2.4,9.8,4.6c1.6,1.9,2.7,5.2,3,9.3c0.1,1.8,0.1,3.6,0.1,5.3h-17.5c0-1,0-2.2-0.3-3.3
	c-0.4-1.5-1.6-2.2-3.7-2.5c-2.8-0.3-8.2-0.6-16.3-0.6c-5-0.1-10.1,0.1-15.1,0.7c-2.4,0.3-4.3,1.9-4.9,4.3c-0.6,3.3-0.9,6.7-0.7,9.9
	c-0.1,3.7,0.1,7.4,0.7,11.1c0.6,2.7,2.5,4.2,5.6,4.5c1.6,0.1,6.4,0.3,14.2,0.4c8.6,0,14.2-0.3,16.6-0.4c2.4-0.1,3.6-1.3,3.9-3
	c0.1-1.5,0.3-3.1,0.3-4.6h-23v-11.7H304.2z"/>
<polygon points="358.6,341.7 358.6,340.5 358.6,283.3 358.6,282.1 359.7,282.1 423.3,282.1 424.4,282.1 424.4,283.3 424.4,296.6 
	424.4,297.8 423.3,297.8 378.1,297.8 378.1,303.9 420.9,303.9 422,303.9 422,304.9 422,317.6 422,318.7 420.9,318.7 378.1,318.7 
	378.1,325.7 423.6,325.7 424.7,325.7 424.7,326.8 424.7,340.5 424.7,341.7 423.6,341.7 359.7,341.7 "/>
<path d="M359.7,283.3h63.5v13.5h-46.3v8.3h43.9v12.6h-43.9v9.2h46.7v13.8h-63.9L359.7,283.3L359.7,283.3z"/>
<polygon points="436.7,341.7 436.7,340.5 436.7,283.3 436.7,282.1 437.7,282.1 468.4,282.1 468.9,282.1 469.2,282.5 499,325 
	499.1,325 498.7,283.3 498.7,282.1 499.7,282.1 517.5,282.1 518.6,282.1 518.6,283.3 518.6,340.5 518.6,341.7 517.5,341.7 
	487.1,341.7 486.7,341.7 486.4,341.3 456.4,298.9 456.1,298.9 456.6,340.5 456.6,341.7 455.5,341.7 437.7,341.7 "/>
<path d="M437.7,283.3h30.7l30.1,42.9h1.8l-0.4-42.9h17.8v57.4h-30.4l-30.1-42.9h-1.9l0.4,42.9h-17.8v-57.4H437.7z"/>
<path d="M533.1,341.7v-59.6h42.4c9.2,0,14.8,0.1,17.5,0.4c5.3,0.6,9.2,2.1,11.9,4.3c2.7,2.2,4.6,6.2,5.5,11.4
	c0.4,4.2,0.7,8.5,0.6,12.6c0,7.7-0.3,13.1-1,16c-0.7,3.6-2.4,6.8-4.9,9.5c-1.6,1.5-3.6,2.5-5.6,3.3c-2.8,0.9-5.6,1.3-8.5,1.5
	c-2.8,0.3-8,0.4-15.4,0.4L533.1,341.7L533.1,341.7z M552.5,298.6v26.3h23.3c3.6,0.1,7.3-0.1,10.8-0.6c2.1-0.3,3.7-1.8,4.3-3.7
	c0.6-2.8,0.9-5.6,0.7-8.5c0.1-3-0.1-6.1-0.7-9.1c-0.4-1.9-1.9-3.4-3.9-3.9c-3.7-0.6-7.6-0.7-11.4-0.6L552.5,298.6L552.5,298.6z"/>
<path d="M534.1,340.5v-57.3h41.4c9.1,0,14.8,0.1,17.5,0.4c5,0.6,8.9,1.9,11.3,4s4.3,5.8,5,10.8c0.4,4.2,0.7,8.3,0.6,12.5
	c0,7.6-0.3,12.9-1,15.9c-0.6,3.4-2.1,6.5-4.6,8.9c-1.5,1.3-3.3,2.4-5.2,3c-2.7,0.7-5.5,1.3-8.3,1.5c-2.8,0.3-7.9,0.4-15.3,0.4
	L534.1,340.5L534.1,340.5z M551.5,326h24.3c3.7,0.1,7.4-0.1,11.1-0.6c2.5-0.3,4.6-2.1,5.2-4.5c0.6-2.8,0.9-5.8,0.7-8.8
	c0.1-3.1-0.1-6.2-0.9-9.3c-0.4-2.2-2.4-4.2-4.6-4.6c-3.9-0.6-7.9-0.9-11.7-0.7h-24.2V326z"/>
<path class="st0" d="M119.6,283.3H138V326h40.8v14.7h-59.2V283.3z"/>
<path class="st0" d="M191.4,283.3h63.5v13.5h-46.3v8.3h43.9v12.6h-43.9v9.2h46.7v13.8h-63.9V283.3z"/>
<path class="st0" d="M304.2,308.1h39.9c0,1.2,0.1,2.1,0.1,2.4c0.1,5.8-0.1,11.6-0.6,17.4c-0.7,6.7-4.5,10.7-11.3,12
	c-3.9,0.7-7.7,1.2-11.6,1.3c-4.5,0.1-9.8,0.3-15.9,0.3c-7.7,0.1-15.6-0.3-23.3-1.2c-6.4-1-10.4-4-12-8.9c-0.7-2.7-1.2-5.3-1.3-8.2
	c-0.1-3.9-0.1-8-0.1-12.3c0-7.4,0.3-12.6,1-15.6c1-4.2,2.7-7.1,5.2-8.9c1.5-1,3.1-1.6,4.9-2.1c2.7-0.6,5.5-1,8.3-1.2
	c5-0.4,11.9-0.6,20.3-0.6c11,0,18.7,0.4,23.3,1.3c4.6,0.9,7.9,2.4,9.8,4.6c1.6,1.9,2.7,5.2,3,9.3c0.1,1.8,0.1,3.6,0.1,5.3h-17.5
	c0-1,0-2.2-0.3-3.3c-0.4-1.5-1.6-2.2-3.7-2.5c-2.8-0.3-8.2-0.6-16.3-0.6c-5-0.1-10.1,0.1-15.1,0.7c-2.4,0.3-4.3,1.9-4.9,4.3
	c-0.6,3.3-0.9,6.7-0.7,9.9c-0.1,3.7,0.1,7.4,0.7,11.1c0.6,2.7,2.5,4.2,5.6,4.5c1.6,0.1,6.4,0.3,14.2,0.4c8.6,0,14.2-0.3,16.6-0.4
	c2.4-0.1,3.6-1.3,3.9-3c0.1-1.5,0.3-3.1,0.3-4.6h-23v-11.7H304.2z"/>
<path class="st0" d="M359.7,283.3h63.5v13.5h-46.3v8.3h43.9v12.6h-43.9v9.2h46.7v13.8h-63.9L359.7,283.3L359.7,283.3z"/>
<path class="st0" d="M437.7,283.3h30.7l30.1,42.9h1.8l-0.4-42.9h17.8v57.4h-30.4l-30.1-42.9h-1.9l0.4,42.9h-17.8v-57.4H437.7z"/>
<path class="st0" d="M534.1,340.5v-57.3h41.4c9.1,0,14.8,0.1,17.5,0.4c5,0.6,8.9,1.9,11.3,4s4.3,5.8,5,10.8
	c0.4,4.2,0.7,8.3,0.6,12.5c0,7.6-0.3,12.9-1,15.9c-0.6,3.4-2.1,6.5-4.6,8.9c-1.5,1.3-3.3,2.4-5.2,3c-2.7,0.7-5.5,1.3-8.3,1.5
	c-2.8,0.3-7.9,0.4-15.3,0.4L534.1,340.5L534.1,340.5z M551.5,326h24.3c3.7,0.1,7.4-0.1,11.1-0.6c2.5-0.3,4.6-2.1,5.2-4.5
	c0.6-2.8,0.9-5.8,0.7-8.8c0.1-3.1-0.1-6.2-0.9-9.3c-0.4-2.2-2.4-4.2-4.6-4.6c-3.9-0.6-7.9-0.9-11.7-0.7h-24.2V326z"/>
<path class="st0" d="M117.8,351.1h1.8l5.2,11.3h0.6l5-11.3h2.1l4.7,11.3h0.4l5.3-11.3h1.9l-5.9,12.8h-3.1l-4.6-11l-4.9,10.8h-3
	L117.8,351.1z"/>
<path class="st0" d="M148.1,351.1h1.8l5.2,11.3h0.6l5-11.3h2.1l4.7,11.3h0.4l5.3-11.3h1.8l-5.9,12.8h-2.8l-4.6-11l-4.9,10.8h-3
	L148.1,351.1z"/>
<path class="st0" d="M178.5,351.1h1.8l5.2,11.3h0.6l5-11.3h2.1l4.7,11.3h0.4l5.3-11.3h1.9l-5.9,12.8h-2.8l-4.6-10.8l-4.9,10.8h-3
	L178.5,351.1z"/>
<path class="st0" d="M208.2,361.6h2.1v2.2h-2.1L208.2,361.6z"/>
<path class="st0" d="M216.3,351.1h1.6v11.3h10.1v1.5h-11.7L216.3,351.1L216.3,351.1z"/>
<path class="st0" d="M232.8,363.8v-12.8h12.5v1.5h-10.8v3.9h10.2v1.5h-10.2v4.3h10.8v1.5h-12.5V363.8z"/>
<path class="st0" d="M257.3,357.3h8.3c0,1.9-0.1,3.3-0.1,3.9c-0.1,0.7-0.4,1.3-0.9,1.8c-0.6,0.4-1.5,0.7-2.2,0.7
	c-1.3,0.1-2.8,0.1-4.2,0.1c-1.8,0-3.7-0.1-5.5-0.3c-0.6,0-1-0.3-1.5-0.7c-0.4-0.3-0.7-0.7-0.9-1.3c-0.3-1.3-0.4-2.8-0.3-4.2
	c0-1.3,0.1-2.8,0.4-4.2c0.3-1.2,1.3-1.9,2.5-2.1c1.5-0.1,2.8-0.3,4.3-0.3c1,0,2.1,0,3.1,0.1c1.2,0,1.9,0.1,2.4,0.1
	c0.6,0,1,0.3,1.5,0.6c0.4,0.3,0.7,0.6,1,1c0.3,0.7,0.4,1.5,0.3,2.2h-1.8c0.1-0.7,0-1.3-0.4-1.9c-0.1-0.1-0.4-0.3-0.7-0.3
	c-0.3,0-0.7-0.1-1.5-0.1c-0.7,0-2.1-0.1-3.4-0.1c-1.5,0-2.8,0-4.3,0.1c-0.7,0.1-1.2,0.4-1.3,0.9c-0.3,1.2-0.4,2.4-0.3,3.6
	c-0.1,1.2,0,2.5,0.3,3.7c0.1,0.3,0.1,0.6,0.3,0.6c0.1,0.1,0.3,0.3,0.6,0.3c1.3,0.3,2.5,0.3,3.9,0.3h2.1c1.2,0,2.2,0,3.4-0.1
	c0.7-0.1,1.2-0.4,1.3-0.9c0.3-0.7,0.3-1.6,0.3-2.4h-6.7L257.3,357.3L257.3,357.3z"/>
<path class="st0" d="M270.9,363.8v-12.8h12.5v1.5h-10.8v3.9h10.2v1.5h-10.2v4.3h10.8v1.5h-12.5V363.8z"/>
<path class="st0" d="M288.4,351.1h2.8l11.1,11.1h0.4v-11.1h1.6v12.8h-2.8l-11.1-11.1h-0.3v11.1h-1.6L288.4,351.1z"/>
<path class="st0" d="M310.3,363.8v-12.8h8.8c1.3,0,2.8,0.1,4.2,0.3c0.9,0.1,1.6,0.7,2.2,1.5c0.4,0.7,0.6,1.5,0.6,2.4v2.2
	c0,1.2-0.1,2.5-0.4,3.7c-0.4,1.3-1.5,2.2-2.8,2.5c-1.2,0.1-2.5,0.1-3.7,0.1H310.3z M311.9,362.4h9.8c0.6,0,1.2-0.3,1.6-0.7
	c0.7-1.2,1-2.7,0.9-4.2c0.1-1.3-0.1-2.8-0.7-4c-0.1-0.3-0.4-0.4-0.7-0.6c-0.4-0.1-0.9-0.3-1.3-0.3H312L311.9,362.4z"/>
<path class="st0" d="M331,359.8h1.6v0.3c0,0.4,0,1,0.1,1.5c0.1,0.3,0.3,0.4,0.6,0.4c0.4,0.1,0.7,0.3,1.2,0.3c0.6,0,1.9,0.1,3.7,0.1
	c1.3,0,2.5-0.1,3.9-0.3c0.9-0.1,1.2-0.7,1.2-1.9c0-0.4-0.1-0.9-0.3-1.3c-0.1-0.3-0.6-0.6-0.9-0.6c-0.9-0.1-1.6-0.1-2.5-0.1h-4.2
	c-1.2,0.1-2.2-0.1-3.3-0.6c-0.6-0.3-0.9-0.7-1.2-1.3c-0.1-0.6-0.3-1-0.3-1.6c-0.1-0.9,0.3-1.8,0.9-2.5c0.4-0.3,0.9-0.6,1.3-0.7
	c1.8-0.3,3.6-0.4,5.3-0.4c1.3,0,2.7,0.1,4,0.4c0.4,0.1,0.9,0.3,1.2,0.6c0.3,0.3,0.6,0.6,0.7,0.9c0.1,0.6,0.3,1.3,0.3,1.9h-1.6v-0.1
	c0-0.4,0-0.7-0.1-1.2c-0.3-0.4-0.9-0.6-1.8-0.7c-0.9-0.1-1.6-0.1-2.5-0.1c-1.5,0-3,0.1-4.5,0.3c-0.6,0-1,0.4-1.2,0.9
	c-0.1,0.3-0.1,0.6-0.1,0.9c0,0.6,0,1,0.3,1.3c0.3,0.3,1.2,0.7,2.7,0.7h5.6c0.9,0,1.8,0.1,2.5,0.4c0.9,0.6,1.5,1.8,1.3,2.8
	c0,0.7-0.1,1.5-0.4,2.2c-0.3,0.6-0.9,1-1.5,1c-0.9,0.3-1.8,0.4-2.7,0.4c-1.2,0-2.4,0.1-3.6,0.1c-1,0-1.9,0-3-0.1
	c-0.6-0.1-1-0.3-1.6-0.4c-0.4-0.1-0.7-0.4-0.9-0.9c-0.3-0.6-0.4-1.2-0.4-1.9V359.8z"/>
<path class="st0" d="M350.3,351.1h1.6v9.5c-0.1,0.6,0.3,1.2,0.9,1.3c1.5,0.3,3.1,0.3,4.6,0.3c1.6,0,3.1,0,4.7-0.1
	c0.7-0.1,1.2-0.4,1.3-0.9c0.1-0.7,0.1-1.3,0.1-2.1v-8h1.6v6.2c0,1.2,0,2.4-0.1,3.6c0,0.7-0.3,1.3-0.7,1.8c-0.4,0.4-1,0.7-1.6,0.9
	c-0.7,0.1-1.6,0.1-2.4,0.1h-2.7c-2.2,0-3.7-0.1-4.3-0.1c-0.4,0-1-0.1-1.5-0.3c-0.3-0.1-0.6-0.3-0.9-0.6c-0.4-0.4-0.6-1-0.7-1.6
	c-0.1-1.2-0.1-2.5-0.1-3.7v-6.2C350.2,351.1,350.3,351.1,350.3,351.1z"/>
<path class="st0" d="M370.6,359.8h1.6v0.3c0,0.4,0,1,0.1,1.5c0.1,0.3,0.3,0.4,0.6,0.4c0.4,0.1,0.7,0.3,1.2,0.3
	c0.6,0,1.9,0.1,3.7,0.1c1.3,0,2.5-0.1,3.9-0.3c0.7-0.1,1.2-0.7,1.2-1.9c0-0.4-0.1-0.9-0.3-1.3c-0.1-0.3-0.6-0.6-0.9-0.6
	c-0.9-0.1-1.6-0.1-2.5-0.1h-4.2c-1.2,0.1-2.2-0.1-3.3-0.6c-0.6-0.3-0.9-0.7-1.2-1.3c-0.1-0.6-0.3-1-0.3-1.6
	c-0.1-0.9,0.3-1.8,0.9-2.5c0.4-0.3,0.9-0.6,1.3-0.7c1.8-0.3,3.6-0.4,5.3-0.4c1.3,0,2.7,0.1,4,0.4c0.4,0.1,0.9,0.3,1.2,0.6
	c0.3,0.3,0.6,0.6,0.7,0.9c0.1,0.6,0.3,1.2,0.3,1.8h-1.6v-0.1c0-0.4,0-0.7-0.1-1.2c-0.3-0.4-0.9-0.6-1.8-0.7
	c-0.9-0.1-1.6-0.1-2.5-0.1c-1.5,0-3,0.1-4.5,0.3c-0.6,0-1,0.4-1.2,0.9c-0.1,0.3-0.1,0.6-0.1,0.9c0,0.6,0,1,0.3,1.2
	c0.3,0.4,1.2,0.7,2.7,0.7h5.6c0.9,0,1.8,0.1,2.5,0.4c0.9,0.6,1.5,1.8,1.3,2.8c0,0.7-0.1,1.5-0.4,2.2c-0.3,0.6-0.9,1-1.5,1
	c-0.9,0.3-1.8,0.4-2.7,0.4c-1.2,0-2.4,0.1-3.6,0.1c-1,0-1.9,0-3-0.1c-0.6-0.1-1-0.3-1.6-0.4c-0.4-0.1-0.7-0.4-0.9-0.9
	c-0.3-0.6-0.4-1.2-0.4-1.9C370.5,360.4,370.6,360.1,370.6,359.8z"/>
<path class="st0" d="M389.9,363.8v-12.8h8c2.1,0,3.4,0.1,3.9,0.1c0.6,0,1,0.3,1.5,0.7c0.6,0.9,0.9,1.9,0.7,3c0,0.9-0.1,1.8-0.4,2.5
	c-0.1,0.4-0.4,0.7-0.9,1c-0.4,0.3-0.9,0.4-1.3,0.4c-0.4,0-1.6,0.1-3.6,0.1h-6.4v4.7H389.9z M391.7,357.6h9.3c0.7-0.1,1.2-0.4,1.3-1
	c0.1-0.4,0.1-0.9,0.1-1.3s0-1-0.1-1.5s-0.6-0.7-1.3-0.9c-0.4,0-1.5-0.1-3-0.1h-6.4L391.7,357.6z"/>
<path class="st0" d="M409.1,363.8v-12.8h12.5v1.5h-10.8v3.9h10.2v1.5h-10.2v4.3h10.8v1.5h-12.5V363.8z"/>
<path class="st0" d="M426.6,351.1h2.8l11.1,11.1h0.4v-11.1h1.6v12.8h-2.8l-11.1-11.1h-0.4v11.1h-1.6V351.1z"/>
<path class="st0" d="M448.1,359.8h1.6v0.3c0,0.4,0,1,0.1,1.5c0.1,0.3,0.3,0.4,0.6,0.4c0.4,0.1,0.7,0.3,1.2,0.3
	c0.6,0,1.9,0.1,3.7,0.1c1.3,0,2.5-0.1,3.9-0.3c0.7-0.1,1.2-0.7,1.2-1.9c0-0.4-0.1-0.9-0.3-1.3c-0.1-0.3-0.6-0.6-0.9-0.6
	c-0.9-0.1-1.6-0.1-2.5-0.1h-4.2c-1.2,0.1-2.2-0.1-3.3-0.6c-0.6-0.3-0.9-0.7-1.2-1.3c-0.1-0.6-0.3-1-0.3-1.6
	c-0.1-0.9,0.3-1.8,0.9-2.5c0.4-0.3,0.9-0.6,1.3-0.7c1.8-0.3,3.6-0.4,5.3-0.4c1.3,0,2.7,0.1,4,0.4c0.4,0.1,0.9,0.3,1.2,0.6
	c0.3,0.3,0.6,0.6,0.7,0.9c0.1,0.6,0.3,1.2,0.3,1.8H460v-0.1c0-0.6,0-1-0.1-1.2c-0.3-0.4-0.9-0.6-1.8-0.7s-1.6-0.1-2.5-0.1
	c-1.5,0-3,0.1-4.5,0.3c-0.6,0-1,0.4-1.2,0.9c-0.1,0.3-0.1,0.6-0.1,0.9c0,0.6,0,1,0.1,1.2c0.3,0.4,1.2,0.7,2.7,0.7h5.6
	c0.9,0,1.8,0.1,2.5,0.4c0.9,0.6,1.5,1.8,1.3,2.8c0,0.7-0.1,1.5-0.4,2.2c-0.3,0.6-0.9,1-1.5,1c-0.9,0.3-1.8,0.4-2.7,0.4
	c-1.2,0-2.4,0.1-3.6,0.1c-1,0-1.9,0-3-0.1c-0.6-0.1-1-0.3-1.6-0.4c-0.4-0.1-0.7-0.4-0.9-0.9c-0.3-0.6-0.4-1.2-0.4-1.9
	C447.9,360.4,448.1,360.3,448.1,359.8z"/>
<path class="st0" d="M467.4,351.1h1.6v12.8h-1.6V351.1z"/>
<path class="st0" d="M483,351.1c1.8,0,3.4,0,5.2,0.3c0.7,0.1,1.3,0.6,1.6,1.2c0.6,1.6,0.9,3.3,0.7,5c0,1.2-0.1,2.5-0.3,3.7
	c-0.3,1.3-0.9,2.1-2.1,2.2c-1.5,0.1-2.8,0.3-4.3,0.3h-3.6c-0.7,0-1.6,0-2.4-0.1c-0.4,0-1-0.1-1.5-0.3s-0.7-0.4-1-0.7
	c-0.3-0.3-0.6-0.7-0.6-1.2c-0.1-1.3-0.3-2.7-0.3-4c-0.1-1.5,0-3,0.4-4.3c0.3-1,1.3-1.8,2.4-1.8C479.3,351.2,481,351.1,483,351.1z
	 M481.8,352.6c-1.2,0-2.5,0-3.7,0.1c-0.7,0.1-1.2,0.3-1.3,0.7c-0.4,1.2-0.6,2.5-0.4,3.7c0,1.2,0,2.2,0.1,3.4c0.1,0.6,0.3,1,0.7,1.2
	c0.7,0.3,1.5,0.3,2.2,0.3c1.3,0,2.4,0.1,3.4,0.1c1.5,0,3-0.1,4.5-0.3c0.3,0,0.7-0.1,0.9-0.4c0.1-0.3,0.3-0.6,0.4-0.9
	c0.1-1,0.1-2.2,0.1-3.3v-1.9c0-0.7-0.1-1.2-0.1-1.5c-0.1-0.7-0.6-1-1.5-1.2c-0.7-0.1-1.3-0.1-2.1-0.1H481.8z"/>
<path class="st0" d="M496,351.1h2.8l11.1,11.1h0.4v-11.1h1.6v12.8h-2.8l-11.1-11.1h-0.4v11.1H496V351.1z"/>
<path class="st0" d="M517.4,359.8h1.6v0.3c0,0.4,0,1,0.1,1.5c0.1,0.3,0.3,0.4,0.6,0.4c0.4,0.1,0.7,0.3,1.2,0.3
	c0.6,0,1.9,0.1,3.7,0.1c1.3,0,2.5-0.1,3.9-0.3c0.7-0.1,1.2-0.7,1.2-1.9c0-0.4-0.1-0.9-0.3-1.3c-0.1-0.3-0.6-0.6-0.9-0.6
	c-0.9-0.1-1.6-0.1-2.5-0.1h-4.2c-1.2,0.1-2.2-0.1-3.3-0.6c-0.6-0.3-0.9-0.7-1.2-1.3c-0.1-0.6-0.3-1-0.3-1.6
	c-0.1-0.9,0.3-1.8,0.9-2.5c0.4-0.3,0.9-0.6,1.3-0.7c1.8-0.3,3.6-0.4,5.3-0.4c1.3,0,2.7,0.1,4,0.4c0.4,0.1,0.9,0.3,1.2,0.6
	c0.3,0.3,0.6,0.6,0.7,0.9c0.1,0.6,0.3,1.2,0.3,1.8h-1.6v-0.1c0-0.6,0-1-0.1-1.2c-0.3-0.4-0.9-0.6-1.8-0.7s-1.6-0.1-2.5-0.1
	c-1.5,0-3,0.1-4.5,0.3c-0.6,0-1,0.4-1.2,0.9c-0.1,0.3-0.1,0.7-0.1,1c0,0.6,0,1,0.3,1.2c0.3,0.4,1.2,0.7,2.7,0.7h5.6
	c0.9,0,1.8,0.1,2.5,0.4c0.9,0.6,1.5,1.8,1.3,2.8c0,0.7-0.1,1.5-0.4,2.2c-0.3,0.6-0.9,1-1.5,1c-0.9,0.3-1.8,0.4-2.7,0.4
	c-1.2,0-2.4,0.1-3.6,0.1c-1,0-1.9,0-3-0.1c-0.6-0.1-1-0.3-1.6-0.4c-0.4-0.1-0.7-0.4-0.9-0.9c-0.3-0.6-0.4-1.2-0.4-1.9
	C517.4,360.4,517.4,360.3,517.4,359.8z"/>
<path class="st0" d="M537.1,361.8h2.1v2.2h-2.1V361.8z"/>
<path class="st0" d="M558.2,359.5h1.6c0,1.2-0.1,1.9-0.1,2.4c-0.3,0.9-1,1.6-1.9,1.8c-1.5,0.1-3.1,0.3-4.6,0.3c-1.9,0-3.9,0-5.8-0.3
	c-1-0.1-1.8-0.9-2.1-1.9c-0.3-1.3-0.4-2.7-0.3-4c0-1.5,0.1-3,0.4-4.5c0.3-1,1.2-1.8,2.2-1.9c1.8-0.1,3.4-0.3,5.2-0.3
	c1.6,0,3.1,0.1,4.7,0.3c0.6,0.1,1.2,0.4,1.6,1c0.1,0.6,0.4,1.2,0.4,1.8v1H558v-0.4c0-0.4,0-0.9-0.1-1.3c-0.1-0.3-0.7-0.6-1.6-0.7
	c-1.2-0.1-2.2-0.1-3.4-0.1c-1.5,0-2.8,0-4.3,0.1c-0.7,0.1-1.2,0.3-1.3,0.7c-0.4,1.2-0.6,2.4-0.4,3.6v2.1c0,0.6,0,1,0.1,1.6
	c0.1,0.7,0.4,1.2,0.9,1.3c1.6,0.3,3.1,0.3,4.7,0.3c1.6,0,3.1,0,4.7-0.3c0.4-0.1,0.7-0.4,0.9-0.9C558,361,558,360.4,558.2,359.5z"/>
<path class="st0" d="M573.2,351.1c1.8,0,3.4,0,5.2,0.3c0.6,0.1,1.2,0.6,1.6,1c0.6,1.6,0.9,3.3,0.7,5c0,1.2-0.1,2.5-0.3,3.7
	c-0.3,1.3-0.9,2.1-2.1,2.2c-1.5,0.1-2.8,0.3-4.3,0.3h-3.4c-0.7,0-1.6,0-2.4-0.1c-0.9,0-1.8-0.3-2.5-0.9c-0.3-0.3-0.6-0.7-0.7-1.2
	c-0.1-1.3-0.3-2.7-0.3-4c-0.1-1.5,0-3,0.4-4.3c0.3-1,1.2-1.8,2.2-1.8C569.3,351.2,571.2,351.1,573.2,351.1z M572,352.6
	c-1.6,0-3,0.1-3.7,0.1c-0.7,0-1.2,0.3-1.3,0.7c-0.4,1.2-0.6,2.5-0.4,3.7c0,1.2,0,2.2,0.1,3.4c0.1,0.6,0.3,1,0.7,1.2
	c0.7,0.3,1.5,0.3,2.2,0.3h3.4c1.5,0.1,3,0,4.5-0.3c0.3,0,0.7-0.1,0.9-0.4c0.1-0.3,0.3-0.6,0.4-0.9c0.1-1,0.1-2.2,0.1-3.3v-1.9
	c0-0.7-0.1-1.2-0.1-1.5c-0.1-0.7-0.7-1.3-1.5-1.2c-0.6-0.1-1.3-0.1-1.9-0.1C574.2,352.6,573.2,352.7,572,352.6L572,352.6z"/>
<path class="st0" d="M586.1,351.1h3.4l6.8,10.8l6.8-10.8h3.4v12.8h-1.6v-11.1h-0.7l-7.1,11.1h-1.3l-7.1-11.1h-0.7v11.1h-1.6v-12.8
	C586.2,351.1,586.1,351.1,586.1,351.1z"/>
</svg>
