<?xml version="1.0" encoding="UTF-8" standalone="no"?>
<!-- Created with Inkscape (http://www.inkscape.org/) -->

<svg
   width="82.481895mm"
   height="42.020775mm"
   viewBox="0 0 82.481895 42.020775"
   version="1.1"
   id="svg1"
   xml:space="preserve"
   xmlns="http://www.w3.org/2000/svg"
   xmlns:svg="http://www.w3.org/2000/svg"><defs
     id="defs1" /><g
     id="layer1"
     transform="translate(-79.707737,-160.33536)"><path
       style="fill:#005ba8;fill-opacity:1"
       d="m 104.97545,202.12881 c -3.80177,-0.28402 -8.404343,-1.07511 -11.507918,-1.97798 l -2.379796,-0.69231 -2.209011,-1.03518 -2.209011,-1.03518 -1.666225,-1.18899 c -0.916423,-0.65395 -2.153896,-1.74302 -2.749939,-2.42016 l -1.083715,-1.23116 -0.731046,-1.48802 -0.731046,-1.48801 v -2.79807 -2.79807 l 1.109954,-2.22902 1.109954,-2.22901 1.437302,-1.71979 c 7.049244,-8.43471 22.983807,-15.22087 40.053757,-17.05796 l 3.75888,-0.40454 h 4.71569 4.71568 l 3.29939,0.40417 c 3.89129,0.47667 7.71433,1.35479 10.85937,2.49432 l 2.26832,0.82186 2.04194,1.19531 2.04194,1.1953 1.66413,1.64088 1.66413,1.64087 0.7519,1.5875 0.75191,1.5875 0.11882,2.16202 0.11882,2.16201 -0.55357,1.80674 -0.55356,1.80673 -1.11319,1.71979 -1.11319,1.71979 -2.26794,2.25908 -2.26794,2.25909 -2.88763,1.92764 -2.88763,1.92764 -2.80091,1.40242 c -9.82466,4.91925 -21.68151,7.77965 -33.88945,8.17566 l -3.83646,0.12445 z m 14.55208,-2.08807 c 9.59681,-1.23933 17.38452,-3.46715 25.01683,-7.15652 l 3.18869,-1.54138 2.89672,-1.93194 2.89672,-1.93194 2.13394,-2.12857 2.13394,-2.12857 0.99991,-1.78992 0.99992,-1.78992 0.36873,-1.38508 0.36874,-1.38508 0.003,-1.21535 0.003,-1.21535 -0.5296,-1.5393 -0.5296,-1.53931 -1.0546,-1.39681 -1.0546,-1.39681 -1.69921,-1.21253 c -0.93456,-0.66689 -2.58497,-1.62177 -3.66757,-2.12197 l -1.96837,-0.90944 -2.75187,-0.77139 -2.75187,-0.7714 -3.175,-0.49465 -3.175,-0.49466 -6.21771,0.014 -6.21771,0.014 -4.15321,0.58212 c -2.28427,0.32016 -5.79662,0.94929 -7.80521,1.39805 l -3.65199,0.81595 -4.23334,1.39434 c -5.18817,1.70884 -9.173846,3.46797 -12.938869,5.71073 l -2.862583,1.7052 -2.021147,1.67045 c -1.111631,0.91874 -2.65295,2.40816 -3.425154,3.30983 l -1.404006,1.63938 -0.917515,1.85208 -0.917516,1.85209 -0.231317,1.4552 -0.231317,1.45521 0.217235,1.34834 0.217234,1.34833 0.599407,1.2975 0.599407,1.2975 1.736197,1.72228 1.736197,1.72229 2.153882,1.12033 2.153882,1.12033 2.447903,0.79993 2.447902,0.79994 2.974898,0.53262 c 1.636194,0.29293 4.08977,0.64057 5.45238,0.77252 l 2.47749,0.23991 4.6302,-0.10644 4.63021,-0.10644 z m -14.68437,-1.34039 c -3.593,-0.26179 -7.489936,-0.91541 -10.451041,-1.75292 l -2.248959,-0.63608 -2.38125,-1.17281 -2.38125,-1.17281 -1.377684,-1.21533 -1.377683,-1.21533 -0.835652,-1.69745 -0.835652,-1.69745 0.102572,-1.81527 0.102572,-1.81527 0.894294,-1.81657 0.894293,-1.81657 2.137804,-2.22679 2.137804,-2.22678 2.772397,-1.85387 2.772397,-1.85386 3.185436,-1.53027 c 7.298382,-3.50612 15.164342,-5.73447 24.881262,-7.04861 l 3.43959,-0.46518 6.08541,0.0149 6.08542,0.0149 3.83963,0.6798 3.83964,0.6798 2.57136,0.91904 c 1.41426,0.50548 3.34795,1.35333 4.2971,1.88413 l 1.72573,0.96508 1.27832,1.27832 1.27832,1.27831 0.62943,1.28798 0.62944,1.28798 -0.0142,1.85209 -0.0142,1.85208 -0.66592,1.45521 c -0.69781,1.52491 -2.59064,4.17904 -3.75954,5.27164 l -0.68622,0.64143 v -0.56498 -0.56498 l -0.54298,-0.50586 -0.54298,-0.50587 0.41069,-0.15759 0.41069,-0.1576 v -0.63737 -0.63736 l -0.37366,-0.31011 -0.37366,-0.31011 -1.54457,0.64613 c -3.8112,1.59431 -13.14088,4.26438 -19.97997,5.71809 -15.54849,3.30498 -19.35306,4.30485 -22.86913,6.01016 l -1.88161,0.91258 -0.86537,0.89284 -0.86536,0.89283 0.15898,0.41431 0.15899,0.41432 h 0.48607 0.48607 l 0.9113,-0.693 c 3.23295,-2.4585 7.44379,-3.67872 23.13629,-6.70443 6.39607,-1.23325 14.9216,-3.46706 19.67858,-5.15608 0.63676,-0.22609 1.1858,-0.41108 1.22008,-0.41108 0.0343,0 0.005,0.29834 -0.0644,0.66298 l -0.12674,0.66298 0.35268,0.42495 c 0.19398,0.23373 0.56877,0.50489 0.83289,0.60259 l 0.4802,0.17764 -2.71924,1.80788 -2.71924,1.80788 -2.91115,1.40935 c -1.60114,0.77515 -4.5185,1.9961 -6.48303,2.71322 l -3.57188,1.30385 -3.83646,0.95545 c -6.35034,1.58151 -12.32947,2.42997 -18.65312,2.64694 l -3.43958,0.11801 z m -12.00434,-5.88738 c 0.457199,-0.61847 1.411377,-2.31511 2.120395,-3.77032 l 1.289124,-2.64583 -0.167111,2.1666 -0.167111,2.16661 0.170084,0.67767 0.170083,0.67766 h 0.61541 0.61541 l 0.419509,-0.46355 c 0.913249,-1.00913 3.645867,-8.3745 5.106947,-13.76501 0.75677,-2.79204 0.678,-1.67958 -0.15621,2.20605 -0.43485,2.02546 -0.98058,4.97782 -1.21272,6.56081 l -0.42209,2.87815 0.18327,1.22215 c 0.1008,0.67217 0.34558,1.53599 0.54395,1.9196 l 0.36067,0.69746 0.50218,0.13132 0.50218,0.13133 0.43446,-0.24314 0.43445,-0.24313 v -0.48559 -0.48559 l -0.63088,-0.41337 -0.63089,-0.41337 -0.10735,-0.91954 -0.10735,-0.91954 0.19047,-0.48346 0.19048,-0.48345 0.0186,0.5543 0.0186,0.55431 0.54244,0.4909 0.54244,0.4909 0.88536,-0.4768 0.88536,-0.4768 0.68887,-1.26567 c 0.37887,-0.69612 0.68886,-1.49834 0.68886,-1.78271 v -0.51704 l 0.66146,-0.30138 0.66146,-0.30138 v 1.32574 1.32575 l 0.37447,0.89624 0.37448,0.89625 0.53417,0.28588 c 0.29379,0.15723 0.76226,0.28588 1.04103,0.28588 h 0.50687 l 1.09574,-0.79375 c 0.60265,-0.43656 1.27122,-0.79375 1.4857,-0.79375 h 0.38996 l 0.88956,-0.78104 0.88956,-0.78105 0.30476,-1.01721 0.30477,-1.01721 0.79091,-0.58475 0.79092,-0.58475 -0.55334,1.44599 -0.55335,1.44599 0.1565,0.40785 0.15651,0.40785 h 0.55362 0.55361 l 1.02583,-2.18241 1.02583,-2.18242 -0.14862,1.1081 -0.14863,1.1081 0.17171,0.68417 c 0.0944,0.37629 0.40682,0.91926 0.69416,1.2066 l 0.52243,0.52244 h 1.06588 1.06588 l 1.57995,-0.79756 1.57996,-0.79756 v -0.52535 -0.52536 h -0.54573 c -0.30014,0 -1.3161,0.26789 -2.25767,0.59531 l -1.71196,0.59531 -0.25181,-0.39687 c -0.36123,-0.56933 -0.31923,-1.39833 0.17449,-3.44386 l 0.43439,-1.79977 -0.16151,-0.42089 -0.16151,-0.4209 h -0.53581 -0.53581 l -0.74792,1.03247 -0.74792,1.03247 -0.32855,-0.5261 -0.32855,-0.5261 -1.4229,1.34572 c -0.78259,0.74014 -1.54908,1.34571 -1.70331,1.34571 h -0.28042 v -0.51986 -0.51986 l -0.58201,-0.31148 -0.58201,-0.31148 -0.73056,0.8751 -0.73057,0.8751 0.0558,-0.77109 0.0558,-0.7711 -0.55232,-0.0792 -0.55232,-0.0792 -0.27496,0.3435 c -0.20769,0.25947 -1.39853,4.83339 -1.39853,5.37166 0,0.0514 0.1871,0.28051 0.41578,0.50919 l 0.41577,0.41577 h -0.40647 -0.40646 l -0.27389,-0.51177 -0.27389,-0.51177 10e-4,-1.53875 0.001,-1.53875 0.26701,-0.96129 0.26701,-0.96128 1.25287,-0.52408 c 0.68907,-0.28825 2.35419,-0.97396 3.70026,-1.5238 l 2.4474,-0.99971 v -0.35919 -0.35919 l -0.46303,6.4e-4 c -0.25466,3.5e-4 -1.84878,0.51703 -3.54249,1.14818 l -3.07948,1.14755 0.76052,-2.19491 0.76053,-2.19491 -0.15675,-0.40849 -0.15675,-0.40848 h -0.33617 c -0.57591,0 -0.9653,0.70605 -1.85591,3.3651 l -0.86141,2.57185 -0.89234,0.21581 c -0.49079,0.11869 -1.13047,0.32143 -1.42152,0.45052 -0.29104,0.1291 -0.85226,0.3047 -1.24715,0.39022 l -0.71799,0.15551 -0.72403,1.23545 c -0.39821,0.67949 -0.87075,1.77964 -1.05008,2.44476 l -0.32607,1.20932 -0.0179,-0.55892 c -0.0243,-0.76058 1.04497,-5.90421 2.35892,-11.34733 l 1.08577,-4.49791 -0.0776,-1.05834 -0.0776,-1.05833 h -0.78533 -0.78533 l -0.60157,1.05833 -0.60157,1.05834 -2.14861,6.61458 c -2.7031,8.32159 -3.167164,9.63829 -3.460983,9.81988 l -0.236773,0.14633 0.154469,-0.74977 c 0.08496,-0.41238 0.709203,-2.98355 1.387209,-5.71372 l 1.232738,-4.96395 -0.428168,-0.42817 -0.428169,-0.42817 -0.623454,0.15648 -0.623455,0.15648 -0.728726,1.43918 c -0.4008,0.79156 -1.024487,2.31416 -1.385971,3.38356 -0.361485,1.0694 -0.982856,2.71507 -1.380826,3.65704 l -0.723581,1.71268 -0.135359,-0.78663 -0.135359,-0.78664 -0.527465,-0.0705 -0.527465,-0.0704 -1.532459,0.99468 -1.532458,0.99467 -0.155491,0.61952 -0.155491,0.61953 0.409475,0.40947 0.409475,0.40948 0.911875,-0.56357 0.911875,-0.56357 -0.795358,2.34561 -0.795359,2.34562 0.174811,0.6965 0.174811,0.6965 h 0.654758 0.654758 z m 11.60747,-4.78229 c 0,-0.38341 0.19511,-1.18476 0.43359,-1.78077 l 0.4336,-1.08367 0.38965,0.38965 0.38965,0.38965 -0.30404,0.92125 -0.30404,0.92125 -0.51921,0.46988 -0.5192,0.46987 z m 7.93749,-0.17865 v -0.35278 l 0.17639,0.17639 0.17639,0.17639 -0.17639,0.17639 -0.17639,0.17639 z m 1.5875,-1.03444 c 0,-0.16801 0.18591,-0.74814 0.41313,-1.28916 l 0.41312,-0.98369 0.25952,0.45951 0.25952,0.45952 -0.26132,0.48828 c -0.14373,0.26856 -0.44642,0.6419 -0.67265,0.82966 l -0.41132,0.34136 z m -1.32291,-0.55306 v -0.35278 l 0.17638,0.17639 0.17639,0.17639 -0.17639,0.17639 -0.17638,0.17639 z m -16.404168,-0.39688 c 0,-0.0728 0.05953,-0.13229 0.132292,-0.13229 0.07276,0 0.132291,0.0595 0.132291,0.13229 0,0.0728 -0.05953,0.13229 -0.132291,0.13229 -0.07276,0 -0.132292,-0.0595 -0.132292,-0.13229 z m 16.668748,-0.66146 v -0.35277 l 0.17639,0.17639 0.17639,0.17638 -0.17639,0.17639 -0.17639,0.17639 z m 0.26458,-0.79375 v -0.35277 l 0.17639,0.17639 0.17639,0.17638 -0.17639,0.17639 -0.17639,0.17639 z m -6.61053,-0.59531 0.004,-0.59531 0.22931,0.36196 c 0.12611,0.19908 0.39218,0.46514 0.59126,0.59126 l 0.36196,0.2293 -0.59532,0.004 -0.59531,0.004 z m -2.91446,-8.13594 v -0.35277 l 0.17639,0.17639 0.17638,0.17638 -0.17638,0.17639 -0.17639,0.17639 z m 27.36547,9.6384 0.41577,-0.41578 v -1.94825 -1.94825 l 0.24259,-0.63806 0.2426,-0.63807 1.36782,-0.98268 1.36782,-0.98268 -0.19172,0.61133 c -0.10544,0.33624 -0.59201,1.39912 -1.08125,2.36197 l -0.88952,1.75063 v 0.54886 0.54885 l 0.29127,0.18002 0.29127,0.18002 0.46339,-0.49513 c 0.25486,-0.27233 0.73375,-1.18177 1.0642,-2.021 0.33045,-0.83922 0.70523,-1.59039 0.83284,-1.66926 l 0.23203,-0.1434 v 0.39688 c 0,0.21828 -0.11907,0.47046 -0.26459,0.5604 l -0.26458,0.16352 v 1.03662 1.03662 l 0.64372,0.42177 0.64371,0.42178 0.52525,-0.2811 0.52525,-0.28111 0.76725,0.15345 0.76725,0.15345 0.80759,-0.67954 0.80759,-0.67954 0.33465,-0.80792 0.33465,-0.80791 -0.24358,-0.84934 -0.24359,-0.84934 4.51105,-1.75047 c 2.48108,-0.96276 5.01539,-2.00776 5.6318,-2.32223 l 1.12074,-0.57176 v -0.25921 -0.2592 h -0.76071 -0.76071 l -5.25856,1.9807 -5.25856,1.98071 -0.0882,-0.26091 -0.0882,-0.26092 h -0.49365 -0.49365 l -0.67493,0.88487 c -0.3712,0.48668 -0.67492,1.02347 -0.67492,1.19287 v 0.308 l -0.52917,-0.33047 -0.52916,-0.33047 v -0.62259 -0.62258 l -0.5195,-0.13585 -0.51949,-0.13585 1.49107,-1.36074 c 3.10252,-2.83132 4.73075,-4.85148 5.00155,-6.20547 l 0.15118,-0.7559 -0.83833,-0.70541 -0.83833,-0.70541 h -1.53933 -1.53933 l -1.81381,0.55528 c -0.9976,0.30539 -2.64725,0.98515 -3.66589,1.51056 l -1.85209,0.95529 -1.93688,1.91781 -1.93689,1.9178 0.0848,0.71213 0.0848,0.71213 0.47851,0.29127 0.47852,0.29127 0.38787,-0.52916 c 0.21333,-0.29105 1.12851,-1.28242 2.03373,-2.20305 l 1.64585,-1.67388 1.52605,-0.92702 c 0.83932,-0.50987 2.17639,-1.15561 2.97125,-1.43498 l 1.44521,-0.50795 h 0.93265 0.93265 v 0.95424 0.95424 l -1.90573,1.96539 c -4.10337,4.23182 -5.20152,4.7327 -4.5894,2.09326 l 0.41003,-1.76799 -0.27405,-0.51207 -0.27405,-0.51207 h -0.47885 -0.47885 l -0.40683,0.46302 -0.40682,0.46302 -0.32428,2.70274 -0.32427,2.70274 -0.89741,0.52948 -0.89741,0.52949 v 0.50569 0.50569 l 0.38529,0.31976 0.38528,0.31976 0.22763,-0.14068 0.22763,-0.14068 -0.24841,1.72757 -0.2484,1.72757 0.29128,0.63929 0.29127,0.63929 h 0.51594 0.51595 z m 5.17827,-3.52889 v -0.48846 l 0.39688,-0.32938 0.39687,-0.32938 v 0.66555 0.66555 l -0.39687,0.15229 -0.39688,0.1523 z m 2.11667,-0.6731 c 0,-0.83562 0.49919,-1.9287 0.96188,-2.10625 l 0.36104,-0.13855 v 0.85887 0.85887 l -0.41188,0.58803 c -0.22653,0.32342 -0.52419,0.58804 -0.66146,0.58804 h -0.24958 z m -24.16893,-1.32727 0.55506,-0.38878 0.13795,-0.52753 0.13796,-0.52754 -0.35685,-0.29616 -0.35685,-0.29615 -0.46909,0.0903 -0.46909,0.0903 -0.30676,0.61531 -0.30676,0.6153 0.13254,0.50683 0.13254,0.50683 h 0.30714 c 0.16893,0 0.55692,-0.17495 0.86221,-0.38878 z m 36.97879,5.32053 c -0.0834,-0.21744 -0.099,-0.6719 -0.0345,-1.0099 l 0.11718,-0.61456 0.036,0.8599 0.036,0.85989 h 0.24254 c 0.13339,0 0.30259,-0.14882 0.37599,-0.33072 l 0.13345,-0.33073 0.0209,0.33073 c 0.0115,0.1819 0.13995,0.33072 0.28547,0.33072 h 0.26458 v -0.66998 -0.66998 l -0.59531,-0.23929 -0.59531,-0.23929 0.43062,-0.0168 0.43062,-0.0168 0.31729,0.38231 0.31729,0.38231 -0.0865,0.60988 -0.0865,0.60988 -0.72911,0.0839 -0.7291,0.0839 z m 0.68389,-0.83071 c 0,-0.0728 0.0595,-0.13229 0.13229,-0.13229 0.0728,0 0.13229,0.0595 0.13229,0.13229 0,0.0728 -0.0595,0.13229 -0.13229,0.13229 -0.0728,0 -0.13229,-0.0595 -0.13229,-0.13229 z"
       id="path81" /></g></svg>
