<?xml version="1.0" encoding="UTF-8" standalone="no"?>
<!-- Created with Inkscape (http://www.inkscape.org/) -->

<svg
   width="81.253502mm"
   height="57.683216mm"
   viewBox="0 0 81.253502 57.683216"
   version="1.1"
   id="svg1"
   xml:space="preserve"
   xmlns="http://www.w3.org/2000/svg"
   xmlns:svg="http://www.w3.org/2000/svg"><defs
     id="defs1" /><g
     id="layer1"
     transform="translate(-154.8003,71.436806)"><g
       id="g68"
       transform="matrix(0.47686316,0,0,0.47686316,215.14316,-113.50841)"><path
         style="fill:#000000"
         d="m -49.150658,209.0111 c -0.436563,-0.0546 -2.639219,-0.39009 -4.894792,-0.74558 -2.255573,-0.3555 -7.553854,-1.18211 -11.773959,-1.83692 -4.220104,-0.65481 -10.351823,-1.61609 -13.626042,-2.13619 -3.274219,-0.52009 -8.215312,-1.29181 -10.980208,-1.71492 -2.764896,-0.42312 -7.348803,-1.13577 -10.186461,-1.58368 -2.83765,-0.4479 -7.46736,-1.176 -10.28823,-1.61799 l -5.12885,-0.80363 -1.39202,-0.52082 c -0.76561,-0.28645 -2.09002,-0.97196 -2.94314,-1.52336 l -1.55112,-1.00253 -1.15014,-1.30387 -1.15014,-1.30387 -0.73614,-1.45521 c -0.40488,-0.80037 -0.92812,-2.1019 -1.16276,-2.89229 l -0.42662,-1.43709 v -2.18174 -2.18173 l 3.18733,-15.1666 c 1.75304,-8.34163 3.72485,-17.66691 4.38179,-20.72284 0.65695,-3.05594 1.55263,-7.28266 1.99041,-9.39271 0.43777,-2.11006 1.02029,-4.90802 1.29447,-6.21771 0.27419,-1.30969 1.15205,-5.45865 1.9508,-9.21991 l 1.45228,-6.83865 1.13969,-2.27078 1.13968,-2.27077 1.94058,-2.06375 1.94058,-2.06376 1.76359,-1.16828 c 0.96997,-0.64255 2.23984,-1.36694 2.82192,-1.60974 0.58208,-0.2428 2.368021,-0.8003 3.968751,-1.2389 1.600729,-0.43859 6.42276,-1.7325 10.715625,-2.875338 4.292864,-1.14284 9.353021,-2.49425 11.244792,-3.00312 1.891771,-0.50888 8.856927,-2.37321 15.478125,-4.14295 6.621198,-1.76975 12.87198,-3.38548 13.890625,-3.59053 l 1.852084,-0.3728 4.497913,-0.15741 4.49792,-0.1574 3.70417,0.54293 c 2.03729,0.29862 6.38307,0.96838 9.65729,1.48836 3.27422,0.51998 8.63203,1.364 11.90625,1.87561 3.2742205,0.5116 7.4414105,1.15837 9.26042047,1.43727 1.81901,0.27889 5.98619003,0.93115 9.26041003,1.44945 3.2742195,0.51831 9.8226595,1.53928 14.5520895,2.26883 4.72942,0.72955 9.31333,1.50235 10.18646,1.71734 0.87312,0.21499 2.33082,0.75314 3.23934,1.195888 l 1.65184,0.805 1.65545,1.63795 1.65545,1.63796 0.83466,1.5875 c 0.45906,0.87312 1.02461,2.23419 1.25677,3.02458 l 0.42211,1.43709 v 2.17728 2.17729 l -1.33343,6.3075 c -0.73339,3.46913 -1.91887,9.11888 -2.6344,12.55501 -0.71553,3.43612 -1.48297,7.06753 -1.70542,8.06979 -0.22244,1.00226 -1.66519,7.83495 -3.20611,15.18375 -1.54091,7.3488 -3.1999,15.26646 -3.68664,17.59479 -0.48674,2.32834 -1.06794,5.02172 -1.29156,5.98531 -0.22361,0.96358 -0.70144,2.41871 -1.06183,3.23362 -0.36039,0.81491 -1.04332,2.05058 -1.51763,2.74595 -0.47431,0.69536 -1.28603,1.7837 -1.80383,2.41854 -0.51779,0.63484 -1.71535,1.74568 -2.66123,2.46854 l -1.71979,1.31428 -1.85209,0.87566 -1.85208,0.87566 -6.21771,1.64603 c -3.4197395,0.90531 -7.4678595,1.97936 -8.9958295,2.38677 -1.52797003,0.40742 -8.19547,2.19108 -14.8166705,3.96369 -6.6212,1.77261 -13.11011,3.5081 -14.41979,3.85663 -1.30969,0.34854 -3.9886,1.0478 -5.95313,1.55391 l -3.57187,0.92021 -2.24202,0.27396 -2.24202,0.27395 -3.711105,-0.0396 c -2.04111,-0.0218 -4.068296,-0.0843 -4.504858,-0.13887 z m -49.124352,-28.13794 0.617316,-0.39084 0.474874,-0.92604 c 0.261181,-0.50932 0.557808,-1.31032 0.659172,-1.77999 l 0.184297,-0.85395 -0.167224,-0.52688 -0.167225,-0.52688 -0.976971,-0.27134 -0.976972,-0.27134 -2.852577,-10e-4 -2.85257,-0.001 -0.15912,-0.41466 -0.15912,-0.41465 0.30457,-0.30457 0.30457,-0.30457 1.84341,-0.10417 c 1.01387,-0.0573 2.14278,-0.029 2.508685,0.0628 l 0.665277,0.16697 v 0.39183 0.39184 h 1.558054 1.558055 l 0.18112,-0.96546 0.181121,-0.96545 -0.556263,-0.5559 -0.556263,-0.5559 h -4.338846 -4.33885 l -0.74667,0.5524 -0.74667,0.55241 -0.42464,0.9028 c -0.23356,0.49654 -0.49554,1.27509 -0.58218,1.7301 l -0.15753,0.82729 0.33327,0.45578 0.33328,0.45577 1.17494,0.22677 c 0.64622,0.12472 2.28001,0.23194 3.63065,0.23828 l 2.4557,0.0115 0.159116,0.41466 0.15912,0.41466 -0.312506,0.31295 -0.3125,0.31294 -2.49763,0.0916 -2.49764,0.0916 -0.24946,-0.65615 -0.24947,-0.65616 -1.3855,0.0354 -1.38549,0.0354 -0.24607,0.73896 -0.24608,0.73896 0.16604,0.66155 0.16604,0.66156 0.5874,0.24986 0.58739,0.24985 4.36563,-0.0689 4.365624,-0.0689 z m 5.647663,-0.12626 0.520303,-0.66146 h 2.494338 2.494338 v 0.66146 0.66146 h 1.812622 1.812621 l -0.62026,-3.50573 c -0.341144,-1.92815 -0.748546,-4.13081 -0.905338,-4.89479 l -0.285078,-1.38906 -1.899471,0.0146 -1.899471,0.0146 -2.38125,3.0766 c -1.309687,1.69212 -3.014904,3.8882 -3.789369,4.88016 l -1.40812,1.80357 h 1.766916 1.766916 z m 2.51927,-3.39114 c 0.116371,-0.19164 0.628303,-0.92013 1.137626,-1.61885 l 0.926042,-1.27041 0.167133,0.75895 c 0.09192,0.41743 0.18122,1.14591 0.198438,1.61885 l 0.0313,0.85989 h -1.336064 -1.336064 z m 18.624658,3.43758 1.166094,-0.61502 0.597997,-0.8833 0.597997,-0.8833 0.526482,-1.70455 0.526482,-1.70455 v -0.88342 -0.88341 l -0.63799,-0.74236 -0.637989,-0.74236 -4.852115,-0.0808 -4.852115,-0.0808 -1.39682,4.71106 c -0.768251,2.59108 -1.39333,4.80035 -1.389063,4.90949 l 0.0078,0.19844 h 4.588594 4.588594 z m -6.109948,-2.26753 c 0,-0.13019 0.243656,-1.02558 0.541458,-1.98975 l 0.541459,-1.75304 -0.166514,-0.26942 -0.166514,-0.26943 2.469326,0.0764 2.469326,0.0764 0.08186,0.57482 c 0.04502,0.31615 -0.04873,1.05981 -0.208346,1.65257 l -0.290208,1.07775 -0.569149,0.53025 -0.569148,0.53024 h -2.066777 -2.066776 z m 19.517908,2.47305 c 0.539043,-0.22523 1.260907,-0.67171 1.604141,-0.99219 0.343235,-0.32048 0.800711,-0.92231 1.016614,-1.3374 0.215903,-0.41509 0.560489,-1.30806 0.765747,-1.98438 l 0.373196,-1.22965 0.0029,-1.24647 0.0029,-1.24646 -0.590048,-0.54971 c -0.324526,-0.30235 -0.830542,-0.60887 -1.124479,-0.68117 -0.293938,-0.0723 -2.48123,-0.0974 -4.860651,-0.0559 l -4.326219,0.0755 -1.428468,4.74093 c -0.785658,2.60751 -1.428469,4.7804 -1.428469,4.82865 0,0.0482 2.027887,0.0877 4.506415,0.0877 h 4.506415 z m -5.591072,-2.96394 c 0.09822,-0.40018 0.38933,-1.3457 0.646909,-2.10114 l 0.468325,-1.37355 -0.311139,-0.12692 c -0.171127,-0.0698 0.77561,-0.13632 2.10386,-0.14781 l 2.414999,-0.0209 0.319288,0.38472 0.319289,0.38472 -0.422988,1.45503 -0.422987,1.45502 -0.584234,0.40921 -0.584234,0.40922 h -2.062836 -2.062836 z m 19.897951,2.35056 c 0.168555,-0.56259 0.306464,-1.15434 0.306464,-1.31501 v -0.29213 l -3.26233,-0.074 -3.26233,-0.074 1.011695,-3.3073 c 0.556433,-1.81901 1.01245,-3.39658 1.013372,-3.50572 l 0.0017,-0.19844 h -1.681249 -1.681249 l -0.571452,1.91823 c -0.314299,1.05502 -0.974957,3.25768 -1.46813,4.89479 l -0.896677,2.97656 h 5.091873 5.091873 z m 13.144265,-0.2214 c 0.18049,-0.61159 0.26301,-1.17713 0.18337,-1.25677 -0.0796,-0.0796 -1.79181,-0.14478 -3.80485,-0.14478 h -3.66007 l 0.004,-0.19844 c 0.002,-0.10914 0.0959,-0.34298 0.20817,-0.51964 l 0.20411,-0.32121 2.88956,-0.0757 2.88957,-0.0757 0.32505,-1.12448 0.32506,-1.12448 h -2.89362 c -1.59149,0 -2.89362,-0.0498 -2.89362,-0.11065 0,-0.0609 0.0723,-0.29898 0.1606,-0.52916 l 0.1606,-0.41852 h 3.78328 3.78328 l 0.42175,-1.23776 c 0.23196,-0.68076 0.42174,-1.27608 0.42174,-1.32291 0,-0.0468 -2.49621,-0.0852 -5.54714,-0.0852 h -5.54715 l -0.95199,3.10885 c -0.52359,1.70987 -1.18253,3.81658 -1.46431,4.68159 -0.28178,0.865 -0.51232,1.67104 -0.51232,1.79119 v 0.21848 l 5.59336,-0.0714 5.59337,-0.0714 z m 5.6575,-1.00468 0.65352,-2.11666 0.32759,2.11666 c 0.18017,1.16417 0.33653,2.14644 0.34746,2.18282 0.0109,0.0364 0.72264,0.0661 1.58158,0.0661 h 1.5617 l 1.53341,-2.10836 c 0.84338,-1.1596 1.5656,-2.07618 1.60493,-2.03684 0.0393,0.0393 -0.16193,0.83927 -0.44726,1.77763 -0.28532,0.93836 -0.51968,1.85494 -0.52079,2.03684 l -0.002,0.33073 h 1.56967 1.56967 l 0.13454,-0.46302 c 0.074,-0.25466 0.67997,-2.27585 1.3466,-4.49152 0.66663,-2.21568 1.28169,-4.20998 1.3668,-4.43178 l 0.15475,-0.40326 h -1.95223 -1.95223 l -2.20946,2.90485 c -1.2152,1.59768 -2.3735,3.041 -2.57399,3.2074 l -0.36454,0.30254 -8.5e-4,-0.23083 c -4.6e-4,-0.12696 -0.18106,-1.3024 -0.40132,-2.61209 -0.22027,-1.30968 -0.46028,-2.64914 -0.53337,-2.97656 l -0.13288,-0.59531 h -1.93112 -1.93112 l -1.37789,4.69635 c -0.75785,2.583 -1.37486,4.79133 -1.37114,4.90742 l 0.007,0.21106 1.64485,-0.0788 1.64485,-0.0788 z m 23.0623905,1.53988 c 0.14827,-0.38999 0.29416,-0.95554 0.32418,-1.25677 l 0.0546,-0.54769 -3.77031,-0.0734 -3.77032,-0.0734 0.004,-0.19117 c 0.002,-0.10515 0.0959,-0.33572 0.20817,-0.51238 l 0.20412,-0.32121 2.88956,-0.0757 2.88956,-0.0757 0.32506,-1.12448 0.32506,-1.12448 h -2.89362 -2.89362 l 0.004,-0.19843 c 0.002,-0.10914 0.0964,-0.34385 0.20935,-0.52157 l 0.2053,-0.32313 3.79668,-0.0737 3.79666997,-0.0738 0.35558,-1.19063 c 0.19557,-0.65484 0.35739,-1.22039 0.3596,-1.25677 0.002,-0.0364 -2.48705997,-0.0661 -5.53170997,-0.0661 h -5.5357405 l -0.26846,0.85989 c -0.14766,0.47295 -0.62436,2.05052 -1.05935,3.50573 -0.43498,1.45521 -0.97183,3.27091 -1.193,4.0349 l -0.40212,1.38906 h 5.5485405 5.54854 z m 5.93078,-1.81332 c 0.40969,-1.38732 0.82305,-2.5707 0.91858,-2.62974 0.0955,-0.059 0.87902,1.07604 1.74108,2.5224 l 1.56739,2.62974 h 1.7799995 1.77999 l 0.56038,-1.91823 c 0.30821,-1.05502 0.91933,-3.0974 1.35804,-4.53861 0.43871,-1.44121 0.86138,-2.78644 0.93927,-2.98941 l 0.14161,-0.36903 -1.79154,0.079 -1.79154,0.079 -0.6891,2.31411 -0.6890895,2.31411 -0.21138,-0.0695 c -0.11625,-0.0382 -0.90161,-1.07956 -1.74522,-2.31412 l -1.53386,-2.24464 h -1.82031 -1.82032 l -1.25109,4.10104 c -0.68810003,2.25557 -1.32549003,4.42846 -1.41642003,4.82865 l -0.16532,0.7276 h 1.69698003 1.69698 z M -111.29983,174.72524 c 0.16864,-0.18059 0.50017,-0.92742 0.73674,-1.65964 l 0.43013,-1.3313 0.81726,-0.99148 0.81727,-0.99148 0.96659,-0.48889 c 0.53163,-0.26889 1.59754,-0.62262 2.36868,-0.78607 l 1.40209,-0.29719 h 2.9741 2.974092 l 1.507973,0.39278 1.507974,0.39278 2.317928,-0.78262 c 1.27486,-0.43044 3.508552,-1.20753 4.96376,-1.72687 1.455209,-0.51934 3.572285,-1.25697 4.704614,-1.63919 l 2.058779,-0.69494 -0.206696,-0.18091 c -0.113683,-0.0995 -1.266055,-0.58542 -2.560827,-1.07982 l -2.354131,-0.89891 -1.298525,-1.16216 -1.298526,-1.16216 -0.625062,-1.2335 c -0.343784,-0.67842 -0.821724,-1.94139 -1.062088,-2.80659 l -0.437027,-1.57309 -0.135973,-3.83646 -0.135973,-3.83646 0.822854,-5.40375 c 0.452569,-2.97207 1.122307,-6.60347 1.488306,-8.06979 0.365999,-1.46633 1.033181,-3.79714 1.482627,-5.17959 0.449445,-1.38244 1.110001,-3.22791 1.4679,-4.10104 0.3579,-0.87312 1.059908,-2.39747 1.560018,-3.38743 l 0.909291,-1.79993 -0.18014,-0.29147 -0.18014,-0.29147 0.27854,0.17215 0.27854,0.17214 0.808911,-1.25574 c 0.444902,-0.69066 1.260689,-1.72204 1.812862,-2.29195 0.552172,-0.56991 1.677025,-1.53405 2.499673,-2.14252 0.822648,-0.60847 2.495322,-1.59467 3.717052,-2.19155 l 2.221329,-1.08523 3.589243,-1.04956 3.589243,-1.04955 4.070788,-0.67883 c 2.238934,-0.37335 5.08282,-0.79098 6.319748,-0.92806 1.236927,-0.13708 6.026954,-0.4005 10.644505,-0.58537 l 8.395543,-0.33613 8.4055,0.32672 c 4.62302,0.17969 9.66362,0.43919 11.20132,0.57666 1.53771,0.13747 4.72602,0.55185 7.0851405,0.92086 2.35912,0.369 5.03006,0.84477 5.93542,1.05727 0.90536,0.2125 2.44928997,0.61817 3.43095997,0.9015 0.98166003,0.28333 2.64853003,0.93166 3.70416003,1.44073 l 1.91933,0.9256 0.89716,0.87933 c 0.49343,0.48363 1.17754,1.32265 1.52023,1.86449 l 0.62308,0.98516 0.5958195,2.05755 0.59582,2.05755 -0.0269,5.02708 -0.0269,5.02709 -0.26319,1.52135 c -0.14475,0.83674 -0.21265,1.52135 -0.15088,1.52135 0.0618,0 2.3357,-0.78499 5.05318,-1.74443 2.71747,-0.95944 6.78633,-2.40143 9.0419,-3.20441 2.25558,-0.80299 5.31535,-1.88733 6.79949,-2.40966 l 2.69845,-0.94968 0.67225,-2.92351 c 0.36974,-1.60793 0.85207,-3.7945 1.07186,-4.85904 0.21979,-1.06454 0.39846,-2.43376 0.39704,-3.04271 l -0.003,-1.10718 -0.62106,-1.33373 -0.62107,-1.33373 -0.82111,-0.69092 -0.82111,-0.69092 -1.13493,-0.39698 c -0.62421,-0.21834 -2.14696,-0.54108 -3.38388,-0.71719 -1.23693,-0.17611 -3.55865,-0.53579 -5.15938,-0.7993 -1.60073,-0.26351 -3.56526,-0.55544 -4.36562,-0.64874 -0.80037,-0.0933 -3.00302,-0.44903 -4.8948,-0.7905 -1.89177,-0.34148 -4.2134795,-0.69999 -5.1593695,-0.7967 -0.94589,-0.0967 -2.55323,-0.33684 -3.57188,-0.53361 -1.01864,-0.19678 -3.16177,-0.55452 -4.76250003,-0.79499 -1.60071997,-0.24047 -5.11306997,-0.7814 -7.80519997,-1.20206 -2.69214,-0.42066 -6.4426105,-1.010438 -8.3343805,-1.310628 -1.89177,-0.30018 -5.99943,-0.94969 -9.12812,-1.44334 -3.1287,-0.49365 -7.29292,-1.1059 -9.25382,-1.36056 l -3.56527,-0.46301 -3.57848,0.32489 -3.578477,0.32489 -1.984375,0.48622 c -1.091406,0.26743 -3.591718,0.92223 -5.55625,1.45513 -1.964531,0.53289 -4.226719,1.13292 -5.027083,1.333378 -0.800365,0.20047 -2.824427,0.73547 -4.497917,1.1889 -1.67349,0.45344 -4.352396,1.16861 -5.953125,1.58929 -1.600729,0.42067 -4.517761,1.20141 -6.482292,1.73497 -1.964531,0.53357 -4.405313,1.18942 -5.423958,1.45746 -1.018646,0.26803 -3.399896,0.89886 -5.291667,1.40184 -1.891771,0.50297 -5.680184,1.52186 -8.418695,2.2642 -2.738512,0.74233 -5.180323,1.45738 -5.426246,1.589 -0.245924,0.13161 -1.133536,0.7723 -1.97247,1.42374 l -1.52534,1.18445 -0.81712,1.128 c -0.44941,0.62041 -0.97727,1.51131 -1.17301,1.97979 -0.19575,0.46847 -0.59618,1.85008 -0.88985,3.07022 -0.29368,1.22015 -0.89994,4.00439 -1.34726,6.18721 -0.44732,2.18281 -1.23206,5.93328 -1.74387,8.33437 -0.5118,2.40109 -1.21274,5.67531 -1.55762,7.27604 -0.34489,1.60073 -0.80531,3.80339 -1.02317,4.89479 -0.21785,1.09141 -0.76514,3.71079 -1.21619,5.82084 -0.45105,2.11005 -1.17007,5.50333 -1.59781,7.54062 -0.42775,2.03729 -0.83849,3.94229 -0.91275,4.23334 -0.0743,0.29104 -0.67288,3.12017 -1.33025,6.28695 -0.65737,3.16679 -1.19522,5.86758 -1.19522,6.00177 v 0.24397 l 2.70492,-0.91093 c 1.4877,-0.50101 2.84289,-1.05867 3.01153,-1.23926 z m 28.414796,-10.3825 c 0,-0.0728 0.05953,-0.1323 0.132292,-0.1323 0.07276,0 0.132291,0.0595 0.132291,0.1323 0,0.0728 -0.05953,0.13229 -0.132291,0.13229 -0.07276,0 -0.132292,-0.0595 -0.132292,-0.13229 z M -107.49128,134.7094 c 0,-0.0728 0.0595,-0.13229 0.13229,-0.13229 0.0728,0 0.13229,0.0595 0.13229,0.13229 0,0.0728 -0.0595,0.13229 -0.13229,0.13229 -0.0728,0 -0.13229,-0.0595 -0.13229,-0.13229 z m 1.85208,-9.12812 v -0.35278 l 0.17639,0.17639 0.17639,0.17639 -0.17639,0.17639 -0.17639,0.17638 z m 138.112505,-2.24896 c 0,-0.0728 0.0595,-0.13229 0.13229,-0.13229 0.0728,0 0.13229,0.0595 0.13229,0.13229 0,0.0728 -0.0595,0.13229 -0.13229,0.13229 -0.0728,0 -0.13229,-0.0595 -0.13229,-0.13229 z M -69.1267,106.92815 c 0,-0.0728 0.05953,-0.13229 0.132291,-0.13229 0.07276,0 0.132292,0.0595 0.132292,0.13229 0,0.0728 -0.05953,0.13229 -0.132292,0.13229 -0.07276,0 -0.132291,-0.0595 -0.132291,-0.13229 z m 18.785417,-7.672918 c 0,-0.0728 0.05953,-0.13229 0.132291,-0.13229 0.07276,0 0.132292,0.0595 0.132292,0.13229 0,0.0728 -0.05953,0.1323 -0.132292,0.1323 -0.07276,0 -0.132291,-0.0595 -0.132291,-0.1323 z m -0.529167,-0.52916 c 0,-0.0728 0.05953,-0.13229 0.132292,-0.13229 0.07276,0 0.132291,0.0595 0.132291,0.13229 0,0.0728 -0.05953,0.13229 -0.132291,0.13229 -0.07276,0 -0.132292,-0.0595 -0.132292,-0.13229 z m 22.754165,63.381508 c 1.52797,-0.16152 4.38547,-0.53033 6.35,-0.81958 1.96453,-0.28925 4.76885,-0.81366 6.23182,-1.16534 1.46296,-0.35168 3.42749,-0.90046 4.36562,-1.2195 0.93813,-0.31904 2.7290405,-1.10341 3.9798005,-1.74305 l 2.27411,-1.16298 1.5047,-1.46909 1.5047,-1.46909 1.42524997,-2.95707 1.42526,-2.95706 0.96161003,-2.91042 c 0.52888,-1.60073 1.37198,-4.53411 1.87354,-6.51862 0.50156,-1.98452 0.91193,-3.80022 0.91193,-4.0349 v -0.42669 H -23.089195 -50.87045 v -0.24121 c 0,-0.13266 1.05904,-2.60321 2.353421,-5.4901 1.294382,-2.88689 2.886602,-6.39205 3.538268,-7.78923 l 1.184846,-2.54034 -0.241738,-0.43196 -0.241737,-0.43196 -1.378301,-0.3949 -1.378301,-0.3949 -2.910416,-0.2706 c -1.60073,-0.14883 -3.912526,-0.2707 -5.137327,-0.27083 l -2.22691,-2.2e-4 0.156863,-0.15686 c 0.08628,-0.0863 1.252175,-0.32049 2.59089,-0.52047 1.338715,-0.19998 4.76686,-0.50194 7.618101,-0.67101 l 5.184076,-0.30741 9.26861,0.14909 9.26861,0.14909 2.77813,0.28504 c 1.52797,0.15678 4.14734,0.53774 5.82083,0.84658 l 3.04271,0.56153 2.3795305,0.77151 2.37952,0.77151 1.72152,0.96045 1.72151,0.96045 1.51373,1.44054 1.51372997,1.44055 0.56845,1.17426 c 0.31265,0.64585 0.71049,1.73233 0.88409003,2.4144 l 0.31564,1.24013 2.13273,0.0763 2.13273,0.0763 0.16219,-0.60547 c 0.0892,-0.33301 0.16292,-1.55797 0.16381,-2.72214 8.9e-4,-1.16417 -0.12086,-2.89057 -0.27055,-3.83646 l -0.27217,-1.71979 -0.65036,-1.34619 -0.65036,-1.34619 -1.25828,-0.67578 c -0.69206,-0.37168 -2.27032003,-0.97404 -3.50725003,-1.33858 -1.23692997,-0.36453 -2.84426997,-0.79243 -3.57187997,-0.95088 -0.7276,-0.15845 -2.75166,-0.52095 -4.49791,-0.80555 -1.7462505,-0.28461 -4.3061005,-0.6395 -5.6885405,-0.78866 -1.38245,-0.14915 -4.47808,-0.38972 -6.87917,-0.53459 -2.40109,-0.14488 -6.56828,-0.33198 -9.26042,-0.4158 l -4.89479,-0.1524 -7.01146,0.26406 c -3.8563,0.14523 -8.440207,0.393 -10.186457,0.55059 -1.74625,0.15759 -4.663281,0.52297 -6.482292,0.81195 -1.81901,0.28899 -4.642446,0.87352 -6.274301,1.29896 -1.631855,0.42544 -3.856666,1.12976 -4.944024,1.56516 -1.087359,0.4354 -2.740711,1.27395 -3.674116,1.86345 l -1.697101,1.07182 -1.308382,1.39035 -1.308383,1.39036 -1.344999,2.64583 c -0.739749,1.45521 -1.772413,3.83646 -2.29481,5.29167 -0.522396,1.45521 -1.303895,4.03136 -1.736664,5.72478 -0.432769,1.69342 -0.823451,3.53888 -0.868182,4.10104 l -0.08133,1.0221 32.543751,0.0831 32.54375,0.0831 -3.63754,0.74845 -3.63754,0.74845 -1.22059,0.62361 -1.22059,0.62362 -3.43342,6.74687 -3.43342,6.74688 -0.70428,0.74552 -0.70429,0.74551 -1.85208,0.90858 -1.85208,0.90858 -1.64263,0.21883 -1.642624,0.21884 -6.69175,-0.20105 -6.69175,-0.20106 -4.842014,-0.55545 -4.842015,-0.55546 -3.026094,-0.78025 -3.026093,-0.78024 -1.624215,-0.8199 -1.624216,-0.8199 -1.254417,-1.17336 -1.254418,-1.17337 -0.810546,-1.52073 -0.810545,-1.52074 -0.328552,-1.78312 -0.328551,-1.78311 -1.277183,-0.0265 c -0.702451,-0.0146 -1.604605,-0.0384 -2.004787,-0.053 l -0.727604,-0.0265 -0.216002,1.57433 -0.216001,1.57434 0.143858,2.64583 0.143858,2.64584 0.409397,1.37651 0.409396,1.37652 0.659158,0.78336 0.659159,0.78337 1.95962,0.81579 1.95962,0.81579 2.73251,0.66534 c 1.502881,0.36594 4.756573,0.95746 7.230427,1.31449 2.473854,0.35703 6.04573,0.77432 7.9375,0.92732 1.891771,0.15299 4.153959,0.32041 5.027084,0.37204 0.873125,0.0516 7.064375,0.0594 13.75833,0.0172 l 12.17084,-0.0767 z m -13.50788,-9.19985 1.43695,-0.73583 2.19901,-4.31307 c 1.20945,-2.37219 2.19901,-4.36648 2.19901,-4.43177 0,-0.0653 -9.243741,-0.1187 -20.541642,-0.1187 h -20.541637 l 0.176348,1.50044 0.176347,1.50044 0.485912,1.09849 0.485912,1.09848 1.160107,0.94346 1.160106,0.94346 2.116666,0.67729 c 1.164167,0.37251 2.771511,0.79866 3.571876,0.947 0.800364,0.14835 3.419739,0.50912 5.820833,0.80172 2.401094,0.2926 5.020469,0.56793 5.820834,0.61184 0.800364,0.0439 4.015981,0.10971 7.145815,0.14621 l 5.690613,0.0664 z m 38.2215105,-25.54052 c -0.0899,-0.61846 -0.39992,-1.60072 -0.68894,-2.18281 l -0.52548,-1.05833 -0.70325,-0.6016 c -0.38679,-0.33088 -1.61037,-1.0685 -2.71907,-1.63915 l -2.0158305,-1.03756 -2.08522,-0.52578 c -1.14686,-0.28917 -2.97818,-0.70298 -4.06959,-0.91956 -1.0914,-0.21659 -2.9964,-0.46564 -4.23333,-0.55345 -1.23693,-0.0878 -3.97537,-0.27407 -6.08542,-0.41392 -2.11005,-0.13984 -5.77377,-0.25603 -8.14161,-0.25818 l -4.30515,-0.004 -0.29986,0.72761 c -0.16493,0.40018 -0.9489,2.09682 -1.74217,3.77031 -0.79326,1.67349 -1.62712,3.51896 -1.85301,4.10104 -0.22589,0.58209 -0.525504,1.20716 -0.665809,1.38906 l -0.255099,0.33073 h 20.276148 20.2761505 z m -39.5302905,0.72761 c 0,-0.0728 0.0595,-0.13229 0.13229,-0.13229 0.0728,0 0.13229,0.0595 0.13229,0.13229 0,0.0728 -0.0595,0.13229 -0.13229,0.13229 -0.0728,0 -0.13229,-0.0595 -0.13229,-0.13229 z m 33.8666605,-6.08542 c 0,-0.0728 0.0595,-0.13229 0.13229,-0.13229 0.0728,0 0.1323,0.0595 0.1323,0.13229 0,0.0728 -0.0595,0.13229 -0.1323,0.13229 -0.0728,0 -0.13229,-0.0595 -0.13229,-0.13229 z"
         id="path54" /><path
         id="path55"
         style="opacity:1;fill:#ffffff;fill-opacity:1;fill-rule:evenodd;stroke-width:3.4902;stroke-linejoin:bevel"
         d="m -35.91357,109.30495 c -5.380691,0.0322 -10.762829,0.23924 -16.123444,0.71368 -4.3005,0.39043 -8.598659,0.95786 -12.793522,2.00395 -3.188684,0.81052 -6.350891,1.9012 -9.142169,3.67449 -1.321866,0.85374 -2.571977,1.84993 -3.577259,3.06748 -1.213091,1.54311 -2.11713,3.30006 -2.954345,5.06744 -1.566582,3.38911 -2.774411,6.94152 -3.629798,10.57524 -0.256405,1.0967 -0.543089,2.18961 -0.713944,3.30374 -0.04229,0.31268 0.173051,0.62308 0.481627,0.69393 0.78251,0.17967 1.592643,0.18235 2.390626,0.23643 4.14586,0.17783 8.29636,0.20262 12.445262,0.25014 12.850879,0.11358 25.702569,0.0533 38.553474,0.15932 2.131539,0.0197 4.285396,0.0456 6.402335,0.10661 0.240453,0.009 0.481016,0.0162 0.721403,0.0269 -1.346556,0.38784 -2.7348,0.70496 -3.977051,1.3748 -1.00965,0.54056 -1.745988,1.45889 -2.318596,2.42981 -0.890159,1.50824 -1.636411,3.09527 -2.445793,4.64712 -1.057984,2.03491 -2.079643,4.09575 -3.320611,6.0277 -0.849164,1.3019 -1.869043,2.57576 -3.288098,3.28239 -1.446051,0.72572 -3.088701,0.88634 -4.680204,0.99113 -0.366663,0.0184 -0.722622,0.0382 -1.069004,0.048 -2.146411,0.063 -4.33994,0.0551 -6.506808,0.031 -2.737787,-0.0435 -5.476547,-0.16271 -8.215442,-0.38064 -1.214895,-0.0979 -2.43173,-0.21717 -3.652986,-0.35937 -0.742291,-0.0887 -1.528437,-0.18927 -2.285198,-0.30174 -0.610518,-0.0878 -1.28275,-0.19844 -1.884574,-0.30133 -0.858309,-0.15283 -1.734397,-0.32404 -2.562122,-0.51401 -1.82413,-0.42538 -3.651245,-0.92313 -5.335365,-1.75912 -1.696411,-0.88578 -3.076078,-2.29507 -4.128209,-3.87803 -0.844833,-1.29867 -1.513644,-2.76125 -1.66083,-4.31855 -0.03609,-0.34081 0.02732,-0.7293 -0.231486,-1.00245 -0.43098,-0.47758 -1.119783,-0.55958 -1.72607,-0.60629 -0.629772,-0.009 -1.285984,-0.0547 -1.888697,0.16238 -0.559535,0.20421 -0.851064,0.77759 -0.979783,1.32395 -0.259506,0.97001 -0.350137,1.97726 -0.313347,2.9792 0.0681,1.93024 0.36081,3.85683 0.900515,5.7122 0.254058,0.77987 0.511908,1.60583 1.090247,2.21285 0.843624,0.81171 1.944376,1.27716 3.014642,1.7096 2.446845,0.92863 5.006903,1.51524 7.568499,2.02673 3.273279,0.63621 6.57798,1.10693 9.893514,1.45744 2.434733,0.18379 4.877159,0.23536 7.317163,0.305 6.404604,0.154 12.81176,0.19719 19.217986,0.15294 3.967157,-0.0389 7.942839,-0.1468 11.88192,-0.65401 3.561258,-0.46636 7.114833,-1.03761 10.605842,-1.89089 2.907133,-0.72297 5.8023655,-1.64092 8.4073423,-3.14795 1.4567207,-0.85294 2.8223197,-1.89859 3.9056681,-3.20104 1.1280638,-1.46069 1.94966035,-3.12721 2.72445098,-4.79401 1.45864922,-3.2365 2.63219902,-6.60128 3.52636772,-10.0364 0.4446502,-1.67492 0.7428068,-3.38275 1.0443432,-5.08776 -0.1736328,-0.20756 -0.3472656,-0.41513 -0.5208984,-0.6227 -10.879471,-0.003 -21.7589529,0.007 -32.6384159,-0.006 -6.112084,-0.0197 -12.224912,-0.0395 -18.33545,-0.18981 -1.256271,-0.0389 -2.541924,-0.0676 -3.80677,-0.17141 1.214157,-3.03677 2.606067,-5.99797 3.933259,-8.98593 0.812562,-1.8792 1.6241,-3.76421 2.255911,-5.71343 0.108379,-0.41709 0.304065,-0.85512 0.193813,-1.29064 -0.217691,-0.64822 -0.899194,-0.96211 -1.507897,-1.14455 -1.319123,-0.37359 -2.692477,-0.49129 -4.050395,-0.64113 -1.580616,-0.16318 -3.167333,-0.25738 -4.748483,-0.41442 2.542003,-0.31775 5.098905,-0.49752 7.65356,-0.67859 3.826065,-0.23982 7.653303,-0.26883 11.492717,-0.22828 3.478789,0.041 6.960565,0.15739 10.426079,0.35031 3.407877,0.20332 6.818927,0.44354 10.198258,0.94214 0.620433,0.0963 1.239848,0.20149 1.853203,0.33634 0.215058,0.0518 0.505645,0.11531 0.749476,0.17513 2.8411029,0.69846 5.6529866,1.6906 8.1063141,3.31354 1.8062246,1.20142 3.41265916,2.81849 4.25104544,4.84834 0.37248578,0.83708 0.47582896,1.78966 0.99222726,2.56115 0.3330947,0.4997 0.9451427,0.69954 1.5196217,0.72697 1.0083178,0.0514 2.0189568,0.0147 3.028239,0.0258 0.1760443,-0.18656 0.3520887,-0.37311 0.5281332,-0.55966 -0.1118499,-1.7764 -0.1871115,-3.55535 -0.3259815,-5.32988 -0.1393068,-1.42981 -0.3084361,-2.86638 -0.6890501,-4.25486 -0.1667825,-0.70303 -0.6262449,-1.2958 -1.1858765,-1.73677 -1.1562,-0.9105 -2.5470282,-1.45374 -3.92264899,-1.93838 -2.98533861,-1.00071 -6.08669691,-1.60136 -9.18920311,-2.10506 -5.8653365,-0.91781 -11.7927055,-1.38679 -17.7217225,-1.62811 -3.074112,-0.12314 -6.150981,-0.17293 -9.227537,-0.16042 z" /><path
         style="opacity:1;fill:#ffffff;fill-opacity:1;fill-rule:evenodd;stroke-width:13.1913;stroke-linejoin:bevel"
         d="m -439.95934,663.33192 c -0.061,-7.75364 32.51354,-155.23678 33.86429,-153.32253 0.94061,1.333 1.13385,0.58044 0.46629,-1.8159 -1.56226,-5.60798 3.81248,-30.24857 7.05418,-32.34001 1.82883,-1.1799 1.97902,-2.14194 0.49367,-3.16227 -2.81325,-1.9325 3.74739,-28.96564 8.63264,-35.57085 10.30764,-13.93669 13.12507,-15.00462 104.33693,-39.54858 54.92902,-14.78071 88.6115,-22.94417 92.00905,-22.2998 3.3753,0.64015 5.18508,0.20858 4.88823,-1.16568 -0.64988,-3.0086 15.95484,-7.1061 34.72384,-8.56871 12.29154,-0.95785 23.80984,0.0511 53.770461,4.71025 161.225088,25.07172 216.815509,34.19132 222.242379,36.45881 8.4146,3.51584 13.16371,12.95963 11.71599,23.2977 -2.37741,16.97719 -7.61626,36.27158 -9.52773,35.09023 -1.08067,-0.6679 -2.52641,-0.36449 -3.21272,0.67423 -0.91906,1.39095 -78.056205,29.88285 -80.948763,29.89978 -0.256279,0.002 -0.174294,-10.99404 0.182175,-24.43454 C 41.767699,432.1688 35.228117,419.87844 8.4506825,410.56617 -25.196309,398.8649 -104.15434,392.39727 -170.61576,395.89842 c -72.74335,3.83209 -111.38595,14.27722 -131.81032,35.62847 -11.89072,12.43032 -14.38805,15.25674 -13.48038,15.25674 0.46773,0 -2.08228,6.37913 -5.66669,14.17584 -8.65021,18.81572 -13.83726,36.87825 -18.6136,64.81684 -8.87515,51.91406 -2.36786,79.85264 20.87191,89.61198 3.84322,1.61393 5.70746,3.48381 4.85249,4.86718 -0.7636,1.23553 -9.98482,5.3582 -20.49162,9.16151 -18.30921,6.62767 -19.86737,6.8649 -37.48559,5.70761 -22.37534,-1.46977 -34.18212,1.2735 -41.15705,9.56273 -2.66006,3.16129 -5.34846,7.78776 -5.97424,10.28105 -0.76719,3.05672 -3.81336,5.55507 -9.35242,7.67046 -9.89077,3.77733 -11.01125,3.8477 -11.03607,0.69309 z"
         id="path56"
         transform="scale(0.26458333)" /><path
         id="path57"
         style="opacity:1;fill:#ee5a24;fill-opacity:1;fill-rule:evenodd;stroke-width:1.43562;stroke-linejoin:bevel"
         d="m -37.320719,95.696484 c -1.300689,0.100021 -2.600804,0.234565 -3.901054,0.347783 -1.89379,0.185758 -3.793454,0.395239 -5.647201,0.837675 -1.107909,0.301422 -2.206732,0.584242 -3.310909,0.894519 -0.29155,0.104309 -0.620033,0.19923 -0.819071,0.452685 -0.349157,-0.04032 -0.689515,0.106353 -1.030428,0.165365 -3.588745,0.864786 -7.158156,1.806979 -10.731645,2.732129 -9.745527,2.54685 -19.482358,5.12607 -29.199768,7.77834 -1.920073,0.53823 -3.851307,1.04026 -5.753137,1.64073 -1.526874,0.55371 -2.886118,1.49757 -4.086568,2.57865 -1.14559,1.03043 -2.08684,2.29725 -2.67168,3.72691 -0.63067,1.57312 -0.9964,3.23477 -1.38906,4.87877 -0.8713,3.81631 -1.65177,7.65267 -2.46807,11.48095 -2.5256,11.97398 -5.06345,23.94521 -7.57628,35.92184 -0.47376,2.29829 -0.97486,4.59175 -1.40456,6.8988 -0.083,0.32234 -0.0644,0.73575 0.24959,0.92811 0.38379,0.25557 0.85796,0.052 1.25626,-0.0579 1.14993,-0.38913 2.30712,-0.76385 3.43028,-1.22628 0.69517,-0.2854 1.37152,-0.71968 1.72961,-1.40353 0.47556,-0.87109 0.674,-1.87204 1.23507,-2.70061 0.55448,-0.86101 1.27676,-1.68751 2.26187,-2.05155 0.58345,-0.24001 1.19477,-0.4047 1.8092,-0.54364 0.0847,-0.0155 0.26677,-0.0571 0.39274,-0.0801 0.52106,-0.10143 1.07687,-0.18401 1.57561,-0.23874 1.0236,-0.11759 2.11914,-0.17067 3.17604,-0.14987 0.392853,0.007 0.73263,0.0224 1.126542,0.0506 1.093824,0.0667 2.175283,0.26337 3.229777,0.55914 0.337283,0.0755 0.670322,0.19249 1.010274,0.24236 0.362829,0.0145 0.684829,-0.18597 1.026811,-0.2806 2.977025,-1.04808 5.971441,-2.04812 8.92762,-3.15433 0.725723,-0.29399 1.481768,-0.53698 2.152841,-0.94723 0.112149,-0.0415 0.258997,0.072 0.395324,0.045 0.520263,-0.0169 0.994694,-0.26269 1.484147,-0.41342 l 0.07131,-0.96841 c -1.281827,-0.71052 -2.68913,-1.14539 -4.028695,-1.72806 -0.8632,-0.3686 -1.634571,-0.92204 -2.302702,-1.57768 -0.705199,-0.64596 -1.312754,-1.40869 -1.695503,-2.2903 -0.447318,-1.01089 -0.794156,-2.0646 -1.10691,-3.12384 -0.30703,-1.15937 -0.290724,-2.36864 -0.342614,-3.55793 -0.02694,-1.06597 -0.05853,-2.17176 -0.07131,-3.25354 -0.0058,-0.58479 -0.0053,-1.17345 0.0155,-1.73737 0.01399,-0.3886 0.0448,-0.84679 0.0832,-1.26348 0.02134,-0.2027 0.05,-0.48607 0.07958,-0.71882 0.281628,-2.14271 0.644749,-4.28342 1.024744,-6.42493 0.578416,-3.168 1.259247,-6.32084 2.206583,-9.41648 0.61292,-2.01351 1.355284,-4.02222 2.209168,-5.9645 0.422868,-0.98322 0.907596,-1.9252 1.303796,-2.92953 0.160951,-0.42703 0.336523,-0.85383 0.418062,-1.30483 0.512538,-0.22833 0.827897,-0.72831 1.153935,-1.16117 1.508924,-2.26752 3.656646,-4.03194 5.959326,-5.44825 1.196395,-0.72037 2.42595,-1.39991 3.734656,-1.89549 0.328771,-0.12517 0.71781,-0.26866 1.073836,-0.39016 2.94372,-0.99747 5.966701,-1.75152 9.017538,-2.33887 1.090456,-0.20911 2.154964,-0.36884 3.251998,-0.54312 2.123766,-0.33428 4.231204,-0.62559 6.382039,-0.77205 2.743211,-0.19129 5.500264,-0.27611 8.254277,-0.41806 1.21842,-0.0574 2.484059,-0.12589 3.671093,-0.19017 2.156257,-0.0832 4.356967,-0.0578 6.532418,-0.0357 4.398201,0.0647 8.801296,0.2036 13.184208,0.42375 2.203025,0.12316 4.384314,0.24133 6.572209,0.50694 3.793386,0.44512 7.5588217,0.99855 11.292334,1.78646 1.6476934,0.34604 3.2820044,0.77001 4.8586181,1.36581 0.7628894,0.27899 1.5168999,0.58214 2.2603272,0.9095 0.1902349,0.0865 0.4544542,0.20302 0.6702433,0.30799 0.724743,0.36114 1.4946136,0.69565 2.0556885,1.29967 1.3994522,1.41008 2.30272,3.25145 2.7905273,5.16351 0.3931886,1.35768 0.3366816,2.78497 0.3596676,4.1832 0.01,2.291 0.0059,4.61028 -0.05736,6.8833 -0.0398,0.80083 -0.02652,1.60902 -0.1524459,2.40244 -0.04907,0.4041 -0.1815942,0.83749 -0.023771,1.23145 0.1574439,0.10615 0.3354219,0.21435 0.5079789,0.29301 0.535762,-0.10417 1.046248,-0.31472 1.567346,-0.47543 4.970392,-1.67919 9.916704,-3.42903 14.855424,-5.19916 1.785541,-0.6613 3.590342,-1.27825 5.334042,-2.04587 0.170889,-0.0832 0.345796,-0.16141 0.501778,-0.27131 0.392658,0.22665 0.887861,0.003 1.178223,-0.29145 0.394753,-0.50011 0.517928,-1.14708 0.697631,-1.74408 0.632214,-2.48085 1.173808,-4.98687 1.571997,-7.51634 0.121312,-0.84924 0.217673,-1.7109 0.162264,-2.56935 -0.07971,-0.80439 -0.438613,-1.54492 -0.773596,-2.26911 -0.511694,-1.04823 -1.341543,-1.95121 -2.395719,-2.46703 -1.358861,-0.68916 -2.892785,-0.8665 -4.370276,-1.14877 -3.92893,-0.68919 -7.880347,-1.23907 -11.819434,-1.86552 -10.0680699,-1.56811 -20.1288544,-3.18609 -30.19919,-4.749581 -6.42796,-0.996275 -12.854417,-2.004568 -19.289778,-2.951758 -1.57125,-0.218434 -3.141972,-0.446276 -4.714441,-0.652157 z m -1.500684,21.931476 c -0.165364,0.1037 -0.330729,0.2074 -0.496094,0.31109 -1.443286,3.21032 -2.91446,6.40795 -4.339787,9.62629 -0.115805,0.28985 -0.29798,0.56897 -0.263033,0.894 0.09669,0.46454 0.728348,0.62419 1.096574,0.37517 0.107553,-0.14157 0.232515,-0.12022 0.38809,-0.0729 1.146717,0.13114 2.304159,0.11464 3.456637,0.14211 5.757701,0.0602 11.515944,0.0421 17.273881,0.0481 h 18.3549519 c 0.1743218,-0.20378 0.3486437,-0.40756 0.5229655,-0.61133 -0.1224838,-0.83721 -0.2489748,-1.68278 -0.5741252,-2.47014 -0.425437,-1.05725 -1.0185422,-2.09222 -1.9192627,-2.8143 -2.2745724,-1.60355 -4.8874625,-2.67892 -7.5793825,-3.35121 -3.417148,-0.85287 -6.932756,-1.21487 -10.437606,-1.47846 -5.153083,-0.37513 -10.320754,-0.45547 -15.483809,-0.59842 z m -66.866717,7.85327 c 0.059,-10e-4 0.11675,0.0148 0.17621,0.0253 0.12709,0.0466 0.33626,0.22011 0.0806,0.24185 -0.16782,0.0521 -0.34751,-0.0767 -0.31626,-0.2589 0.0202,-0.005 0.0397,-0.008 0.0594,-0.008 z m 28.860768,17.30799 c -0.172943,0.21135 -0.345891,0.42271 -0.518831,0.63407 0.04567,0.23182 0.09176,0.43971 0.128157,0.6506 0.184015,1.05862 0.245171,2.1513 0.654741,3.15743 0.447323,1.18924 1.320781,2.18769 2.389518,2.86288 1.507551,0.95323 3.240965,1.46254 4.95887,1.8867 3.039658,0.71487 6.138145,1.14957 9.241297,1.47588 2.763483,0.29283 5.5409,0.43434 8.318355,0.49765 2.820726,0.0789 5.642561,0.0829 8.464083,0.10748 0.388318,-0.0697 0.711889,-0.31748 1.069185,-0.47284 0.718656,-0.36819 1.450726,-0.718 2.161109,-1.0976 0.277412,-0.21442 0.371063,-0.56123 0.536401,-0.85628 1.30125,-2.59929 2.601947,-5.1989 3.902604,-7.79849 -0.155201,-0.25529 -0.310404,-0.51057 -0.465604,-0.76585 -6.399379,-0.0893 -12.798366,-0.1938 -19.198312,-0.23357 -5.662025,-0.0451 -11.324384,-0.0533 -16.98656,-0.0481 z" /><path
         style="opacity:1;fill:#ffffff;fill-opacity:1;fill-rule:evenodd;stroke-width:2.8402;stroke-linejoin:bevel"
         d="m -408.87441,684.34853 c -2.07539,-1.01689 -2.23539,-1.21036 -2.75873,-3.33557 -0.50439,-2.04831 -0.47505,-2.49799 0.31862,-4.88295 l 0.87417,-2.62689 4.92284,-0.26382 c 2.70757,-0.1451 5.04327,-0.1264 5.19046,0.0416 0.14719,0.16796 0.61997,1.31193 1.05063,2.54216 l 0.78302,2.23679 8.43235,-0.2567 c 10.40738,-0.31682 10.75343,-0.36933 12.16834,-1.84616 1.14454,-1.19466 1.14551,-1.20099 0.44902,-2.9417 l -0.698,-1.74447 -8.05837,-0.003 c -7.90571,-0.003 -13.13263,-0.38572 -17.32019,-1.26776 -1.73908,-0.3663 -2.31127,-0.7339 -3.29195,-2.11489 l -1.187,-1.67153 0.8665,-3.42656 c 0.47658,-1.8846 1.46703,-4.7294 2.201,-6.32178 1.14305,-2.47988 1.73998,-3.19582 4.16091,-4.99053 l 2.82642,-2.09531 h 16.1725 16.1725 l 1.98388,2.01417 c 2.17241,2.20558 2.2081,2.35529 1.49013,6.25187 l -0.49376,2.67973 h -5.82111 -5.82112 v -1.43147 c 0,-1.37745 -0.0828,-1.45134 -2.19301,-1.95758 -1.56902,-0.3764 -4.28987,-0.45026 -9.56238,-0.25956 l -7.36937,0.26653 -1.23279,1.23279 c -1.21678,1.21679 -1.22443,1.25376 -0.58888,2.84877 l 0.6439,1.61598 11.72999,0.24012 c 10.53254,0.21561 12.01326,0.33379 14.505,1.15762 2.58847,0.85581 2.80781,1.02691 3.26268,2.54516 0.26822,0.89522 0.48767,2.09228 0.48767,2.66014 0,1.68487 -1.20331,5.36572 -3.0024,9.18413 -1.53717,3.26252 -1.89528,3.70607 -4.05641,5.02417 l -2.37039,1.44573 -9.28336,0.13599 c -5.10586,0.0748 -12.45514,0.19416 -16.33175,0.26526 -6.84118,0.12546 -7.11316,0.0975 -9.25156,-0.95024 z"
         id="path59"
         transform="scale(0.26458333)" /><path
         style="opacity:1;fill:#ffffff;fill-opacity:1;fill-rule:evenodd;stroke-width:2.8402;stroke-linejoin:bevel"
         d="m -362.6553,682.53229 c 1.31578,-1.6787 7.72038,-9.91961 14.23243,-18.31312 l 11.84009,-15.26094 h 6.97938 6.97938 l 0.47717,2.06718 c 0.26244,1.13695 1.71937,8.95161 3.23761,17.3659 1.51825,8.41429 2.85524,15.72496 2.97109,16.24594 l 0.21065,0.94723 h -6.74388 -6.74389 v -2.52595 -2.52595 l -9.57755,0.003 -9.57756,0.003 -2.01143,2.52251 -2.01143,2.5225 h -6.32719 -6.3272 z m 31.50632,-13.68222 c -0.26545,-3.45904 -0.9205,-7.78008 -1.35922,-8.96606 -0.27687,-0.74845 -0.91251,-0.0574 -4.40476,4.78907 -2.24466,3.11505 -4.19818,5.9686 -4.34117,6.34121 -0.23043,0.60049 0.3413,0.67747 5.03162,0.67747 h 5.2916 z"
         id="path60"
         transform="scale(0.26458333)" /><path
         style="opacity:1;fill:#ffffff;fill-opacity:1;fill-rule:evenodd;stroke-width:2.8402;stroke-linejoin:bevel"
         d="m -309.00768,684.96116 c 0,-0.59212 3.89322,-14.246 8.32792,-29.20677 l 2.04118,-6.88606 9.65539,0.0455 c 5.31047,0.0251 13.53905,0.17013 18.28573,0.3224 l 8.63032,0.27686 2.2102,2.61448 2.21021,2.61448 v 3.51383 c 0,2.97053 -0.29399,4.47255 -1.90136,9.71426 -1.61291,5.25977 -2.25316,6.71114 -4.2203,9.56683 -2.24921,3.26517 -2.4537,3.43677 -6.8007,5.70693 l -4.48175,2.34054 h -16.97842 c -14.71242,0 -16.97842,-0.0832 -16.97842,-0.62332 z m 33.62835,-11.05919 c 1.98716,-1.79455 2.3015,-2.32365 3.06386,-5.15715 0.84754,-3.15004 1.26062,-8.91548 0.68045,-9.497 -0.31019,-0.31091 -18.49029,-1.04564 -18.81459,-0.76038 -0.0968,0.0852 0.0729,0.62002 0.37716,1.18854 0.49024,0.91602 0.32993,1.79052 -1.40837,7.68246 -1.07887,3.65683 -1.95902,7.07503 -1.95588,7.59601 l 0.006,0.94723 h 7.91866 7.91866 z"
         id="path61"
         transform="scale(0.26458333)" /><path
         style="opacity:1;fill:#ffffff;fill-opacity:1;fill-rule:evenodd;stroke-width:2.8402;stroke-linejoin:bevel"
         d="m -252.51973,685.27014 -4.3453,-0.13677 0.27153,-1.23626 c 0.44805,-2.03996 10.16585,-34.08955 10.41053,-34.33423 0.49289,-0.49288 32.51232,-0.72042 34.21381,-0.24313 0.92618,0.25981 2.77328,1.34206 4.10466,2.40499 l 2.4207,1.93261 v 4.72015 c 0,4.29455 -0.13745,5.13608 -1.52438,9.33295 -3.12293,9.45002 -5.49397,12.54242 -12.10247,15.78445 l -4.25937,2.08958 -12.4222,-0.0888 c -6.83221,-0.0488 -14.37759,-0.15033 -16.76751,-0.22555 z m 29.17131,-10.94718 2.2525,-1.57872 1.51119,-5.27469 c 0.83116,-2.90108 1.51119,-5.54296 1.51119,-5.87084 0,-0.32789 -0.50906,-1.1275 -1.13124,-1.77692 l -1.13124,-1.18076 -8.23582,0.006 c -7.66945,0.006 -10.41398,0.31349 -8.69292,0.97392 0.59787,0.22942 0.58495,0.46143 -0.12637,2.26879 -0.63365,1.61003 -2.36069,7.19708 -4.10341,13.27475 -0.19595,0.68334 0.37238,0.73674 7.84118,0.73674 h 8.05243 z"
         id="path62"
         transform="scale(0.26458333)" /><path
         style="opacity:1;fill:#ffffff;fill-opacity:1;fill-rule:evenodd;stroke-width:2.8402;stroke-linejoin:bevel"
         d="m -204.46149,684.63725 c 0.13118,-0.52098 2.56872,-8.75988 5.41674,-18.30867 l 5.17821,-17.36144 6.21765,-0.004 6.21764,-0.004 -0.27182,1.15772 c -0.14951,0.63675 -1.78972,6.17805 -3.64492,12.314 -1.8552,6.13595 -3.45771,11.55178 -3.56113,12.03517 -0.18616,0.87009 -0.0667,0.88177 11.92362,1.16495 6.66141,0.15733 12.20936,0.38376 12.32877,0.50317 0.25642,0.25642 -0.41982,3.62615 -1.4109,7.03054 l -0.70471,2.4207 h -18.96384 -18.96384 z"
         id="path63"
         transform="scale(0.26458333)" /><path
         style="opacity:1;fill:#ffffff;fill-opacity:1;fill-rule:evenodd;stroke-width:2.8402;stroke-linejoin:bevel"
         d="m -158.92923,684.36298 c 0.14562,-0.60167 2.66214,-8.81388 5.59227,-18.24935 l 5.32749,-17.1554 h 20.79436 c 16.46028,0 20.75317,0.10968 20.59666,0.52624 -0.10874,0.28943 -0.83235,2.46806 -1.60803,4.8414 l -1.41033,4.31516 h -14.41778 -14.41778 l -0.50534,1.68668 c -0.27794,0.92767 -0.36482,1.82754 -0.19308,1.99971 0.17174,0.17216 5.05046,0.37254 10.8416,0.44527 l 10.52933,0.13224 -0.27346,1.13073 c -0.15041,0.62191 -0.64116,2.38139 -1.09057,3.90997 l -0.81711,2.77923 -3.47395,0.27043 c -1.91068,0.14874 -6.33933,0.27157 -9.84145,0.27296 -8.11414,0.003 -8.69922,0.12254 -9.57172,1.9522 -1.3481,2.82699 -1.99248,2.68074 11.83455,2.68586 6.88847,0.003 13.25637,0.12554 14.15088,0.27331 1.62376,0.26825 1.62606,0.27148 1.42155,1.99508 -0.11266,0.94952 -0.52458,2.8093 -0.91538,4.13285 -0.64554,2.18628 -0.83337,2.42543 -2.05304,2.61391 -0.73837,0.1141 -10.21243,0.28127 -21.05347,0.37147 l -19.71098,0.16401 z"
         id="path64"
         transform="scale(0.26458333)" /><path
         style="opacity:1;fill:#ffffff;fill-opacity:1;fill-rule:evenodd;stroke-width:2.8402;stroke-linejoin:bevel"
         d="m -109.03677,684.99264 c 0,-0.47998 4.06329,-14.8187 8.45442,-29.83437 l 1.818721,-6.2192 7.151051,0.11483 7.151052,0.11482 0.3236,1.26298 c 0.334997,1.30745 3.012297,16.99616 3.502337,20.52333 0.152803,1.09984 0.450063,1.99971 0.660577,1.99971 0.617197,0 5.342603,-5.74137 12.483857,-15.16789 l 6.657899,-8.78849 7.19676,-0.0201 7.196763,-0.0201 -0.818222,2.4207 c -0.450023,1.33138 -2.956121,9.52493 -5.56911,18.20788 l -4.750892,15.78717 -5.732315,0.11713 c -5.720227,0.11688 -5.732308,0.11511 -5.728538,-0.84198 0.0021,-0.52751 0.855288,-3.97376 1.896021,-7.65833 1.040733,-3.68458 1.777628,-6.81044 1.637552,-6.94636 -0.380467,-0.36918 -2.959073,2.76303 -7.81834,9.49687 l -4.349334,6.02719 -4.209914,0.003 c -2.315453,0.002 -4.900825,-0.1109 -5.74527,-0.25055 l -1.535356,-0.25391 -1.132438,-7.42455 c -1.315495,-8.62472 -1.392574,-8.95558 -1.876752,-8.05603 -0.186942,0.34731 -1.325887,3.85207 -2.530988,7.78834 -1.205101,3.93627 -2.318169,7.27554 -2.473485,7.42062 -0.155316,0.14507 -2.887276,0.36601 -6.071026,0.49097 -4.44344,0.17442 -5.78863,0.10607 -5.78863,-0.2941 z"
         id="path65"
         transform="scale(0.26458333)" /><path
         style="opacity:1;fill:#ffffff;fill-opacity:1;fill-rule:evenodd;stroke-width:2.8402;stroke-linejoin:bevel"
         d="m -49.676984,685.13998 c 0,-0.37372 1.936312,-6.95507 9.809045,-33.34006 l 0.847902,-2.84169 H -18.27676 2.466517 l -0.7581213,2.63119 c -0.4169709,1.44716 -0.99434378,3.41104 -1.28305126,4.36419 l -0.52492574,1.73298 -2.7919012,0.26373 c -1.5355451,0.14505 -6.7702699,0.26643 -11.6327205,0.26972 -4.862451,0.003 -10.129354,0.12767 -11.70423,0.27639 -2.586024,0.24422 -2.92248,0.38464 -3.473179,1.44957 -0.335372,0.64854 -0.609768,1.56747 -0.609768,2.04205 0,0.8473 0.193961,0.86289 10.73528,0.86289 5.904405,0 10.7313058,0.14209 10.7264476,0.31575 -0.014852,0.53086 -2.0720106,7.37832 -2.2787566,7.58506 -0.106517,0.10652 -4.324176,0.27441 -9.372576,0.3731 -12.396124,0.24232 -12.450641,0.25079 -13.318092,2.06985 -1.289736,2.70461 -2.029608,2.54708 13.492383,2.87267 7.807029,0.16376 14.2399079,0.34305 14.2952809,0.39843 0.2191176,0.21911 -1.0847896,5.64566 -1.7611417,7.32946 l -0.7186951,1.78922 H -29.094117 c -14.167065,0 -20.582867,-0.13856 -20.582867,-0.4445 z"
         id="path66"
         transform="scale(0.26458333)" /><path
         style="opacity:1;fill:#ffffff;fill-opacity:1;fill-rule:evenodd;stroke-width:2.8402;stroke-linejoin:bevel"
         d="m 0.19936788,684.00576 c 0.16119007,-0.86829 2.51379572,-8.96712 5.22801272,-17.99738 l 4.9349394,-16.41867 6.763781,-0.11542 6.763782,-0.11542 4.257432,6.2198 c 5.331236,7.78854 7.898632,11.0612 8.677509,11.0612 0.600195,0 1.230949,-1.80069 4.414001,-12.60118 0.711885,-2.41551 1.368135,-4.46564 1.458332,-4.55584 0.09019,-0.0902 3.006283,-0.27323 6.480194,-0.40674 l 6.316197,-0.24274 -2.834745,9.21899 c -1.559112,5.07045 -4.050476,13.33945 -5.536365,18.37556 l -2.701616,9.15656 -6.528482,-0.0109 -6.528481,-0.0109 -4.322139,-7.31957 c -4.819598,-8.16201 -7.917126,-12.60605 -8.524754,-12.23052 -0.373272,0.2307 -3.392996,9.36468 -5.4615,16.5198 l -0.882369,3.05219 H 6.0396957 -0.09370502 Z"
         id="path67"
         transform="scale(0.26458333)" /><path
         style="opacity:1;fill:#ffffff;fill-opacity:1;fill-rule:evenodd;stroke-width:0.758292;stroke-linejoin:bevel"
         d="m -49.342975,684.29227 v -1.28285 l 2.128621,-7.23134 c 2.527664,-8.58698 5.133033,-17.28805 6.878644,-22.97238 l 1.265324,-4.12035 20.406282,0.062 c 11.2234554,0.0341 20.6004471,0.0959 20.8377598,0.13738 0.4123454,0.072 0.4284724,0.0909 0.3637005,0.42718 -0.097783,0.5076 -2.51602755,8.62927 -2.59200336,8.70525 -0.09347853,0.0935 -0.81290472,0.11109 -14.89436394,0.36477 -10.156793,0.18298 -12.989411,0.2652 -13.437839,0.39005 -0.542701,0.1511 -0.590439,0.19706 -1.06361,1.02406 -0.781295,1.36553 -1.094435,2.484 -0.756657,2.70261 0.07727,0.05 4.998942,0.11622 10.937041,0.14713 l 10.796543,0.0562 -1.1991321,4.13395 c -0.6595219,2.27367 -1.2247169,4.15953 -1.2559889,4.19081 -0.03127,0.0313 -4.80532,0.18069 -10.608998,0.33205 -5.803678,0.15135 -10.731024,0.3254 -10.949658,0.38676 -0.332974,0.0935 -0.482979,0.25344 -0.92388,0.98533 -0.580527,0.96367 -0.870376,1.68884 -0.870376,2.17759 0,0.24722 0.08324,0.36359 0.365296,0.51067 0.443381,0.23121 1.604237,0.26888 17.206092,0.55832 l 10.8836719,0.20191 -0.072277,0.79201 c -0.2063548,2.26125 -0.6736496,4.13977 -1.7138479,6.88963 l -0.648388,1.71408 h -20.540978 -20.540978 z"
         id="path68"
         transform="scale(0.26458333)" /></g></g></svg>
