<?xml version="1.0" encoding="utf-8"?>
<!-- Generator: Adobe Illustrator 19.2.1, SVG Export Plug-In . SVG Version: 6.00 Build 0)  -->
<svg version="1.1" id="layer" xmlns="http://www.w3.org/2000/svg" xmlns:xlink="http://www.w3.org/1999/xlink" x="0px" y="0px"
	 viewBox="0 0 652 652" style="enable-background:new 0 0 652 652;" xml:space="preserve">
<style type="text/css">
	.st0{fill:#00559A;}
</style>
<g>
	<path class="st0" d="M-39.7,247.2H3.6c61.9-127.8,187.6-175.8,310.5-175c128.7,0.7,255.1,51.5,310.2,175h79.6l-37.2,155.8h-41.4
		c-47.1,110.2-180.1,169.3-311.1,169.2C176,572,61.6,519.4,9.9,403h-73.6L-39.7,247.2z M-29.1,374.5h60.1
		C115.3,617,541.5,580,605.7,374.4h34.7l22.9-97.9h-60.1c-66.4-221.4-485-246.6-583.1,0.1c-7.4-0.1-34.8,0-34.8,0L-29.1,374.5z"/>
	<path class="st0" d="M183.5,310.9c27,6.5,39.5,20.7,39.5,33.9c0,53.6-93.1,62.2-131.6,62.2c-10.4,0-43,0-43-15.6
		c0-5.7,9.3-19.9,13.6-24c3.2-2.7,18.9-7.8,23-7.8c1.3,0,2.1,0.3,2.1,1.9c0,2.7-2.7,4-4.5,5.1c-1.6,1.1-2.9,2.4-4.5,4v0.5
		c95.3,3.5,121.4-24.2,121.4-28.5c0-13.7-73.9-24.5-86.7-26.7c-13.3-2.2-27.2-6.5-27.2-22.6c0-8.9,4-28.5,8.5-35.8
		c8-13.7,56.6-39.3,115-39.3c11.2,0,22.4,1.3,33.6,3.8c6.1,1.3,6.9,3.5,6.9,8.9c0,19.9-6.7,24.5-22.4,30.7
		c-11.5,4.3-13.6,5.7-24,13.2c-1.9,1.1-4.5,2.7-6.7,2.7c-2.7,0-4.3-1.3-4.3-4c0-0.5,5.1-8.9,19.5-18.9l-0.5-0.5
		c-68.9,2.4-98.7,27.5-98.7,33.7C112.3,291.5,109,293.4,183.5,310.9"/>
	<path class="st0" d="M318,301.7c1.9,12.1,6.4,23.2,13.1,33.4l42.7-34.2c2.1,6.5,5.1,14,5.1,20.7c0,16.4-18.9,28.8-29.9,38.8
		c1.3,4.8,5.1,7.3,8.3,7.3c2.9,0,5.6-2.2,7.7-2.2c2.1,0,4.3,2.7,4.3,4.8c0,7.5-15.5,32.9-24.8,32.9c-6.7,0-18.7-15.1-23.2-19.7
		c-16.8,10.2-36.3,24-56.8,24c-24,0-44.3-18-41.9-42.3c4-42.6,30.4-54.9,58.7-70c-6.4-43.6,39.5-75.7,74.2-77
		c13.3-0.5,26.4,11,26.4,24.8c0,16.2-11.7,27.2-24,35.3L318,301.7z M287.1,320c-12.3,5.1-37.1,29.4-37.6,42.3
		c-0.3,5.1,9.1,4.8,12.5,4.8c14.4,0,27.8-6.2,40-12.9L287.1,320z M358.3,234.9c0-2.4-2.4-3.5-4.5-3.2c-28.8,5.4-34.2,27.2-39.2,46.1
		C326.8,270.2,358.3,251.1,358.3,234.9"/>
	<path class="st0" d="M502.2,310.9c27,6.5,39.5,20.7,39.5,33.9c0,53.6-93.1,62.2-131.6,62.2c-10.4,0-43,0-43-15.6
		c0-5.7,9.3-19.9,13.6-24c3.2-2.7,18.9-7.8,23-7.8c1.3,0,2.1,0.3,2.1,1.9c0,2.7-2.7,4-4.5,5.1c-1.6,1.1-2.9,2.4-4.5,4v0.5
		c95.3,3.5,121.4-24.2,121.4-28.5c0-13.7-73.9-24.5-86.7-26.7c-13.3-2.2-27.2-6.5-27.2-22.6c0-8.9,4-28.5,8.5-35.8
		c8-13.7,56.6-39.3,115-39.3c11.2,0,22.4,1.3,33.6,3.8c6.1,1.3,6.9,3.5,6.9,8.9c0,19.9-6.7,24.5-22.4,30.7
		c-11.5,4.3-13.6,5.7-24,13.2c-1.9,1.1-4.5,2.7-6.7,2.7c-2.7,0-4.3-1.3-4.3-4c0-0.5,5.1-8.9,19.5-18.9l-0.5-0.5
		c-68.9,2.4-98.7,27.5-98.7,33.7C430.9,291.5,427.7,293.4,502.2,310.9"/>
	<path class="st0" d="M199.4,137.6l15.1-4.4c3.3-1,5.9-1.3,7.8-1.1c1.9,0.2,3.5,0.9,4.8,2c1.3,1.1,2.2,2.6,2.8,4.4
		c0.4,1.3,0.5,2.7,0.4,4.1c-0.1,1.4-0.5,2.7-1.1,4.1c-0.6,1.4-1.4,2.6-2.4,3.6c-1,1-2.1,1.9-3.5,2.7c-2,1.1-4,1.9-6,2.5l-3.9,1.1
		l0.3,6.5c0.1,0.7,0.1,1.3,0.3,1.8s0.4,0.7,0.7,0.8c0.3,0.1,0.9,0.1,1.7-0.1l1.8-0.5l0.2,5.2l-17,4.9l-0.3-5.2l1.3-0.4
		c1.2-0.4,2-0.8,2.4-1.3c0.4-0.5,0.5-1.3,0.4-2.5l-1.3-21.3c0-0.6-0.1-1.1-0.2-1.4c-0.1-0.3-0.2-0.6-0.4-0.7
		c-0.2-0.2-0.5-0.3-0.8-0.3c-0.2,0-0.7,0.1-1.4,0.3l-1.6,0.5L199.4,137.6z M213.2,150.7l1.8-0.5c1.8-0.5,3.1-1,3.8-1.5
		c1-0.7,1.7-1.7,2.2-3c0.5-1.3,0.5-2.5,0.2-3.7c-0.3-0.9-0.7-1.6-1.3-2.1c-0.6-0.5-1.3-0.8-2.1-0.9c-0.8-0.1-2,0.1-3.7,0.6l-1.3,0.4
		L213.2,150.7z"/>
	<path class="st0" d="M236.4,128.2l16.9-2.9c3.9-0.7,6.8-0.8,8.8-0.5c1.9,0.4,3.5,1.1,4.8,2.3c1.2,1.2,2,2.7,2.3,4.4
		c0.5,2.7-0.1,5.3-1.7,7.7c-1.6,2.4-4.2,4.3-7.7,5.5l6.6,7.4c1,1.1,1.8,1.8,2.4,1.9c0.6,0.2,1.7,0.1,3.5-0.2l-0.3,5.2l-9.8,1.7
		L251,146.8l-2.6,0.5l-0.4,8.1c0,0.5,0,0.9,0,1.4c0.1,0.5,0.4,0.9,0.8,1c0.4,0.1,1,0.1,1.9-0.1l1.5-0.2l-0.2,5.2l-17.5,3l0.2-5.2
		l1.2-0.2c1.4-0.2,2.3-0.6,2.7-1c0.4-0.4,0.7-1.2,0.7-2.4l1.1-21.1c0-0.7,0-1.2,0-1.6c-0.1-0.3-0.2-0.6-0.4-0.8
		c-0.2-0.2-0.4-0.4-0.7-0.4c-0.2,0-0.7,0-1.6,0.2l-1.6,0.3L236.4,128.2z M248.7,141.8l4.1-0.7c2.2-0.4,3.7-0.9,4.7-1.4
		c1-0.6,1.7-1.4,2.1-2.4c0.4-1,0.6-2,0.4-3.2c-0.3-1.5-1-2.4-2.2-2.8c-1.2-0.4-3-0.4-5.3,0l-3.2,0.5L248.7,141.8z"/>
	<path class="st0" d="M296.6,120.5c3.1-0.2,6.1,0.4,8.8,1.7c2.7,1.3,4.8,3.2,6.4,5.6c1.6,2.4,2.5,5.2,2.6,8.3
		c0.2,3.8-0.5,7.4-2.3,10.9c-1.7,3.4-4.1,6.2-7.3,8.2c-3.2,2-6.7,3.2-10.7,3.4c-5.6,0.3-10.1-1.3-13.5-5c-2.7-2.9-4.2-6.5-4.5-10.8
		c-0.2-3.7,0.6-7.3,2.3-10.8c1.7-3.4,4.2-6.2,7.3-8.2C289,121.9,292.6,120.8,296.6,120.5 M296.5,126.1c-1.9,0.1-3.7,0.8-5.2,2.1
		c-1.5,1.3-2.8,3.4-3.9,6.3c-1.1,2.9-1.5,5.9-1.3,9.1c0.1,2.1,0.6,3.9,1.3,5.4c0.8,1.5,1.7,2.6,2.8,3.2c1.1,0.6,2.4,0.9,4,0.8
		c2-0.1,3.7-0.8,5.1-2c1.4-1.2,2.7-3.4,3.7-6.4c1-3.1,1.5-6.2,1.3-9.5c-0.1-1.8-0.5-3.5-1.3-4.9c-0.8-1.4-1.7-2.5-2.8-3.1
		C299.2,126.4,297.9,126.1,296.5,126.1"/>
	<path class="st0" d="M322.5,121l16.8,0.8l-1.3,5l-1.6-0.1c-0.9,0-1.5,0-1.8,0.1c-0.3,0.1-0.6,0.3-0.8,0.6c-0.3,0.4-0.4,0.8-0.4,1.2
		c0,0.1,0,0.6,0.1,1.4l0.9,18.2l10.2-17.9c0.5-0.9,0.8-1.4,0.8-1.8c0-0.5-0.1-0.8-0.4-1.1c-0.3-0.2-0.9-0.4-1.9-0.4l-1.5-0.1l1.3-5
		l15,0.7l-1.4,5c-1,0-1.7,0-2.1,0.2c-0.5,0.2-0.9,0.5-1.4,0.9c-0.3,0.3-0.7,0.9-1.3,1.9l-16.7,27.6l-8.2-0.4l-2.3-28.7
		c-0.1-1-0.2-1.7-0.4-2.1c-0.2-0.4-0.4-0.6-0.7-0.8c-0.3-0.2-1-0.3-2-0.3L322.5,121z"/>
	<path class="st0" d="M360.8,128.8l1.8-4.8l29,4.2l1.9,11.4l-5,0.9c-0.2-1.3-0.5-2.3-1-3.2c-0.6-1.1-1.3-2-2.1-2.7
		c-0.8-0.7-1.8-1.2-3-1.7c-0.8-0.3-2-0.6-3.6-0.8l-5.1-0.7l-3.5,9l1.1,0.2c1.3,0.2,2.3,0.2,3,0.1c0.7-0.1,1.3-0.3,1.7-0.7
		c0.5-0.4,0.9-0.9,1.3-1.7c0.2-0.3,0.5-1,0.8-2.1l4.8,0.7l-5.7,14.9l-4.8-0.7c0.6-1.4,0.9-2.3,0.9-2.8c0.1-0.9-0.1-1.5-0.7-2
		c-0.4-0.4-1.4-0.7-2.9-0.9l-1.4-0.2l-3,7.9l-0.4,1c-0.1,0.3-0.2,0.6-0.2,0.8c-0.1,0.3,0.1,0.6,0.4,0.8c0.1,0.1,0.7,0.2,1.7,0.3
		l3,0.4c2.6,0.4,4.6,0.4,6.2,0.2c2.1-0.3,4.1-1.2,5.8-2.4c1.7-1.3,3.2-2.9,4.3-4.9l4.3,2.6l-8.2,12.1l-33.2-4.8l1.9-4.8l1.3,0.2
		c1.3,0.2,2.2,0.1,2.8-0.2c0.5-0.3,1.1-1.2,1.6-2.7l7.2-18.8c0.3-0.8,0.5-1.4,0.5-1.8c0-0.3,0-0.6-0.1-0.9c-0.1-0.3-0.3-0.5-0.5-0.6
		c-0.2-0.1-0.7-0.3-1.4-0.4L360.8,128.8z"/>
	<path class="st0" d="M404.2,131.2l13.8,3.5l1,23.9l7.1-13.7c0.3-0.6,0.5-1,0.6-1.3c0.1-0.5,0-0.9-0.3-1.3c-0.2-0.3-0.9-0.5-1.9-0.8
		l-1.4-0.4l2.4-4.6l14.5,3.6l-2.4,4.6l-1.5-0.4c-0.8-0.2-1.5-0.3-1.9-0.2c-0.5,0.1-0.9,0.3-1.2,0.7c-0.3,0.2-0.7,0.9-1.3,2.1
		l-13,25.6l-7.3-1.8l-1.4-28.5l-8.8,17.5c-0.5,0.9-0.7,1.4-0.8,1.6c-0.1,0.5,0,0.9,0.4,1.3c0.2,0.2,0.8,0.4,1.8,0.7l1.4,0.4
		l-2.4,4.6l-14.6-3.7l2.3-4.6l1,0.3c1.3,0.3,2.3,0.4,2.9,0.2c0.6-0.2,1.2-0.8,1.7-1.8l9.7-19.3c0.3-0.6,0.5-1,0.5-1.3
		c0.1-0.5,0-0.9-0.3-1.3c-0.2-0.3-0.8-0.5-1.6-0.7l-1.6-0.4L404.2,131.2z"/>
	<path class="st0" d="M148.3,442.6l13.4,8.3c3,1.8,5,3.5,6.1,5.1c1.1,1.6,1.7,3.2,1.8,4.9c0.1,1.7-0.4,3.4-1.4,5
		c-0.7,1.2-1.6,2.2-2.7,3c-1.1,0.8-2.3,1.5-3.7,2c-1.4,0.5-2.8,0.7-4.3,0.7c-1.4,0-2.9-0.3-4.3-0.8c-2.1-0.8-4.1-1.7-5.9-2.8
		l-3.5-2.1l-4.6,4.6c-0.5,0.5-0.9,1-1.1,1.4c-0.2,0.4-0.3,0.7-0.2,1.1c0.1,0.4,0.6,0.7,1.3,1.2l1.6,1l-3.7,3.7l-15.1-9.3l3.6-3.7
		l1.2,0.7c1.1,0.7,1.9,1,2.5,0.9c0.6-0.1,1.3-0.5,2.1-1.3l15-15.3c0.4-0.4,0.7-0.8,0.9-1.1c0.2-0.3,0.3-0.6,0.3-0.8
		c0-0.3-0.1-0.5-0.3-0.7c-0.1-0.2-0.5-0.5-1.2-0.9l-1.5-0.9L148.3,442.6z M147.9,461.6l1.6,1c1.6,1,2.8,1.6,3.7,1.8
		c1.2,0.3,2.4,0.1,3.7-0.4c1.2-0.5,2.2-1.3,2.9-2.4c0.5-0.8,0.7-1.6,0.7-2.4c0-0.8-0.3-1.5-0.8-2.2c-0.5-0.7-1.5-1.4-2.9-2.3
		l-1.2-0.7L147.9,461.6z"/>
	<path class="st0" d="M170.5,461.4l3.1-4.2l26.7,12l-1.3,11.5l-5.1-0.5c0.2-1.3,0.1-2.4-0.1-3.3c-0.2-1.2-0.7-2.3-1.3-3.2
		c-0.6-0.9-1.4-1.7-2.4-2.4c-0.7-0.5-1.8-1.1-3.2-1.7l-4.7-2.1l-5.8,7.7l1,0.5c1.2,0.5,2.2,0.9,2.9,1c0.7,0.1,1.3,0,1.8-0.2
		c0.5-0.2,1.1-0.7,1.7-1.3c0.3-0.2,0.7-0.9,1.4-1.8l4.5,2l-9.5,12.7l-4.5-2c0.9-1.2,1.5-2,1.7-2.4c0.3-0.8,0.3-1.5-0.1-2.1
		c-0.3-0.5-1.1-1-2.5-1.6l-1.3-0.6l-5.1,6.7l-0.6,0.8c-0.2,0.2-0.4,0.5-0.5,0.7c-0.1,0.3-0.1,0.6,0.2,0.9c0.1,0.1,0.6,0.4,1.6,0.8
		l2.8,1.2c2.4,1.1,4.3,1.7,5.9,1.9c2.2,0.3,4.2,0,6.2-0.8c2-0.8,3.8-1.9,5.5-3.5l3.4,3.7l-11.2,9.4l-30.6-13.7l3.1-4.1l1.2,0.5
		c1.2,0.5,2.1,0.7,2.7,0.5c0.6-0.2,1.4-0.9,2.3-2.1l12.1-16.1c0.5-0.7,0.9-1.2,1-1.5c0.1-0.3,0.2-0.6,0.1-0.9c0-0.3-0.2-0.5-0.4-0.7
		c-0.2-0.2-0.6-0.4-1.3-0.7L170.5,461.4z"/>
	<path class="st0" d="M204.9,470.2l16.5,5c3.8,1.2,6.5,2.3,8,3.5c1.6,1.2,2.6,2.6,3.2,4.2c0.6,1.6,0.6,3.3,0.1,5
		c-0.8,2.7-2.5,4.7-5,6.1c-2.5,1.5-5.7,1.9-9.3,1.5l2.5,9.6c0.4,1.4,0.8,2.4,1.2,2.8c0.4,0.4,1.5,0.9,3.2,1.4l-2.6,4.5l-9.5-2.9
		l-3.6-17.6l-2.5-0.8l-4.1,7.1c-0.3,0.4-0.4,0.8-0.6,1.2c-0.2,0.5-0.1,0.9,0.3,1.3c0.3,0.3,0.8,0.5,1.7,0.8l1.4,0.4l-2.5,4.5
		l-17-5.2l2.5-4.5l1.2,0.4c1.3,0.4,2.3,0.5,2.8,0.3c0.6-0.2,1.1-0.8,1.7-1.8l10.5-18.4c0.3-0.6,0.6-1.1,0.7-1.4
		c0.1-0.3,0.1-0.6,0-0.9c-0.1-0.3-0.2-0.5-0.5-0.7c-0.1-0.1-0.6-0.3-1.5-0.6l-1.5-0.5L204.9,470.2z M209.8,487.8l3.9,1.2
		c2.1,0.6,3.7,0.9,4.8,0.8c1.1-0.1,2.1-0.5,2.9-1.2c0.8-0.7,1.4-1.6,1.7-2.7c0.4-1.4,0.2-2.6-0.7-3.5c-0.9-0.9-2.5-1.7-4.8-2.4
		l-3.1-0.9L209.8,487.8z"/>
	<path class="st0" d="M239.3,479.7l27.1,5.2l1.3,11.5l-5,0.6c-0.2-1.4-0.6-2.6-1.1-3.7c-0.5-1.1-1.1-1.9-1.8-2.4
		c-0.6-0.5-1.6-1.1-3-1.6c-1.4-0.5-2.5-0.8-3.4-1l-3.4-0.6l-4.1,9.4l0.9,0.2c0.9,0.2,1.7,0.2,2.4,0.1c0.7-0.1,1.3-0.2,1.8-0.5
		c0.4-0.3,0.8-0.6,1-0.9c0.1-0.2,0.3-0.6,0.7-1.4c0.3-0.7,0.5-1.2,0.6-1.4l4.8,0.9l-6.5,14.7l-4.7-0.9c0.1-0.3,0.3-0.7,0.5-1.2
		c0.3-0.7,0.5-1.3,0.6-1.6c0.1-0.5,0-1-0.2-1.4c-0.2-0.4-0.5-0.8-0.9-1c-0.4-0.3-1.2-0.5-2.3-0.7l-0.7-0.1l-3.3,7.5
		c-0.3,0.7-0.4,1.1-0.5,1.2c-0.1,0.4,0,0.7,0.3,1c0.2,0.3,0.6,0.5,1.2,0.6l2.3,0.5l-2.1,4.8l-17.5-3.4l2.1-4.7l1.4,0.3
		c0.9,0.2,1.6,0.2,2,0.1c0.5-0.1,0.8-0.3,1.1-0.5c0.3-0.3,0.6-0.9,1.1-1.9l8.5-19.2c0.3-0.6,0.4-1.1,0.5-1.4c0.1-0.3,0-0.6-0.1-0.9
		c-0.1-0.3-0.3-0.5-0.6-0.7c-0.2-0.1-0.7-0.2-1.5-0.4l-1.4-0.3L239.3,479.7z"/>
	<path class="st0" d="M287.4,485.8c3.1,0.3,5.9,1.3,8.4,3c2.5,1.7,4.3,3.9,5.5,6.5c1.2,2.6,1.7,5.5,1.4,8.6
		c-0.3,3.8-1.6,7.3-3.8,10.4c-2.2,3.1-5,5.5-8.4,7c-3.4,1.6-7.1,2.1-11,1.8c-5.6-0.5-9.8-2.8-12.7-6.9c-2.3-3.3-3.2-7-2.8-11.3
		c0.3-3.7,1.6-7.2,3.8-10.3c2.2-3.2,5-5.5,8.4-7C279.6,486,283.3,485.4,287.4,485.8 M286.5,491.4c-1.9-0.2-3.7,0.3-5.4,1.3
		c-1.7,1-3.3,2.9-4.8,5.6c-1.5,2.7-2.3,5.7-2.6,8.8c-0.2,2.1,0,3.9,0.5,5.5c0.5,1.6,1.3,2.8,2.3,3.6c1,0.8,2.3,1.2,3.8,1.4
		c2,0.2,3.8-0.2,5.4-1.2c1.6-1,3.1-2.9,4.6-5.8c1.5-2.9,2.3-6,2.7-9.2c0.2-1.8,0-3.5-0.6-5c-0.5-1.5-1.3-2.7-2.3-3.5
		C289,491.9,287.8,491.5,286.5,491.4"/>
	<path class="st0" d="M307.2,487.4l17.2-0.1c4,0,6.9,0.3,8.7,1c1.9,0.7,3.3,1.7,4.3,3.1c1,1.4,1.5,3,1.5,4.7c0,2.8-1,5.2-2.9,7.4
		c-2,2.1-4.8,3.6-8.5,4.2l5.3,8.4c0.8,1.3,1.5,2,2,2.3c0.5,0.3,1.7,0.4,3.5,0.4l-1.1,5.1l-10,0.1l-8.7-15.7l-2.7,0l-1.7,7.9
		c-0.1,0.5-0.2,0.9-0.2,1.3c0,0.5,0.2,0.9,0.7,1.2c0.3,0.2,1,0.3,1.9,0.2l1.5,0l-1.1,5.1l-17.8,0.2l1.1-5.1l1.2,0
		c1.4,0,2.3-0.2,2.8-0.6c0.5-0.4,0.9-1.1,1.1-2.2l4.5-20.7c0.2-0.7,0.2-1.2,0.2-1.6c0-0.3-0.1-0.6-0.3-0.9c-0.2-0.3-0.4-0.4-0.6-0.5
		c-0.2-0.1-0.7-0.1-1.6-0.1l-1.6,0L307.2,487.4z M317.2,502.8l4.1,0c2.2,0,3.8-0.2,4.9-0.7c1.1-0.4,1.9-1.1,2.5-2
		c0.6-0.9,0.9-1.9,0.9-3c0-1.5-0.6-2.6-1.7-3.1c-1.1-0.6-2.9-0.9-5.3-0.9l-3.2,0L317.2,502.8z"/>
	<path class="st0" d="M342.7,486.5l16.4-1.8l2.7,20.6l7.5-21.8l16.5-1.9l-0.5,5.2l-1.2,0.1c-0.8,0.1-1.4,0.2-1.7,0.3
		c-0.3,0.1-0.6,0.4-0.8,0.7c-0.2,0.3-0.4,0.7-0.6,1.2c0,0.1-0.1,0.5-0.1,1.3l-2.3,20.9c-0.1,0.8-0.1,1.3-0.1,1.6
		c0,0.4,0.2,0.7,0.6,0.9c0.3,0.2,0.8,0.3,1.4,0.2l1.9-0.2l-0.6,5.2l-16.4,1.8l0.6-5.2l1-0.1c1.2-0.1,2-0.4,2.5-0.9
		c0.4-0.5,0.7-1.3,0.9-2.6l2.5-23.5L361,521.3l-4.3,0.5l-4.4-31.8l-2.7,24.5c-0.1,0.7-0.1,1.2-0.1,1.5c0.1,0.5,0.2,0.8,0.6,1
		c0.3,0.2,0.8,0.3,1.3,0.3l0.5-0.1l1.5-0.2l-0.6,5.2l-14.2,1.6l0.6-5.2l0.9-0.1c1-0.1,1.7-0.3,2.1-0.5c0.4-0.2,0.7-0.5,0.9-0.9
		c0.2-0.4,0.4-1.1,0.5-2.1l2.3-20.8c0.1-0.7,0.1-1.2,0.1-1.4c0-0.4-0.2-0.7-0.5-1c-0.3-0.3-0.8-0.4-1.5-0.3l-1.9,0.2L342.7,486.5z"
		/>
	<path class="st0" d="M397.9,477.8l8-1.8l10.8,26.8c0.4,1.1,0.8,1.8,1,2c0.2,0.2,0.5,0.4,0.9,0.5c0.4,0.1,1,0,2.1-0.2l-0.1,5.2
		l-16.4,3.6l0.1-5.2l1.4-0.3c1-0.2,1.7-0.5,2-0.8c0.5-0.5,0.7-1.1,0.6-1.8c-0.1-0.3-0.3-1-0.7-2.1l-1-2.8l-11.1,2.5l-1.4,4.6
		c-0.3,1-0.4,1.6-0.3,1.9c0.1,0.4,0.3,0.6,0.8,0.7c0.2,0.1,0.9,0,1.8-0.2l1.4-0.3l0,5.2l-14.7,3.2l0.1-5.2c0.9-0.2,1.5-0.4,1.9-0.7
		c0.4-0.3,0.8-0.6,1-1c0.3-0.4,0.6-1.3,1.1-2.7L397.9,477.8z M404.8,496.4l-3.9-10.6l-3.7,12.2L404.8,496.4z"/>
	<path class="st0" d="M418.2,472.6l13.5-4.5l13.7,19.6l-1.3-15.4c-0.1-0.7-0.1-1.1-0.2-1.4c-0.2-0.5-0.5-0.8-0.9-0.9
		c-0.3-0.1-1,0-2,0.4l-1.4,0.5l-0.5-5.2l14.2-4.7l0.5,5.2l-1.4,0.5c-0.8,0.3-1.4,0.6-1.7,0.9c-0.3,0.3-0.6,0.7-0.7,1.2
		c-0.1,0.3-0.1,1.2,0.1,2.4l2.8,28.5l-7.1,2.4l-16.5-23.2l2,19.4c0.1,1,0.2,1.6,0.2,1.8c0.2,0.5,0.5,0.8,1.1,0.9
		c0.3,0,0.9-0.1,1.8-0.4l1.4-0.5l0.5,5.2l-14.3,4.8l-0.5-5.2l1-0.3c1.3-0.4,2.2-0.9,2.6-1.4c0.4-0.5,0.5-1.3,0.4-2.4l-2.2-21.4
		c-0.1-0.6-0.1-1.1-0.2-1.4c-0.2-0.5-0.5-0.8-0.9-0.9c-0.3-0.1-0.9,0-1.8,0.3l-1.6,0.5L418.2,472.6z"/>
	<path class="st0" d="M478.6,447.9l7,11.9l-4.7,2.9c-1.7-2.8-3.5-4.5-5.5-5.3c-2-0.8-4-0.7-6,0.2c-1.8,0.8-3.2,2.2-4.4,4.1
		c-1.1,1.9-1.7,4.2-1.7,6.9c0,3,0.5,5.8,1.7,8.2c0.9,2,2.1,3.5,3.5,4.7c1.4,1.2,2.9,1.9,4.4,2.1c1.5,0.2,3,0,4.4-0.7
		c1.1-0.5,2.1-1.2,3.1-2.1c0.9-0.9,1.8-2,2.5-3.3c0.7-1.3,1.5-3.2,2.3-5.7l4.8,1.4c-0.7,3.5-2.1,6.9-4.4,10
		c-1.9,2.6-4.4,4.7-7.5,6.1c-4.3,2-8.6,2.2-12.7,0.7c-4.3-1.6-7.5-4.6-9.5-9c-1.6-3.3-2.2-6.8-1.8-10.5c0.3-3.7,1.5-7.1,3.6-10.2
		c2.1-3.1,4.7-5.4,8-6.9c1.8-0.8,3.6-1.4,5.5-1.6c1.3-0.2,2.6-0.1,3.9,0.1l0.2-2.3L478.6,447.9z"/>
	<path class="st0" d="M482.3,450.8l-1.8-4.9l24.7-15.7l8.9,7.4l-3.2,4c-1-0.8-1.9-1.4-2.8-1.8c-1.2-0.5-2.3-0.7-3.4-0.7
		c-1.1,0-2.2,0.3-3.4,0.7c-0.8,0.3-1.9,0.9-3.2,1.7l-4.3,2.8l3.2,9.1l0.9-0.6c1.1-0.7,1.9-1.3,2.4-1.9c0.5-0.5,0.8-1.1,0.9-1.6
		c0.1-0.6,0.1-1.3-0.2-2.2c-0.1-0.4-0.3-1.1-0.8-2.2l4.1-2.6l5.4,15l-4.1,2.6c-0.5-1.4-0.9-2.3-1.1-2.7c-0.5-0.7-1.1-1.1-1.8-1.1
		c-0.6,0-1.5,0.4-2.8,1.2l-1.2,0.8l2.8,7.9l0.4,1c0.1,0.3,0.2,0.6,0.3,0.8c0.2,0.3,0.5,0.4,0.8,0.3c0.1,0,0.6-0.3,1.5-0.9l2.5-1.6
		c2.2-1.4,3.8-2.7,4.8-4c1.4-1.7,2.3-3.5,2.8-5.6c0.5-2.1,0.5-4.3,0.1-6.5l5-0.8l1.7,14.6l-28.3,18l-1.7-4.9l1.1-0.7
		c1.1-0.7,1.8-1.4,1.9-2c0.2-0.6,0-1.7-0.5-3.1l-6.8-19c-0.3-0.8-0.5-1.4-0.7-1.7c-0.2-0.3-0.4-0.5-0.6-0.6
		c-0.3-0.1-0.5-0.1-0.8-0.1c-0.3,0.1-0.7,0.3-1.3,0.7L482.3,450.8z"/>
	<path class="st0" d="M548,376.9c3.3,0,6.4,0.8,9.3,2.5c2.9,1.7,5.2,3.9,6.8,6.8c1.7,2.9,2.5,6,2.5,9.3c0,3.3-0.8,6.4-2.5,9.3
		c-1.7,2.9-3.9,5.1-6.8,6.8c-2.9,1.7-6,2.5-9.3,2.5c-3.3,0-6.4-0.8-9.3-2.5c-2.9-1.7-5.1-3.9-6.8-6.8c-1.7-2.9-2.5-6-2.5-9.3
		c0-3.3,0.8-6.4,2.5-9.3c1.7-2.9,3.9-5.2,6.8-6.8C541.6,377.7,544.7,376.9,548,376.9 M548,379.2c-2.9,0-5.6,0.7-8.1,2.2
		c-2.5,1.5-4.5,3.4-6,6c-1.5,2.5-2.2,5.2-2.2,8.1c0,2.9,0.7,5.6,2.2,8.1c1.5,2.5,3.4,4.5,6,6c2.5,1.5,5.2,2.2,8.1,2.2
		c2.9,0,5.6-0.7,8.1-2.2c2.5-1.5,4.5-3.4,6-6c1.5-2.5,2.2-5.2,2.2-8.1c0-2.9-0.7-5.6-2.2-8.1c-1.5-2.5-3.4-4.5-6-6
		C553.6,379.9,550.9,379.2,548,379.2 M538,384.7h9.5c2.6,0,4.5,0.2,5.6,0.6c1.1,0.4,2,1.1,2.7,2c0.7,0.9,1,2,1,3.1
		c0,1.4-0.5,2.6-1.4,3.7c-0.8,0.8-1.8,1.4-3.3,1.8l3.6,6.6c0.5,0.9,1,1.6,1.5,2c0.3,0.3,0.7,0.5,1.3,0.6v0.9h-6.4l-5.4-9.7h-1.2v5.2
		c0,1.2,0.1,1.9,0.2,2.3c0.2,0.4,0.4,0.7,0.8,0.9c0.4,0.2,1.1,0.3,2.1,0.4v0.9h-11.1v-0.9c1,0,1.6-0.2,2-0.4
		c0.5-0.5,0.8-1.5,0.8-3.1v-12.4c0-1.4-0.2-2.3-0.5-2.7c-0.3-0.4-0.9-0.7-1.9-0.8V384.7z M545.5,394.9c0.6,0.1,1.1,0.1,1.5,0.1
		c1.2,0,2.2-0.4,3-1.3c0.8-0.9,1.2-2,1.2-3.4c0-1.5-0.4-2.6-1.2-3.4c-0.8-0.8-1.9-1.2-3.5-1.2h-1V394.9z"/>
</g>
</svg>
