<?xml version="1.0" encoding="UTF-8" standalone="no"?>
<!-- Created with Inkscape (http://www.inkscape.org/) -->

<svg
   width="52.122913mm"
   height="53.990974mm"
   viewBox="0 0 52.122913 53.990974"
   version="1.1"
   id="svg1"
   xml:space="preserve"
   xmlns="http://www.w3.org/2000/svg"
   xmlns:svg="http://www.w3.org/2000/svg"><defs
     id="defs1" /><g
     id="layer1"
     transform="translate(-72.775383,-138.54247)"><g
       id="g2"><path
         style="fill:#000000"
         d="m 73.323757,191.83623 -0.54837,-0.69714 v -25.48186 -25.48185 l 0.638498,-0.74236 0.638497,-0.74236 24.16619,-0.0741 24.166188,-0.0741 0.61787,0.15098 0.61786,0.15098 0.63891,0.6894 0.6389,0.68939 v 25.45798 25.45797 l -0.54837,0.69714 -0.54837,0.69714 H 98.836845 73.872127 Z m 49.657673,-26.09192 0.0675,-24.80469 h -0.21982 -0.21982 l -0.55379,0.59531 -0.55379,0.59531 -2.52455,8.86355 -2.52455,8.86354 -3.02725,10.45104 -3.02724,10.45104 -0.1728,0.42718 -0.17279,0.42719 -0.65936,0.30042 -0.65935,0.30042 H 91.680646 74.62747 v 4.05694 4.05695 l 0.177781,0.17778 0.17778,0.17778 23.965449,-0.0675 23.96545,-0.0675 z m -13.1671,10.05416 1.40345,-4.56406 4.18203,-14.77804 4.18203,-14.77804 0.41537,-0.63394 0.41538,-0.63394 H 97.705236 74.997887 l -0.3175,0.3175 -0.3175,0.3175 v 19.65854 19.65855 h 17.023999 17.024004 z m -24.721681,3.175 -0.355737,-0.85989 -0.418364,-1.00979 -0.418364,-1.00978 0.567665,0.0837 0.567666,0.0837 0.441249,1.32292 0.441249,1.32292 0.461409,-1.38906 0.461409,-1.38907 h 0.504042 0.504042 l -0.557833,1.38907 -0.557834,1.38906 -0.130623,0.46302 -0.130622,0.46302 h -0.511809 -0.511809 z m 5.938988,-0.7276 v -1.5875 H 90.370179 89.70872 v -0.26458 -0.26459 h 1.719792 1.719792 v 0.26459 0.26458 h -0.661459 -0.661458 v 1.5875 1.5875 h -0.396875 -0.396875 z m 3.573939,1.27633 -0.128628,-0.35029 -0.51778,-1.52135 -0.517779,-1.52136 h 0.511106 0.511106 l 0.321037,1.25677 0.321037,1.25677 0.35961,-1.25677 0.35961,-1.25677 h 0.482377 0.482378 l 0.333004,1.25677 0.333003,1.25677 0.306071,-1.18938 0.306071,-1.18938 0.450669,-0.0868 0.450669,-0.0868 v 0.23261 0.23261 l -0.553456,1.63888 -0.553457,1.63887 H 97.357347 96.85247 l -0.0015,-0.33073 -0.0015,-0.33073 -0.304585,-1.05833 -0.304585,-1.05834 -0.290399,1.31952 -0.290399,1.31951 -0.462674,0.0891 -0.462674,0.0891 z m 4.892728,-1.54091 v -1.85209 h 0.529166 0.52917 v 1.85209 1.85208 h -0.52917 -0.529166 z m 1.852086,0 v -1.85209 h 0.51645 0.51646 l 0.87261,1.25677 0.8726,1.25677 0.0806,-1.25677 0.0807,-1.25677 h 0.38238 0.38237 v 1.85209 1.85208 h -0.50843 -0.50843 l -0.74834,-1.18096 -0.74834,-1.18097 -0.19844,-0.01 -0.19843,-0.01 v 1.19062 1.19063 h -0.39688 -0.39687 z m -13.758336,0.39687 v -0.39687 h 0.926041 0.926042 v 0.39687 0.39688 h -0.926042 -0.926041 z m 3.96875,-3.34996 -1.984375,-0.52368 -0.582172,-0.54435 -0.582171,-0.54435 -0.806891,-1.57654 -0.806891,-1.57654 v -0.3432 -0.3432 l -0.595313,-0.15954 -0.595312,-0.15954 -0.595313,-0.004 -0.595312,-0.004 v -0.80689 -0.80689 l 0.369832,-0.71447 0.369832,-0.71446 0.953085,-1.41565 0.953084,-1.41565 0.0016,-0.83331 0.0016,-0.83331 0.400352,-0.76769 0.400351,-0.76769 -0.155228,-0.48908 -0.155228,-0.48908 h -0.489757 -0.489758 l -0.602925,-0.99219 -0.602926,-0.99219 -0.27855,-0.19438 -0.278549,-0.19439 0.217336,-0.004 0.217336,-0.004 -0.349628,-0.38769 -0.349628,-0.3877 -0.314824,-0.37786 -0.314825,-0.37786 0.182533,-0.20291 0.182533,-0.2029 -0.350316,0.20243 -0.350315,0.20243 -0.616909,-0.57956 -0.616909,-0.57955 -0.536735,0.28725 -0.536736,0.28725 h -0.391575 -0.391574 l -0.816445,-1.32689 -0.816444,-1.32689 v -0.3605 -0.36051 l 0.408237,-0.3388 0.408237,-0.33881 -0.814654,-0.84051 -0.814655,-0.84051 -0.150919,-0.93001 -0.15092,-0.93001 0.888066,-0.84773 0.888066,-0.84773 1.719792,-1.00766 1.719791,-1.00766 1.852084,-0.73831 1.852083,-0.73831 1.852083,0.0114 1.852084,0.0114 0.529166,0.0523 0.529167,0.0523 4.422151,-0.14137 4.422147,-0.14136 1.90394,0.52761 1.90393,0.52761 2.16456,1.03309 2.16455,1.0331 0.96821,1.0717 0.96822,1.0717 v 0.78378 0.78378 l -0.83191,0.94749 -0.8319,0.94749 0.34745,0.64922 0.34745,0.64922 -0.35013,0.65422 -0.35013,0.65422 -0.7149,0.85633 -0.71489,0.85633 -0.70893,-0.46451 -0.70893,-0.46451 -0.76966,0.6076 -0.76966,0.60761 -0.0146,0.28084 -0.0146,0.28084 -0.53947,0.57905 -0.53947,0.57906 h 0.18123 0.18123 l -0.68376,0.63369 -0.68376,0.63369 0.16006,0.16006 0.16005,0.16006 h -0.32429 -0.3243 l 0.1476,0.23881 0.14759,0.23881 -0.82502,0.2876 -0.82501,0.2876 0.18571,0.59807 0.18572,0.59807 0.22277,1.23129 0.22276,1.23128 0.40542,0.784 0.40542,0.784 0.9784,1.28176 0.97839,1.28177 0.0252,0.92274 0.0252,0.92274 -1.06207,0.21521 -1.06207,0.21521 -0.71713,1.51812 -0.71713,1.51813 -0.866632,0.95975 -0.866633,0.95976 -2.134684,0.5616 -2.134685,0.5616 -0.511149,-0.0241 -0.511148,-0.0241 z m 3.540536,-18.59656 0.04055,-1.20452 -0.269187,-0.004 -0.269186,-0.004 0.396875,-0.25648 0.396875,-0.25648 -0.396875,-0.008 -0.396875,-0.008 0.396875,-0.25648 0.396875,-0.25648 -0.296263,-0.004 -0.296264,-0.004 0.03168,-0.59532 0.03168,-0.59531 0.264584,-0.19438 0.264583,-0.19439 -0.315537,-0.004 -0.315538,-0.004 0.101908,-0.52917 0.101909,-0.52917 h -1.024673 -1.024672 l 0.227645,0.79375 0.227644,0.79375 -0.31226,0.004 -0.312259,0.004 0.396875,0.25648 0.396875,0.25648 -0.274033,0.004 -0.274033,0.004 v 0.52917 0.52916 h 0.162226 0.162225 l -0.05068,1.16704 -0.05068,1.16703 0.162486,0.2615 0.162486,0.2615 0.661458,0.10336 0.661458,0.10335 0.09635,-0.0628 0.09635,-0.0628 z m -2.420738,-11.4466 0.500007,-0.4525 0.182285,0.28204 0.182285,0.28204 0.956368,0.17573 0.956369,0.17573 0.541994,-0.46829 0.541995,-0.4683 0.179005,-0.61387 0.179005,-0.61388 -0.552889,-0.14459 -0.552889,-0.14458 v -0.21047 -0.21047 l -1.040543,-0.1758 -1.040543,-0.17579 -1.208415,0.53454 -1.208416,0.53453 v 0.75572 0.75571 l 0.3175,0.3175 0.3175,0.3175 h 0.124688 0.124687 z m 10.468948,28.18083 0.3175,-0.3175 -0.008,-0.4101 -0.008,-0.41011 -0.2728,0.46859 -0.2728,0.46858 -0.24832,-0.15347 -0.24832,-0.15347 v -0.26458 -0.26459 l 0.2463,0.15223 0.2463,0.15222 0.16619,-0.2689 0.16619,-0.2689 h -0.44947 -0.44946 l -0.3745,0.46302 -0.37449,0.46302 0.28849,-0.59531 0.28849,-0.59531 h 0.48746 0.48746 l 0.31884,0.38417 0.31884,0.38418 -0.17198,0.54187 -0.17199,0.54186 h -0.29967 -0.29967 z"
         id="path1" /><path
         id="path2"
         style="opacity:1;fill:#f4793e;fill-opacity:1;fill-rule:evenodd;stroke-width:2.01385;stroke-linejoin:bevel"
         d="m 121.92951,141.27045 c -0.58151,0.64402 -0.85793,1.48967 -1.15536,2.28855 -0.61528,1.80224 -1.07946,3.65096 -1.61454,5.4776 -2.87659,10.05551 -5.76342,20.11233 -8.67075,30.16114 -0.19625,0.63302 -0.35245,1.28035 -0.57495,1.90409 -0.15004,0.23816 -0.47819,0.25062 -0.72595,0.3167 -0.9733,0.16489 -1.98113,0.18274 -2.94818,0.2186 -3.53596,0.0863 -7.073443,0.063 -10.610165,0.07 -7.001227,0.001 -14.002454,3.3e-4 -21.00368,6e-4 -0.17639,0.17639 -0.352777,0.35278 -0.529167,0.52917 0.01398,2.2117 -0.03885,4.42488 0.05564,6.6353 0.04062,0.57442 0.02894,1.1634 0.185685,1.72129 0.06177,0.18836 0.269528,0.26455 0.421132,0.36396 0.795634,0.0766 1.598681,0.0535 2.397604,0.0724 6.672895,0.0534 13.346131,0.0289 20.019129,0.009 7.356362,-0.0311 14.712952,-0.061 22.068702,-0.16552 1.10566,-0.0249 2.21384,-0.0169 3.3171,-0.0959 0.18041,-0.0296 0.25648,-0.24307 0.39093,-0.35325 0.18893,-0.14712 0.0905,-0.41158 0.126,-0.61803 0.1028,-5.16772 0.13905,-10.33656 0.19812,-15.50492 0.10567,-11.13414 0.19412,-22.26843 0.29032,-33.40265 -0.30248,-0.12488 -0.60496,-0.24977 -0.90744,-0.37465 -0.24339,0.24873 -0.48679,0.49747 -0.73018,0.74621 z" /></g></g></svg>
